
<svg width="43px" height="52px" viewBox="-1 -1 43 52" version="1.1" xmlns="http://www.w3.org/2000/svg" xmlns:xlink="http://www.w3.org/1999/xlink">
    <!-- Generator: Sketch 42 (36781) - http://www.bohemiancoding.com/sketch -->
    <desc>Created with Sketch.</desc>
    <defs></defs>
    <polygon id="Stroke-1" stroke="#FFFFFF" stroke-width="1" stroke-linejoin="round" fill="none" points="20.5111159 4.66220736 22.7683291 9.23299889 28.4397192 9.23299889 23.9026072 13.8037904 26.1711632 19.5172798 20.4997731 16.5165552 14.8283831 19.5172798 17.0969391 13.8037904 12.5598271 9.23299889 18.2312171 9.23299889"></polygon>
    <polygon id="Stroke-2" stroke="#FFFFFF" stroke-width="1" stroke-linejoin="round" fill="none" points="34.111336 20.6599777 20.5 25.2307692 6.88866397 20.6599777 4.62010796 0.0914158305 36.379892 0.0914158305"></polygon>
    <polygon id="Stroke-4" stroke="#FFFFFF" stroke-width="1" stroke-linejoin="round" fill="none" points="4.62010796 50.3701226 36.379892 50.3701226 36.379892 38.9431438 4.62010796 38.9431438"></polygon>
    <polyline id="Stroke-6" stroke="#FFFFFF" stroke-width="1" stroke-linejoin="round" fill="none" points="5.12418111 4.66220736 0.0834496626 4.66220736 0.0834496626 13.8037904 6.54202861 17.5221293"></polyline>
    <polyline id="Stroke-7" stroke="#FFFFFF" stroke-width="1" stroke-linejoin="round" fill="none" points="35.8758189 4.66220736 40.9165503 4.66220736 40.9165503 13.8037904 34.4579714 17.5221293"></polyline>
    <path d="M4.62010796,45.7993311 L36.379892,45.7993311" id="Stroke-9" stroke="#FFFFFF" stroke-width="1" stroke-linejoin="round" fill="none"></path>
    <polygon id="Stroke-10" stroke="#FFFFFF" stroke-width="1" stroke-linejoin="round" fill="none" points="22.8205059 24.4519064 20.4997731 25.2312263 18.1813089 24.4519064 17.0969391 32.0874136 8.02271511 38.9436009 32.9768312 38.9436009 23.9026072 32.0874136"></polygon>
</svg>
