
<svg width="53px" height="53px" viewBox="-1 -1 53 53" version="1.1" xmlns="http://www.w3.org/2000/svg" xmlns:xlink="http://www.w3.org/1999/xlink">
    <!-- Generator: Sketch 42 (36781) - http://www.bohemiancoding.com/sketch -->
    <desc>Created with Sketch.</desc>
    <defs></defs>
    <path d="M18.5647549,25.6805475 L18.5647549,50.8092525" id="Stroke-1" stroke="#FFFFFF" stroke-width="1" stroke-linecap="round" stroke-linejoin="round" fill="none"></path>
    <path d="M16.2530065,14.6636795 L0.0707678076,19.7217849" id="Stroke-3" stroke="#FFFFFF" stroke-width="1" stroke-linecap="round" stroke-linejoin="round" fill="none"></path>
    <polyline id="Stroke-5" stroke="#FFFFFF" stroke-width="1" stroke-linecap="round" stroke-linejoin="round" fill="none" points="21.2523935 24.6601418 18.5638302 25.4993065 0.0698431082 19.7199355 0.0698431082 45.1491677 18.5638302 50.9285387 37.0578172 45.1491677"></polyline>
    <polygon id="Stroke-8" stroke="#FFFFFF" stroke-width="1" stroke-linecap="round" stroke-linejoin="round" fill="none" points="43.993987 19.720629 32.4352451 23.1882516 20.8765032 19.720629 20.8765032 3.53839038 32.4352451 7.00601295 43.993987 3.53839038"></polygon>
    <polyline id="Stroke-9" stroke="#FFFFFF" stroke-width="1" stroke-linecap="round" stroke-linejoin="round" fill="none" points="43.993987 3.53839038 32.4352451 0.0707678076 20.8765032 3.53839038"></polyline>
    <path d="M32.4352451,7.00601295 L32.4352451,23.1882516" id="Stroke-11" stroke="#FFFFFF" stroke-width="1" stroke-linecap="round" stroke-linejoin="round" fill="none"></path>
    <polygon id="Stroke-12" stroke="#FFFFFF" stroke-width="1" stroke-linecap="round" stroke-linejoin="round" fill="none" points="50.9292322 38.2146161 41.6822387 41.6822387 32.4352451 38.2146161 32.4352451 27.8117484 41.6822387 31.279371 50.9292322 27.8117484"></polygon>
    <polyline id="Stroke-14" stroke="#FFFFFF" stroke-width="1" stroke-linecap="round" stroke-linejoin="round" fill="none" points="50.9292322 27.8117484 41.6822387 24.3441258 32.4352451 27.8117484"></polyline>
    <path d="M41.6822387,31.279371 L41.6822387,41.6822387" id="Stroke-17" stroke="#FFFFFF" stroke-width="1" stroke-linecap="round" stroke-linejoin="round" fill="none"></path>
</svg>
