
<svg width="55px" height="55px" viewBox="-1 -1 55 55" version="1.1" xmlns="http://www.w3.org/2000/svg" xmlns:xlink="http://www.w3.org/1999/xlink">
    <!-- Generator: Sketch 42 (36781) - http://www.bohemiancoding.com/sketch -->
    <desc>Created with Sketch.</desc>
    <defs></defs>
    <polygon id="Stroke-1" stroke="#FFFFFF" stroke-width="1" stroke-linejoin="round" fill="none" points="7.02083333 50.536375 8.16666667 41.3697083 10.4583333 41.3697083 16.1875 32.2030417 18.4791667 32.2030417 18.4791667 41.3697083 41.3958333 41.3697083 37.9583333 45.9530417 19.625 50.536375"></polygon>
    <polygon id="Stroke-3" stroke="#FFFFFF" stroke-width="1" stroke-linejoin="round" fill="none" points="0.145833333 52.8280417 7.02083333 52.8280417 7.02083333 39.0780417 0.145833333 39.0780417"></polygon>
    <polyline id="Stroke-5" stroke="#FFFFFF" stroke-width="1" stroke-linecap="round" stroke-linejoin="round" fill="none" points="36.8125 2.43704167 32.2291667 5.87454167 34.5208333 9.31204167 34.5208333 13.895375 28.7916667 15.0412083 25.3541667 12.7495417 20.7708333 16.1870417 20.7708333 21.9162083 28.7916667 25.3537083 28.7916667 29.9370417 33.375 35.6662083 39.1041667 31.082875 40.25 23.0620417 37.9583333 20.770375 37.9583333 17.332875 44.8333333 11.6037083 49.4166667 11.6037083"></polyline>
    <polyline id="Stroke-6" stroke="#FFFFFF" stroke-width="1" stroke-linecap="round" stroke-linejoin="round" fill="none" points="43.6886458 36.9653542 47.1261458 35.6430625 52.8553125 20.7586875 47.1261458 5.87202083 32.2303125 0.145145833 17.3344792 5.87202083 11.6053125 20.7586875 14.2453125 27.6199375"></polyline>
</svg>
