<?xml version="1.0" encoding="UTF-8"?>
<svg width="16px" height="16px" viewBox="0 0 16 16" version="1.1" xmlns="http://www.w3.org/2000/svg" xmlns:xlink="http://www.w3.org/1999/xlink">
    <!-- Generator: Sketch 42 (36781) - http://www.bohemiancoding.com/sketch -->
    <title>Shape</title>
    <desc>Created with Sketch.</desc>
    <defs>
        <linearGradient x1="100%" y1="100%" x2="0%" y2="0%" id="linearGradient-1">
            <stop stop-color="#06A2FF" offset="0%"></stop>
            <stop stop-color="#1AE5DC" offset="100%"></stop>
        </linearGradient>
    </defs>
    <g id="V2" stroke="none" stroke-width="1" fill="none" fill-rule="evenodd">
        <g id="2" transform="translate(-501.000000, -301.000000)" fill="url(#linearGradient-1)">
            <g id="Group-4" transform="translate(474.000000, 137.000000)">
                <g id="Text" transform="translate(25.000000, 41.000000)">
                    <g id="Group-8" transform="translate(2.000000, 121.000000)">
                        <path d="M7.09602085,17.4160207 L1.02602085,11.3460207 C0.456020848,10.7760207 0.0280208482,9.75602071 0.0240208482,8.94602071 L2.08482106e-05,3.99302071 C-0.00497915179,2.89602071 0.890020848,1.99502071 1.99202085,2.00002071 L6.94802085,2.02402071 C7.75302085,2.02802071 8.77502085,2.45202071 9.34802085,3.02402071 L15.4180208,9.09402071 C16.1900208,9.86702071 16.1980208,11.1340207 15.4210208,11.9090207 L9.91102085,17.4190207 C9.13402085,18.1950207 7.87302085,18.1930207 7.09602085,17.4160207 Z M5.00002085,9.00002071 C6.10502085,9.00002071 7.00002085,8.10502071 7.00002085,7.00002071 C7.00002085,5.89502071 6.10502085,5.00002071 5.00002085,5.00002071 C3.89502085,5.00002071 3.00002085,5.89502071 3.00002085,7.00002071 C3.00002085,8.10502071 3.89502085,9.00002071 5.00002085,9.00002071 Z" id="Shape" transform="translate(8.000202, 9.999949) scale(-1, 1) translate(-8.000202, -9.999949) "></path>
                    </g>
                </g>
            </g>
        </g>
    </g>
</svg>