<svg width="45" height="27" viewBox="0 0 45 27" fill="none" xmlns="http://www.w3.org/2000/svg">
<rect y="0.944824" width="45" height="26" rx="13" fill="url(#paint0_linear_303_259)"/>
<path fill-rule="evenodd" clip-rule="evenodd" d="M10.8042 13.7077C10.3718 14.104 10.3718 14.7856 10.8042 15.182L14.3243 18.4087C14.9657 18.9967 16 18.5417 16 17.6716L16 11.2181C16 10.348 14.9657 9.89295 14.3243 10.4809L10.8042 13.7077Z" fill="white"/>
<path fill-rule="evenodd" clip-rule="evenodd" d="M35.1958 13.7077C35.6282 14.104 35.6282 14.7856 35.1958 15.182L31.6757 18.4087C31.0343 18.9967 30 18.5417 30 17.6716L30 11.2181C30 10.348 31.0343 9.89295 31.6757 10.4809L35.1958 13.7077Z" fill="white"/>
<defs>
<linearGradient id="paint0_linear_303_259" x1="-42.7836" y1="9.0183" x2="-14.0756" y2="55.9893" gradientUnits="userSpaceOnUse">
<stop stop-color="#13CFE7"/>
<stop offset="1" stop-color="#07A5FE"/>
<stop offset="1" stop-color="#06A2FF"/>
<stop offset="1" stop-color="#07A5FE"/>
</linearGradient>
</defs>
</svg>
