<svg xmlns="http://www.w3.org/2000/svg" xmlns:xlink="http://www.w3.org/1999/xlink" viewBox="0 0 254.24 238.78"><defs><style>.cls-1{fill:#b6b9bc;}.cls-2{fill:#fff;}.cls-3,.cls-6{fill:#171d26;}.cls-4{fill:url(#linear-gradient);}.cls-5{fill:#17a9f9;}.cls-6{opacity:0.15;isolation:isolate;}.cls-7{fill:url(#linear-gradient-2);}.cls-8{fill:#c6c6c6;}</style><linearGradient id="linear-gradient" x1="122.63" y1="68.42" x2="125.63" y2="36.98" gradientUnits="userSpaceOnUse"><stop offset="0" stop-color="#17a9f9"/><stop offset="1" stop-color="#26d8e2"/></linearGradient><linearGradient id="linear-gradient-2" x1="125.54" y1="40.07" x2="127.94" y2="1.21" xlink:href="#linear-gradient"/></defs><title>grunty-3-fullColor-onLight</title><g id="Layer_2" data-name="Layer 2"><g id="Artwork"><path class="cls-1" d="M155.09,238.78a15.87,15.87,0,0,1-15.39-12l-3.82-15a41.53,41.53,0,0,1-21.83,0l-3.82,15a15.88,15.88,0,0,1-31.08-1.46l-2.32-14.8L73.47,213l-.7-2.9a123.2,123.2,0,0,1-3.09-23.43L67,190.38,66,186a191.12,191.12,0,0,1-2.82-62.46A68.79,68.79,0,0,0,52,139.25l-2.15,4.37-1.16-3.47a95.68,95.68,0,0,0-6.39,27l-.15,2.92-4.1-1.83A52.65,52.65,0,0,1,36,187.73c-2.2,6.7-9,11.2-17,11.2a20,20,0,0,1-15.85-7.81c-6.93-8.89-.84-21.65,3.42-28.47l-2.74.78,1.54-3.8c2.82-7,8.29-19.73,11-26.12l-4.81,1.37,2.4-4.25c11-19.36,20.78-29,25.74-33.1l-3.29-1,2.49-2.38A66.7,66.7,0,0,1,67.67,78.43c1.17-3.53,2.1-5.62,2.14-5.71C73,65.19,78.67,57.89,82.16,53.78H77.81l3.41-3.41a48.22,48.22,0,0,1,6.34-5.3,8.67,8.67,0,0,1-1.43-5.42l.17-2.26a5,5,0,0,1,4-4.53C95.57,13.41,107.39,6.52,117,4.26A6.17,6.17,0,0,1,122.84,0l.45,0,9.7.71A6.16,6.16,0,0,1,138.61,6c16.23,6.77,20.81,22.16,22,32a4.87,4.87,0,0,1,2.24,1.49,5,5,0,0,1,1.2,3.63l-.17,2.26c0,.24,0,.48-.09.73a48.66,48.66,0,0,1,4.89,4.24l3.41,3.41h-4.36a87.89,87.89,0,0,1,10.89,15.81A62.52,62.52,0,0,1,197.09,77L200,78.83l-3,1.66c5.72,2.92,17.38,10.25,32.23,26.82l3.25,3.64-5-.32c4.06,5.66,12.13,16.94,16.38,23.15l2.32,3.39-2.84-.18c5.62,5.75,14.3,16.91,9.43,27.08a20,20,0,0,1-18.12,11.49h0c-6.3,0-11.78-2.9-14.65-7.77a52.72,52.72,0,0,1-6.26-18.57l-3.62,2.67-.77-2.82a96,96,0,0,0-12-25l-.52,4.81-3.07-5.21a47.54,47.54,0,0,0-6.11-7.83c.14,1.08.29,2.18.44,3.3,0,.3,3.79,30-4.19,66.93l-.94,4.34-2.73-3.72a122.3,122.3,0,0,1-3.09,23.42l-.69,2.9-3.36-2.42-2.33,14.8A15.8,15.8,0,0,1,155.09,238.78Z"/><path class="cls-2" d="M186.13,119.45S190,148.7,182,185.7l-3.67-5a121.79,121.79,0,0,1-3.08,29l-3.59-2.59-2.82,18a13.89,13.89,0,0,1-13.72,11.73h0a13.86,13.86,0,0,1-13.45-10.46l-4.34-17a39,39,0,0,1-24.67,0l-4.33,17a13.88,13.88,0,0,1-13.46,10.46h0a13.89,13.89,0,0,1-13.71-11.73l-2.83-18-3.58,2.59a121.51,121.51,0,0,1-3.09-29l-3.66,5c-8-37-2-67-2-67-4.17-23.17,5.66-45.09,5.66-45.09,4.67-11,15-21.75,15-21.75h-4c8.49-8.48,19.88-12.75,28.7-14.88a57.93,57.93,0,0,1,27.27,0c8.83,2.13,20.22,6.4,28.7,14.88h-4s10.33,10.75,15,21.75C178.3,73.61,181.78,86.58,186.13,119.45Z"/><circle class="cls-3" cx="98.3" cy="79.7" r="4"/><circle class="cls-3" cx="151.63" cy="79.7" r="4"/><path class="cls-3" d="M126.09,106A56.27,56.27,0,0,1,93.48,95.49a2,2,0,1,1,2.31-3.26,52.1,52.1,0,0,0,59.13,1l1.61-1.06a2,2,0,0,1,2.2,3.34l-1.61,1.06A56.33,56.33,0,0,1,126.09,106Z"/><path class="cls-2" d="M69.13,116.36C57.8,123,50.24,138.45,50.24,138.45L49,134.59a98.26,98.26,0,0,0-8.61,32.56l-4.6-2.06s1.85,11.33-1.69,22.1S13.54,201.27,4.72,190s6.67-30.71,6.67-30.71l-4.18,1.2c3.9-9.62,12.7-30,12.7-30l-4.17,1.2c15.33-27.1,28.41-34.87,28.41-34.87L40.31,95.7C57.79,79,80.94,78.27,80.94,78.27"/><path class="cls-2" d="M179.37,107.25c9.73,4.53,16.14,15.46,16.14,15.46l.43-4a98.35,98.35,0,0,1,15.39,30l4-3s.61,11.46,6.38,21.22,23.05,9.37,29.25-3.57-13.09-28.56-13.09-28.56l4.33.27c-5.86-8.56-18.82-26.54-18.82-26.54l4.34.27c-20.78-23.18-35.22-28-35.22-28l3.5-1.93c-20.65-12.59-43.42-8.32-43.42-8.32"/><path class="cls-4" d="M158.9,40.18l0,0c0,.46,0,.92,0,1.37-7.11,9.84-18.59,11.48-34.85,11.48-14.07,0-29.62-9.89-32.79-16.4.13-.53.26-1.06.4-1.58h0c-1.22-.06-3.41.35-3.41,2.67s-.69,5.06,1,6.7c1.25,1.24,5.87,8.61,8.47,11.48a32.33,32.33,0,0,0,20.5,10.38c5.19.55,10,.82,13.25.82a30.38,30.38,0,0,0,21.32-9.43s6-6.54,7.93-8.2c1.09-1,1.5-4,1.5-4.51V43.34A2.86,2.86,0,0,0,158.9,40.18Z"/><path class="cls-5" d="M158.87,40.2c-.61-15.07-11.24-33.52-31.33-34.91-20.23-.73-31.19,12.32-35.88,29.78-.14.52-.27,1-.4,1.58,3.17,6.51,18.72,16.4,32.79,16.4,16.26,0,27.74-1.64,34.85-11.48C158.9,41.12,158.89,40.66,158.87,40.2Z"/><path class="cls-6" d="M124.87,58.51a15.3,15.3,0,0,1-15.21-13.66,14.75,14.75,0,0,0-.09,1.64,15.31,15.31,0,0,0,30.61,0,14.75,14.75,0,0,0-.09-1.64A15.31,15.31,0,0,1,124.87,58.51Z"/><path class="cls-7" d="M135.07,31.8l1.62-24.43a4.33,4.33,0,0,0-4-4.58l-9.49-.62a4.3,4.3,0,0,0-4.57,4L117,30.06a15.28,15.28,0,0,1,18,1.74Z"/><circle class="cls-2" cx="124.87" cy="43.21" r="15.3"/><path class="cls-8" d="M118.57,49.51A8.82,8.82,0,0,1,131,37Z"/></g></g></svg>