<svg xmlns="http://www.w3.org/2000/svg" xmlns:xlink="http://www.w3.org/1999/xlink" viewBox="0 0 297.85 237.78"><defs><style>.cls-1{fill:#b6b9bc;}.cls-2{fill:#fff;}.cls-3,.cls-6{fill:#171d26;}.cls-4{fill:url(#linear-gradient);}.cls-5{fill:#17a9f9;}.cls-6{opacity:0.15;isolation:isolate;}.cls-7{fill:url(#linear-gradient-2);}.cls-8{fill:#c6c6c6;}</style><linearGradient id="linear-gradient" x1="146.13" y1="68.48" x2="149.13" y2="37.04" gradientUnits="userSpaceOnUse"><stop offset="0" stop-color="#17a9f9"/><stop offset="1" stop-color="#26d8e2"/></linearGradient><linearGradient id="linear-gradient-2" x1="149.04" y1="40.12" x2="151.44" y2="1.26" xlink:href="#linear-gradient"/></defs><title>grunty-hs-6-fullColor-onLight</title><g id="Layer_2" data-name="Layer 2"><g id="Artwork"><path class="cls-1" d="M179.38,237.78a15.87,15.87,0,0,1-15.39-12l-3.82-15a41.53,41.53,0,0,1-21.83,0l-3.81,15a15.89,15.89,0,0,1-31.09-1.46l-2.32-14.8L97.76,212l-.7-2.9A122.16,122.16,0,0,1,94,185.66l-2.74,3.72L90.3,185a189.87,189.87,0,0,1-2.9-61.89c-1.65-.18-3.27-.43-4.85-.74l-3.39-.66,2.25-2.6c-6.45-.75-19.87-3.58-39.54-14l-4.32-2.28,4.79-1.44c-5.77-3.9-17.25-11.67-23.41-16l-3.34-2.37,2.72-.82C11,78.83-1,71.39.06,60.16A20,20,0,0,1,19.6,41.89a15.49,15.49,0,0,1,9.9,3.39A52.91,52.91,0,0,1,41.82,60.52l2.46-3.76L46,59.14A96.59,96.59,0,0,0,66,78.43L65,74.69l4.26,2.74A58.49,58.49,0,0,0,81,82.78c0-.27,0-.55,0-.82V72.61A12.34,12.34,0,0,1,93.25,60.28h1.18a45.86,45.86,0,0,1,15.29-23.71,5,5,0,0,1,3.87-3.71c5.27-19.45,17.09-26.34,26.7-28.6A6.17,6.17,0,0,1,146.13,0l.45,0,9.7.71A6.15,6.15,0,0,1,161.9,6c8,3.37,17.73,10.76,21.22,27a45.81,45.81,0,0,1,21.8,38.87v1a73.11,73.11,0,0,1,3.43,11.88,56.53,56.53,0,0,0,20.23-7.37l4.26-2.74-1,3.74a96.5,96.5,0,0,0,20-19.29l1.69-2.38L256,60.52a52.91,52.91,0,0,1,12.32-15.24,15.47,15.47,0,0,1,9.9-3.39,20,20,0,0,1,19.54,18.27c1,11.22-11,18.67-18.25,22.11l2.72.82-3.35,2.37c-6.15,4.35-17.63,12.12-23.4,16l4.79,1.44L256,105.2c-19.67,10.37-33.09,13.2-39.54,14l2.24,2.6-3.38.66c-1.36.27-2.76.49-4.19.66a189.8,189.8,0,0,1-2.9,62l-.94,4.34-2.73-3.72a122.3,122.3,0,0,1-3.09,23.42l-.69,2.9-3.36-2.42-2.33,14.8A15.79,15.79,0,0,1,179.38,237.78Z"/><path class="cls-2" d="M90.26,117.62s-6,30,2,67l3.66-5a121.51,121.51,0,0,0,3.09,29l3.58-2.59,2.83,18a13.88,13.88,0,0,0,13.71,11.73h0a13.88,13.88,0,0,0,13.46-10.46l4.33-17a39,39,0,0,0,24.67,0l4.34,17a13.87,13.87,0,0,0,13.45,10.46h0a13.88,13.88,0,0,0,13.72-11.73l2.82-18,3.59,2.59a121.79,121.79,0,0,0,3.08-29l3.67,5c8-37,2-67,2-67,2.16-28.34-5.67-45.09-5.67-45.09-4.67-11-15-21.75-15-21.75h4C183.11,42.3,171.72,38,162.89,35.9a57.93,57.93,0,0,0-27.27,0c-8.82,2.13-20.21,6.4-28.7,14.88h4s-10.33,10.75-15,21.75C95.92,72.53,87.59,89,90.26,117.62Z"/><path class="cls-2" d="M202.31,87.13c14.19.46,27.35-8,27.35-8l-1,3.94A98.09,98.09,0,0,0,253.49,60.3l2.77,4.22S260.81,54,269.61,46.83s24.87-.77,26.19,13.51-22.2,22.24-22.2,22.24l4.16,1.25c-8.48,6-26.87,18.35-26.87,18.35l4.16,1.25c-27.54,14.52-42.74,14-42.74,14l2.61,3c-23.74,4.63-43.6-7.28-43.6-7.28"/><path class="cls-2" d="M95.53,87.13c-14.18.46-27.34-8-27.34-8l1,3.94A98.09,98.09,0,0,1,44.36,60.3l-2.77,4.22S37,54,28.24,46.83,3.37,46.06,2.05,60.34s22.2,22.24,22.2,22.24l-4.16,1.25c8.48,6,26.87,18.35,26.87,18.35l-4.16,1.25c27.54,14.52,42.74,14,42.74,14l-2.61,3c23.74,4.63,43.6-7.28,43.6-7.28"/><circle class="cls-3" cx="122.59" cy="78.62" r="4"/><circle class="cls-3" cx="175.92" cy="78.62" r="4"/><path class="cls-3" d="M150.38,104.88a56.27,56.27,0,0,1-32.61-10.47,2,2,0,1,1,2.31-3.26,52.1,52.1,0,0,0,59.13,1l1.62-1.06A2,2,0,1,1,183,94.45l-1.61,1.06A56.33,56.33,0,0,1,150.38,104.88Z"/><path class="cls-1" d="M159.34,28.28H138.51A43.66,43.66,0,0,0,96,62.28H93.25A10.34,10.34,0,0,0,82.92,72.61V82A10.33,10.33,0,0,0,93.25,92.28H96a42.46,42.46,0,0,0,41.33,33h13.6a5,5,0,0,0,0-10h-5a5,5,0,0,0-4.89,4h-3.71a36.44,36.44,0,0,1-36.4-36.4v-11a37.64,37.64,0,0,1,37.59-37.59h20.83a37.63,37.63,0,0,1,37.58,37.59v3.41a3,3,0,0,0,6,0V71.87A43.64,43.64,0,0,0,159.34,28.28Z"/><path class="cls-4" d="M182.4,40.23l0,0c0,.45,0,.91,0,1.36-7.11,9.84-18.59,11.48-34.85,11.48-14.08,0-29.62-9.89-32.8-16.4.13-.53.27-1.06.41-1.58h0c-1.23-.06-3.41.35-3.41,2.67s-.69,5.06,1,6.7c1.26,1.25,5.88,8.61,8.48,11.48a32.3,32.3,0,0,0,20.49,10.38c5.2.55,10,.82,13.26.82a30.41,30.41,0,0,0,21.32-9.42s6-6.54,7.92-8.2c1.09-1,1.5-4,1.5-4.51V43.4A2.86,2.86,0,0,0,182.4,40.23Z"/><path class="cls-5" d="M182.37,40.26C181.76,25.18,171.13,6.73,151,5.34c-20.23-.73-31.19,12.32-35.87,29.78-.14.52-.28,1.05-.41,1.58,3.18,6.51,18.72,16.4,32.8,16.4,16.26,0,27.74-1.64,34.85-11.48C182.4,41.17,182.39,40.71,182.37,40.26Z"/><path class="cls-6" d="M148.37,58.56A15.31,15.31,0,0,1,133.15,44.9c-.05.54-.08,1.09-.08,1.64a15.31,15.31,0,0,0,30.61,0,14.88,14.88,0,0,0-.09-1.64A15.31,15.31,0,0,1,148.37,58.56Z"/><path class="cls-7" d="M158.57,31.85l1.61-24.43a4.3,4.3,0,0,0-4-4.57l-9.49-.63a4.3,4.3,0,0,0-4.57,4l-1.58,23.88a15.32,15.32,0,0,1,18,1.74Z"/><circle class="cls-2" cx="148.37" cy="43.26" r="15.3"/><path class="cls-8" d="M142.07,49.56A8.81,8.81,0,0,1,154.53,37.1Z"/></g></g></svg>