<svg xmlns="http://www.w3.org/2000/svg" xmlns:xlink="http://www.w3.org/1999/xlink" viewBox="0 0 229.39 233.09"><defs><style>.cls-1{fill:#fff;}.cls-2,.cls-7{fill:#171d26;}.cls-3{fill:#e6e6e6;}.cls-4{fill:#b6b9bc;}.cls-5{fill:url(#linear-gradient);}.cls-6{fill:#17a9f9;}.cls-7{opacity:0.15;isolation:isolate;}.cls-8{fill:url(#linear-gradient-2);}.cls-9{fill:#c6c6c6;}</style><linearGradient id="linear-gradient" x1="74.28" y1="66.27" x2="77.27" y2="34.83" gradientUnits="userSpaceOnUse"><stop offset="0" stop-color="#17a9f9"/><stop offset="1" stop-color="#26d8e2"/></linearGradient><linearGradient id="linear-gradient-2" x1="77.19" y1="37.91" x2="79.59" y2="-0.95" xlink:href="#linear-gradient"/></defs><title>grunty-hs-5-fullColor-onDark</title><g id="Layer_2" data-name="Layer 2"><g id="Artwork"><path class="cls-1" d="M17.8,114.92s-6,30,2,67l3.66-5a121.51,121.51,0,0,0,3.09,29l3.58-2.58,2.83,18a13.88,13.88,0,0,0,13.71,11.73h0a13.88,13.88,0,0,0,13.45-10.46l4.34-17a39,39,0,0,0,24.67,0l4.34,17a13.88,13.88,0,0,0,13.45,10.46h0a13.89,13.89,0,0,0,13.72-11.73l2.82-18,3.59,2.58a121.79,121.79,0,0,0,3.08-29l3.67,5c8-37,2-67,2-67s-.67-30.33-5.67-45.08c-3.84-11.32-15-21.75-15-21.75h4c-8.48-8.48-19.87-12.75-28.7-14.89a58.19,58.19,0,0,0-27.27,0C54.33,35.34,43,39.61,34.46,48.09h4s-10.33,10.75-15,21.75C23.46,69.84,15.64,84.09,17.8,114.92Z"/><circle class="cls-2" cx="50.13" cy="75.92" r="4"/><circle class="cls-2" cx="103.46" cy="75.92" r="4"/><path class="cls-2" d="M77.92,102.19A56.27,56.27,0,0,1,45.31,91.72a2,2,0,1,1,2.31-3.26,52.1,52.1,0,0,0,59.13,1l1.61-1.06a2,2,0,1,1,2.2,3.34L109,92.82A56.33,56.33,0,0,1,77.92,102.19Z"/><path class="cls-1" d="M31.79,160.76c-8.61-3.19-12.35-6-12.35-6-28.87-15.23-17-37.85-17-37.85.22-.68.5-1.38.81-2.11,2.45-5.66,9.29-16.5,15.8-25.32a127.5,127.5,0,0,0,5.6,32,23.27,23.27,0,0,0,9.18,7.43c9.25,5.44,21.88,4.5,21.88,4.5L52.59,136A98.21,98.21,0,0,0,86,131.7l-.17,5s9.78-6,21.1-6.79,20.79,13.68,13.65,26.11-30.95,5.43-30.95,5.43l2.69,3.41c-10.39,0-32.54-.44-32.54-.44l2.68,3.42a139.6,139.6,0,0,1-30.66-7.12"/><path class="cls-3" d="M53.25,139a99.53,99.53,0,0,0,32.63-4.08L86,131.7A98.21,98.21,0,0,1,52.59,136l3.08-2.65s-12.63.94-21.88-4.5c-10.38-4.81-12-13.38-11.56-16.2l0,.11a18.56,18.56,0,0,0,8.7,18.59A57.55,57.55,0,0,0,53.25,139Z"/><path class="cls-3" d="M86.49,139.67s9.78-6,21.09-6.79c6.89-.48,13.09,4.69,15.28,11.62-1.17-8.33-8.12-15.1-15.94-14.55-9.43.66-17.8,4.94-20.32,6.34Z"/><path class="cls-3" d="M15.79,152.76s11.22,6.29,30.08,5.68c0,0-18.11,3.06-29.53-.67Z"/><path class="cls-3" d="M138,149.23s-9.32,8.88-27.75,13c0,0,17.07-1,27.21-7.46Z"/><path class="cls-4" d="M87.88,23.59H67.05a43.66,43.66,0,0,0-42.51,34H21.79A10.33,10.33,0,0,0,11.46,67.92v9.35A10.33,10.33,0,0,0,21.79,87.59h2.74a42.45,42.45,0,0,0,41.33,33h13.6a5,5,0,1,0,0-10h-5a5,5,0,0,0-4.9,4h-3.7a36.44,36.44,0,0,1-36.4-36.4v-11A37.63,37.63,0,0,1,67.05,29.59H87.88a37.63,37.63,0,0,1,37.58,37.59v3.41a3,3,0,1,0,6,0V67.18A43.63,43.63,0,0,0,87.88,23.59Z"/><path class="cls-1" d="M135.85,108.43c14.19.47,27.35-8,27.35-8l-1,3.94A98.09,98.09,0,0,0,187,81.61l2.76,4.22s4.56-10.54,13.36-17.69,24.87-.77,26.18,13.51-22.19,22.24-22.19,22.24l4.16,1.25c-8.48,6-26.88,18.35-26.88,18.35l4.17,1.25c-27.54,14.52-42.75,14-42.75,14l2.62,3c-23.74,4.63-43.6-7.29-43.6-7.29"/><path class="cls-5" d="M110.54,38l0,0c0,.45,0,.91,0,1.36C103.44,49.25,92,50.89,75.7,50.89c-14.08,0-29.62-9.89-32.8-16.4.13-.53.27-1.06.41-1.58h0c-1.23-.06-3.41.35-3.41,2.67s-.69,5.06,1,6.7c1.26,1.25,5.88,8.61,8.48,11.48A32.3,32.3,0,0,0,69.82,64.14c5.2.55,10,.82,13.26.82a30.39,30.39,0,0,0,21.32-9.43s6-6.53,7.92-8.19c1.09-1,1.5-4,1.5-4.51V41.19A2.86,2.86,0,0,0,110.54,38Z"/><path class="cls-6" d="M110.52,38.05C109.91,23,99.28,4.52,79.18,3.13,59,2.4,48,15.45,43.31,32.91c-.14.52-.28,1.05-.41,1.58,3.18,6.51,18.72,16.4,32.8,16.4,16.26,0,27.74-1.64,34.84-11.48C110.54,39,110.53,38.5,110.52,38.05Z"/><path class="cls-7" d="M76.52,56.35A15.31,15.31,0,0,1,61.3,42.69c0,.54-.08,1.08-.08,1.64a15.31,15.31,0,0,0,30.61,0c0-.56,0-1.1-.09-1.64A15.31,15.31,0,0,1,76.52,56.35Z"/><path class="cls-8" d="M86.72,29.64,88.33,5.21a4.3,4.3,0,0,0-4-4.57L74.84,0a4.3,4.3,0,0,0-4.57,4L68.69,27.9a15.32,15.32,0,0,1,18,1.74Z"/><circle class="cls-1" cx="76.52" cy="41.05" r="15.3"/><path class="cls-9" d="M70.22,47.35A8.81,8.81,0,0,1,82.68,34.89Z"/></g></g></svg>