<svg xmlns="http://www.w3.org/2000/svg" xmlns:xlink="http://www.w3.org/1999/xlink" viewBox="0 0 232.95 236.88"><defs><style>.cls-1{fill:#b6b9bc;}.cls-2{fill:#fff;}.cls-3,.cls-6{fill:#171d26;}.cls-4{fill:url(#linear-gradient);}.cls-5{fill:#17a9f9;}.cls-6{opacity:0.15;isolation:isolate;}.cls-7{fill:url(#linear-gradient-2);}.cls-8{fill:#c6c6c6;}</style><linearGradient id="linear-gradient" x1="66.91" y1="64.09" x2="69.9" y2="32.66" gradientTransform="translate(53.75 14.78) rotate(-8.56)" gradientUnits="userSpaceOnUse"><stop offset="0" stop-color="#17a9f9"/><stop offset="1" stop-color="#26d8e2"/></linearGradient><linearGradient id="linear-gradient-2" x1="69.82" y1="35.74" x2="72.22" y2="-3.12" xlink:href="#linear-gradient"/></defs><title>grunty-4-fullColor-onLight</title><g id="Layer_2" data-name="Layer 2"><g id="Artwork"><path class="cls-1" d="M99.35,236.88a15.81,15.81,0,0,1-15.68-13.37L81.3,208.72,78,211.15l-.71-2.9a123.22,123.22,0,0,1-3.16-23.42l-2.72,3.74-1-4.34c-7.91-36-2.57-66-2.24-67.73l.58-4.72a47,47,0,0,0-8.4,10.08l-3.06,5.24-.53-4.82a95.82,95.82,0,0,0-11.94,25.06l-.76,2.83-3.63-2.66a52.81,52.81,0,0,1-6.2,18.59c-2.87,4.89-8.36,7.82-14.69,7.82A20,20,0,0,1,1.45,162.48c-4.9-10.15,3.74-21.34,9.34-27.11L8,135.56l2.31-3.39c4.24-6.24,12.27-17.54,16.31-23.21l-5,.33,3.25-3.65C39.62,89,51.25,81.67,57,78.72l-3-1.65,2.94-1.8a62.65,62.65,0,0,1,18.41-7.5A87.94,87.94,0,0,1,86.14,51.92l-4.36,0,3.4-3.43a46,46,0,0,1,3.76-3.37l-.15-1.87a5,5,0,0,1,3.43-5.13C93.41,28.26,97.94,12.85,114.15,6A6.13,6.13,0,0,1,119.76.77L129.45,0l.48,0a6.17,6.17,0,0,1,5.83,4.24c9.61,2.23,21.46,9.08,26.79,28.52a5,5,0,0,1,4,4.51l.18,2.26a8.41,8.41,0,0,1-.44,3.41,49.25,49.25,0,0,1,6.38,5.29l3.42,3.41h-4.36c3.39,4,8.8,10.87,12.08,18.12,4.31,1.59,23.25,9.47,34.34,28.74l1.72,3h-3.43c3.61,5.31,10.32,17.34,15.39,39l1.11,4.76-4.23-2.68c.84,6.91,2.51,20.68,3.26,28.18l.4,4.08-2.4-1.52c2.16,7.74,4.42,21.7-4.73,28.28a20.1,20.1,0,0,1-11.77,3.85c-10.06,0-18.48-7.32-18.77-16.32a52.71,52.71,0,0,1,3.43-19.3l-4.46.61.69-2.85a96.34,96.34,0,0,0,1.46-27.72l-2.76,4-.19-6a46.18,46.18,0,0,0-1-7.49,192.73,192.73,0,0,1-3.52,53.54l-.93,4.35-2.75-3.72a122.23,122.23,0,0,1-3,23.44l-.68,2.9-3.37-2.41-2.28,14.81a15.88,15.88,0,0,1-31.08,1.55l-3.86-15a42.15,42.15,0,0,1-10.91,1.51h-.13a41.84,41.84,0,0,1-10.79-1.44l-3.77,15a15.87,15.87,0,0,1-15.36,12Z"/><path class="cls-2" d="M74.71,105.34C65,109.9,58.62,120.86,58.62,120.86l-.45-4a98.25,98.25,0,0,0-15.29,30l-4.06-3s-.58,11.46-6.31,21.24-23,9.44-29.26-3.47,13-28.61,13-28.61l-4.34.29c5.84-8.58,18.74-26.6,18.74-26.6l-4.33.28C47,83.73,61.45,78.89,61.45,78.89L57.94,77c20.61-12.66,43.39-8.45,43.39-8.45"/><path class="cls-2" d="M75.67,71.71c4.63-11,14.93-21.8,14.93-21.8h-4c8.46-8.51,19.83-12.81,28.65-15a58.06,58.06,0,0,1,27.27-.08c8.83,2.11,20.24,6.34,28.75,14.79h-4s10.36,10.72,15.07,21.71c0,0,22,7.18,34.09,28.14h-4s10.36,11.13,17.46,41.45l-3.67-2.33S229,160.64,230,171l-3.68-2.33s9.41,23-2.23,31.34-27,.42-27.37-10.91,4.6-21.68,4.6-21.68l-5,.68a98.12,98.12,0,0,0,.89-33.67l-2.32,3.34s-.37-12.66-6.73-21.31c0,0,6.09,30-1.79,67l-3.68-5a122,122,0,0,1-3,29l-3.6-2.57-2.76,18a13.89,13.89,0,0,1-13.68,11.78h0a13.89,13.89,0,0,1-13.49-10.42l-4.39-17a38.95,38.95,0,0,1-24.67.07l-4.28,17.06a13.88,13.88,0,0,1-13.42,10.5h0a13.88,13.88,0,0,1-13.75-11.69l-2.89-18-3.57,2.6a121.91,121.91,0,0,1-3.18-29l-3.65,5c-8.12-37-2.21-67-2.21-67"/><circle class="cls-3" cx="155.69" cy="77.53" r="4"/><circle class="cls-3" cx="102.36" cy="77.7" r="4"/><path class="cls-3" d="M127.8,103.88a56.37,56.37,0,0,1-30.88-9.26l-1.61-1.06a2,2,0,1,1,2.19-3.34l1.61,1a52.1,52.1,0,0,0,59.13-1.21,2,2,0,0,1,2.32,3.26A56.32,56.32,0,0,1,127.8,103.88Z"/><path class="cls-4" d="M161.11,34.86l0,0c.09.45.17.9.23,1.35C155.75,47,144.65,50.36,128.57,52.78c-13.92,2.09-30.77-5.37-34.88-11.34,0-.54.11-1.08.17-1.62h0c-1.22.13-3.32.86-3,3.15s.08,5.11,2,6.48c1.42,1,7.09,7.64,10.08,10.09a32.36,32.36,0,0,0,21.82,7.22c5.22-.23,10-.68,13.23-1.16a30.4,30.4,0,0,0,19.67-12.5s5-7.37,6.62-9.29c.94-1.11.9-4.14.82-4.68l-.25-1.62A2.86,2.86,0,0,0,161.11,34.86Z"/><path class="cls-5" d="M161.08,34.89C158.24,20.07,145,3.42,124.9,5c-20.11,2.29-29,16.83-31,34.79-.06.54-.12,1.08-.17,1.62,4.11,6,21,13.43,34.88,11.34,16.08-2.42,27.18-5.76,32.74-16.54C161.25,35.79,161.17,35.34,161.08,34.89Z"/><path class="cls-6" d="M130.19,58.06a15.3,15.3,0,0,1-17.08-11.25,15.31,15.31,0,1,0,30.43-2.92,16.38,16.38,0,0,0-.34-1.61A15.3,15.3,0,0,1,130.19,58.06Z"/><path class="cls-7" d="M136.3,30.12l-2-24.39a4.31,4.31,0,0,0-4.64-3.93l-9.48.79a4.32,4.32,0,0,0-3.93,4.64l2,23.86a15.3,15.3,0,0,1,18.09-1Z"/><circle class="cls-2" cx="127.91" cy="42.93" r="15.3"/><path class="cls-8" d="M122.62,50.09a8.81,8.81,0,1,1,10.47-14.18Z"/></g></g></svg>