<svg xmlns="http://www.w3.org/2000/svg" xmlns:xlink="http://www.w3.org/1999/xlink" viewBox="0 0 233.33 236.78"><defs><style>.cls-1{fill:#b6b9bc;}.cls-2{fill:#fff;}.cls-3,.cls-7{fill:#171d26;}.cls-4{fill:#e6e6e6;}.cls-5{fill:url(#linear-gradient);}.cls-6{fill:#17a9f9;}.cls-7{opacity:0.15;isolation:isolate;}.cls-8{fill:url(#linear-gradient-2);}.cls-9{fill:#c6c6c6;}</style><linearGradient id="linear-gradient" x1="76.26" y1="68.48" x2="79.25" y2="37.04" gradientUnits="userSpaceOnUse"><stop offset="0" stop-color="#17a9f9"/><stop offset="1" stop-color="#26d8e2"/></linearGradient><linearGradient id="linear-gradient-2" x1="79.17" y1="40.13" x2="81.57" y2="1.26" xlink:href="#linear-gradient"/></defs><title>grunty-5-fullColor-onLight</title><g id="Layer_2" data-name="Layer 2"><g id="Artwork"><path class="cls-1" d="M108.86,236.78a15.87,15.87,0,0,1-15.39-12l-3.82-15a41.53,41.53,0,0,1-21.83,0l-3.82,15a15.88,15.88,0,0,1-31.08-1.46l-2.32-14.8L27.23,211l-.69-2.9a123.21,123.21,0,0,1-3.09-23.42l-2.73,3.72L19.78,184A187.87,187.87,0,0,1,16,157.32l-.2-1.83C-7.38,140.36,1.49,119.92,2.48,117.83c.23-.68.51-1.41.84-2.16,2.28-5.27,8.37-15.15,14.87-24.14,1.59-13.21,4.93-20,5.41-20.86,3.2-7.52,8.85-14.79,12.34-18.89H31.58L35,48.37a47.86,47.86,0,0,1,5.56-4.75,8.69,8.69,0,0,1-.65-4l.17-2.26a5,5,0,0,1,4-4.53c5.27-19.45,17.09-26.34,26.7-28.6A6.15,6.15,0,0,1,76.61,0l.45,0,9.7.71A6.15,6.15,0,0,1,92.38,6c16.23,6.77,20.81,22.16,22,32a5,5,0,0,1,3.44,5.12l-.09,1.12a45.17,45.17,0,0,1,4.71,4.11l3.42,3.41h-4.1c3.72,4.1,9.53,11.34,12.16,19.11,3.4,10,4.83,26.84,5.42,37.25,12.79-.17,24.56-7.64,24.67-7.71l4.27-2.74-.95,3.74a96,96,0,0,0,20-19.29l1.7-2.38,2.47,3.76a52.74,52.74,0,0,1,12.32-15.24,15.48,15.48,0,0,1,9.9-3.4,20,20,0,0,1,19.54,18.28c1,11.22-11,18.67-18.25,22.11l2.72.82-3.35,2.37c-6.15,4.35-17.63,12.12-23.41,16l4.8,1.44-4.32,2.28c-19.67,10.37-33.09,13.2-39.54,14l2.24,2.6-3.38.66a60.57,60.57,0,0,1-8.37,1l-.81,8.4A188,188,0,0,1,137.69,184l-.94,4.34L134,184.66a122.4,122.4,0,0,1-3.09,23.42l-.69,2.9-3.37-2.42-2.32,14.8A15.8,15.8,0,0,1,108.86,236.78Zm33-90.32Z"/><path class="cls-2" d="M19.74,116.62s-6,30,2,67l3.66-5a121.51,121.51,0,0,0,3.09,29L32.07,205l2.83,18a13.88,13.88,0,0,0,13.71,11.73h0a13.88,13.88,0,0,0,13.46-10.46l4.33-17a39,39,0,0,0,24.67,0l4.34,17a13.86,13.86,0,0,0,13.45,10.46h0a13.88,13.88,0,0,0,13.72-11.73l2.82-18,3.59,2.59a121.79,121.79,0,0,0,3.08-29l3.67,5c8-37,2-67,2-67s-.67-30.34-5.67-45.09c-3.84-11.31-15-21.75-15-21.75h4C112.59,41.3,101.2,37,92.37,34.9a57.93,57.93,0,0,0-27.27,0C56.28,37,44.89,41.3,36.4,49.78h4s-10.33,10.75-15,21.75C25.4,71.53,17.58,85.78,19.74,116.62Z"/><circle class="cls-3" cx="52.07" cy="77.62" r="4"/><circle class="cls-3" cx="105.4" cy="77.62" r="4"/><path class="cls-3" d="M79.86,103.88A56.27,56.27,0,0,1,47.25,93.41a2,2,0,1,1,2.31-3.26,52.1,52.1,0,0,0,59.13,1l1.61-1.06a2,2,0,1,1,2.2,3.34l-1.61,1.06A56.33,56.33,0,0,1,79.86,103.88Z"/><path class="cls-2" d="M137.79,110.13c14.19.46,27.35-8,27.35-8l-1,3.94A98.09,98.09,0,0,0,189,83.3l2.76,4.22S196.29,77,205.09,69.83s24.87-.77,26.18,13.51-22.19,22.24-22.19,22.24l4.16,1.25c-8.48,6-26.87,18.35-26.87,18.35l4.16,1.25c-27.54,14.52-42.75,14-42.75,14l2.62,3c-23.74,4.63-43.6-7.28-43.6-7.28"/><path class="cls-2" d="M33.73,162.45c-8.6-3.19-12.35-6-12.35-6-28.87-15.23-17-37.84-17-37.84.22-.68.5-1.39.81-2.12C7.6,110.81,14.44,100,21,91.15a127.42,127.42,0,0,0,5.6,32,23.27,23.27,0,0,0,9.18,7.43c9.25,5.44,21.88,4.51,21.88,4.51l-3.08,2.64a98.37,98.37,0,0,0,33.4-4.33l-.17,5s9.79-6,21.1-6.79,20.79,13.68,13.65,26.11-30.95,5.43-30.95,5.43l2.69,3.42c-10.38,0-32.54-.45-32.54-.45l2.68,3.42a139.6,139.6,0,0,1-30.66-7.12"/><path class="cls-4" d="M55.19,140.65a99.53,99.53,0,0,0,32.63-4.08l.11-3.17a98.37,98.37,0,0,1-33.4,4.33l3.08-2.64S45,136,35.73,130.58c-10.38-4.8-12-13.38-11.56-16.2l0,.11a18.56,18.56,0,0,0,8.7,18.59A57.55,57.55,0,0,0,55.19,140.65Z"/><path class="cls-4" d="M88.43,141.36s9.78-6,21.09-6.79c6.89-.48,13.09,4.7,15.28,11.62-1.17-8.33-8.12-15.09-15.94-14.55-9.43.66-17.8,4.94-20.32,6.35Z"/><path class="cls-4" d="M17.73,154.45s11.22,6.29,30.08,5.68c0,0-18.11,3.06-29.53-.67Z"/><path class="cls-5" d="M112.52,40.23l0,0c0,.46,0,.91,0,1.36-7.1,9.84-18.58,11.48-34.84,11.48-14.08,0-29.62-9.89-32.8-16.4.13-.53.27-1.05.41-1.58h0c-1.23-.06-3.42.35-3.42,2.68s-.68,5.06,1,6.69C44.08,45.74,48.71,53.1,51.3,56A32.36,32.36,0,0,0,71.8,66.36c5.19.54,10,.82,13.26.82a30.4,30.4,0,0,0,21.31-9.43s6-6.54,7.93-8.2c1.09-1,1.5-4,1.5-4.51V43.4A2.86,2.86,0,0,0,112.52,40.23Z"/><path class="cls-6" d="M112.49,40.26c-.61-15.08-11.24-33.53-31.33-34.92C60.93,4.61,50,17.67,45.29,35.12c-.14.53-.28,1.05-.41,1.58,3.18,6.51,18.72,16.4,32.8,16.4,16.26,0,27.74-1.64,34.84-11.48C112.52,41.17,112.51,40.72,112.49,40.26Z"/><path class="cls-7" d="M78.5,58.57A15.31,15.31,0,0,1,63.28,44.9a14.88,14.88,0,0,0-.09,1.64,15.31,15.31,0,1,0,30.61,0c0-.55,0-1.1-.08-1.64A15.31,15.31,0,0,1,78.5,58.57Z"/><path class="cls-8" d="M88.69,31.85,90.31,7.42a4.31,4.31,0,0,0-4-4.57l-9.49-.63a4.33,4.33,0,0,0-4.58,4L70.66,30.11a15.32,15.32,0,0,1,18,1.74Z"/><circle class="cls-2" cx="78.5" cy="43.26" r="15.3"/><path class="cls-9" d="M72.2,49.56A8.81,8.81,0,0,1,84.66,37.1Z"/></g></g></svg>