<svg xmlns="http://www.w3.org/2000/svg" viewBox="0 0 250.22 237.19"><defs><style>.cls-1{fill:#fff;}</style></defs><title>grunty-3-white</title><g id="Layer_2" data-name="Layer 2"><g id="Artwork"><path class="cls-1" d="M235.91,135.05l4.34.27c-5.87-8.56-18.83-26.54-18.83-26.54l4.34.27c-20.78-23.18-35.22-28-35.22-28l3.5-1.93a60.53,60.53,0,0,0-18.75-7.4c-5-10.2-14-19.56-14-19.56h4A44.24,44.24,0,0,0,161.66,49a10.41,10.41,0,0,1-1.18,1.47l-7.75,8.08a34.59,34.59,0,0,1-24.82,10.58c-.85,0-1.7,0-2.54-.09l-10.27-.76a34.32,34.32,0,0,1-25.53-14.4L85.45,48a45,45,0,0,0-4.82,4.17h4s-10.34,10.75-15,21.75a67.23,67.23,0,0,0-2.4,6.55C59,82.57,47.82,86.92,38.31,96l3.83,1.14S29.06,104.93,13.73,132l4.18-1.19s-8.81,20.33-12.71,30l4.18-1.2S-6.1,179,2.71,190.3s25.8,8,29.34-2.78,1.68-22.1,1.68-22.1l4.6,2.06a98.26,98.26,0,0,1,8.61-32.56l1.29,3.85s6.17-12.56,15.7-19.91l0,.16s-6,30,2,67l3.67-5a121.79,121.79,0,0,0,3.08,29l3.58-2.58,2.83,18a13.88,13.88,0,0,0,27.17,1.27l4.34-17a39,39,0,0,0,24.66,0l4.34,17a13.88,13.88,0,0,0,27.17-1.27l2.83-18,3.58,2.58a121.79,121.79,0,0,0,3.08-29l3.67,5c8-37,4.16-66.24,4.16-66.24q-.62-4.64-1.2-8.74a48.11,48.11,0,0,1,10.58,12l.44-4.05a98.17,98.17,0,0,1,15.38,30l4.05-3s.62,11.47,6.38,21.23,23.06,9.36,29.25-3.57S235.91,135.05,235.91,135.05Zm-86.7-60.9a5,5,0,1,1-5,5A5,5,0,0,1,149.21,74.15Zm-53.68,0a5,5,0,1,1-5,5A5,5,0,0,1,95.53,74.15ZM156.9,99.86l-1.62,1.07A57.42,57.42,0,0,1,90.1,99.8a3,3,0,1,1,3.47-4.89,51.49,51.49,0,0,0,58.41,1l1.62-1.07a3,3,0,1,1,3.3,5Z"/><path class="cls-1" d="M123.65,24.82a17.29,17.29,0,0,1,8.67,3.08L134,5.17h0A4.17,4.17,0,0,0,130.15.73L120.4,0h-.31a2.85,2.85,0,0,0-.29,0c-.13,0-.25,0-.37,0l-.43.1-.34.1c-.14,0-.27.12-.4.18L118,.6c-.13.08-.24.17-.36.25l-.27.21c-.11.1-.21.22-.31.33a2.4,2.4,0,0,0-.22.24,4.53,4.53,0,0,0-.26.4c0,.09-.12.18-.16.27a5,5,0,0,0-.2.49,2.67,2.67,0,0,0-.09.26,4.29,4.29,0,0,0-.15.81h0L114.24,26.8A17.34,17.34,0,0,1,123.65,24.82Z"/><path class="cls-1" d="M88.74,45.75l4.1,5.76a30.4,30.4,0,0,0,22.55,12.73l10.27.76c.68,0,1.35.07,2,.07h.22l.65,0h.67l1-.07.63,0c.36,0,.72-.08,1.08-.13l.51-.06c.53-.08,1.06-.17,1.58-.28h.05c.51-.11,1-.22,1.51-.35l.49-.14,1-.31.59-.2.92-.32.61-.24.86-.36.62-.28.83-.4.61-.32.81-.44.59-.35c.27-.15.52-.32.78-.48l.58-.38c.26-.17.51-.36.77-.54l.54-.39.77-.61.49-.4c.28-.23.55-.47.82-.71l.39-.36c.4-.37.79-.75,1.16-1.14l7.75-8.08a5.87,5.87,0,0,0,.84-1.09,6.72,6.72,0,0,0,1-3l.17-2.28A3,3,0,0,0,156.81,38l-.47.34c-1.61-18.19-10.43-27-18.34-31.17l-1.8,24.41a17.23,17.23,0,0,1,3.1,6.4,17.5,17.5,0,0,1,.48,5.51,17.47,17.47,0,0,1-17.39,16.17c-.43,0-.87,0-1.31,0A17.47,17.47,0,0,1,105,40.94a16.78,16.78,0,0,1,.4-2.57,17.42,17.42,0,0,1,4.48-8.29l1.85-25C103.12,8,93.19,15.3,88.84,33.28l-.29-.3h-.23l-.2,0-.27,0-.31.07-.25.08c-.1,0-.19.08-.29.12l-.23.12-.25.18a1.56,1.56,0,0,0-.2.16l-.23.23c0,.06-.11.11-.16.18a2.82,2.82,0,0,0-.18.29,1.22,1.22,0,0,0-.12.19,2.67,2.67,0,0,0-.14.36l-.07.18a3.84,3.84,0,0,0-.11.59l-.16,2.28a6.6,6.6,0,0,0,1.21,4.34Z"/><path class="cls-1" d="M108.94,41.24a13.46,13.46,0,1,0,25.79-4.33,13.72,13.72,0,0,0-2.17-3.47,13.37,13.37,0,0,0-9.2-4.63c-.34,0-.67,0-1,0a13.49,13.49,0,0,0-12.46,8.41A13.69,13.69,0,0,0,108.94,41.24Zm7.45-6.19a9.26,9.26,0,0,1,13.07,1l0,0-14,12.06a9.27,9.27,0,0,1-.16-11.9A9.43,9.43,0,0,1,116.39,35.05Z"/></g></g></svg>