<svg xmlns="http://www.w3.org/2000/svg" xmlns:xlink="http://www.w3.org/1999/xlink" viewBox="0 0 233.33 236.78"><defs><style>.cls-1{fill:#b6b9bc;}.cls-2{fill:#fff;}.cls-3,.cls-7{fill:#171d26;}.cls-4{fill:#e6e6e6;}.cls-5{fill:url(#linear-gradient);}.cls-6{fill:#17a9f9;}.cls-7{opacity:0.15;isolation:isolate;}.cls-8{fill:url(#linear-gradient-2);}.cls-9{fill:#c6c6c6;}</style><linearGradient id="linear-gradient" x1="76.51" y1="68.32" x2="79.51" y2="36.88" gradientUnits="userSpaceOnUse"><stop offset="0" stop-color="#17a9f9"/><stop offset="1" stop-color="#26d8e2"/></linearGradient><linearGradient id="linear-gradient-2" x1="79.42" y1="39.97" x2="81.82" y2="1.1" xlink:href="#linear-gradient"/></defs><title>grunty-hs-5-fullColor-onLight</title><g id="Layer_2" data-name="Layer 2"><g id="Artwork"><path class="cls-1" d="M108.86,236.78a15.87,15.87,0,0,1-15.39-12l-3.82-15a41.53,41.53,0,0,1-21.83,0l-3.82,15a15.88,15.88,0,0,1-31.08-1.46l-2.32-14.8L27.23,211l-.69-2.9a123.11,123.11,0,0,1-3.09-23.42l-2.73,3.72L19.78,184A186.85,186.85,0,0,1,16,157.32l-.2-1.83c-23.2-15.12-14.34-35.56-13.35-37.66.23-.68.51-1.41.84-2.16,2.29-5.28,8.37-15.15,14.87-24.14.06-.49.13-1,.19-1.47a12.27,12.27,0,0,1-7-11.1V69.61A12.34,12.34,0,0,1,23.73,57.28h1.18a45.92,45.92,0,0,1,19.92-27c5.63-17.55,16.92-23.86,25.94-26A6.16,6.16,0,0,1,76.6,0l.46,0,9.7.71A6.15,6.15,0,0,1,92.38,6c7.29,3,16.22,9.57,20.31,23.48A45.67,45.67,0,0,1,135.4,68.87v3.41a5,5,0,0,1-.42,2c2.69,10.17,3.89,24.74,4.4,33.84,12.83-.17,24.56-7.64,24.67-7.71l4.27-2.75-.95,3.75a96.28,96.28,0,0,0,20-19.29l1.7-2.38,2.46,3.76a53,53,0,0,1,12.33-15.24,15.47,15.47,0,0,1,9.9-3.39,20,20,0,0,1,19.54,18.27c1,11.22-11,18.67-18.26,22.11l2.73.82-3.35,2.37c-6.15,4.35-17.63,12.12-23.41,16l4.8,1.44-4.32,2.28c-19.67,10.37-33.1,13.2-39.54,14l2.24,2.6-3.38.66a60.57,60.57,0,0,1-8.37,1l-.82,8.4a186.77,186.77,0,0,1-3.9,29.21l-.94,4.34L134,184.66a123.11,123.11,0,0,1-3.09,23.42l-.69,2.9-3.37-2.42-2.32,14.8A15.8,15.8,0,0,1,108.86,236.78Zm33-90.32Z"/><path class="cls-2" d="M19.74,116.62s-6,30,2,67l3.66-5a121.51,121.51,0,0,0,3.09,29L32.07,205l2.83,18a13.87,13.87,0,0,0,13.71,11.73h0a13.88,13.88,0,0,0,13.46-10.46l4.33-17a39,39,0,0,0,24.67,0l4.34,17a13.86,13.86,0,0,0,13.45,10.46h0a13.88,13.88,0,0,0,13.72-11.73l2.82-18,3.59,2.59a121.79,121.79,0,0,0,3.08-29l3.67,5c8-37,2-67,2-67s-.67-30.34-5.67-45.09c-3.84-11.31-15-21.75-15-21.75h4C112.59,41.3,101.2,37,92.37,34.9a57.93,57.93,0,0,0-27.27,0C56.27,37,44.89,41.3,36.4,49.78h4s-10.33,10.75-15,21.75C25.4,71.53,17.58,85.78,19.74,116.62Z"/><circle class="cls-3" cx="52.07" cy="77.62" r="4"/><circle class="cls-3" cx="105.4" cy="77.62" r="4"/><path class="cls-3" d="M79.86,103.88A56.27,56.27,0,0,1,47.25,93.41a2,2,0,1,1,2.31-3.26,52.1,52.1,0,0,0,59.13,1l1.61-1.06a2,2,0,1,1,2.2,3.34l-1.61,1.06A56.33,56.33,0,0,1,79.86,103.88Z"/><path class="cls-1" d="M89.82,25.28H69a43.66,43.66,0,0,0-42.51,34H23.73A10.34,10.34,0,0,0,13.4,69.61V79A10.33,10.33,0,0,0,23.73,89.28h2.74a42.45,42.45,0,0,0,41.33,33H81.4a5,5,0,0,0,0-10h-5a5,5,0,0,0-4.9,4H67.8a36.44,36.44,0,0,1-36.4-36.4v-11A37.63,37.63,0,0,1,69,31.28H89.82A37.63,37.63,0,0,1,127.4,68.87v3.41a3,3,0,0,0,6,0V68.87A43.64,43.64,0,0,0,89.82,25.28Z"/><path class="cls-2" d="M137.79,110.13c14.19.46,27.35-8,27.35-8l-1,3.94A98.09,98.09,0,0,0,189,83.3l2.76,4.22S196.29,77,205.09,69.83s24.87-.77,26.18,13.51-22.19,22.24-22.19,22.24l4.16,1.25c-8.48,6-26.88,18.35-26.88,18.35l4.17,1.25c-27.54,14.52-42.75,14-42.75,14l2.62,3c-23.74,4.63-43.6-7.28-43.6-7.28"/><path class="cls-2" d="M33.73,162.45c-8.61-3.19-12.35-6-12.35-6-28.87-15.23-17-37.84-17-37.84.22-.68.5-1.39.81-2.12C7.6,110.81,14.44,100,21,91.15a127.42,127.42,0,0,0,5.6,32,23.27,23.27,0,0,0,9.18,7.43c9.25,5.44,21.88,4.51,21.88,4.51l-3.08,2.64a98.37,98.37,0,0,0,33.4-4.33l-.17,5s9.78-6,21.1-6.79,20.79,13.68,13.65,26.11-30.95,5.43-30.95,5.43l2.69,3.42c-10.39,0-32.54-.45-32.54-.45l2.68,3.42a139.6,139.6,0,0,1-30.66-7.12"/><path class="cls-4" d="M55.19,140.65a99.53,99.53,0,0,0,32.63-4.08l.11-3.17a98.37,98.37,0,0,1-33.4,4.33l3.08-2.64S45,136,35.73,130.58c-10.38-4.8-12-13.38-11.56-16.2l0,.11a18.56,18.56,0,0,0,8.7,18.59A57.55,57.55,0,0,0,55.19,140.65Z"/><path class="cls-4" d="M88.43,141.36s9.78-6,21.09-6.79c6.89-.48,13.09,4.7,15.28,11.62-1.17-8.33-8.12-15.09-15.94-14.55-9.43.66-17.8,4.94-20.32,6.35Z"/><path class="cls-4" d="M17.73,154.45s11.22,6.29,30.08,5.68c0,0-18.11,3.06-29.53-.67Z"/><path class="cls-5" d="M112.78,40.08l0,0c0,.46,0,.91,0,1.36-7.11,9.84-18.59,11.48-34.85,11.48-14.07,0-29.62-9.88-32.79-16.39.13-.54.26-1.06.4-1.59h0c-1.22-.05-3.41.36-3.41,2.68s-.69,5.06,1,6.69c1.25,1.25,5.87,8.61,8.47,11.48A32.34,32.34,0,0,0,72.06,66.2c5.19.54,10,.82,13.25.82a30.44,30.44,0,0,0,21.32-9.43s6-6.54,7.92-8.2c1.1-1,1.51-4,1.51-4.51V43.24A2.86,2.86,0,0,0,112.78,40.08Z"/><path class="cls-6" d="M112.75,40.1C112.14,25,101.51,6.58,81.42,5.18,61.18,4.45,50.23,17.51,45.54,35c-.14.53-.27,1-.4,1.59,3.17,6.51,18.72,16.39,32.79,16.39,16.26,0,27.74-1.64,34.85-11.48C112.78,41,112.77,40.56,112.75,40.1Z"/><path class="cls-7" d="M78.75,58.41A15.31,15.31,0,0,1,63.54,44.74a14.88,14.88,0,0,0-.09,1.64,15.31,15.31,0,1,0,30.61,0A14.88,14.88,0,0,0,94,44.74,15.31,15.31,0,0,1,78.75,58.41Z"/><path class="cls-8" d="M89,31.69,90.57,7.27a4.33,4.33,0,0,0-4-4.58l-9.49-.63a4.32,4.32,0,0,0-4.57,4L70.92,30a15.32,15.32,0,0,1,18,1.74Z"/><circle class="cls-2" cx="78.75" cy="43.1" r="15.3"/><path class="cls-9" d="M72.45,49.41A8.82,8.82,0,0,1,84.92,36.94Z"/></g></g></svg>