<svg xmlns="http://www.w3.org/2000/svg" viewBox="0 0 227.98 238.11"><defs><style>.cls-1{fill:#fff;}</style></defs><title>grunty-4-white</title><g id="Layer_2" data-name="Layer 2"><g id="Artwork"><path class="cls-1" d="M228,174.19c-1-10.33-3.77-32.32-3.77-32.32l3.67,2.32c-7.09-30.31-17.46-41.44-17.46-41.44h4c-12.07-21-34.09-28.14-34.09-28.14-4.7-11-15.07-21.71-15.07-21.71h4a46.37,46.37,0,0,0-3.57-3.18q-.3.38-.63.72l-7.75,8.08a34.59,34.59,0,0,1-24.82,10.58c-.85,0-1.7,0-2.54-.09l-10.28-.76a34.32,34.32,0,0,1-25.52-14.4l-3.9-5.49a45.61,45.61,0,0,0-5.66,4.81h4s-9,9.39-13.93,19.6A60.9,60.9,0,0,0,55.93,80.2l3.51,1.92S45,87,24.31,110.2l4.34-.28s-12.91,18-18.75,26.6l4.34-.29s-19.23,15.7-13,28.61,23.53,13.25,29.26,3.47,6.31-21.24,6.31-21.24l4.07,3a98.07,98.07,0,0,1,15.28-30l.45,4s4.92-8.44,12.7-13.59L68.14,120s-5.91,30,2.21,67L74,182a121.91,121.91,0,0,0,3.18,29l3.57-2.6,2.89,18a13.88,13.88,0,0,0,13.75,11.69h0a13.88,13.88,0,0,0,13.42-10.5l4.28-17.06a39.13,39.13,0,0,0,24.67-.07l4.39,17a13.88,13.88,0,0,0,27.17-1.36l2.77-18,3.59,2.57a122,122,0,0,0,3-29l3.68,5c7.88-37,1.79-67,1.79-67,6.36,8.65,6.73,21.31,6.73,21.31l2.33-3.34a98.26,98.26,0,0,1-.9,33.67l5-.68s-5,10.35-4.6,21.68,15.73,19.28,27.37,10.91,2.23-31.34,2.23-31.34Zm-74.19-100a5,5,0,1,1-5,5A5,5,0,0,1,153.79,74.15Zm-53.69,0a5,5,0,1,1-5,5A5,5,0,0,1,100.1,74.15ZM162.76,98a3,3,0,0,1-1.28,1.9l-1.63,1.07A57.41,57.41,0,0,1,94.68,99.8a3,3,0,1,1,3.47-4.89,51.47,51.47,0,0,0,58.41,1l1.62-1.07a3,3,0,0,1,4.15.86A2.94,2.94,0,0,1,162.76,98Z"/><path class="cls-1" d="M93.58,46.12l3.83,5.39A30.44,30.44,0,0,0,120,64.24l10.27.76c.68,0,1.35.07,2,.07h.23l.65,0h.67l1-.07.63,0c.36,0,.72-.08,1.08-.13l.51-.06c.53-.08,1.06-.17,1.58-.28h0c.5-.11,1-.22,1.5-.35l.5-.14,1-.31.58-.2.92-.32.62-.24.86-.36.62-.28.83-.4.61-.32.8-.44.6-.35.78-.48.58-.38c.26-.17.51-.36.77-.54l.54-.39.77-.61.49-.4c.28-.23.54-.47.81-.71l.4-.36c.4-.37.78-.75,1.16-1.14l7.75-8.08c.1-.1.18-.22.27-.33A6.71,6.71,0,0,0,164,43.54l.17-2.28A3,3,0,0,0,161.39,38l-.47.34c-1.62-18.19-10.43-27-18.34-31.17l-1.8,24.41A17.36,17.36,0,0,1,144.1,39a17.66,17.66,0,0,1,.26,4.49A17.47,17.47,0,0,1,127,59.69c-.43,0-.87,0-1.31,0a17.48,17.48,0,0,1-16.13-18.7,18.3,18.3,0,0,1,.24-1.83,17.37,17.37,0,0,1,4.65-9l1.85-25C107.7,8,97.77,15.3,93.42,33.28l-.29-.3H92.9l-.21,0-.27,0-.3.07-.26.08-.28.12-.23.12-.26.18-.19.16a2.5,2.5,0,0,0-.23.23c0,.06-.11.11-.16.18a1.75,1.75,0,0,0-.18.29,1.22,1.22,0,0,0-.12.19,2.67,2.67,0,0,0-.14.36.67.67,0,0,0-.07.18,2.93,2.93,0,0,0-.11.59l-.17,2.28a6.71,6.71,0,0,0,1.21,4.34Z"/><path class="cls-1" d="M128.23,24.82a17.29,17.29,0,0,1,8.67,3.08l1.68-22.73h0A4.17,4.17,0,0,0,134.73.73L125,0h-.31l-.28,0c-.13,0-.25,0-.37,0l-.43.1-.34.1c-.14,0-.27.12-.4.18l-.31.16c-.13.08-.25.17-.36.25l-.27.21c-.11.1-.21.22-.31.33l-.23.24c-.09.13-.17.27-.25.4s-.12.18-.17.27-.13.33-.19.49-.07.17-.1.26a4.29,4.29,0,0,0-.14.81h0L118.82,26.8A17.32,17.32,0,0,1,128.23,24.82Z"/><path class="cls-1" d="M113.52,41.24A13.47,13.47,0,0,0,126,55.65a13.47,13.47,0,0,0,14.42-12.43,13.45,13.45,0,0,0-12.43-14.41c-.34,0-.67,0-1,0a13.53,13.53,0,0,0-13.42,12.47ZM121,35.05A9.26,9.26,0,0,1,134,36l-.95.82L120,48.11a9.26,9.26,0,0,1-.78-11.06A9.13,9.13,0,0,1,121,35.05Z"/></g></g></svg>