<svg xmlns="http://www.w3.org/2000/svg" xmlns:xlink="http://www.w3.org/1999/xlink" viewBox="0 0 250.22 234.02"><defs><style>.cls-1{fill:#fff;}.cls-2,.cls-5{fill:#171d26;}.cls-3{fill:url(#linear-gradient);}.cls-4{fill:#17a9f9;}.cls-5{opacity:0.15;isolation:isolate;}.cls-6{fill:url(#linear-gradient-2);}.cls-7{fill:#c6c6c6;}</style><linearGradient id="linear-gradient" x1="120.91" y1="66.27" x2="123.9" y2="34.83" gradientUnits="userSpaceOnUse"><stop offset="0" stop-color="#17a9f9"/><stop offset="1" stop-color="#26d8e2"/></linearGradient><linearGradient id="linear-gradient-2" x1="123.82" y1="37.91" x2="126.22" y2="-0.95" xlink:href="#linear-gradient"/></defs><title>grunty-3-fullColor-onDark</title><g id="Layer_2" data-name="Layer 2"><g id="Artwork"><path class="cls-1" d="M184.12,116.61S188,145.85,180,182.85l-3.67-5a121.79,121.79,0,0,1-3.08,29l-3.58-2.58-2.83,18A13.89,13.89,0,0,1,153.09,234h0a13.9,13.9,0,0,1-13.46-10.46l-4.34-17a39,39,0,0,1-24.66,0l-4.34,17A13.89,13.89,0,0,1,92.84,234h0a13.89,13.89,0,0,1-13.72-11.73l-2.83-18-3.58,2.58a121.79,121.79,0,0,1-3.08-29l-3.67,5c-8-37-2-67-2-67-4.17-23.16,5.67-45.08,5.67-45.08,4.66-11,15-21.75,15-21.75h-4c8.48-8.48,19.87-12.75,28.7-14.89a58.15,58.15,0,0,1,27.26,0c8.83,2.14,20.22,6.41,28.7,14.89h-4s10.34,10.75,15,21.75C176.29,70.77,179.77,83.74,184.12,116.61Z"/><circle class="cls-2" cx="96.29" cy="76.85" r="4"/><circle class="cls-2" cx="149.63" cy="76.85" r="4"/><path class="cls-2" d="M124.08,103.11A56.26,56.26,0,0,1,91.47,92.65a2,2,0,0,1,2.31-3.26,52.12,52.12,0,0,0,59.14,1l1.61-1.06a2,2,0,0,1,2.2,3.34l-1.61,1.06A56.38,56.38,0,0,1,124.08,103.11Z"/><path class="cls-1" d="M67.13,113.52c-11.34,6.67-18.9,22.08-18.9,22.08l-1.29-3.85a98.2,98.2,0,0,0-8.61,32.56l-4.6-2.06s1.86,11.33-1.68,22.1-20.52,14.08-29.34,2.78,6.67-30.71,6.67-30.71l-4.18,1.2c3.9-9.63,12.71-30,12.71-30l-4.18,1.19C29.06,101.76,42.14,94,42.14,94l-3.83-1.14C55.78,76.13,78.93,75.43,78.93,75.43"/><path class="cls-1" d="M177.36,104.4c9.73,4.53,16.14,15.47,16.14,15.47l.44-4.05a98.17,98.17,0,0,1,15.38,30l4.05-3s.62,11.47,6.38,21.23,23.06,9.36,29.25-3.57-13.09-28.56-13.09-28.56l4.34.27c-5.87-8.56-18.83-26.54-18.83-26.54l4.34.27c-20.78-23.18-35.22-28-35.22-28L194,76c-20.65-12.59-43.41-8.32-43.41-8.32"/><path class="cls-3" d="M157.17,38l0,0c0,.45,0,.91,0,1.36-7.11,9.84-18.58,11.48-34.85,11.48-14.07,0-29.62-9.89-32.79-16.4.13-.53.26-1.06.4-1.58h0c-1.22-.06-3.41.35-3.41,2.67s-.69,5.06,1,6.7c1.25,1.25,5.87,8.61,8.47,11.48a32.33,32.33,0,0,0,20.5,10.38c5.19.55,10,.82,13.25.82A30.38,30.38,0,0,0,151,55.53s6-6.53,7.93-8.19c1.09-1,1.5-4,1.5-4.51V41.19A2.86,2.86,0,0,0,157.17,38Z"/><path class="cls-4" d="M157.14,38.05C156.53,23,145.9,4.52,125.81,3.13,105.58,2.4,94.62,15.45,89.93,32.91c-.14.52-.27,1.05-.4,1.58,3.17,6.51,18.72,16.4,32.79,16.4,16.27,0,27.74-1.64,34.85-11.48C157.17,39,157.16,38.5,157.14,38.05Z"/><path class="cls-5" d="M123.15,56.35a15.31,15.31,0,0,1-15.22-13.66,14.75,14.75,0,0,0-.09,1.64,15.31,15.31,0,0,0,30.61,0,14.75,14.75,0,0,0-.09-1.64A15.3,15.3,0,0,1,123.15,56.35Z"/><path class="cls-6" d="M133.34,29.64,135,5.21a4.31,4.31,0,0,0-4-4.57L121.46,0a4.32,4.32,0,0,0-4.57,4L115.31,27.9a15.32,15.32,0,0,1,18,1.74Z"/><circle class="cls-1" cx="123.14" cy="41.05" r="15.3"/><path class="cls-7" d="M116.84,47.35a8.81,8.81,0,0,1,12.47-12.46Z"/></g></g></svg>