<svg xmlns="http://www.w3.org/2000/svg" xmlns:xlink="http://www.w3.org/1999/xlink" viewBox="0 0 227.98 233.14"><defs><style>.cls-1{fill:#fff;}.cls-2{fill:#b6b9bc;}.cls-3,.cls-6{fill:#171d26;}.cls-4{fill:url(#linear-gradient);}.cls-5{fill:#17a9f9;}.cls-6{opacity:0.15;isolation:isolate;}.cls-7{fill:url(#linear-gradient-2);}.cls-8{fill:#c6c6c6;}</style><linearGradient id="linear-gradient" x1="124.38" y1="66.27" x2="127.37" y2="34.83" gradientUnits="userSpaceOnUse"><stop offset="0" stop-color="#17a9f9"/><stop offset="1" stop-color="#26d8e2"/></linearGradient><linearGradient id="linear-gradient-2" x1="127.29" y1="37.91" x2="129.69" y2="-0.95" xlink:href="#linear-gradient"/></defs><title>grunty-hs-4-fullColor-onDark</title><g id="Layer_2" data-name="Layer 2"><g id="Artwork"><path class="cls-1" d="M72.7,103.6c-9.72,4.56-16.09,15.51-16.09,15.51l-.45-4a98.07,98.07,0,0,0-15.28,30l-4.07-3s-.57,11.46-6.31,21.24-23,9.44-29.26-3.47,13-28.61,13-28.61l-4.34.29C15.74,123,28.65,105,28.65,105l-4.34.28C45,82,59.44,77.15,59.44,77.15l-3.51-1.92c20.61-12.66,43.39-8.45,43.39-8.45"/><path class="cls-1" d="M73.66,70c4.63-11,14.93-21.79,14.93-21.79h-4c8.46-8.51,19.83-12.81,28.65-15a58.06,58.06,0,0,1,27.27-.08c8.84,2.1,20.24,6.33,28.75,14.79h-4s10.37,10.72,15.07,21.71c0,0,22,7.18,34.09,28.14h-4s10.37,11.13,17.46,41.44l-3.67-2.32s2.74,22,3.77,32.32l-3.68-2.32s9.41,23-2.23,31.34-27,.42-27.37-10.91,4.6-21.68,4.6-21.68l-5,.68a98.26,98.26,0,0,0,.9-33.67L192.87,136s-.37-12.66-6.73-21.31c0,0,6.09,30-1.79,67l-3.68-5a122,122,0,0,1-3,29l-3.59-2.57-2.77,18A13.88,13.88,0,0,1,157.64,233h0a13.89,13.89,0,0,1-13.49-10.42l-4.39-17a39.13,39.13,0,0,1-24.67.07l-4.28,17.06a13.88,13.88,0,0,1-13.42,10.5h0a13.88,13.88,0,0,1-13.75-11.69l-2.89-18L77.18,206a121.91,121.91,0,0,1-3.18-29l-3.65,5c-8.12-37-2.21-67-2.21-67"/><path class="cls-2" d="M136.81,23.59H116a43.66,43.66,0,0,0-42.51,34H70.72A10.32,10.32,0,0,0,60.4,67.92v9.35A10.32,10.32,0,0,0,70.72,87.59h2.74a42.46,42.46,0,0,0,41.33,33H128.4a5,5,0,0,0,0-10h-5a5,5,0,0,0-4.9,4h-3.71A36.43,36.43,0,0,1,78.4,78.19v-11A37.63,37.63,0,0,1,116,29.59h20.83A37.64,37.64,0,0,1,174.4,67.18v3.41a3,3,0,0,0,6,0V67.18A43.64,43.64,0,0,0,136.81,23.59Z"/><circle class="cls-3" cx="153.68" cy="75.79" r="4"/><circle class="cls-3" cx="100.35" cy="75.96" r="4"/><path class="cls-3" d="M125.8,102.14a56.4,56.4,0,0,1-30.89-9.26L93.3,91.82a2,2,0,1,1,2.19-3.34l1.61,1a52.1,52.1,0,0,0,59.13-1.21,2,2,0,0,1,2.32,3.26A56.29,56.29,0,0,1,125.8,102.14Z"/><path class="cls-4" d="M160.64,38l0,0c0,.45,0,.91,0,1.36-7.1,9.84-18.58,11.48-34.84,11.48-14.08,0-29.62-9.89-32.8-16.4.13-.53.26-1.06.4-1.58h0c-1.22-.06-3.41.35-3.41,2.67s-.68,5.06,1,6.7c1.25,1.25,5.88,8.61,8.47,11.48a32.36,32.36,0,0,0,20.5,10.38c5.19.55,10,.82,13.25.82a30.36,30.36,0,0,0,21.32-9.43s6-6.53,7.93-8.19c1.09-1,1.5-4,1.5-4.51V41.19A2.86,2.86,0,0,0,160.64,38Z"/><path class="cls-5" d="M160.61,38.05C160,23,149.37,4.52,129.28,3.13,109.05,2.4,98.09,15.45,93.4,32.91c-.14.52-.27,1.05-.4,1.58,3.18,6.51,18.72,16.4,32.8,16.4,16.26,0,27.74-1.64,34.84-11.48C160.64,39,160.63,38.5,160.61,38.05Z"/><path class="cls-6" d="M126.62,56.35A15.31,15.31,0,0,1,111.4,42.69a14.75,14.75,0,0,0-.09,1.64,15.31,15.31,0,0,0,30.61,0,14.75,14.75,0,0,0-.09-1.64A15.29,15.29,0,0,1,126.62,56.35Z"/><path class="cls-7" d="M136.81,29.64l1.62-24.43a4.3,4.3,0,0,0-4-4.57L124.94,0a4.32,4.32,0,0,0-4.58,4L118.78,27.9a15.32,15.32,0,0,1,18,1.74Z"/><circle class="cls-1" cx="126.62" cy="41.05" r="15.3"/><path class="cls-8" d="M120.31,47.35a8.81,8.81,0,0,1,12.47-12.46Z"/></g></g></svg>