<svg xmlns="http://www.w3.org/2000/svg" viewBox="0 0 237.39 244.76"><defs><style>.cls-1{fill:#1b242d;}</style></defs><title>grunty-7-dkblue</title><g id="Layer_2" data-name="Layer 2"><g id="Artwork"><path class="cls-1" d="M234.7,123c-.24-.7-.53-1.44-.86-2.19-2.3-5.31-8.32-15.12-14.78-24.1-1.61-12.81-4.86-19.67-5.52-21a76,76,0,0,0-9.93-16h5l-6.83-6.83a47.23,47.23,0,0,0-4.87-4.24,8.39,8.39,0,0,0,.1-.86l.17-2.27a7,7,0,0,0-3.61-6.67c-1.25-9-4.34-16.47-9.21-22.35a35.83,35.83,0,0,0-13.08-9.95A8.15,8.15,0,0,0,164,.74L154.26,0l-.61,0h0a8.2,8.2,0,0,0-7.33,4.59,34.91,34.91,0,0,0-14.6,7.84c-5.69,5.11-9.87,12.19-12.44,21a7.07,7.07,0,0,0-4.39,6l-.17,2.27a10.73,10.73,0,0,0,1.81,6.76,49.06,49.06,0,0,0-5.1,4.42l-6.83,6.83h4.58c-3.52,4.31-7.59,10.21-9.71,16.46-3.26,9.62-4.74,25.24-5.4,35.81-11.49-.81-21.6-7.24-21.71-7.31l-8.54-5.5.78,3.07A90,90,0,0,1,49.61,87l-3.39-4.77-2.3,3.52a52.93,52.93,0,0,0-11.16-13A17.47,17.47,0,0,0,21.6,68.86,22,22,0,0,0,.07,89c-.94,10.24,7.66,17.5,15,21.78l-2,.6,6.7,4.74c5.09,3.6,13.81,9.53,19.95,13.68l-5.44,1.64,8.65,4.55c16.75,8.84,29.12,12.28,36.59,13.62L77.4,152l6.76,1.32a62.85,62.85,0,0,0,7.32,1,191.22,191.22,0,0,0,4.2,36.11l1.88,8.69,2.08-2.83a121.08,121.08,0,0,0,2.81,18.23l1.39,5.81,3.14-2.27,1.82,11.58a17.88,17.88,0,0,0,35,1.64l3.33-13.08a42.79,42.79,0,0,0,18.93,0l3.33,13.08a17.88,17.88,0,0,0,35-1.64l1.82-11.58,3.14,2.27,1.39-5.81a119.82,119.82,0,0,0,2.81-18.23l2.08,2.83,1.88-8.69a188.76,188.76,0,0,0,3.85-27.79c12.57-8.51,15.66-18.57,16-25.65A30.75,30.75,0,0,0,234.7,123ZM169.35,47.22a13.46,13.46,0,1,1-25.68-6.5,13.51,13.51,0,0,1,12.25-7.95c.33,0,.67,0,1,0a13.35,13.35,0,0,1,7.44,2.93,14.92,14.92,0,0,1,1.77,1.7,13.87,13.87,0,0,1,1.93,3A13.34,13.34,0,0,1,169.35,47.22ZM149.64,7.05c0-.09.07-.17.1-.26a4.14,4.14,0,0,1,.19-.49c0-.09.11-.18.17-.27s.16-.27.25-.4l.22-.24c.1-.11.2-.23.31-.33l.28-.21.35-.25.31-.16c.13-.06.26-.13.4-.18l.35-.1.42-.1c.12,0,.25,0,.37,0a4,4,0,0,1,.6,0l9.76.72a4.18,4.18,0,0,1,3.85,4.45h0L165.88,31.9a17.36,17.36,0,0,0-18.08-1.1l1.7-22.94h0A4,4,0,0,1,149.64,7.05ZM119,39.18l.07-.18c0-.12.09-.25.14-.36l.12-.2c.06-.09.12-.19.19-.28s.11-.12.16-.18a2.39,2.39,0,0,1,.22-.23l.2-.16c.09-.06.17-.13.26-.18l.23-.12a2.36,2.36,0,0,1,.28-.12l.25-.08.31-.07.27,0a3.09,3.09,0,0,1,.43,0l.3.3h0c4.34-18,14.28-25.3,22.85-28.19l-1.85,25A17.31,17.31,0,0,0,141,37.24a17.06,17.06,0,0,0-2,4.69,17.36,17.36,0,0,0,15.61,21.71c.44,0,.88,0,1.32,0a17.45,17.45,0,0,0,14.69-26.82c-.28-.43-.57-.85-.89-1.26l1.81-24.41c7.9,4.21,16.72,13,18.34,31.17h0l.46-.34a3.11,3.11,0,0,1,.61.1,3,3,0,0,1,2.18,3.13l-.06.79L193,47.54a5.9,5.9,0,0,1-.26,1.38,6.68,6.68,0,0,1-.55,1.29h0a7.17,7.17,0,0,1-.46.75,4.69,4.69,0,0,1-.56.69l-7.75,8.08c-.38.39-.77.77-1.16,1.14l-.39.35-.82.72-.5.4c-.25.21-.51.41-.77.61l-.54.39c-.25.18-.51.37-.77.54l-.57.38c-.26.16-.52.33-.78.48l-.6.35-.8.44-.61.32-.83.4-.62.28-.86.36-.62.24-.92.32-.59.2-1,.31-.5.14c-.5.13-1,.24-1.5.35h0c-.53.11-1.05.2-1.58.28l-.51.06c-.36,0-.72.1-1.08.13l-.63,0-1,.07h-.68l-.65,0h-.22c-.67,0-1.35,0-2-.07L149,68.24A30.44,30.44,0,0,1,126.4,55.51l-4.28-6-2.2-3.09c0-.06-.06-.12-.1-.18a6.61,6.61,0,0,1-1.11-4.16l.17-2.28h0A3.7,3.7,0,0,1,119,39.18Zm99.17,120.76c-1.74,1.11-12.18,7.3-29.43,8.35,0,0,17.32,1.46,28.43-3.18a182.81,182.81,0,0,1-3.56,24.48l-3.67-5a121.79,121.79,0,0,1-3.08,29L203.26,211l-2.83,18a13.89,13.89,0,0,1-13.71,11.74h0a13.9,13.9,0,0,1-13.46-10.46l-4.34-17a39,39,0,0,1-24.66,0l-4.34,17A13.88,13.88,0,0,1,112.75,229l-2.83-18-3.58,2.58a121.79,121.79,0,0,1-3.08-29l-3.67,5a187.41,187.41,0,0,1-4.15-39.11,57,57,0,0,1-10.51-1.06l2.61-3h-.71l-.38,0h-.14l-.32,0-.21,0-.33,0-.27,0-.36,0-.3,0-.4,0-.35,0-.44,0L83,146l-.48-.06-.42-.07-.52-.08-.46-.07-.56-.1-.49-.09-.61-.11-.52-.1-.67-.14-.54-.11-.74-.17-.54-.12-.86-.21-.5-.12-1.19-.31-.24-.06-1.51-.42-.46-.13-1.12-.33-.64-.2-1-.32-.72-.23-1-.33-.78-.27-1-.36-.82-.3-1.06-.38-.86-.33-1.08-.41-.91-.36-1.11-.45-.94-.39-1.16-.49-1-.41-1.22-.54-1-.43L53,136.45,52,136c-.46-.21-.93-.44-1.39-.67l-.94-.45-1.58-.78-.82-.41c-.81-.41-1.63-.84-2.46-1.28L49,131.15S30.57,118.8,22.09,112.8l4.16-1.25s-23.51-8-22.2-22.24c.06-.57.14-1.12.24-1.67l.09-.44c.09-.46.2-.91.32-1.35a2.33,2.33,0,0,0,.07-.25c.15-.51.33-1,.52-1.48l.15-.36c.16-.39.34-.77.53-1.14l.15-.31c.24-.44.49-.87.76-1.29l.18-.26c.23-.33.47-.66.71-1L8,79.47c.31-.37.63-.74,1-1.09l.12-.12c.3-.31.62-.6.94-.89l.3-.26c.33-.28.68-.56,1-.81l.1-.08c.38-.28.78-.53,1.18-.78l.33-.19c.33-.19.68-.38,1-.55l.25-.12c.42-.2.84-.38,1.27-.55l.31-.11c.35-.13.7-.25,1.06-.35l.32-.1c.44-.12.88-.23,1.32-.31l.24,0c.38-.07.75-.12,1.13-.16l.36,0c.45,0,.9-.06,1.34-.06h.14l1,0,.38,0,.72.08.42.08.66.13.44.11c.21,0,.41.11.62.18l.44.14.6.23.42.18.61.29.38.2.63.38.32.2c.3.21.61.43.9.67C39,83,43.59,93.5,43.59,93.5l2.77-4.23A98.23,98.23,0,0,0,71.19,112l-1-4,.13.08.11.07.09.06.09,0,.16.1.1.06.22.13.13.07.25.14a1,1,0,0,0,.17.1l.27.16.19.1.32.17.21.12.35.19.25.12.36.19.29.15.39.19.3.15.42.21.33.15.44.21.36.17.46.21.38.16.49.22.4.17.51.21.41.17.54.21.43.17.56.21.45.16.57.21.47.16.59.2.49.16.6.18.51.16.61.17.53.15.62.17.54.13.63.16.56.12.65.14.56.12.66.12.57.1.66.1.59.09.68.08.59.07.69.07.59,0,.69,0,.6,0,.7,0h.7l1.14,0,.29.25c.49-9.67,1.84-28.26,5.43-38.84,3.83-11.32,15-21.75,15-21.75h-4a46.39,46.39,0,0,1,4.58-4l4.3,6.06a34.32,34.32,0,0,0,25.52,14.4l10.27.76c.85.06,1.7.09,2.54.09A34.58,34.58,0,0,0,186.29,62.5L194,54.42a11,11,0,0,0,1.39-1.8,44.75,44.75,0,0,1,3.49,3.14h-4s10.34,10.75,15,21.75c0,0,3.67,6.67,5.29,20.75,6.25,8.6,12.62,18.77,15,24.18.32.73.59,1.44.82,2.12C231,124.56,241.58,144.85,218.15,159.94Z"/><path class="cls-1" d="M211.16,120.35c.42,2.82-1.18,11.4-11.56,16.2-9.25,5.45-21.88,4.51-21.88,4.51l3.08,2.64a98,98,0,0,1-33.4-4.33l.11,3.18a100.08,100.08,0,0,0,32.62,4.08,57.88,57.88,0,0,0,22.35-7.57,18.59,18.59,0,0,0,8.7-18.59Z"/><path class="cls-1" d="M126.47,137.62c-7.83-.55-14.77,6.21-15.94,14.55,2.19-6.93,8.39-12.11,15.27-11.63,11.32.79,21.1,6.79,21.1,6.79l-.11-3.37C144.26,142.55,135.9,138.28,126.47,137.62Z"/><path class="cls-1" d="M129.09,88.2a5,5,0,1,0-5-5A5,5,0,0,0,129.09,88.2Z"/><path class="cls-1" d="M182.77,88.2a5,5,0,1,0-5-5A5,5,0,0,0,182.77,88.2Z"/><path class="cls-1" d="M123.66,103.8a57.42,57.42,0,0,0,65.18,1.13l1.62-1.07a3,3,0,0,0,.86-4.15,3,3,0,0,0-4.16-.86l-1.62,1.07a51.47,51.47,0,0,1-58.41-1,3,3,0,0,0-3.47,4.89Z"/><path class="cls-1" d="M150,39.05a9,9,0,0,0-.71.67A9.27,9.27,0,0,0,149,52.11L163,40l-.42-.43A9.25,9.25,0,0,0,150,39.05Z"/></g></g></svg>