<svg xmlns="http://www.w3.org/2000/svg" viewBox="0 0 301.85 246.37"><defs><style>.cls-1{fill:#1b242d;}</style></defs><title>grunty-6-dkblue</title><g id="Layer_2" data-name="Layer 2"><g id="Artwork"><path class="cls-1" d="M301.78,65.9a22,22,0,0,0-21.53-20.08,17.47,17.47,0,0,0-11.16,3.84,52.93,52.93,0,0,0-11.16,13l-2.3-3.52-3.39,4.77a91.69,91.69,0,0,1-15,15.33l.78-3.06-8.54,5.5a54.37,54.37,0,0,1-19.42,7.07,80.57,80.57,0,0,0-2.85-12c-2.14-6.31-6.25-12.27-9.8-16.61H202l-6.83-6.83a49.92,49.92,0,0,0-4.61-4,8.87,8.87,0,0,0,.22-1.46l.17-2.27a7,7,0,0,0-3.61-6.67c-1.25-9-4.34-16.47-9.21-22.35a35.83,35.83,0,0,0-13.08-9.95A8.15,8.15,0,0,0,157.83.74L148.08,0l-.61,0h0a8.2,8.2,0,0,0-7.33,4.59,34.91,34.91,0,0,0-14.6,7.84c-5.69,5.11-9.87,12.19-12.44,21a7.05,7.05,0,0,0-4.39,6l-.17,2.27a10.69,10.69,0,0,0,1.68,6.56,49.7,49.7,0,0,0-5.91,5l-6.83,6.83h5a76.22,76.22,0,0,0-10,16.18,53.26,53.26,0,0,0-3.94,11.83,55.46,55.46,0,0,1-16.16-6.5l-8.51-5.44.76,3a90.9,90.9,0,0,1-15-15.34l-3.39-4.77-2.3,3.52a52.93,52.93,0,0,0-11.16-13A17.47,17.47,0,0,0,21.6,45.82,22,22,0,0,0,.07,65.9c-.94,10.24,7.65,17.51,15,21.79l-2,.6L19.78,93c5.09,3.6,13.81,9.52,19.95,13.68l-5.44,1.63,8.65,4.56c16.75,8.83,29.12,12.28,36.59,13.62L77.4,129l6.76,1.33,1.14.21a193.7,193.7,0,0,0,3.17,61.2l1.88,8.69,2.09-2.87A122.73,122.73,0,0,0,95.28,216l1.39,5.81,3.16-2.29,1.84,11.71a18,18,0,0,0,35.18,1.64l3.35-13.19a43.15,43.15,0,0,0,19.1,0l3.35,13.19a18,18,0,0,0,35.18-1.64l1.84-11.71,3.16,2.29,1.39-5.81a122.73,122.73,0,0,0,2.84-18.42l2.1,2.87,1.87-8.69a194.13,194.13,0,0,0,3.21-60.85c1.17-.16,2.32-.34,3.45-.56l6.76-1.33-2.13-2.46c7.46-1.34,19.84-4.79,36.59-13.62l8.65-4.56-5.44-1.63C268.26,102.55,277,96.62,282.07,93l6.7-4.74-2-.6C294.12,83.41,302.72,76.14,301.78,65.9ZM163.17,47.22a13.46,13.46,0,1,1-25.76-6.34,13.64,13.64,0,0,1,3.37-4.66,13.41,13.41,0,0,1,9-3.45c.33,0,.67,0,1,0a13.32,13.32,0,0,1,8,3.41,13.94,13.94,0,0,1,1.21,1.22,13.37,13.37,0,0,1,3.23,9.78ZM143.56,6.79a4.94,4.94,0,0,1,.19-.49l.16-.27c.09-.13.16-.27.26-.4l.22-.24c.1-.11.2-.23.31-.33l.27-.2.36-.26.31-.16c.13-.06.26-.13.4-.18l.34-.1.43-.1c.12,0,.25,0,.37,0a4,4,0,0,1,.6,0l9.76.72a4.18,4.18,0,0,1,3.85,4.45h0L159.7,31.9a17.36,17.36,0,0,0-18.08-1.1l1.7-22.94h0a4,4,0,0,1,.14-.8A2.77,2.77,0,0,1,143.56,6.79Zm-31,35.26.17-2.28h0a3.7,3.7,0,0,1,.1-.58l.07-.18a3.84,3.84,0,0,1,.14-.36l.12-.2c.06-.09.12-.19.19-.28a1.37,1.37,0,0,1,.16-.18,2.39,2.39,0,0,1,.22-.23,1.56,1.56,0,0,1,.2-.16,2.4,2.4,0,0,1,.26-.18l.22-.12c.1,0,.19-.09.29-.12l.25-.08.31-.07.27,0a3.05,3.05,0,0,1,.43,0l.3.3h0a51.48,51.48,0,0,1,4.34-11.87c.58-1.1,1.19-2.14,1.82-3.12.5-.78,1-1.53,1.56-2.23a32.66,32.66,0,0,1,3.33-3.78,30.92,30.92,0,0,1,11.79-7.19l-1.84,25a17.44,17.44,0,0,0,11.23,29.56c.44,0,.88,0,1.32,0a17.4,17.4,0,0,0,13.8-28.08l1.8-24.41c7.91,4.21,16.73,13,18.35,31.17h0l.46-.34a2.89,2.89,0,0,1,.6.1,2.62,2.62,0,0,1,.49.19,3,3,0,0,1,1.7,2.94l-.1,1.4-.07.88a7,7,0,0,1-.11.78,5.59,5.59,0,0,1-.23.87,6.94,6.94,0,0,1-.73,1.5,7.13,7.13,0,0,1-.76,1l-7.75,8.08h0c-.38.39-.77.77-1.16,1.14l-.4.36-.81.71-.5.4c-.25.21-.51.41-.77.61l-.54.39c-.25.19-.51.37-.77.54l-.57.38c-.26.16-.52.33-.78.48l-.6.35-.8.44-.62.32-.82.4-.62.28-.87.36-.61.24-.92.32-.59.2c-.34.11-.68.21-1,.3l-.5.15c-.49.12-1,.24-1.48.34l-.08,0c-.52.11-1,.2-1.57.28l-.52.07-1.07.12-.64,0-1,.07h-.68l-.65,0h-.22c-.67,0-1.35,0-2-.07l-10.28-.76a30.44,30.44,0,0,1-22.55-12.73l-4.39-6.17-2.09-3c-.07-.11-.12-.22-.19-.33A6.68,6.68,0,0,1,112.53,42.05ZM275.6,88.51l4.16,1.25c-8.48,6-26.87,18.35-26.87,18.35l4.16,1.25-2.47,1.28-.8.4-1.59.79-.94.46-1.39.66-1,.45-1.29.6-1,.42-1.24.55-.94.4-1.18.5-.92.38-1.13.46-.9.35-1.08.42-.86.33-1.06.38-.82.3-1,.36-.76.26-1,.34-.7.23-1,.32-.62.2-1.13.33-.45.13-1.51.42-.18,0-1.26.33-.48.12-.87.21-.53.12-.76.17-.52.1-.68.15-.51.09-.62.12-.48.09-.58.1-.45.07-.53.08-.41.06-.48.07-.38,0-.45,0-.34,0-.4,0-.3,0-.36,0-.27,0-.34,0-.2,0h-1.55l2.61,3a58.79,58.79,0,0,1-7.16.93,187.8,187.8,0,0,1-2.64,63.56l-3.69-5s0,.67,0,1.89c0,.34,0,.73,0,1.16,0,.65,0,1.39,0,2.2s-.06,1.72-.11,2.69c0,.65-.07,1.32-.12,2s-.11,1.44-.17,2.19c-.16,1.9-.38,3.95-.66,6.1-.12.86-.24,1.74-.38,2.63-.42,2.67-1,5.47-1.63,8.3l-3.61-2.6-2.84,18.14c-.08.47-.18.94-.3,1.4a12.47,12.47,0,0,1-.43,1.35,9.11,9.11,0,0,1-.35.86,14,14,0,0,1-26.27-2.33l-4.37-17.16a39.13,39.13,0,0,1-24.82,0L133,231.85a14,14,0,0,1-26.27,2.33c-.13-.28-.24-.57-.35-.86a12.47,12.47,0,0,1-.43-1.35c-.12-.46-.22-.93-.3-1.4l-2.84-18.14L99.17,215c-.68-2.83-1.21-5.63-1.63-8.3-.13-.89-.26-1.77-.38-2.63-.28-2.15-.5-4.2-.66-6.1-.06-.75-.12-1.49-.17-2.19s-.09-1.38-.12-2c0-1-.09-1.87-.11-2.69s0-1.55,0-2.2c0-.43,0-.82,0-1.16,0-1.22,0-1.89,0-1.89l-3.69,5a188,188,0,0,1-2.61-63.77c-1.59-.17-3.21-.4-4.84-.72l2.61-3H86l-.21,0-.33,0-.27,0-.36,0-.3,0-.4,0-.35,0-.44,0L83,123l-.48-.07-.42-.06-.52-.08-.46-.07-.56-.1-.49-.09-.61-.11-.52-.1-.67-.14-.54-.12-.74-.16-.54-.12-.86-.21-.5-.12-1.19-.31-.24-.06-1.51-.42-.46-.14-1.12-.32-.63-.2-1-.32-.72-.23-1-.34-.77-.26-1-.36-.82-.3-1.06-.38-.86-.33-1.08-.42-.91-.35-1.12-.46-.93-.38-1.17-.5-1-.4-1.22-.54-1-.44L53,113.4,52,113l-1.39-.67-.94-.45L48.07,111l-.81-.4-2.46-1.28L49,108.11S30.57,95.75,22.09,89.76l4.16-1.25s-23.51-8-22.2-22.24c.06-.57.14-1.13.24-1.67l.09-.44c.09-.46.2-.91.32-1.35,0-.09,0-.17.07-.25.15-.51.33-1,.52-1.48l.15-.37c.16-.38.34-.76.53-1.13l.15-.31c.24-.45.49-.88.76-1.29l.18-.26c.23-.34.47-.67.71-1l.24-.3c.31-.38.63-.74,1-1.09l.12-.12c.3-.31.62-.61.94-.89l.3-.26c.33-.28.68-.56,1-.81l.1-.08c.38-.28.78-.54,1.18-.78l.33-.19c.33-.19.67-.38,1-.55l.25-.13c.42-.2.84-.38,1.27-.54l.31-.12,1.06-.35.32-.09c.44-.12.88-.23,1.32-.31l.24,0c.38-.07.75-.12,1.13-.16l.36,0c.45,0,.9-.06,1.34-.06h.14c.33,0,.65,0,1,0l.38,0c.24,0,.48,0,.72.08l.42.07.66.13.44.11.62.18.44.15.6.23.42.17.6.3.39.2.63.38.32.2c.3.21.61.43.9.66C39,59.92,43.59,70.45,43.59,70.45l2.77-4.22A98.09,98.09,0,0,0,71.19,89l-1-3.94a57.93,57.93,0,0,0,21.47,7.73c1.8-10,4.41-14.72,4.41-14.72,4.69-11.07,15.1-21.89,15.1-21.89h-4a45.43,45.43,0,0,1,5.38-4.58L117,57.83a34.32,34.32,0,0,0,25.52,14.4l10.27.76c.84.06,1.7.09,2.54.09A34.58,34.58,0,0,0,180.11,62.5l7.75-8.08A10.71,10.71,0,0,0,189,53.09a42.75,42.75,0,0,1,3.41,3.07h-4s11.23,10.5,15.09,21.89a88.08,88.08,0,0,1,3.26,15c13.25-.46,25-8,25-8l-1,3.94a98.09,98.09,0,0,0,24.83-22.75l2.77,4.22s4.55-10.53,13.35-17.69q.43-.34.9-.66l.32-.2.63-.38.39-.2.6-.29a3.79,3.79,0,0,1,.42-.18l.6-.23.44-.15.62-.17.44-.12.65-.13.43-.07c.24,0,.48-.06.72-.08l.38,0c.32,0,.64,0,1,0h.14c.44,0,.89,0,1.34.06l.36,0c.38,0,.75.09,1.13.16l.23,0c.45.08.89.19,1.33.31l.32.09c.36.11.71.23,1.07.36l.3.11a13,13,0,0,1,1.28.55l.23.11,1,.56.31.19a13.53,13.53,0,0,1,1.19.78l.08.06c.36.26.71.54,1.06.84l.28.24c.33.29.66.6,1,.92l.09.09c.34.35.66.72,1,1.11.08.09.15.19.23.29.25.32.5.66.73,1,.05.08.11.16.16.25.28.41.53.85.77,1.29l.15.31c.19.37.37.75.53,1.14l.15.35c.19.48.37,1,.52,1.49a2.17,2.17,0,0,0,.07.24c.12.45.23.9.32,1.36l.09.44c.1.54.18,1.1.24,1.67C299.11,80.55,275.6,88.51,275.6,88.51Z"/><path class="cls-1" d="M122.91,88.2a5,5,0,1,0-5-5A5,5,0,0,0,122.91,88.2Z"/><path class="cls-1" d="M176.59,88.2a5,5,0,1,0-5-5A5,5,0,0,0,176.59,88.2Z"/><path class="cls-1" d="M181,98.85l-1.62,1.07a51.47,51.47,0,0,1-58.41-1,3,3,0,1,0-3.47,4.89,57.42,57.42,0,0,0,65.18,1.13l1.62-1.07a3,3,0,0,0,.86-4.15A3,3,0,0,0,181,98.85Z"/><path class="cls-1" d="M143.78,39.05a8.5,8.5,0,0,0-.9.9,9.25,9.25,0,0,0-.07,12.16l14-12.1a.08.08,0,0,1,0,0A9.27,9.27,0,0,0,143.78,39.05Z"/></g></g></svg>