<svg xmlns="http://www.w3.org/2000/svg" xmlns:xlink="http://www.w3.org/1999/xlink" viewBox="0 0 152.57 236.78"><defs><style>.cls-1{fill:#b6b9bc;}.cls-2{fill:#fff;}.cls-3,.cls-7{fill:#171d26;}.cls-4{fill:#e6e6e6;}.cls-5{fill:url(#linear-gradient);}.cls-6{fill:#17a9f9;}.cls-7{opacity:0.15;isolation:isolate;}.cls-8{fill:url(#linear-gradient-2);}.cls-9{fill:#c6c6c6;}</style><linearGradient id="linear-gradient" x1="76.39" y1="67.64" x2="79.38" y2="36.2" gradientUnits="userSpaceOnUse"><stop offset="0" stop-color="#17a9f9"/><stop offset="1" stop-color="#26d8e2"/></linearGradient><linearGradient id="linear-gradient-2" x1="79.3" y1="39.29" x2="81.7" y2="0.42" xlink:href="#linear-gradient"/></defs><title>grunty-hs-1-fullColor-onLight</title><g id="Layer_2" data-name="Layer 2"><g id="Artwork"><path class="cls-1" d="M108.86,236.78a15.87,15.87,0,0,1-15.39-12l-3.82-15a41.53,41.53,0,0,1-21.83,0l-3.82,15a15.88,15.88,0,0,1-31.08-1.46l-2.32-14.8L27.23,211l-.69-2.9a123.11,123.11,0,0,1-3.09-23.42l-2.73,3.72L19.78,184A187.87,187.87,0,0,1,16,157.32l-.2-1.83c-23.2-15.13-14.34-35.56-13.35-37.66.23-.68.51-1.41.84-2.16,2.28-5.27,8.37-15.15,14.87-24.14.06-.5.13-1,.19-1.47a12.28,12.28,0,0,1-7-11.1V69.61A12.34,12.34,0,0,1,23.73,57.28h1.18a45.92,45.92,0,0,1,19.92-27c5.63-17.55,16.92-23.86,25.94-26A6.16,6.16,0,0,1,76.61,0l.45,0,9.7.71A6.16,6.16,0,0,1,92.38,6c7.29,3,16.22,9.57,20.31,23.48A45.67,45.67,0,0,1,135.4,68.87v3.41a4.93,4.93,0,0,1-.42,2,132.23,132.23,0,0,1,3.16,18.62c5.61,9.76,10.71,20.41,12.45,26,.24.78.45,1.53.6,2.24A28.14,28.14,0,0,1,141.87,152l-.27,2.8A188,188,0,0,1,137.69,184l-.94,4.34L134,184.66a123.21,123.21,0,0,1-3.09,23.42l-.69,2.9-3.37-2.42-2.32,14.8A15.8,15.8,0,0,1,108.86,236.78Z"/><path class="cls-2" d="M19.74,116.62s-6,30,2,67l3.67-5a121.79,121.79,0,0,0,3.08,29L32.07,205l2.83,18a13.88,13.88,0,0,0,13.71,11.73h0a13.88,13.88,0,0,0,13.46-10.46l4.34-17a39,39,0,0,0,24.66,0l4.34,17a13.88,13.88,0,0,0,13.45,10.46h0a13.88,13.88,0,0,0,13.72-11.73l2.83-18,3.58,2.59a121.79,121.79,0,0,0,3.08-29l3.67,5c8-37,2-67,2-67s-.67-30.34-5.67-45.09c-3.83-11.31-15-21.75-15-21.75h4C112.59,41.3,101.2,37,92.37,34.9a57.89,57.89,0,0,0-27.26,0C56.28,37,44.89,41.3,36.41,49.78h4s-10.34,10.75-15,21.75C25.41,71.53,17.58,85.78,19.74,116.62Z"/><circle class="cls-3" cx="52.07" cy="77.62" r="4"/><circle class="cls-3" cx="105.41" cy="77.62" r="4"/><path class="cls-3" d="M79.86,103.88A56.27,56.27,0,0,1,47.25,93.41a2,2,0,1,1,2.31-3.26,52.12,52.12,0,0,0,59.14,1l1.61-1.06a2,2,0,1,1,2.19,3.34l-1.61,1.06A56.33,56.33,0,0,1,79.86,103.88Z"/><path class="cls-2" d="M115.36,162.18c8.89-2.25,12.91-4.66,12.91-4.66,30.34-12.05,21-35.8,21-35.8-.15-.7-.35-1.44-.59-2.2-1.83-5.88-7.46-17.39-13-26.86a127.75,127.75,0,0,1-9,31.22,23.27,23.27,0,0,1-9.92,6.4c-9.78,4.43-22.25,2.14-22.25,2.14l2.79,3a98.2,98.2,0,0,1-32.74-7.88l-.38,5s-9.08-7-20.25-9S21.82,134.89,27.59,148s30.19,8.71,30.19,8.71l-3,3.11c10.32,1.14,32.4,3,32.4,3l-3,3.11a139,139,0,0,0,31.26-3.8"/><path class="cls-4" d="M96.34,138.22a100.12,100.12,0,0,1-32-7.55l.24-3.17a98.2,98.2,0,0,0,32.74,7.88l-2.79-3s12.47,2.29,22.25-2.14c10.83-3.66,13.34-12,13.22-14.87v.12a18.57,18.57,0,0,1-10.64,17.55A57.79,57.79,0,0,1,96.34,138.22Z"/><path class="cls-4" d="M63.23,135.36s-9.09-7-20.25-9c-6.8-1.21-13.52,3.27-16.44,9.93,2.06-8.17,9.69-14.15,17.41-12.76,9.31,1.66,17.17,6.81,19.53,8.47Z"/><path class="cls-2" d="M33.73,162.45c-8.6-3.19-12.35-6-12.35-6-28.87-15.23-17-37.84-17-37.84.23-.68.5-1.39.82-2.12C7.61,110.81,14.44,100,21,91.15a127.89,127.89,0,0,0,5.6,32,23.27,23.27,0,0,0,9.18,7.43c9.25,5.44,21.89,4.51,21.89,4.51l-3.09,2.64a98.31,98.31,0,0,0,33.4-4.33l-.17,5s9.79-6,21.1-6.79,20.79,13.68,13.65,26.11-30.95,5.43-30.95,5.43l2.69,3.42c-10.38,0-32.54-.45-32.54-.45l2.69,3.42a139.57,139.57,0,0,1-30.67-7.12"/><path class="cls-4" d="M55.2,140.65a99.5,99.5,0,0,0,32.62-4.08l.11-3.17a98.31,98.31,0,0,1-33.4,4.33l3.09-2.64S45,136,35.73,130.58c-10.38-4.8-12-13.38-11.56-16.2l0,.11a18.59,18.59,0,0,0,8.7,18.59A57.55,57.55,0,0,0,55.2,140.65Z"/><path class="cls-4" d="M88.43,141.36s9.79-6,21.1-6.79c6.88-.48,13.08,4.7,15.28,11.62-1.18-8.33-8.12-15.09-16-14.55-9.43.66-17.79,4.94-20.32,6.35Z"/><path class="cls-4" d="M17.73,154.45s11.22,6.29,30.08,5.68c0,0-18.11,3.06-29.53-.67Z"/><path class="cls-4" d="M140,150.92s-9.32,8.88-27.75,13c0,0,17.07-1,27.21-7.46Z"/><path class="cls-1" d="M89.82,25.28H69a43.66,43.66,0,0,0-42.51,34H23.73A10.33,10.33,0,0,0,13.41,69.61V79A10.32,10.32,0,0,0,23.73,89.28h2.74a42.46,42.46,0,0,0,41.33,33H81.41a5,5,0,0,0,0-10h-5a5,5,0,0,0-4.9,4H67.8a36.43,36.43,0,0,1-36.39-36.4v-11A37.63,37.63,0,0,1,69,31.28H89.82a37.64,37.64,0,0,1,37.59,37.59v3.41a3,3,0,0,0,6,0V68.87A43.65,43.65,0,0,0,89.82,25.28Z"/><path class="cls-5" d="M112.65,39.39l0,0c0,.46,0,.91,0,1.36-7.1,9.84-18.58,11.48-34.84,11.48-14.08,0-29.62-9.89-32.8-16.4.13-.53.27-1,.41-1.58h0C44.19,34.22,42,34.63,42,37s-.69,5.06,1,6.69c1.26,1.25,5.88,8.61,8.48,11.48A32.31,32.31,0,0,0,71.93,65.52c5.2.54,10,.82,13.26.82a30.4,30.4,0,0,0,21.31-9.43s6-6.54,7.93-8.2c1.09-1,1.5-4,1.5-4.51V42.56A2.86,2.86,0,0,0,112.65,39.39Z"/><path class="cls-6" d="M112.63,39.42C112,24.34,101.38,5.9,81.29,4.5,61.06,3.77,50.1,16.83,45.42,34.28c-.14.53-.28,1-.41,1.58,3.18,6.51,18.72,16.4,32.8,16.4,16.26,0,27.74-1.64,34.84-11.48C112.65,40.33,112.64,39.88,112.63,39.42Z"/><path class="cls-7" d="M78.63,57.73A15.31,15.31,0,0,1,63.41,44.06c0,.54-.08,1.09-.08,1.64a15.3,15.3,0,1,0,30.6,0c0-.55,0-1.1-.08-1.64A15.31,15.31,0,0,1,78.63,57.73Z"/><path class="cls-8" d="M88.83,31,90.44,6.58a4.3,4.3,0,0,0-4-4.57L77,1.38a4.31,4.31,0,0,0-4.57,4L70.79,29.27a15.34,15.34,0,0,1,18,1.74Z"/><circle class="cls-2" cx="78.63" cy="42.42" r="15.3"/><path class="cls-9" d="M72.33,48.72A8.81,8.81,0,1,1,84.79,36.26Z"/></g></g></svg>