<svg xmlns="http://www.w3.org/2000/svg" viewBox="0 0 258.21 245.19"><defs><style>.cls-1{fill:#1b242d;}</style></defs><title>grunty-3-dkblue</title><g id="Layer_2" data-name="Layer 2"><g id="Artwork"><path class="cls-1" d="M250.09,143.7l2.08.13-4.64-6.77c-3.52-5.14-9.64-13.73-13.95-19.76l5.66.36-6.52-7.28C220.1,96.3,209.66,88.75,203.13,84.9L206,83.32l-5.88-3.58A64.16,64.16,0,0,0,182,72.27a85,85,0,0,0-8-12.08h5l-6.83-6.83a49.93,49.93,0,0,0-4.89-4.25,11,11,0,0,0,.18-1.28l.17-2.27A7,7,0,0,0,164,38.89c-1.25-9-4.34-16.47-9.21-22.35a35.83,35.83,0,0,0-13.08-9.95A8.15,8.15,0,0,0,134.43.74L124.68,0l-.61,0h0a8.2,8.2,0,0,0-7.33,4.59,34.91,34.91,0,0,0-14.6,7.84c-5.69,5.11-9.87,12.19-12.44,21a7.07,7.07,0,0,0-4.39,6l-.17,2.27a10.68,10.68,0,0,0,1.94,7l0,.06a50,50,0,0,0-5.34,4.6L75,60.19h5a75.43,75.43,0,0,0-10,16.16c-.13.3-.88,2-1.85,4.84a68.31,68.31,0,0,0-28.57,16l-5,4.76,3.14.93C32.13,108,23.55,117.6,14.23,134.05l-4.81,8.51L14.88,141c-2.93,6.81-7.06,16.51-9.4,22.29l-3.08,7.6,2-.57c-3.88,7.57-7.19,18.33-.86,26.44A22,22,0,0,0,21,205.34c8.81,0,16.39-5.05,18.86-12.57a53,53,0,0,0,2.37-17L46,177.52l.28-5.85a91.77,91.77,0,0,1,4.33-21l.87,2.61,4.3-8.75a69.47,69.47,0,0,1,6.65-10.4A192.5,192.5,0,0,0,66,190.87l1.87,8.69L70,196.72A120.7,120.7,0,0,0,72.8,215l1.39,5.81,3.15-2.27,1.81,11.59a17.89,17.89,0,0,0,35,1.64l3.33-13.08a43.19,43.19,0,0,0,18.93,0l3.33,13.08a17.89,17.89,0,0,0,35-1.64l1.81-11.59,3.15,2.27,1.39-5.81a120.7,120.7,0,0,0,2.81-18.23l2.08,2.84,1.87-8.69a224,224,0,0,0,4.57-64.21c1,1.43,1.61,2.38,1.62,2.41l6.14,10.37.54-5a90.8,90.8,0,0,1,8.72,19.6l1.53,5.65,3.38-2.5a52.8,52.8,0,0,0,5.94,16.06c3.24,5.49,9.36,8.76,16.38,8.76a22,22,0,0,0,19.92-12.63C261,160.07,255.49,150.27,250.09,143.7ZM139.77,47.22a13.44,13.44,0,1,1-13.43-14.45c.33,0,.67,0,1,0a13.33,13.33,0,0,1,8.06,3.47,15.73,15.73,0,0,1,1.15,1.16,13.72,13.72,0,0,1,2.17,3.47A13.4,13.4,0,0,1,139.77,47.22ZM120.16,6.8a4.29,4.29,0,0,1,.19-.5l.16-.27.26-.4.22-.24c.1-.11.2-.23.31-.33l.27-.2.36-.26.31-.16c.13-.06.26-.13.4-.18l.35-.1.42-.1c.12,0,.25,0,.37,0a4,4,0,0,1,.6,0l9.76.72a3.8,3.8,0,0,1,.83.15,4.17,4.17,0,0,1,1.44.73,4.27,4.27,0,0,1,.7.71A4.16,4.16,0,0,1,138,8.65a4.68,4.68,0,0,1,0,.53h0L136.3,31.9a17.36,17.36,0,0,0-18.08-1.1l1.7-22.94h0a4.29,4.29,0,0,1,.14-.81C120.09,7,120.13,6.88,120.16,6.8Zm-30.86,33a2.91,2.91,0,0,1,.1-.59l.07-.18.14-.36.12-.19a2.9,2.9,0,0,1,.19-.29,1.37,1.37,0,0,1,.16-.18,2.39,2.39,0,0,1,.22-.23l.2-.16.26-.18.23-.12a2.36,2.36,0,0,1,.28-.12l.25-.08.31-.07.27,0a3.09,3.09,0,0,1,.43,0l.3.3c4.34-18,14.28-25.3,22.85-28.19l-1.85,25a17.65,17.65,0,0,0-2.71,3.65,17.21,17.21,0,0,0-1.77,4.64,18.11,18.11,0,0,0-.41,2.57,17.47,17.47,0,0,0,16.12,18.7c.44,0,.88,0,1.32,0a17.47,17.47,0,0,0,17.38-16.17,17.11,17.11,0,0,0-3.58-11.91L142,11.2c.83.45,1.67.94,2.51,1.48s1.68,1.15,2.51,1.82a32.24,32.24,0,0,1,3.26,3,32.75,32.75,0,0,1,3,3.73c.48.69.95,1.41,1.39,2.17q.36.6.69,1.23a38.56,38.56,0,0,1,1.87,4c.19.48.37,1,.54,1.48A45.82,45.82,0,0,1,159.18,35a55.7,55.7,0,0,1,1.15,7.41l.46-.34a2.84,2.84,0,0,1,1.65.64,3,3,0,0,1,1.1,1.83,2.75,2.75,0,0,1,0,.76l-.09,1.24-.08,1a6.6,6.6,0,0,1-1,3,6.28,6.28,0,0,1-.83,1.09l-7.75,8.08h0c-.37.39-.75.76-1.14,1.13l-.4.36-.81.71-.5.4c-.25.21-.51.41-.77.61l-.54.39c-.25.19-.51.37-.77.54l-.57.38c-.26.16-.52.33-.78.48l-.6.35-.8.44-.61.32-.83.4-.62.28-.86.36-.62.24-.91.32-.6.2q-.51.16-1,.3l-.51.15c-.49.12-1,.24-1.48.34l-.08,0c-.52.11-1,.2-1.57.28l-.52.07c-.36,0-.71.09-1.07.12l-.64,0-1,.07h-.68l-.65,0h-.22c-.67,0-1.35,0-2-.07l-10.28-.76A30.44,30.44,0,0,1,96.82,55.51l-4.09-5.76-2.31-3.26-.08-.1a6.65,6.65,0,0,1-1.19-3.19,6.31,6.31,0,0,1,0-1.15ZM253,167.61c-.2.43-.41.83-.64,1.23l-.24.39-.47.76-.31.43c-.15.21-.3.43-.46.64l-.35.42-.48.57-.38.4-.5.51-.41.38-.52.45c-.14.12-.28.24-.43.35s-.36.28-.55.41-.29.21-.44.31l-.57.38-.45.27c-.2.12-.41.23-.62.34l-.43.23-.68.31-.4.18c-.28.12-.56.22-.84.32l-.26.1c-.37.13-.75.24-1.12.34l-.32.08c-.27.07-.54.14-.81.19l-.44.08-.7.12-.47,0-.67.07-.49,0-.66,0h-.36a16.37,16.37,0,0,1-1.72-.09l-.23,0a17.29,17.29,0,0,1-1.75-.3l-.07,0a16.34,16.34,0,0,1-1.69-.49l-.14-.05a15.26,15.26,0,0,1-1.56-.67l-.22-.11a12.48,12.48,0,0,1-1.41-.84,1.88,1.88,0,0,1-.23-.16,13.85,13.85,0,0,1-1.28-1L226,174a14.65,14.65,0,0,1-1.15-1.21l-.11-.15a11.65,11.65,0,0,1-1-1.47C218,161.42,217.36,150,217.36,150l-4.06,3a98.17,98.17,0,0,0-15.38-30l-.43,4.05a48.35,48.35,0,0,0-10.58-12q.59,4.11,1.2,8.74S192,153,184,190l-3.67-5a121.79,121.79,0,0,1-3.08,29l-3.59-2.58-2.82,18a13.88,13.88,0,0,1-27.17,1.27l-4.34-17a39,39,0,0,1-24.67,0l-4.34,17a13.88,13.88,0,0,1-27.16-1.27l-2.83-18L76.7,214a121.51,121.51,0,0,1-3.09-29L70,190c-8-37-2-67-2-67l0-.16c-9.54,7.35-15.7,19.91-15.7,19.91l-1.29-3.85a98.26,98.26,0,0,0-8.61,32.56l-4.61-2.06s1.86,11.33-1.68,22.1c-.12.36-.25.71-.4,1-.05.12-.11.23-.16.34s-.21.45-.33.67l-.22.38c-.11.19-.23.39-.35.57s-.17.26-.26.38-.25.35-.39.53-.19.24-.29.35l-.43.5-.31.32c-.16.17-.33.33-.5.48l-.31.28-.64.52-.23.18c-.29.22-.59.43-.91.63l-.29.17c-.22.14-.45.27-.68.4l-.39.2-.63.3-.43.19-.63.25-.45.16-.65.21-.46.13-.69.17-.44.1-.8.14-.35.06-1.17.12h-.16c-.34,0-.68,0-1,0l-.88,0H20l-1-.09-.32,0-.73-.11-.4-.07-.64-.14-.42-.1-.63-.18-.42-.12-.63-.22-.39-.15-.72-.3-.29-.13c-.33-.15-.66-.32-1-.49a2,2,0,0,0-.25-.14l-.72-.43-.35-.23L10.5,198l-.37-.28-.56-.44-.36-.3-.54-.5-.33-.31c-.2-.2-.38-.39-.57-.6l-.27-.29c-.27-.3-.54-.62-.8-.95-8.82-11.31,6.67-30.71,6.67-30.71l-4.18,1.2c3.89-9.63,12.7-30,12.7-30L17.71,136C33,108.93,46.13,101.16,46.13,101.16L42.29,100C51.8,90.92,63,86.57,71.22,84.49a69.25,69.25,0,0,1,2.39-6.55c4.67-11,15-21.75,15-21.75h-4A47,47,0,0,1,89.43,52l4.13,5.81a34.32,34.32,0,0,0,25.52,14.4l10.27.76c.85.06,1.7.09,2.54.09A34.58,34.58,0,0,0,156.71,62.5l7.75-8.08A9.75,9.75,0,0,0,165.64,53a44.37,44.37,0,0,1,3.64,3.24h-4s9,9.36,14,19.56A60.58,60.58,0,0,1,198,83.15l-3.51,1.93s14.45,4.79,35.22,28l-4.33-.27s13,18,18.82,26.54l-4.34-.27S259.17,154.68,253,167.61Z"/><path class="cls-1" d="M99.51,88.2a5,5,0,1,0-5-5A5,5,0,0,0,99.51,88.2Z"/><path class="cls-1" d="M153.19,88.2a5,5,0,1,0-5-5A5,5,0,0,0,153.19,88.2Z"/><path class="cls-1" d="M157.58,98.85,156,99.92a51.49,51.49,0,0,1-58.41-1,3,3,0,1,0-3.47,4.89,57.42,57.42,0,0,0,65.18,1.13l1.62-1.07a3,3,0,1,0-3.3-5Z"/><path class="cls-1" d="M120.38,39.05a8.16,8.16,0,0,0-1.12,1.16,9.25,9.25,0,0,0,.15,11.9l14-12.06,0,0A9.27,9.27,0,0,0,120.38,39.05Z"/></g></g></svg>