<svg xmlns="http://www.w3.org/2000/svg" xmlns:xlink="http://www.w3.org/1999/xlink" viewBox="0 0 227.98 234.28"><defs><style>.cls-1{fill:#fff;}.cls-2,.cls-5{fill:#171d26;}.cls-3{fill:url(#linear-gradient);}.cls-4{fill:#17a9f9;}.cls-5{opacity:0.15;isolation:isolate;}.cls-6{fill:url(#linear-gradient-2);}.cls-7{fill:#c6c6c6;}</style><linearGradient id="linear-gradient" x1="98.57" y1="66.27" x2="101.56" y2="34.83" gradientUnits="userSpaceOnUse"><stop offset="0" stop-color="#17a9f9"/><stop offset="1" stop-color="#26d8e2"/></linearGradient><linearGradient id="linear-gradient-2" x1="101.48" y1="37.91" x2="103.88" y2="-0.95" xlink:href="#linear-gradient"/></defs><title>grunty-2-fullColor-onDark</title><g id="Layer_2" data-name="Layer 2"><g id="Artwork"><path class="cls-1" d="M155.28,104.74c9.71,4.56,16.09,15.51,16.09,15.51l.44-4a98,98,0,0,1,15.29,30l4.07-3s.57,11.46,6.31,21.24,23,9.44,29.26-3.47-13-28.61-13-28.61l4.33.29c-5.83-8.58-18.74-26.6-18.74-26.6l4.34.28C183,83.13,168.54,78.29,168.54,78.29l3.51-1.92c-20.61-12.66-43.39-8.45-43.39-8.45"/><path class="cls-1" d="M154.32,71.11c-4.63-11-14.93-21.8-14.93-21.8h4c-8.46-8.51-19.83-12.81-28.66-15a58,58,0,0,0-27.26-.08c-8.84,2.1-20.24,6.33-28.75,14.79h4S52.35,59.78,47.65,70.77c0,0-22,7.18-34.09,28.14h4S7.19,110.05.1,140.36L3.77,138S1,160,0,170.36L3.67,168s-9.4,23,2.24,31.34,27,.42,27.37-10.91-4.6-21.68-4.6-21.68l5,.68a98.26,98.26,0,0,1-.9-33.67l2.33,3.34s.37-12.66,6.73-21.31c0,0-6.09,30,1.79,67l3.68-5a122,122,0,0,0,3,29l3.59-2.57,2.77,18a13.88,13.88,0,0,0,13.68,11.78h0a13.89,13.89,0,0,0,13.49-10.42l4.39-17a38.86,38.86,0,0,0,12.33,2,38.41,38.41,0,0,0,12.33-2l4.29,17.06a13.87,13.87,0,0,0,13.42,10.5h0a13.88,13.88,0,0,0,13.75-11.69l2.89-18,3.57,2.6a121.91,121.91,0,0,0,3.18-29l3.65,5c8.11-37,2.21-67,2.21-67"/><circle class="cls-2" cx="74.3" cy="76.93" r="4"/><circle class="cls-2" cx="127.63" cy="77.1" r="4"/><path class="cls-2" d="M102.18,103.28A56.32,56.32,0,0,1,69.42,92.72a2,2,0,0,1,2.33-3.26,52.1,52.1,0,0,0,59.13,1.21l1.61-1A2,2,0,1,1,134.68,93L133.07,94A56.43,56.43,0,0,1,102.18,103.28Z"/><path class="cls-3" d="M134.83,38l0,0c0,.45,0,.91,0,1.36-7.1,9.84-18.58,11.48-34.84,11.48-14.08,0-29.62-9.89-32.8-16.4.13-.53.27-1.06.41-1.58h0c-1.23-.06-3.41.35-3.41,2.67s-.69,5.06,1,6.7c1.26,1.25,5.88,8.61,8.47,11.48a32.36,32.36,0,0,0,20.5,10.38c5.19.55,10,.82,13.26.82a30.36,30.36,0,0,0,21.31-9.43s6-6.53,7.93-8.19c1.09-1,1.5-4,1.5-4.51V41.19A2.86,2.86,0,0,0,134.83,38Z"/><path class="cls-4" d="M134.81,38.05C134.2,23,123.56,4.52,103.47,3.13,83.24,2.4,72.28,15.45,67.6,32.91c-.14.52-.28,1.05-.41,1.58C70.37,41,85.91,50.89,100,50.89c16.26,0,27.74-1.64,34.84-11.48C134.83,39,134.82,38.5,134.81,38.05Z"/><path class="cls-5" d="M100.81,56.35A15.31,15.31,0,0,1,85.59,42.69c0,.54-.08,1.08-.08,1.64a15.3,15.3,0,0,0,30.6,0c0-.56,0-1.1-.08-1.64A15.31,15.31,0,0,1,100.81,56.35Z"/><path class="cls-6" d="M111,29.64l1.61-24.43a4.3,4.3,0,0,0-4-4.57L99.13,0a4.3,4.3,0,0,0-4.57,4L93,27.9a15.34,15.34,0,0,1,18,1.74Z"/><circle class="cls-1" cx="100.81" cy="41.05" r="15.3"/><path class="cls-7" d="M94.51,47.35A8.81,8.81,0,0,1,107,34.89Z"/></g></g></svg>