<svg xmlns="http://www.w3.org/2000/svg" xmlns:xlink="http://www.w3.org/1999/xlink" viewBox="0 0 232.95 236.88"><defs><style>.cls-1{fill:#b6b9bc;}.cls-2{fill:#fff;}.cls-3,.cls-6{fill:#171d26;}.cls-4{fill:url(#linear-gradient);}.cls-5{fill:#17a9f9;}.cls-6{opacity:0.15;isolation:isolate;}.cls-7{fill:url(#linear-gradient-2);}.cls-8{fill:#c6c6c6;}</style><linearGradient id="linear-gradient" x1="103.06" y1="67.69" x2="106.06" y2="36.25" gradientUnits="userSpaceOnUse"><stop offset="0" stop-color="#17a9f9"/><stop offset="1" stop-color="#26d8e2"/></linearGradient><linearGradient id="linear-gradient-2" x1="105.97" y1="39.33" x2="108.37" y2="0.47" xlink:href="#linear-gradient"/></defs><title>grunty-hs-2-fullColor-onLight</title><g id="Layer_2" data-name="Layer 2"><g id="Artwork"><path class="cls-1" d="M133.55,236.88a15.87,15.87,0,0,1-15.36-12l-3.77-15a41.84,41.84,0,0,1-10.79,1.44h-.13a42.15,42.15,0,0,1-10.91-1.51l-3.86,15a15.88,15.88,0,0,1-31.08-1.55l-2.27-14.81L52,210.82l-.68-2.9a122.23,122.23,0,0,1-3-23.44l-2.75,3.72-.92-4.35a192.36,192.36,0,0,1-3.53-53.53,46,46,0,0,0-1,7.48l-.19,6-2.76-4a95.77,95.77,0,0,0,1.46,27.72l.69,2.85-4.45-.61a53,53,0,0,1,3.42,19.3c-.29,9-8.71,16.32-18.77,16.32a20,20,0,0,1-11.76-3.85C-1.45,195,.81,181.07,3,173.32l-2.4,1.53.4-4.08c.75-7.5,2.42-21.27,3.26-28.18L0,145.27l1.11-4.76c5.07-21.66,11.78-33.69,15.4-39H13.07l1.72-3A65.79,65.79,0,0,1,35.9,76.62v-7A12.33,12.33,0,0,1,48.22,57.33H49.4A45.61,45.61,0,0,1,71.58,29C77.4,12.29,88.43,6.27,97.2,4.24A6.16,6.16,0,0,1,103,0l.47,0,9.69.75A6.13,6.13,0,0,1,118.8,6c7.57,3.2,16.77,10.07,20.61,24.86a45.43,45.43,0,0,1,20.48,37.45,61.5,61.5,0,0,1,16.17,6.93l2.94,1.8-3,1.65c5.71,3,17.34,10.31,32.14,26.92l3.25,3.65-5-.33c4,5.67,12.08,17,16.31,23.2l2.31,3.4-2.84-.19c5.6,5.77,14.24,16.95,9.34,27.11a20,20,0,0,1-18.09,11.44h0c-6.33,0-11.82-2.93-14.69-7.82a52.81,52.81,0,0,1-6.2-18.59l-3.63,2.66-.75-2.83a96.46,96.46,0,0,0-11.95-25.06l-.53,4.81-3-5.23a47.66,47.66,0,0,0-8.41-10.08l.58,4.72c.33,1.75,5.68,31.7-2.24,67.73l-.95,4.34-2.72-3.74a122.41,122.41,0,0,1-3.16,23.42l-.7,2.9-3.36-2.44-2.37,14.8a15.81,15.81,0,0,1-15.68,13.37Z"/><path class="cls-2" d="M158.24,105.34c9.72,4.56,16.09,15.51,16.09,15.51l.45-4a98.25,98.25,0,0,1,15.29,30l4.06-3s.58,11.46,6.31,21.24,23,9.44,29.26-3.47-13-28.61-13-28.61l4.34.29c-5.84-8.58-18.74-26.6-18.74-26.6l4.34.28c-20.71-23.24-35.13-28.08-35.13-28.08L175,77c-20.61-12.66-43.38-8.45-43.38-8.45"/><path class="cls-2" d="M157.28,71.71c-4.63-11-14.93-21.8-14.93-21.8h4c-8.46-8.51-19.83-12.81-28.65-15a58.06,58.06,0,0,0-27.27-.08C81.6,37,70.2,41.2,61.69,49.65h4S55.32,60.38,50.62,71.37c0,0-22,7.18-34.09,28.14h4S10.16,110.65,3.06,141l3.67-2.33S4,160.63,3,171l3.67-2.32s-9.41,23,2.23,31.34,27,.42,27.37-10.91-4.6-21.68-4.6-21.68l5,.68a98.12,98.12,0,0,1-.89-33.67l2.32,3.34s.37-12.66,6.74-21.31c0,0-6.1,30,1.78,67l3.68-5a121.72,121.72,0,0,0,3,29l3.59-2.57,2.77,18A13.87,13.87,0,0,0,73.3,234.69h0a13.88,13.88,0,0,0,13.49-10.42l4.39-17a38.95,38.95,0,0,0,24.67.07l4.28,17.06a13.89,13.89,0,0,0,13.42,10.5h0a13.89,13.89,0,0,0,13.76-11.69l2.88-18,3.58,2.6a121.58,121.58,0,0,0,3.17-29l3.65,5c8.12-37,2.22-67,2.22-67"/><path class="cls-1" d="M114.31,25.33H93.48A43.66,43.66,0,0,0,51,59.33H48.22A10.32,10.32,0,0,0,37.9,69.66V79A10.32,10.32,0,0,0,48.22,89.33H51a42.46,42.46,0,0,0,41.33,33H105.9a5,5,0,0,0,0-10h-5a5,5,0,0,0-4.9,4H92.29A36.43,36.43,0,0,1,55.9,79.93v-11A37.63,37.63,0,0,1,93.48,31.33h20.83A37.64,37.64,0,0,1,151.9,68.92v3.41a3,3,0,1,0,6,0V68.92A43.64,43.64,0,0,0,114.31,25.33Z"/><circle class="cls-3" cx="77.26" cy="77.53" r="4"/><circle class="cls-3" cx="130.6" cy="77.7" r="4"/><path class="cls-3" d="M105.15,103.88A56.32,56.32,0,0,1,72.39,93.32a2,2,0,0,1,2.32-3.26,52.1,52.1,0,0,0,59.13,1.21l1.62-1a2,2,0,0,1,2.19,3.34L136,94.62A56.37,56.37,0,0,1,105.15,103.88Z"/><path class="cls-4" d="M139.33,39.44l0,0c0,.46,0,.91,0,1.36-7.11,9.84-18.59,11.48-34.85,11.48-14.07,0-29.62-9.89-32.79-16.4.13-.53.26-1.06.4-1.58h0c-1.22-.06-3.41.35-3.41,2.68s-.69,5.06,1,6.69c1.25,1.25,5.87,8.61,8.47,11.48a32.38,32.38,0,0,0,20.5,10.39c5.19.54,10,.82,13.25.82A30.44,30.44,0,0,0,133.18,57s6-6.54,7.92-8.2c1.1-1,1.51-4,1.51-4.51V42.61A2.87,2.87,0,0,0,139.33,39.44Z"/><path class="cls-5" d="M139.3,39.47C138.69,24.39,128.06,5.94,108,4.55,87.73,3.82,76.78,16.88,72.09,34.33c-.14.52-.27,1.05-.4,1.58,3.17,6.51,18.72,16.4,32.79,16.4,16.26,0,27.74-1.64,34.85-11.48C139.33,40.38,139.32,39.93,139.3,39.47Z"/><path class="cls-6" d="M105.3,57.78A15.31,15.31,0,0,1,90.09,44.11,14.88,14.88,0,0,0,90,45.75a15.31,15.31,0,1,0,30.61,0,14.88,14.88,0,0,0-.09-1.64A15.31,15.31,0,0,1,105.3,57.78Z"/><path class="cls-7" d="M115.5,31.06l1.62-24.43a4.32,4.32,0,0,0-4-4.57l-9.49-.63a4.32,4.32,0,0,0-4.57,4L97.47,29.32a15.32,15.32,0,0,1,18,1.74Z"/><circle class="cls-2" cx="105.3" cy="42.47" r="15.3"/><path class="cls-8" d="M99,48.77a8.81,8.81,0,0,1,12.47-12.46Z"/></g></g></svg>