<svg xmlns="http://www.w3.org/2000/svg" xmlns:xlink="http://www.w3.org/1999/xlink" viewBox="0 0 149.66 236"><defs><style>.cls-1{fill:#fff;}.cls-2,.cls-6{fill:#171d26;}.cls-3{fill:#e6e6e6;}.cls-4{fill:url(#linear-gradient);}.cls-5{fill:#17a9f9;}.cls-6{opacity:0.15;isolation:isolate;}.cls-7{fill:url(#linear-gradient-2);}.cls-8{fill:#c6c6c6;}</style><linearGradient id="linear-gradient" x1="74.45" y1="66.27" x2="77.44" y2="34.83" gradientUnits="userSpaceOnUse"><stop offset="0" stop-color="#17a9f9"/><stop offset="1" stop-color="#26d8e2"/></linearGradient><linearGradient id="linear-gradient-2" x1="77.36" y1="37.91" x2="79.76" y2="-0.95" xlink:href="#linear-gradient"/></defs><title>grunty-1-fullColor-onDark</title><g id="Layer_2" data-name="Layer 2"><g id="Artwork"><path class="cls-1" d="M17.91,117.05s-6,30.2,2,67.44l3.69-5a122.19,122.19,0,0,0,3.1,29.19l3.61-2.6,2.84,18.14A14,14,0,0,0,47,236h0a14,14,0,0,0,13.54-10.53l4.37-17.16a39.13,39.13,0,0,0,24.82,0l4.37,17.16A14,14,0,0,0,107.62,236h0a14,14,0,0,0,13.81-11.81l2.84-18.14,3.61,2.6a122.19,122.19,0,0,0,3.1-29.19l3.69,5c8.06-37.24,2-67.44,2-67.44S136,86.52,131,71.67c-3.86-11.39-15.09-21.89-15.09-21.89h4c-8.54-8.54-20-12.83-28.89-15a58.38,58.38,0,0,0-27.44,0c-8.89,2.15-20.35,6.44-28.89,15h4S28.31,60.6,23.62,71.67C23.62,71.67,15.74,86,17.91,117.05Z"/><circle class="cls-2" cx="50.46" cy="77.8" r="4.03"/><circle class="cls-2" cx="104.14" cy="77.8" r="4.03"/><path class="cls-2" d="M78.43,104.22A56.66,56.66,0,0,1,45.61,93.69a2,2,0,0,1,2.31-3.26,52.48,52.48,0,0,0,59.54,1l1.62-1.06a2,2,0,1,1,2.2,3.34l-1.62,1.06A56.72,56.72,0,0,1,78.43,104.22Z"/><path class="cls-1" d="M114.16,162.92c9-2.27,13-4.69,13-4.69,30.53-12.14,21.13-36,21.13-36-.15-.71-.35-1.45-.58-2.21-1.85-5.92-7.52-17.51-13.09-27a128,128,0,0,1-9.05,31.42,23.35,23.35,0,0,1-10,6.45C105.74,135.26,93.2,133,93.2,133l2.8,3A98.73,98.73,0,0,1,63,128l-.37,5.06S53.52,126,42.29,124,20,135.44,25.81,148.66s30.39,8.76,30.39,8.76l-3.06,3.13c10.39,1.15,32.61,3.06,32.61,3.06l-3,3.13a139.82,139.82,0,0,0,31.46-3.82"/><path class="cls-3" d="M95,138.8a100.52,100.52,0,0,1-32.21-7.6L63,128a98.73,98.73,0,0,0,33,7.93l-2.8-3s12.54,2.3,22.39-2.15c10.9-3.69,13.43-12.1,13.31-15V116a18.7,18.7,0,0,1-10.7,17.67A58.3,58.3,0,0,1,95,138.8Z"/><path class="cls-3" d="M61.69,135.92s-9.15-7.06-20.39-9.07c-6.84-1.22-13.6,3.29-16.54,10,2.07-8.21,9.75-14.23,17.53-12.84,9.36,1.67,17.27,6.85,19.65,8.53Z"/><path class="cls-1" d="M32,163.19c-8.65-3.22-12.42-6.06-12.42-6.06C-9.49,141.8,2.42,119,2.42,119c.22-.69.5-1.4.81-2.14,2.47-5.69,9.35-16.6,15.9-25.48a128.52,128.52,0,0,0,5.64,32.21A23.43,23.43,0,0,0,34,131.11c9.31,5.48,22,4.53,22,4.53l-3.11,2.67a99,99,0,0,0,33.62-4.37L86.38,139s9.85-6,21.24-6.84,20.92,13.76,13.74,26.28-31.15,5.46-31.15,5.46l2.7,3.44c-10.45,0-32.75-.45-32.75-.45l2.7,3.44A140.47,140.47,0,0,1,32,163.19"/><path class="cls-3" d="M53.6,141.25a100.48,100.48,0,0,0,32.84-4.11l.11-3.2a99,99,0,0,1-33.62,4.37L56,135.64s-12.72,1-22-4.53C23.57,126.27,22,117.64,22.37,114.8v.12a18.68,18.68,0,0,0,8.75,18.71A58.09,58.09,0,0,0,53.6,141.25Z"/><path class="cls-3" d="M87.05,142s9.85-6,21.24-6.84c6.93-.48,13.17,4.73,15.38,11.71-1.18-8.4-8.17-15.2-16-14.65-9.49.66-17.91,5-20.45,6.38Z"/><path class="cls-3" d="M15.89,155.13s11.3,6.34,30.28,5.73c0,0-18.23,3.08-29.73-.68Z"/><path class="cls-3" d="M138.93,151.59s-9.38,8.93-27.92,13c0,0,17.18-1,27.38-7.51Z"/><path class="cls-4" d="M110.71,38l0,0c0,.45,0,.91,0,1.36-7.1,9.84-18.58,11.48-34.84,11.48-14.08,0-29.62-9.89-32.8-16.4.13-.53.27-1.06.41-1.58h0c-1.23-.06-3.42.35-3.42,2.67s-.68,5.06,1,6.7c1.25,1.25,5.88,8.61,8.47,11.48A32.36,32.36,0,0,0,70,64.14c5.19.55,10,.82,13.26.82a30.36,30.36,0,0,0,21.31-9.43s6-6.53,7.93-8.19c1.09-1,1.5-4,1.5-4.51V41.19A2.86,2.86,0,0,0,110.71,38Z"/><path class="cls-5" d="M110.68,38.05C110.07,23,99.44,4.52,79.35,3.13,59.12,2.4,48.16,15.45,43.48,32.91c-.14.52-.28,1.05-.41,1.58,3.18,6.51,18.72,16.4,32.8,16.4,16.26,0,27.74-1.64,34.84-11.48C110.71,39,110.7,38.5,110.68,38.05Z"/><path class="cls-6" d="M76.69,56.35A15.31,15.31,0,0,1,61.47,42.69a14.75,14.75,0,0,0-.09,1.64,15.31,15.31,0,0,0,30.61,0,14.75,14.75,0,0,0-.09-1.64A15.29,15.29,0,0,1,76.69,56.35Z"/><path class="cls-7" d="M86.88,29.64,88.5,5.21a4.3,4.3,0,0,0-4-4.57L75,0a4.32,4.32,0,0,0-4.58,4L68.85,27.9a15.32,15.32,0,0,1,18,1.74Z"/><circle class="cls-1" cx="76.69" cy="41.05" r="15.3"/><path class="cls-8" d="M70.39,47.35A8.81,8.81,0,0,1,82.85,34.89Z"/></g></g></svg>