<svg xmlns="http://www.w3.org/2000/svg" viewBox="0 0 157.56 243.32"><defs><style>.cls-1{fill:#1b242d;}</style></defs><title>grunty-1-dkblue</title><g id="Layer_2" data-name="Layer 2"><g id="Artwork"><path class="cls-1" d="M156.11,124.41c-.17-.74-.37-1.52-.62-2.3-1.76-5.66-6.88-16.4-12.5-26.22-1.06-9.52-2.49-17-4.25-22.18-2.12-6.24-6.1-12.09-9.79-16.61h4.59l-6.83-6.83a51.88,51.88,0,0,0-4.09-3.64v-.07a7.33,7.33,0,0,0-.13-2,7.08,7.08,0,0,0-3.62-5.68c-1.25-9-4.34-16.47-9.2-22.35A35.83,35.83,0,0,0,96.59,6.59a8.24,8.24,0,0,0-1.66-3A8.11,8.11,0,0,0,89.35.74L79.59,0,79,0h0a8.21,8.21,0,0,0-7.33,4.59,35,35,0,0,0-14.6,7.84c-5.69,5.11-9.87,12.19-12.44,21a7.09,7.09,0,0,0-4.39,6l-.16,2.27a10.37,10.37,0,0,0,.15,2.73,9.79,9.79,0,0,0,.29,1.69,49.06,49.06,0,0,0-4.67,4.1L29,57.1h5A75.53,75.53,0,0,0,24,73.27c-.73,1.42-3.94,8.21-5.55,21.11-6.59,9.15-12.55,18.85-14.89,24.25-.33.76-.62,1.51-.87,2.23-1.33,2.88-10,23.94,13.41,39.78l.1.84A190.23,190.23,0,0,0,20,188.66l1.88,8.68,2.1-2.85A119.55,119.55,0,0,0,26.8,212.9l1.38,5.81,3.17-2.29,1.84,11.71a18,18,0,0,0,35.17,1.64l3.36-13.18a43.51,43.51,0,0,0,19.09,0l3.36,13.18a18,18,0,0,0,35.18-1.64l1.83-11.71,3.17,2.29,1.39-5.81a120.65,120.65,0,0,0,2.83-18.41l2.1,2.86,1.88-8.69a189.68,189.68,0,0,0,4-29.63l.2-2C162,143.85,156.94,126.85,156.11,124.41ZM121.56,51c.79.69,1.57,1.39,2.32,2.14h-3.47A10.75,10.75,0,0,0,121.56,51ZM74.83,7.86h0a4,4,0,0,1,.15-.8,1.84,1.84,0,0,1,.09-.25,4.34,4.34,0,0,1,.2-.5A1.91,1.91,0,0,1,75.43,6a4.53,4.53,0,0,1,.26-.4,2.4,2.4,0,0,1,.22-.24c.1-.11.2-.23.31-.33a2.69,2.69,0,0,1,.27-.2,3.32,3.32,0,0,1,.36-.26l.31-.16c.13-.06.26-.13.4-.18l.34-.1.43-.1c.12,0,.24,0,.37,0a3.92,3.92,0,0,1,.6,0l9.75.72A4.17,4.17,0,0,1,92.9,9.18h0L91.22,31.9a17.36,17.36,0,0,0-18.08-1.1Zm6.43,24.91c.33,0,.66,0,1,0a13.37,13.37,0,0,1,9.2,4.63h0a13.43,13.43,0,1,1-10.2-4.67Zm-37.05,7h0a2.82,2.82,0,0,1,.1-.58,1.34,1.34,0,0,1,.07-.18,2.24,2.24,0,0,1,.14-.36,2.12,2.12,0,0,1,.12-.2c.06-.09.11-.19.18-.28S44.94,38,45,38l.23-.23.19-.16.26-.18.23-.12a2.52,2.52,0,0,1,.29-.12l.25-.08.3-.07L47,37a3.23,3.23,0,0,1,.44,0l.29.3C52.09,19.3,62,12,70.59,9.09l-1.85,25A17.44,17.44,0,0,0,80,63.64c.44,0,.88,0,1.31,0A17.44,17.44,0,0,0,97,38.69a17.86,17.86,0,0,0-1.9-3.08L96.9,11.2a32.08,32.08,0,0,1,8.85,6.92c4.66,5.19,8.48,12.88,9.49,24.25l.47-.34a3,3,0,0,1,2.79,3.23l-.17,2.28a5.62,5.62,0,0,1-.14.82h0a6.52,6.52,0,0,1-1.7,3.29l-7.75,8.08c-.38.39-.76.77-1.16,1.14l-.39.35c-.27.25-.54.49-.82.72l-.49.4-.77.61-.54.39c-.26.18-.51.37-.77.54l-.58.38c-.26.16-.52.33-.78.48l-.6.35-.8.44-.61.32-.83.4-.62.28-.86.36-.62.24-.92.32-.58.2L95,68l-.49.14c-.51.13-1,.25-1.52.35h0c-.52.11-1,.2-1.58.28l-.51.06c-.36,0-.72.1-1.08.13l-.63,0-1,.07h-.67l-.65,0h-.22c-.68,0-1.35,0-2-.07l-10.27-.76A30.44,30.44,0,0,1,51.73,55.51l-5.84-8.23-.63-.89A6.66,6.66,0,0,1,44,42.05ZM142.89,155V155l-.21.19-.45.39c-2.08,1.76-9.31,7.27-21.6,11-1.79.54-3.67,1.05-5.67,1.49,0,0,1.21-.07,3.18-.3,5.44-.62,16.71-2.44,24.21-7.21l.17-1.79a186.09,186.09,0,0,1-3.89,29.17l-3.69-5a122.8,122.8,0,0,1-3.1,29.19l-3.61-2.6-2.85,18.14a14,14,0,0,1-27.34,1.28l-4.37-17.16a39.16,39.16,0,0,1-24.83,0l-4.37,17.16a14,14,0,0,1-27.34-1.28l-2.85-18.14-3.6,2.6a122.52,122.52,0,0,1-3.11-29.19l-3.69,5a186.85,186.85,0,0,1-3.73-26.6l.25,2.29A45.31,45.31,0,0,0,33,165.39a100.76,100.76,0,0,0,17.17-1.15c-15.61.5-26-3.69-29.23-5.2l-.92-.45v-.12c-24.5-15.22-13.61-36-13.61-36,.23-.69.5-1.4.82-2.14C9.56,114.83,16,104.6,22.26,95.94c1.64-14.17,5.32-20.89,5.32-20.89,4.7-11.07,15.1-21.89,15.1-21.89h-4a47.2,47.2,0,0,1,4-3.53l5.82,8.2A34.32,34.32,0,0,0,74,72.23L84.27,73c.84.06,1.69.09,2.54.09A34.59,34.59,0,0,0,111.63,62.5l7.75-8.08a10.31,10.31,0,0,0,.8-1C122,55.29,131.48,64.81,135,75.05c2,5.89,3.3,14.23,4.15,22.16,5.4,9.36,10.78,20.41,12.57,26.15.24.76.44,1.5.59,2.21C152.26,125.57,158.89,142.45,142.89,155Z"/><circle class="cls-1" cx="54.42" cy="83.18" r="5.03"/><circle class="cls-1" cx="108.11" cy="83.18" r="5.03"/><path class="cls-1" d="M49,103.8a57.42,57.42,0,0,0,65.18,1.13l1.62-1.07a3,3,0,0,0,1.28-1.9,2.94,2.94,0,0,0-.43-2.25,3,3,0,0,0-4.15-.86l-1.62,1.07a51.47,51.47,0,0,1-58.41-1A3,3,0,1,0,49,103.8Z"/><path class="cls-1" d="M133.37,119.32v-.12h0l-.52,0-.47,0a8.65,8.65,0,0,1-.3,2.11,14.43,14.43,0,0,1-1.17,3.06c-1.66,3.25-5,7.11-11.55,9.32a27.57,27.57,0,0,1-4.45,1.54,13.4,13.4,0,0,0-3.35-.21,43,43,0,0,0-7.91,1.35,46.82,46.82,0,0,1-6.39-.56l-1.49-.28,2.43,2.59c-.38.14-.75.28-1.11.43-2.1-.21-4.13-.48-6.08-.79l0-1.19-.69.24s-.64.22-1.72.54a94.44,94.44,0,0,1-21.4-6.46l-.66-.31-.32,4.27.32.15.16.07a95.43,95.43,0,0,0,13,4.4,101.93,101.93,0,0,1-21.51,1.72l3.3-2.82-1.52.11c-.12,0-12.68.87-21.79-4.49a22,22,0,0,1-2.42-1.3,13.44,13.44,0,0,1,9.42-2c11,2,20.08,8.91,20.17,9l.73.56.3-4,0-.59-.23-.17c-2.25-1.59-10.34-6.91-19.85-8.61a15,15,0,0,0-12.86,4.28,17.68,17.68,0,0,1-5.73-7.59,14.81,14.81,0,0,1-.85-3.21,8.4,8.4,0,0,1-.07-2.12l-.46-.07-.52-.08h0l0,.11a19.1,19.1,0,0,0,5,16l.35.37h0c.24.24.48.46.73.69l.37.33a18.17,18.17,0,0,0,2.5,1.82,58.69,58.69,0,0,0,22.68,7.69h0c1.39.06,2.76.09,4.1.09a101.84,101.84,0,0,0,27.27-3.73l1.09-.32.38-.12v.18l0,.5.27,0,0,.46-.13,4,.79-.49a51.26,51.26,0,0,1,6.54-3.18c.34-.14.69-.28,1.05-.41s1-.38,1.54-.57a45.71,45.71,0,0,1,11.88-2.6,12.65,12.65,0,0,1,2.82.15c.34.06.69.13,1,.21s.59.15.88.25a16.38,16.38,0,0,1,10.14,10.75l.48-.11.49-.11a18.38,18.38,0,0,0-7-12.12c.43-.19.87-.36,1.3-.56A19.16,19.16,0,0,0,133.37,119.32Z"/><path class="cls-1" d="M88.36,40a9.26,9.26,0,0,0-14,12.1Z"/></g></g></svg>