<svg xmlns="http://www.w3.org/2000/svg" xmlns:xlink="http://www.w3.org/1999/xlink" viewBox="0 0 233.33 236.78"><defs><style>.cls-1{fill:#b6b9bc;}.cls-2{fill:#fff;}.cls-3,.cls-7{fill:#171d26;}.cls-4{fill:#e6e6e6;}.cls-5{fill:url(#linear-gradient);}.cls-6{fill:#17a9f9;}.cls-7{opacity:0.15;isolation:isolate;}.cls-8{fill:url(#linear-gradient-2);}.cls-9{fill:#c6c6c6;}</style><linearGradient id="linear-gradient" x1="151.6" y1="68.01" x2="154.59" y2="36.57" gradientUnits="userSpaceOnUse"><stop offset="0" stop-color="#17a9f9"/><stop offset="1" stop-color="#26d8e2"/></linearGradient><linearGradient id="linear-gradient-2" x1="154.51" y1="39.66" x2="156.91" y2="0.79" xlink:href="#linear-gradient"/></defs><title>grunty-7-fullColor-onLight</title><g id="Layer_2" data-name="Layer 2"><g id="Artwork"><path class="cls-1" d="M184.72,236.78a15.89,15.89,0,0,1-15.4-12l-3.81-15a41.53,41.53,0,0,1-21.83,0l-3.82,15a15.88,15.88,0,0,1-31.08-1.46l-2.33-14.8L103.09,211l-.69-2.9a122.39,122.39,0,0,1-3.09-23.43l-2.73,3.73L95.64,184a186.52,186.52,0,0,1-3.91-29.29l-.81-8.32a60.57,60.57,0,0,1-8.37-1l-3.39-.66,2.25-2.6c-6.45-.75-19.87-3.58-39.54-14l-4.32-2.28,4.79-1.44c-5.77-3.9-17.25-11.67-23.41-16l-3.34-2.37,2.72-.82C11,101.83-1,94.38.06,83.16A20,20,0,0,1,19.6,64.88a15.5,15.5,0,0,1,9.9,3.4A52.91,52.91,0,0,1,41.82,83.52l2.46-3.76L46,82.14a96.59,96.59,0,0,0,20,19.29L65,97.69l4.26,2.74c.12.07,11.89,7.54,24.68,7.71.59-10.41,2-27.23,5.41-37.25,2.64-7.77,8.45-15,12.17-19.11h-4.1l3.41-3.41a47.69,47.69,0,0,1,5-4.3,8.74,8.74,0,0,1-.85-4.42l.17-2.26a5,5,0,0,1,4-4.53c5.27-19.45,17.09-26.34,26.7-28.6A6.15,6.15,0,0,1,151.67,0l.45,0,9.7.71A6.15,6.15,0,0,1,167.44,6c16.23,6.77,20.81,22.16,22,32a4.87,4.87,0,0,1,2.24,1.49,5,5,0,0,1,1.19,3.63l0,.56a47.69,47.69,0,0,1,5.47,4.67l3.41,3.41h-4.36c3.49,4.1,9.13,11.37,12.34,18.89.48.91,3.81,7.65,5.4,20.86,6.5,9,12.59,18.86,14.88,24.14.33.75.61,1.48.84,2.16,1,2.1,9.85,22.54-13.35,37.66l-.21,1.91A187.33,187.33,0,0,1,213.55,184l-.94,4.34-2.74-3.72a123,123,0,0,1-3.08,23.42l-.7,2.9-3.36-2.42-2.32,14.8A15.8,15.8,0,0,1,184.72,236.78Z"/><path class="cls-2" d="M213.59,116.62s6,30-2,67l-3.67-5a121.79,121.79,0,0,1-3.08,29L201.26,205l-2.83,18a13.88,13.88,0,0,1-13.71,11.73h0a13.88,13.88,0,0,1-13.46-10.46l-4.34-17a39,39,0,0,1-24.66,0l-4.34,17a13.88,13.88,0,0,1-13.45,10.46h0a13.88,13.88,0,0,1-13.72-11.73l-2.83-18-3.58,2.59a121.79,121.79,0,0,1-3.08-29l-3.67,5c-8-37-2-67-2-67s.67-30.34,5.67-45.09c3.83-11.31,15-21.75,15-21.75h-4C120.74,41.3,132.13,37,141,34.9a57.93,57.93,0,0,1,27.27,0c8.82,2.13,20.21,6.4,28.69,14.88h-4s10.34,10.75,15,21.75C207.92,71.53,215.75,85.78,213.59,116.62Z"/><circle class="cls-3" cx="181.26" cy="77.62" r="4"/><circle class="cls-3" cx="127.92" cy="77.62" r="4"/><path class="cls-3" d="M153.47,103.88a56.33,56.33,0,0,1-31-9.37l-1.61-1.06A2,2,0,1,1,123,90.11l1.61,1.06a52.12,52.12,0,0,0,59.14-1,2,2,0,1,1,2.31,3.26A56.27,56.27,0,0,1,153.47,103.88Z"/><path class="cls-2" d="M95.53,110.13c-14.18.46-27.34-8-27.34-8l1,3.94A98.09,98.09,0,0,1,44.36,83.3l-2.77,4.22S37,77,28.24,69.83,3.37,69.06,2.05,83.34s22.2,22.24,22.2,22.24l-4.16,1.25c8.48,6,26.87,18.35,26.87,18.35l-4.16,1.25c27.54,14.52,42.74,14,42.74,14l-2.61,3c23.74,4.63,43.6-7.28,43.6-7.28"/><path class="cls-2" d="M199.6,162.45c8.6-3.19,12.35-6,12.35-6,28.87-15.23,17-37.84,17-37.84-.23-.68-.5-1.39-.82-2.12-2.45-5.66-9.28-16.5-15.79-25.32a127.42,127.42,0,0,1-5.6,32,23.27,23.27,0,0,1-9.18,7.43c-9.25,5.44-21.88,4.51-21.88,4.51l3.08,2.64a98.31,98.31,0,0,1-33.4-4.33l.17,5s-9.79-6-21.1-6.79-20.79,13.68-13.65,26.11,31,5.43,31,5.43l-2.69,3.42c10.38,0,32.54-.45,32.54-.45l-2.69,3.42a139.57,139.57,0,0,0,30.67-7.12"/><path class="cls-4" d="M178.13,140.65a99.5,99.5,0,0,1-32.62-4.08l-.11-3.17a98.31,98.31,0,0,0,33.4,4.33l-3.08-2.64s12.63.93,21.88-4.51c10.38-4.8,12-13.38,11.56-16.2l0,.11a18.59,18.59,0,0,1-8.7,18.59A57.55,57.55,0,0,1,178.13,140.65Z"/><path class="cls-4" d="M144.9,141.36s-9.78-6-21.1-6.79c-6.88-.48-13.08,4.7-15.27,11.62,1.17-8.33,8.11-15.09,15.94-14.55,9.43.66,17.79,4.94,20.32,6.35Z"/><path class="cls-4" d="M215.6,154.45s-11.22,6.29-30.08,5.68c0,0,18.11,3.06,29.53-.67Z"/><path class="cls-5" d="M187.86,39.77l0,0c0,.46,0,.91,0,1.36C180.75,51,169.28,52.63,153,52.63c-14.07,0-29.62-9.89-32.79-16.4.13-.53.26-1,.4-1.58h0c-1.22-.06-3.41.35-3.41,2.68s-.69,5.06,1,6.69c1.25,1.25,5.87,8.61,8.47,11.48a32.34,32.34,0,0,0,20.5,10.39c5.19.54,10,.82,13.25.82a30.42,30.42,0,0,0,21.32-9.43s6-6.54,7.93-8.2c1.09-1,1.5-4,1.5-4.51V42.93A2.85,2.85,0,0,0,187.86,39.77Z"/><path class="cls-6" d="M187.83,39.79c-.61-15.08-11.24-33.52-31.33-34.92-20.23-.73-31.19,12.33-35.88,29.78-.14.53-.27,1.05-.4,1.58,3.17,6.51,18.72,16.4,32.79,16.4,16.27,0,27.74-1.64,34.85-11.48C187.86,40.7,187.85,40.25,187.83,39.79Z"/><path class="cls-7" d="M153.84,58.1a15.31,15.31,0,0,1-15.22-13.67,14.88,14.88,0,0,0-.09,1.64,15.31,15.31,0,1,0,30.61,0,14.88,14.88,0,0,0-.09-1.64A15.31,15.31,0,0,1,153.84,58.1Z"/><path class="cls-8" d="M164,31.38,165.65,7a4.33,4.33,0,0,0-4-4.58l-9.48-.63a4.33,4.33,0,0,0-4.58,4L146,29.64a15.32,15.32,0,0,1,18,1.74Z"/><circle class="cls-2" cx="153.83" cy="42.79" r="15.3"/><path class="cls-9" d="M147.53,49.09A8.81,8.81,0,1,1,160,36.63Z"/></g></g></svg>