<svg xmlns="http://www.w3.org/2000/svg" xmlns:xlink="http://www.w3.org/1999/xlink" viewBox="0 0 254.24 238.78"><defs><style>.cls-1{fill:#b6b9bc;}.cls-2{fill:#fff;}.cls-3,.cls-6{fill:#171d26;}.cls-4{fill:url(#linear-gradient);}.cls-5{fill:#17a9f9;}.cls-6{opacity:0.15;isolation:isolate;}.cls-7{fill:url(#linear-gradient-2);}.cls-8{fill:#c6c6c6;}</style><linearGradient id="linear-gradient" x1="122.47" y1="68" x2="125.47" y2="36.56" gradientUnits="userSpaceOnUse"><stop offset="0" stop-color="#17a9f9"/><stop offset="1" stop-color="#26d8e2"/></linearGradient><linearGradient id="linear-gradient-2" x1="125.39" y1="39.65" x2="127.79" y2="0.78" xlink:href="#linear-gradient"/></defs><title>grunty-hs-3-fullColor-onLight</title><g id="Layer_2" data-name="Layer 2"><g id="Artwork"><path class="cls-1" d="M155.09,238.78a15.87,15.87,0,0,1-15.39-12l-3.82-15a41.53,41.53,0,0,1-21.83,0l-3.81,15a15.89,15.89,0,0,1-31.09-1.46l-2.32-14.8L73.47,213l-.7-2.9a122.16,122.16,0,0,1-3.08-23.42L67,190.38,66,186a191.12,191.12,0,0,1-2.82-62.46A69,69,0,0,0,52,139.25l-2.14,4.37-1.16-3.47a96.1,96.1,0,0,0-6.39,27l-.15,2.92-4.1-1.84A52.68,52.68,0,0,1,36,187.73c-2.2,6.7-9,11.2-17,11.2a20,20,0,0,1-15.85-7.81c-6.93-8.89-.84-21.65,3.42-28.47l-2.74.78,1.54-3.8c2.82-7,8.29-19.73,11-26.12l-4.81,1.37,2.4-4.25c11-19.36,20.78-29,25.74-33.1l-3.29-1,2.49-2.38a63.29,63.29,0,0,1,18.7-12.26v-8.3A12.34,12.34,0,0,1,70,61.28h1.18A45.79,45.79,0,0,1,86.28,37.69l0-.3a5,5,0,0,1,4-4.53C95.57,13.41,107.39,6.52,117,4.26A6.17,6.17,0,0,1,122.84,0l.45,0,9.7.71A6.16,6.16,0,0,1,138.61,6c8.28,3.46,18.18,11.14,21.44,28.16a45.3,45.3,0,0,1,21.5,36.2A61.41,61.41,0,0,1,197.09,77L200,78.83l-3,1.66c5.72,2.92,17.38,10.25,32.23,26.82l3.26,3.64-5-.32c4.06,5.66,12.13,16.94,16.38,23.15l2.32,3.39-2.84-.18c5.62,5.75,14.3,16.91,9.43,27.08a20,20,0,0,1-18.12,11.49h0c-6.3,0-11.78-2.9-14.65-7.77a52.72,52.72,0,0,1-6.26-18.57l-3.62,2.67-.77-2.82a96,96,0,0,0-12-25l-.52,4.81-3.07-5.21a47.54,47.54,0,0,0-6.11-7.83c.14,1.08.29,2.18.44,3.3,0,.3,3.79,30-4.19,66.93l-.94,4.34-2.73-3.72a122.3,122.3,0,0,1-3.09,23.42l-.69,2.9-3.36-2.42-2.33,14.8A15.8,15.8,0,0,1,155.09,238.78Z"/><path class="cls-2" d="M186.13,119.37S190,148.62,182,185.62l-3.67-5a121.79,121.79,0,0,1-3.08,29L171.63,207l-2.82,18a13.88,13.88,0,0,1-13.72,11.73h0a13.86,13.86,0,0,1-13.45-10.46l-4.34-17a39,39,0,0,1-24.67,0l-4.33,17a13.88,13.88,0,0,1-13.46,10.46h0a13.88,13.88,0,0,1-13.71-11.73L78.3,207l-3.58,2.59a121.51,121.51,0,0,1-3.09-29l-3.66,5c-8-37-2-67-2-67-4.17-23.17,5.66-45.09,5.66-45.09,4.67-11,15-21.75,15-21.75h-4C91.12,43.3,102.51,39,111.33,36.9a57.93,57.93,0,0,1,27.27,0c8.83,2.13,20.22,6.4,28.7,14.88h-4s10.33,10.75,15,21.75C178.3,73.53,181.78,86.5,186.13,119.37Z"/><circle class="cls-3" cx="98.3" cy="79.62" r="4"/><circle class="cls-3" cx="151.63" cy="79.62" r="4"/><path class="cls-3" d="M126.09,105.88A56.27,56.27,0,0,1,93.48,95.41a2,2,0,1,1,2.31-3.26,52.1,52.1,0,0,0,59.13,1l1.61-1.06a2,2,0,0,1,2.2,3.34l-1.61,1.06A56.33,56.33,0,0,1,126.09,105.88Z"/><path class="cls-2" d="M69.13,116.28C57.8,123,50.24,138.37,50.24,138.37L49,134.51a98.26,98.26,0,0,0-8.61,32.56L35.74,165s1.85,11.33-1.69,22.1-20.51,14.08-29.33,2.78,6.67-30.71,6.67-30.71l-4.18,1.2c3.89-9.62,12.7-30,12.7-30l-4.18,1.2c15.34-27.1,28.42-34.87,28.42-34.87l-3.84-1.13C57.78,78.89,80.94,78.19,80.94,78.19"/><path class="cls-2" d="M179.37,107.17c9.73,4.53,16.14,15.46,16.14,15.46l.43-4a98.17,98.17,0,0,1,15.38,30l4.06-3s.61,11.46,6.38,21.22,23.05,9.37,29.25-3.57-13.09-28.56-13.09-28.56l4.33.27c-5.86-8.56-18.82-26.54-18.82-26.54l4.34.27c-20.78-23.18-35.22-28-35.22-28l3.5-1.93c-20.65-12.59-43.42-8.31-43.42-8.31"/><path class="cls-1" d="M136.05,29.28H115.22a43.66,43.66,0,0,0-42.51,34H70A10.34,10.34,0,0,0,59.63,73.61V83A10.33,10.33,0,0,0,70,93.28H72.7a42.46,42.46,0,0,0,41.33,33h13.6a5,5,0,0,0,0-10h-5a5,5,0,0,0-4.9,4H114a36.44,36.44,0,0,1-36.4-36.4v-11a37.63,37.63,0,0,1,37.59-37.59h20.83a37.63,37.63,0,0,1,37.58,37.59v3.41a3,3,0,0,0,6,0V72.87A43.64,43.64,0,0,0,136.05,29.28Z"/><path class="cls-4" d="M158.74,39.76l0,0c0,.46,0,.91,0,1.37-7.11,9.83-18.59,11.47-34.85,11.47-14.07,0-29.62-9.88-32.79-16.39.13-.53.26-1.06.4-1.59h0c-1.22,0-3.41.36-3.41,2.68s-.69,5.06,1,6.7c1.25,1.24,5.87,8.6,8.47,11.47A32.34,32.34,0,0,0,118,65.88c5.19.55,10,.82,13.25.82a30.38,30.38,0,0,0,21.32-9.43s6-6.54,7.93-8.2c1.09-1,1.5-4,1.5-4.51V42.92A2.85,2.85,0,0,0,158.74,39.76Z"/><path class="cls-5" d="M158.71,39.78C158.1,24.7,147.47,6.26,127.38,4.87,107.15,4.14,96.19,17.19,91.5,34.64c-.14.53-.27,1.06-.4,1.59,3.17,6.51,18.72,16.39,32.79,16.39,16.26,0,27.74-1.64,34.85-11.47C158.74,40.69,158.73,40.24,158.71,39.78Z"/><path class="cls-6" d="M124.72,58.09A15.31,15.31,0,0,1,109.5,44.42a14.88,14.88,0,0,0-.09,1.64,15.31,15.31,0,1,0,30.61,0,14.88,14.88,0,0,0-.09-1.64A15.3,15.3,0,0,1,124.72,58.09Z"/><path class="cls-7" d="M134.91,31.37,136.53,7a4.33,4.33,0,0,0-4-4.58L123,1.75a4.31,4.31,0,0,0-4.57,4l-1.58,23.89a15.3,15.3,0,0,1,18,1.73Z"/><circle class="cls-2" cx="124.71" cy="42.79" r="15.3"/><path class="cls-8" d="M118.41,49.09a8.82,8.82,0,0,1,12.47-12.47Z"/></g></g></svg>