<svg xmlns="http://www.w3.org/2000/svg" viewBox="0 0 237.39 245.11"><title>grunty-5-black</title><g id="Layer_2" data-name="Layer 2"><g id="Artwork"><path d="M237.31,89.3a22,22,0,0,0-21.53-20.09,17.46,17.46,0,0,0-11.16,3.85,53.05,53.05,0,0,0-11.15,13l-2.3-3.51-3.4,4.77a91.35,91.35,0,0,1-15,15.33l.78-3.07L165,105.08c-.11.06-10.28,6.5-21.71,7.31-.66-10.58-2.14-26.19-5.4-35.81-2.12-6.26-6.2-12.16-9.71-16.47h4.57L126,53.28a49.36,49.36,0,0,0-4.66-4.07,10.42,10.42,0,0,0,.2-1.38l.17-2.27a7,7,0,0,0-3.61-6.67c-1.25-9-4.34-16.47-9.2-22.35A36,36,0,0,0,95.77,6.59,8.15,8.15,0,0,0,88.53.74L78.78,0l-.61,0h0a8.21,8.21,0,0,0-7.33,4.59,34.91,34.91,0,0,0-14.6,7.84c-5.69,5.11-9.87,12.19-12.44,21a7.07,7.07,0,0,0-4.39,6l-.17,2.27a10.69,10.69,0,0,0,1.86,6.83,49.11,49.11,0,0,0-5.47,4.7L28.8,60.11h5a75.66,75.66,0,0,0-9.94,16c-.66,1.29-3.91,8.14-5.51,21-6.46,9-12.49,18.78-14.79,24.1-.33.75-.61,1.49-.85,2.19A30.65,30.65,0,0,0,0,137.34c.34,7.09,3.44,17.15,16,25.65a190.24,190.24,0,0,0,3.84,27.8l1.88,8.69,2.08-2.83a120.78,120.78,0,0,0,2.81,18.22L28,220.68l3.14-2.27L33,230a17.89,17.89,0,0,0,35,1.64l3.33-13.08a43.19,43.19,0,0,0,18.93,0l3.33,13.08a17.89,17.89,0,0,0,35-1.64l1.81-11.59,3.15,2.27,1.38-5.81a120.91,120.91,0,0,0,2.82-18.22l2.07,2.83,1.88-8.69a189.6,189.6,0,0,0,4.2-36.12,60.78,60.78,0,0,0,7.32-1l6.77-1.32-2.13-2.46c7.46-1.34,19.84-4.79,36.59-13.62l8.64-4.56-5.44-1.63c6.15-4.16,14.87-10.09,20-13.69l6.69-4.73-2-.6C229.66,106.81,238.26,99.54,237.31,89.3ZM93.88,47.22A13.46,13.46,0,1,1,80.44,32.77c.33,0,.67,0,1,0a13.36,13.36,0,0,1,8,3.42,15.23,15.23,0,0,1,1.2,1.21,13.8,13.8,0,0,1,2.16,3.44A13.54,13.54,0,0,1,93.88,47.22ZM74.26,6.8a4.29,4.29,0,0,1,.19-.5c0-.09.11-.18.17-.27s.16-.27.25-.4l.22-.24a3.31,3.31,0,0,1,.32-.33l.26-.2L76,4.6l.31-.16.4-.18.35-.1.42-.1.37,0a4,4,0,0,1,.6,0l9.76.72a3.8,3.8,0,0,1,.83.15,4.17,4.17,0,0,1,1.44.73,4.27,4.27,0,0,1,.7.71,4.16,4.16,0,0,1,.88,2.33,4.68,4.68,0,0,1,0,.53h0L90.4,31.9a17.36,17.36,0,0,0-18.08-1.1L74,7.86a4.29,4.29,0,0,1,.14-.81C74.19,7,74.23,6.88,74.26,6.8Zm-31,35.25.17-2.28a3.83,3.83,0,0,1,.1-.59l.07-.18.14-.36.12-.19a2.9,2.9,0,0,1,.19-.29c0-.07.11-.12.16-.18a2.39,2.39,0,0,1,.22-.23l.2-.16.26-.18.23-.11a1.43,1.43,0,0,1,.28-.13l.25-.08.31-.07.27,0a3.09,3.09,0,0,1,.43,0l.3.3C51.27,19.3,61.21,12,69.78,9.09l-1.85,25a17.58,17.58,0,0,0-4.45,8.13A17.35,17.35,0,0,0,79.17,63.64c.44,0,.87,0,1.31,0A17.45,17.45,0,0,0,97.86,47.52a17.29,17.29,0,0,0-2.38-10.15,17.08,17.08,0,0,0-1.2-1.76L96.09,11.2a32.2,32.2,0,0,1,5.23,3.47,30.73,30.73,0,0,1,3.05,2.83,33.25,33.25,0,0,1,4.42,5.9q.36.6.69,1.23a36.62,36.62,0,0,1,1.87,4c.19.48.37,1,.54,1.48A43.54,43.54,0,0,1,113.28,35a55.7,55.7,0,0,1,1.15,7.41l.46-.34a3.11,3.11,0,0,1,.61.1,3.05,3.05,0,0,1,2.14,2.37,2.75,2.75,0,0,1,0,.76l-.09,1.32-.07,1a6.92,6.92,0,0,1-1,3.09,5,5,0,0,1-.43.6,3.62,3.62,0,0,1-.36.42l-7.75,8.08h0c-.38.39-.76.76-1.15,1.13l-.4.36-.81.71-.5.4c-.25.21-.51.41-.77.61l-.54.39c-.25.19-.51.37-.76.54l-.58.38c-.26.16-.52.33-.78.48l-.6.35-.8.44-.61.32-.83.4-.62.28-.86.36-.62.24-.91.32-.6.2q-.51.16-1,.3l-.51.15c-.49.12-1,.24-1.48.34l-.08,0c-.52.11-1,.2-1.57.28l-.52.07c-.36,0-.71.09-1.07.12l-.64,0-1,.07h-.68l-.65,0h-.22c-.67,0-1.34,0-2-.07l-10.27-.76A30.44,30.44,0,0,1,50.92,55.51l-4.21-5.93-2.27-3.19a.25.25,0,0,0,0-.07,7.3,7.3,0,0,1-.56-1A6.65,6.65,0,0,1,43.23,42.05Zm167.9,69.86,4.17,1.25c-8.48,6-26.88,18.35-26.88,18.35l4.16,1.25c-.83.44-1.65.86-2.46,1.27l-.79.4-1.61.8-.93.45-1.39.67-1,.45-1.29.59-1,.43-1.23.55-.94.4-1.18.5-.92.38-1.13.46-.9.35-1.09.42-.86.32c-.35.14-.71.26-1,.39l-.82.3-1,.36-.76.26-1,.34-.7.23-1,.32-.63.19-1.12.33-.46.14-1.51.42-.17,0-1.26.33-.48.11-.88.21-.53.13-.75.16-.52.11-.69.15-.5.09-.63.12-.48.09-.57.1-.45.07-.53.08-.41.06-.49.07-.38,0-.44.05-.34,0-.41,0-.29,0-.37,0-.26,0-.35,0h-.19l-.32,0h-1.24l2.61,3a58.78,58.78,0,0,1-10.5,1.06,188,188,0,0,1-4.16,39.1l-3.66-5a121.51,121.51,0,0,1-3.09,29l-3.58-2.58-2.83,18a13.88,13.88,0,0,1-13.71,11.73h0a13.88,13.88,0,0,1-13.46-10.46l-4.33-17a39,39,0,0,1-24.67,0l-4.34,17A13.88,13.88,0,0,1,37,229.38l-2.82-18-3.59,2.58a121.79,121.79,0,0,1-3.08-29l-3.67,5a185.92,185.92,0,0,1-3.7-26.37l.24,2.22c11.42,3.73,29.54.67,29.54.67-17.66.57-28.62-4.91-29.95-5.61a.41.41,0,0,0,0-.11C-4.42,145.61,6.4,124.91,6.4,124.91a22.57,22.57,0,0,1,.81-2.11c2.35-5.42,8.71-15.58,15-24.19,1.62-14.08,5.28-20.75,5.28-20.75,4.67-11,15-21.75,15-21.75h-4a45.21,45.21,0,0,1,4.95-4.27l4.25,6a34.32,34.32,0,0,0,25.52,14.4L83.46,73c.84.06,1.69.09,2.53.09A34.58,34.58,0,0,0,110.81,62.5l7.76-8.08A10.65,10.65,0,0,0,119.69,53a43.27,43.27,0,0,1,3.44,3.08h-4s11.16,10.43,15,21.75c3.58,10.58,4.94,29.18,5.42,38.85l.3-.25h1.83l.7,0c.21,0,.41,0,.61,0l.69,0,.59-.05.69-.06.59-.07.67-.09.6-.08.65-.11.59-.1.64-.12.58-.12.63-.13.58-.13.61-.15.56-.14.6-.16.55-.15.59-.17.53-.17.57-.17L155,114l.55-.19.51-.17.54-.2.48-.17.52-.2.47-.18.5-.2.45-.18.48-.2.43-.19.45-.19.42-.19.42-.19.4-.18.4-.19.36-.17.39-.19.34-.17.35-.17.32-.17.33-.17.28-.14.32-.17.24-.13.28-.16.23-.12.23-.13.21-.12.22-.13.16-.09.21-.12.1-.07.15-.08.11-.07.06,0,.14-.08.12-.08-1,3.94A98,98,0,0,0,191,89.63l2.76,4.22s4.56-10.54,13.36-17.69c.29-.24.59-.46.9-.67l.31-.19c.21-.13.42-.26.64-.38a2.75,2.75,0,0,1,.38-.2l.6-.3.43-.17A6,6,0,0,1,211,74c.15-.06.3-.1.45-.15l.61-.18.45-.11.65-.13.43-.07.72-.09c.12,0,.25,0,.38,0,.32,0,.64,0,1,0h.14c.45,0,.9,0,1.34.07l.36,0c.38,0,.76.1,1.14.16l.23,0c.44.09.88.19,1.32.31l.32.1c.36.11.72.22,1.07.35l.3.11c.43.17.86.35,1.28.55l.23.12c.36.18.7.36,1.05.56l.31.19c.4.24.8.5,1.19.78l.08.06c.36.26.71.54,1.05.83l.29.25c.33.29.65.6,1,.91a.94.94,0,0,0,.1.1c.34.35.66.72,1,1.1l.23.3c.25.32.49.66.72,1l.17.24c.27.42.52.85.76,1.3l.15.3c.19.38.37.76.54,1.15.05.12.1.23.14.35a14.55,14.55,0,0,1,.52,1.49,2.17,2.17,0,0,1,.07.24c.13.44.23.9.33,1.36,0,.14.06.29.08.43.1.55.19,1.11.24,1.68C234.64,104,211.13,111.91,211.13,111.91Z"/><path d="M53.61,88.2a5,5,0,1,0-5-5A5,5,0,0,0,53.61,88.2Z"/><path d="M107.29,88.2a5,5,0,1,0-5-5A5,5,0,0,0,107.29,88.2Z"/><path d="M48.19,103.8a57.41,57.41,0,0,0,65.17,1.13l1.62-1.07a3,3,0,1,0-3.3-5l-1.62,1.07a51.49,51.49,0,0,1-58.41-1,3,3,0,1,0-3.46,4.89Z"/><path d="M74.48,39.05a8.93,8.93,0,0,0-1,1,9.26,9.26,0,0,0,0,12l14-12.1h0A9.26,9.26,0,0,0,74.48,39.05Z"/><path d="M56.58,144.06l3.09-2.65s-12.63.94-21.89-4.5c-10.37-4.81-12-13.38-11.55-16.2l0,.11a18.56,18.56,0,0,0,8.7,18.59A57.43,57.43,0,0,0,57.25,147a99.58,99.58,0,0,0,32.63-4.08l.1-3.18A98.15,98.15,0,0,1,56.58,144.06Z"/><path d="M110.91,138c-9.43.66-17.79,4.94-20.31,6.34l-.12,3.38s9.79-6,21.1-6.79c6.89-.48,13.09,4.69,15.28,11.62C125.69,144.19,118.74,137.42,110.91,138Z"/></g></g></svg>