<svg xmlns="http://www.w3.org/2000/svg" viewBox="0 0 238.01 246.11"><defs><style>.cls-1{fill:#1b242d;}</style></defs><title>grunty-4-dkblue</title><g id="Layer_2" data-name="Layer 2"><g id="Artwork"><path class="cls-1" d="M236,177.8c-.62-6.21-1.86-16.68-2.75-24l4.8,3-2.23-9.51c-4.31-18.41-9.85-30-13.73-36.55h3.27l-3.44-6c-10.83-18.81-28.93-27.1-34.6-29.32A78.23,78.23,0,0,0,178,60.87l5,0L176.08,54a50.46,50.46,0,0,0-4.52-3.93,10.33,10.33,0,0,0,.44-2.28l.16-2.27a7,7,0,0,0-3.61-6.67c-1.25-9-4.34-16.47-9.2-22.35a35.92,35.92,0,0,0-13.08-9.95,8.39,8.39,0,0,0-1.66-3A8.11,8.11,0,0,0,139,.74L129.27,0l-.61,0h0a8.21,8.21,0,0,0-7.33,4.59,35,35,0,0,0-14.6,7.84c-5.69,5.11-9.87,12.19-12.44,21a7.09,7.09,0,0,0-4.39,6l-.16,2.27a10.61,10.61,0,0,0,1.93,7l.27.38a50.68,50.68,0,0,0-6.18,5.25L79,61.18h5a85.16,85.16,0,0,0-8,12.1,64.3,64.3,0,0,0-18.1,7.52L52,84.4,54.83,86c-6.51,3.87-16.93,11.45-29.51,25.57l-6.5,7.3,5.67-.38c-4.3,6.05-10.39,14.66-13.89,19.81L6,145.05l2.08-.14c-5.38,6.59-10.89,16.41-6.42,25.67a22,22,0,0,0,19.89,12.57c7,0,13.19-3.3,16.42-8.81a52.83,52.83,0,0,0,5.89-16.08l3.39,2.48,1.51-5.65a91.61,91.61,0,0,1,8.66-19.62l.56,5.11,6.11-10.48A43.51,43.51,0,0,1,68,124.77c-1.1,6.65-4.78,34,2.5,67.12l1.9,8.68,2.07-2.84A120.3,120.3,0,0,0,77.29,216l1.41,5.8,3.13-2.27,1.86,11.58a17.8,17.8,0,0,0,17.66,15.05h.05a17.87,17.87,0,0,0,17.29-13.53L122,219.49a43.91,43.91,0,0,0,9.34,1h.13a44,44,0,0,0,9.46-1.08l3.37,13.07a17.89,17.89,0,0,0,17.32,13.42h.05a17.79,17.79,0,0,0,17.62-15.17l1.78-11.59,3.15,2.26,1.37-5.81a120.72,120.72,0,0,0,2.76-18.24l2.08,2.82,1.85-8.69q1.28-6,2.09-11.62l2.85-.39a52.67,52.67,0,0,0-2.49,16.94c.32,10.07,9.64,18.26,20.76,18.26a22.07,22.07,0,0,0,12.94-4.23c8.34-6,8.19-17.25,6.6-25.62l1.76,1.12ZM141.14,37.44a13.57,13.57,0,0,1,2.56,4.48h0a13.47,13.47,0,0,1-4,14.5,13.46,13.46,0,0,1-22.22-11.18,13.57,13.57,0,0,1,.67-3.27h0a13.58,13.58,0,0,1,2.64-4.6,13.44,13.44,0,0,1,10.11-4.6c.33,0,.66,0,1,0A13.37,13.37,0,0,1,141,37.33ZM124.75,6.8c.06-.17.12-.34.19-.5s.11-.18.17-.27a4.53,4.53,0,0,1,.26-.4c.06-.08.14-.16.21-.24s.21-.23.32-.33a2.69,2.69,0,0,1,.27-.2,3.32,3.32,0,0,1,.36-.26l.31-.16c.13-.06.26-.13.4-.18l.34-.1.43-.1c.12,0,.24,0,.37,0A3.84,3.84,0,0,1,129,4l9.76.72a3.69,3.69,0,0,1,.83.15,4.08,4.08,0,0,1,1.44.73,4.27,4.27,0,0,1,.7.71,4.09,4.09,0,0,1,.88,2.33,4.68,4.68,0,0,1,0,.53h0L140.9,31.9a17.36,17.36,0,0,0-18.08-1.1l1.69-22.94a4.29,4.29,0,0,1,.14-.81C124.68,7,124.72,6.88,124.75,6.8Zm-30.86,33a2.93,2.93,0,0,1,.11-.59.67.67,0,0,1,.07-.18,2.67,2.67,0,0,1,.14-.36,1.22,1.22,0,0,1,.12-.19,1.75,1.75,0,0,1,.18-.29c0-.07.11-.12.16-.18a2.5,2.5,0,0,1,.23-.23l.19-.16.26-.18.23-.12a2.52,2.52,0,0,1,.29-.12l.25-.08.3-.07.27,0a3.23,3.23,0,0,1,.44,0l.29.3c4.35-18,14.28-25.3,22.85-28.19l-1.85,25a17.58,17.58,0,0,0-3.14,4.47,17.1,17.1,0,0,0-1.51,4.56,18.3,18.3,0,0,0-.24,1.83,17.48,17.48,0,0,0,16.13,18.7c.44,0,.88,0,1.31,0a17.47,17.47,0,0,0,17.39-16.17A17.66,17.66,0,0,0,148.1,43a17.58,17.58,0,0,0-3.32-7.42l1.8-24.41a32.2,32.2,0,0,1,5.23,3.47,30.73,30.73,0,0,1,3.05,2.83,32.81,32.81,0,0,1,4.43,5.9q.35.6.69,1.23a38.55,38.55,0,0,1,1.86,4c.19.48.37,1,.55,1.48A45.85,45.85,0,0,1,163.77,35a55.7,55.7,0,0,1,1.15,7.41l.47-.34a3,3,0,0,1,.6.1,3,3,0,0,1,1,.54,3.07,3.07,0,0,1,1.11,1.83,3.84,3.84,0,0,1,0,.76L168,47.54v0a6.78,6.78,0,0,1-.16,1,6.34,6.34,0,0,1-.23.74,6.69,6.69,0,0,1-1.17,2c-.09.11-.17.23-.27.33l-7.75,8.08h0c-.37.39-.76.76-1.15,1.13l-.4.36-.81.71c-.16.14-.33.27-.5.4l-.76.61-.55.39c-.25.19-.5.37-.76.54l-.58.38c-.26.16-.52.33-.78.48l-.6.35-.8.44-.61.32-.83.4-.62.28-.86.36-.62.24-.91.32-.59.2c-.34.11-.69.21-1,.3l-.51.15c-.49.12-1,.24-1.48.34l-.07,0c-.52.11-1.05.2-1.58.28l-.52.07c-.36,0-.71.09-1.07.12l-.63,0-1,.07h-.68l-.64,0h-.22c-.68,0-1.35,0-2-.07L124,68.24a30.44,30.44,0,0,1-22.56-12.73l-3.83-5.39-2.32-3.27-.33-.46a6.65,6.65,0,0,1-1.19-3.19,7.36,7.36,0,0,1,0-1.15ZM226.07,207.21c-.39.29-.8.55-1.2.8l-.4.23c-.27.16-.54.31-.82.45l-.48.23c-.25.13-.51.24-.77.35l-.5.21c-.25.1-.51.19-.76.27l-.5.17-.81.22-.45.11c-.34.08-.68.14-1,.2l-.24,0c-.42.07-.84.11-1.25.15h-.37c-.29,0-.59,0-.89,0h-.37c-.39,0-.77,0-1.15-.05l-.37,0c-.47,0-.94-.11-1.4-.19l-.21,0c-.4-.08-.8-.17-1.19-.27l-.37-.1c-.42-.12-.83-.25-1.24-.4l-.1,0c-.44-.16-.86-.34-1.28-.54l-.33-.15-1-.52-.25-.14c-.39-.23-.77-.48-1.14-.73l-.24-.17c-.3-.22-.59-.44-.88-.68l-.26-.22c-.34-.29-.67-.59-1-.91l-.07-.08c-.29-.29-.56-.6-.82-.91-.07-.09-.15-.18-.22-.28-.24-.3-.47-.6-.68-.92l-.11-.15a12.63,12.63,0,0,1-.66-1.12,2.64,2.64,0,0,1-.15-.29c-.16-.31-.31-.63-.44-.95l-.12-.29c-.15-.4-.29-.81-.41-1.23a2.1,2.1,0,0,0-.06-.24c-.08-.35-.16-.7-.22-1.06l-.06-.36c-.06-.44-.1-.88-.12-1.33-.37-11.33,4.6-21.68,4.6-21.68l-5,.68a98.26,98.26,0,0,0,.9-33.67L196.87,145s-.37-12.66-6.73-21.31c0,0,6.09,30-1.79,67l-3.68-5a122,122,0,0,1-3,29l-3.59-2.57-2.77,18a13.88,13.88,0,0,1-13.68,11.78c-.21,0-.41,0-.62,0a5.62,5.62,0,0,1-.58,0l-.59-.07-.57-.07-.58-.13-.54-.11-.56-.17-.54-.16-.52-.2-.54-.22-.48-.23-.53-.26-.45-.27-.52-.31c-.14-.09-.28-.2-.42-.3l-.5-.35-.38-.32c-.16-.14-.33-.27-.48-.41s-.23-.23-.34-.34-.32-.29-.46-.45l-.34-.39-.4-.47-.32-.43c-.11-.17-.24-.32-.35-.49l-.3-.49c-.09-.16-.2-.32-.29-.48l-.26-.53a4.81,4.81,0,0,1-.25-.51c-.1-.2-.17-.42-.25-.63s-.13-.29-.18-.45c-.13-.37-.25-.74-.35-1.13l-4.39-17s-.33.12-.94.31l-1.11.33c-.87.23-2,.5-3.3.74l-1,.17c-.7.11-1.44.21-2.22.29a36.67,36.67,0,0,1-3.74.19c-.25,0-.49,0-.73,0h-.61c-.23,0-.45,0-.67,0s-.39,0-.57,0l-.64-.05-.56,0-.58-.07-.56-.06-.56-.07-.51-.08-.54-.08-.48-.08-.48-.09-.46-.09-.42-.09-.44-.09-.37-.09-.42-.1-.36-.09-.33-.08-.32-.09-.28-.08-.26-.07-.25-.08-.23-.07-.17,0-.14-.05a1.32,1.32,0,0,1-.22-.08l-.18-.06-4.28,17.06a13.88,13.88,0,0,1-13.42,10.5h0c-.23,0-.45,0-.68,0s-.41,0-.61,0-.42-.05-.64-.08l-.6-.08-.6-.14c-.2-.05-.41-.08-.6-.14s-.39-.12-.59-.19-.39-.11-.58-.18l-.57-.25a5.15,5.15,0,0,1-.54-.23l-.56-.29-.51-.28c-.18-.1-.35-.22-.52-.33l-.49-.32c-.17-.12-.33-.25-.49-.38s-.31-.23-.46-.36-.3-.28-.46-.42-.29-.26-.42-.4a5.74,5.74,0,0,1-.41-.45c-.14-.15-.28-.29-.4-.44s-.26-.34-.39-.52a4.83,4.83,0,0,1-.34-.45c-.13-.18-.24-.37-.36-.55s-.2-.31-.29-.47-.21-.41-.31-.61l-.25-.48c-.1-.23-.19-.47-.29-.71s-.12-.29-.17-.44-.17-.52-.24-.79l-.13-.4c-.1-.41-.18-.83-.25-1.25l-2.89-18L81.18,215A121.91,121.91,0,0,1,78,186l-3.65,5c-8.12-37-2.21-67-2.21-67l1.17-9.55c-7.78,5.15-12.7,13.59-12.7,13.59l-.45-4a98.07,98.07,0,0,0-15.28,30l-4.07-3s-.57,11.46-6.31,21.24a12.1,12.1,0,0,1-1,1.48l-.11.15a14.79,14.79,0,0,1-1.15,1.22l-.19.18a15.9,15.9,0,0,1-1.28,1,1.88,1.88,0,0,0-.23.16c-.46.3-.92.58-1.41.84l-.24.11a14.2,14.2,0,0,1-1.55.67l-.17.06a13.51,13.51,0,0,1-1.71.5h0a17.87,17.87,0,0,1-1.78.3l-.2,0c-.58.06-1.16.09-1.75.1h-.34l-.65,0-.49,0-.68-.06-.46-.05-.74-.13-.39-.07c-.34-.06-.68-.14-1-.23l-.12,0c-.38-.1-.75-.22-1.12-.34l-.32-.12c-.26-.1-.52-.19-.78-.3l-.41-.18-.67-.31c-.15-.07-.29-.15-.43-.23l-.63-.34-.43-.26-.59-.38-.43-.3-.56-.42L10,175l-.53-.46-.4-.37-.51-.52-.37-.39-.49-.57-.34-.42c-.17-.21-.32-.42-.48-.64l-.3-.42-.47-.76-.24-.39c-.23-.39-.44-.8-.65-1.22-6.23-12.91,13-28.61,13-28.61l-4.34.29c5.84-8.58,18.75-26.6,18.75-26.6l-4.34.28C49,91,63.44,86.12,63.44,86.12L59.93,84.2a60.9,60.9,0,0,1,18.73-7.46c5-10.21,13.93-19.6,13.93-19.6h-4a45.61,45.61,0,0,1,5.66-4.81l3.9,5.49a34.32,34.32,0,0,0,25.52,14.4L134,73c.84.06,1.69.09,2.54.09A34.59,34.59,0,0,0,161.31,62.5l7.75-8.08q.33-.35.63-.72a46.37,46.37,0,0,1,3.57,3.18h-4s10.37,10.72,15.07,21.71c0,0,22,7.18,34.09,28.14h-4s10.37,11.13,17.46,41.44l-3.67-2.32s2.74,22,3.77,32.32l-3.68-2.32S237.71,198.84,226.07,207.21Z"/><path class="cls-1" d="M104.1,88.2a5,5,0,1,0-5-5A5,5,0,0,0,104.1,88.2Z"/><path class="cls-1" d="M157.79,88.2a5,5,0,1,0-5-5A5,5,0,0,0,157.79,88.2Z"/><path class="cls-1" d="M162.18,98.85l-1.62,1.07a51.47,51.47,0,0,1-58.41-1,3,3,0,1,0-3.47,4.89,57.42,57.42,0,0,0,65.18,1.13l1.62-1.07a3,3,0,0,0,1.28-1.9,2.94,2.94,0,0,0-.43-2.25A3,3,0,0,0,162.18,98.85Z"/><path class="cls-1" d="M125,39.05a9.13,9.13,0,0,0-1.74,2h0A9.26,9.26,0,0,0,124,52.11l13.08-11.28h0L138,40A9.26,9.26,0,0,0,125,39.05Z"/></g></g></svg>