<svg xmlns="http://www.w3.org/2000/svg" viewBox="0 0 293.85 238.37"><defs><style>.cls-1{fill:#fff;}</style></defs><title>grunty-6-white</title><g id="Layer_2" data-name="Layer 2"><g id="Artwork"><path class="cls-1" d="M293.79,62.27C292.48,48,276.41,41.61,267.61,48.76s-13.36,17.69-13.36,17.69l-2.76-4.22A98.09,98.09,0,0,1,226.66,85l1-3.94s-11.73,7.55-25,8a88.08,88.08,0,0,0-3.26-15c-3.86-11.39-15.1-21.89-15.1-21.89h4A44.56,44.56,0,0,0,185,49.09a10.71,10.71,0,0,1-1.09,1.33l-7.75,8.08a34.58,34.58,0,0,1-24.82,10.58c-.84,0-1.7,0-2.54-.09l-10.27-.76A34.3,34.3,0,0,1,113,53.83l-4.44-6.25a45.43,45.43,0,0,0-5.38,4.58h4S96.76,63,92.07,74.05c0,0-2.61,4.77-4.41,14.72A57.93,57.93,0,0,1,66.19,81l1,3.94A98.26,98.26,0,0,1,42.35,62.23l-2.76,4.22S35,55.92,26.24,48.76,1.37,48,.05,62.27s22.2,22.24,22.2,22.24l-4.16,1.25c8.47,6,26.87,18.35,26.87,18.35l-4.16,1.25c27.54,14.52,42.74,14,42.74,14l-2.61,3c1.63.32,3.24.55,4.84.72a187.69,187.69,0,0,0,2.61,63.77l3.69-5A122.19,122.19,0,0,0,95.17,211l3.61-2.6,2.84,18.14A14,14,0,0,0,129,227.85l4.37-17.16a39.13,39.13,0,0,0,24.82,0l4.37,17.16a14,14,0,0,0,27.35-1.28l2.84-18.14,3.61,2.6a122.19,122.19,0,0,0,3.1-29.19l3.69,5a187.8,187.8,0,0,0,2.64-63.56,59,59,0,0,0,7.16-.93l-2.62-3s15.21.53,42.75-14l-4.16-1.25s18.39-12.36,26.87-18.35l-4.16-1.25S295.11,76.55,293.79,62.27ZM172.59,74.15a5,5,0,1,1-5,5A5,5,0,0,1,172.59,74.15Zm-53.68,0a5,5,0,1,1-5,5A5,5,0,0,1,118.91,74.15ZM181.57,98a3,3,0,0,1-1.29,1.9l-1.62,1.07a57.42,57.42,0,0,1-65.18-1.13A3,3,0,1,1,117,94.91a51.47,51.47,0,0,0,58.41,1L177,94.85A3,3,0,0,1,181.57,98Z"/><path class="cls-1" d="M147,24.82a17.29,17.29,0,0,1,8.66,3.08l1.68-22.73h0A4.17,4.17,0,0,0,153.54.73L143.78,0h-.31a2.85,2.85,0,0,0-.29,0c-.12,0-.25,0-.37,0l-.43.1-.34.1c-.14,0-.27.12-.4.18l-.31.16c-.13.08-.24.17-.36.25l-.27.21c-.11.1-.21.22-.31.33l-.22.24c-.1.13-.17.27-.26.4l-.16.27a2.92,2.92,0,0,0-.19.49,2.77,2.77,0,0,0-.1.26,4,4,0,0,0-.14.8h0l-1.7,22.94A17.36,17.36,0,0,1,147,24.82Z"/><path class="cls-1" d="M111.83,45.34l4.39,6.17a30.4,30.4,0,0,0,22.55,12.73l10.28.76c.67,0,1.35.07,2,.07h.22l.65,0h.68l1-.07.62,0c.37,0,.73-.08,1.09-.13l.51-.06c.52-.08,1.05-.17,1.57-.28h.05c.51-.11,1-.22,1.51-.35l.5-.14,1-.31.59-.2.92-.32.61-.24.87-.36.61-.28.83-.4.61-.32.81-.44.59-.35c.27-.15.53-.32.79-.48l.57-.38c.26-.17.51-.36.77-.54l.54-.39c.26-.2.52-.4.77-.61l.49-.4c.28-.23.55-.47.82-.72l.4-.35c.39-.37.78-.75,1.16-1.14L181,47.65A6.77,6.77,0,0,0,182.54,45a6.23,6.23,0,0,0,.15-.62,5.72,5.72,0,0,0,.12-.83l.17-2.28a3,3,0,0,0-1.26-2.68,3.08,3.08,0,0,0-.93-.45,2.89,2.89,0,0,0-.6-.1l-.46.34h0c-1.62-18.19-10.44-27-18.35-31.17h0l-1.8,24.41a17.45,17.45,0,0,1-13.8,28.08c-.44,0-.88,0-1.32,0a17.45,17.45,0,0,1-11.23-29.56l1.84-25C126.51,8,116.57,15.3,112.23,33.28h0l-.3-.3h-.22l-.21,0-.27,0-.31.07-.25.08c-.1,0-.19.08-.29.12l-.22.12a2.4,2.4,0,0,0-.26.18,1.56,1.56,0,0,0-.2.16,2.39,2.39,0,0,0-.22.23,1.45,1.45,0,0,0-.17.18l-.18.28-.12.2a2.24,2.24,0,0,0-.14.36l-.07.18a2.82,2.82,0,0,0-.1.58h0l-.17,2.28a6.6,6.6,0,0,0,1.21,4.34Z"/><path class="cls-1" d="M132.33,41.24a13.47,13.47,0,0,0,12.43,14.41A13.45,13.45,0,0,0,158.1,36.89a13.14,13.14,0,0,0-2.16-3.45,13.35,13.35,0,0,0-9.2-4.63c-.33,0-.67,0-1,0a13.49,13.49,0,0,0-13.41,12.47Zm7.45-6.19a9.27,9.27,0,0,1,13,.92l0,0-14,12.1A9.25,9.25,0,0,1,138.88,36,8.5,8.5,0,0,1,139.78,35.05Z"/></g></g></svg>