<svg xmlns="http://www.w3.org/2000/svg" viewBox="0 0 238 245.17"><title>grunty-2-black</title><g id="Layer_2" data-name="Layer 2"><g id="Artwork"><path d="M229.94,144l2.08.14-4.61-6.78c-3.51-5.16-9.6-13.76-13.89-19.81l5.66.38-6.5-7.3c-12.57-14.12-23-21.7-29.51-25.57L186,83.46l-5.87-3.61a64.3,64.3,0,0,0-18.1-7.52,83.77,83.77,0,0,0-8-12.1h5l-6.81-6.85a49.31,49.31,0,0,0-5.4-4.68c.05-.29.08-.58.11-.88l.16-2.27a7,7,0,0,0-3.61-6.67c-1.25-9-4.34-16.47-9.2-22.35a35.92,35.92,0,0,0-13.08-9.95,8.39,8.39,0,0,0-1.66-3A8.13,8.13,0,0,0,114,.74L104.23,0l-.61,0h0a8.21,8.21,0,0,0-7.33,4.59,35,35,0,0,0-14.6,7.84c-5.69,5.11-9.87,12.19-12.44,21a7.07,7.07,0,0,0-4.39,6l-.17,2.27a10.68,10.68,0,0,0,1.94,7l.15.21a48.83,48.83,0,0,0-4.85,4.19l-6.85,6.81,5,0a79.26,79.26,0,0,0-9.33,14.55C45.06,76.7,27,85,16.12,103.8l-3.44,6,3.27,0c-3.88,6.51-9.41,18.14-13.72,36.55L0,155.85l4.8-3c-.89,7.36-2.13,17.83-2.75,24L1.23,185,3,183.9c-1.59,8.36-1.74,19.62,6.61,25.62a22,22,0,0,0,12.93,4.23c11.12,0,20.44-8.19,20.77-18.26a52.88,52.88,0,0,0-2.5-16.94l2.85.39q.84,5.66,2.09,11.62l1.85,8.69,2.09-2.82a120.3,120.3,0,0,0,2.75,18.23l1.37,5.82L57,218.22l1.78,11.59A17.81,17.81,0,0,0,76.35,245h.06a17.89,17.89,0,0,0,17.32-13.42l3.37-13.07a43.9,43.9,0,0,0,9.46,1.08h.13a44.06,44.06,0,0,0,9.34-1l3.29,13.09a17.87,17.87,0,0,0,17.28,13.53h.06a17.81,17.81,0,0,0,17.66-15.06l1.85-11.58,3.14,2.28,1.4-5.8a119,119,0,0,0,2.87-18.22l2.07,2.84,1.91-8.68c7.28-33.15,3.59-60.51,2.5-67.14a44,44,0,0,1,3.88,5.35l6.1,10.48.56-5.11a91,91,0,0,1,8.66,19.62l1.53,5.64,3.37-2.48a52.79,52.79,0,0,0,5.89,16.09c3.24,5.51,9.38,8.81,16.42,8.81a22,22,0,0,0,19.89-12.57C240.83,160.38,235.33,150.56,229.94,144ZM119.33,47.22a13.46,13.46,0,1,1-25.88-6.06,13.45,13.45,0,0,1,12.44-8.39c.34,0,.67,0,1,0a13.38,13.38,0,0,1,7.8,3.25,15.18,15.18,0,0,1,1.4,1.38,13.36,13.36,0,0,1,2.06,3.24h0A13.38,13.38,0,0,1,119.33,47.22ZM99.71,6.79a4.94,4.94,0,0,1,.19-.49c0-.09.11-.18.17-.27s.16-.27.25-.4l.22-.24c.11-.11.2-.23.32-.33a1.89,1.89,0,0,1,.27-.2,3.32,3.32,0,0,1,.36-.26,2.25,2.25,0,0,1,.31-.16l.39-.18.35-.1.42-.1.37,0a4,4,0,0,1,.6,0l9.76.72a4.17,4.17,0,0,1,3.85,4.45h0L115.86,31.9a17.38,17.38,0,0,0-18.09-1.1l1.7-22.94h0a4,4,0,0,1,.14-.8C99.64,7,99.68,6.88,99.71,6.79ZM69,39.18A1.42,1.42,0,0,1,69,39a3.82,3.82,0,0,1,.13-.36l.13-.2a2.2,2.2,0,0,1,.18-.28c0-.07.11-.12.16-.18a2.39,2.39,0,0,1,.22-.23l.2-.16c.09-.06.17-.13.26-.18l.23-.12a2.36,2.36,0,0,1,.28-.12l.25-.08.31-.07.27,0a3.2,3.2,0,0,1,.44,0l.29.3h0q.63-2.6,1.41-4.91c.17-.51.35-1,.53-1.51q.36-1,.75-1.92c.42-1,.85-2,1.31-2.85s.93-1.77,1.42-2.6,1-1.6,1.51-2.34a34.26,34.26,0,0,1,4.12-4.87q.72-.69,1.44-1.32a29.58,29.58,0,0,1,2.94-2.23,31,31,0,0,1,7.42-3.64l-1.85,25a17.6,17.6,0,0,0-2.7,3.65,17.38,17.38,0,0,0-1.79,4.66,19.35,19.35,0,0,0-.4,2.55,17.48,17.48,0,0,0,16.13,18.7c.44,0,.87,0,1.31,0A17.44,17.44,0,0,0,120.8,37.15a17.67,17.67,0,0,0-1.07-1.54l1.81-24.41c7.9,4.21,16.72,13,18.34,31.17h0l.47-.34a3.13,3.13,0,0,1,.6.1,3,3,0,0,1,1,.54,3,3,0,0,1,1.14,2.59l-.06.86-.1,1.42a5.42,5.42,0,0,1-.13.79,6.47,6.47,0,0,1-.3,1,7.36,7.36,0,0,1-.42.9,6.52,6.52,0,0,1-.89,1.26s-.06.09-.1.12l-7.75,8.08h0c-.38.39-.76.77-1.16,1.14l-.4.36-.81.71c-.16.14-.33.27-.5.4s-.5.41-.77.61l-.54.39c-.25.19-.51.37-.76.54l-.58.38c-.26.16-.52.33-.78.48l-.6.35-.8.44-.61.32-.83.4-.62.28-.86.36-.62.24-.91.32-.6.2q-.51.16-1,.3l-.51.15c-.49.12-1,.24-1.48.34l-.07,0c-.53.11-1,.2-1.58.28l-.52.07c-.36,0-.71.09-1.07.12l-.63,0-1,.07h-.68l-.65,0h-.22c-.67,0-1.34,0-2-.07l-10.27-.76A30.44,30.44,0,0,1,76.37,55.51l-4-5.65L70.05,46.6l-.16-.21a6.71,6.71,0,0,1-1.21-4.34l.17-2.28h0A3.7,3.7,0,0,1,69,39.18ZM232.76,167.9c-.2.42-.42.83-.64,1.22l-.24.39c-.16.25-.31.51-.48.75l-.3.44-.47.63-.35.42-.48.56c-.12.14-.25.28-.38.41s-.33.34-.5.5l-.41.38c-.17.16-.35.31-.52.45l-.43.35c-.18.14-.36.28-.55.41s-.29.21-.44.31l-.57.37-.45.27-.61.34-.45.23c-.21.11-.43.2-.65.3l-.43.19-.74.28-.36.14c-.36.12-.74.24-1.11.34l-.17,0c-.32.08-.64.16-1,.22l-.4.07c-.25.05-.49.09-.74.12s-.31,0-.46.06-.45,0-.68.06l-.48,0-.66,0h-1l-.62,0-.42,0L214,178l-.36-.05-.86-.17-.14,0c-.33-.08-.66-.16-1-.26l-.31-.1-.64-.22-.38-.14-.55-.23-.39-.18-.51-.26a3.59,3.59,0,0,1-.38-.21l-.48-.28-.37-.23-.45-.32-.36-.26-.43-.35-.33-.28-.41-.39-.3-.3c-.14-.14-.27-.29-.4-.44l-.26-.3c-.14-.17-.27-.35-.41-.53l-.2-.27c-.19-.27-.37-.55-.55-.85-5.73-9.78-6.31-21.24-6.31-21.24l-4.06,3a98.25,98.25,0,0,0-15.29-30l-.45,4s-4.91-8.44-12.69-13.59l1.17,9.55s5.9,30-2.22,67l-3.65-5a121.58,121.58,0,0,1-3.17,29l-3.58-2.6-2.88,18c-.07.42-.16.84-.26,1.25,0,.12-.07.23-.11.35-.08.28-.16.57-.25.84s-.11.25-.15.38-.2.52-.32.77l-.19.38c-.12.23-.23.48-.36.71s-.16.23-.23.36-.27.45-.42.66-.17.22-.25.33-.31.43-.48.64-.2.21-.29.32-.34.39-.52.57l-.34.31c-.18.17-.35.35-.54.51l-.36.28-.59.46-.41.26-.6.4-.45.23c-.2.11-.41.23-.62.33s-.32.14-.48.21-.42.19-.64.27l-.53.17-.63.2-.56.13c-.22,0-.43.11-.65.15l-.58.08-.66.08-.6,0-.68,0h0a13.89,13.89,0,0,1-13.42-10.5l-4.28-17.06h0l-.24.09h0l-.27.09h-.05l-.35.11-.15.05-.35.1-.21.06-.4.11-.25.06-.44.11-.34.08-.44.11-.39.08-.48.1-.4.08-.54.1-.43.07-.58.09-.49.07-.59.08-.54.06-.6.07-.55,0-.64.05-.57,0-.67,0h-.61c-.25,0-.49,0-.74,0a37,37,0,0,1-3.74-.19c-.78-.08-1.52-.18-2.22-.29l-1-.17c-1.3-.24-2.42-.51-3.29-.75-.44-.11-.81-.22-1.11-.32l-1-.31-4.39,17c-.1.39-.21.76-.34,1.13a3.45,3.45,0,0,1-.14.34c-.09.25-.18.5-.29.74s-.14.28-.21.41-.19.42-.31.63-.16.26-.24.4-.22.39-.35.57-.18.26-.28.38a5.3,5.3,0,0,1-.39.54c-.09.12-.19.22-.28.33l-.45.53-.33.33c-.16.15-.31.31-.48.46s-.24.21-.36.31-.33.29-.5.42l-.39.27c-.17.13-.34.26-.53.38l-.43.26-.53.32-.47.23-.55.26-.48.19-.58.23c-.16.06-.33.1-.5.15s-.39.13-.59.18l-.53.11-.6.12c-.18,0-.37.05-.56.08l-.59.07a5.62,5.62,0,0,1-.58,0l-.62,0A13.88,13.88,0,0,1,62.69,229.2l-2.77-18-3.59,2.57a121.39,121.39,0,0,1-3-29l-3.69,5c-7.88-37-1.78-67-1.78-67C41.51,131.37,41.13,144,41.13,144l-2.32-3.34a98.12,98.12,0,0,0,.89,33.67l-5-.68s5,10.35,4.6,21.68a11.73,11.73,0,0,1-.12,1.33l-.06.36c-.06.36-.13.71-.22,1.06l-.06.24a10.43,10.43,0,0,1-.41,1.23c0,.1-.08.19-.12.29a10,10,0,0,1-.43.94c-.05.1-.1.21-.15.3-.21.38-.42.76-.66,1.12l-.12.16c-.21.31-.43.61-.67.91-.07.1-.15.19-.23.29-.26.3-.52.6-.8.89l-.09.09c-.31.32-.64.62-1,.91l-.28.23c-.28.23-.56.45-.86.66l-.24.18c-.37.25-.75.5-1.14.72l-.27.15c-.32.18-.64.35-1,.51l-.34.17c-.41.19-.84.37-1.27.53l-.12,0c-.4.14-.81.27-1.22.39l-.38.1-1.17.27-.23,0c-.46.08-.93.15-1.4.19l-.36,0c-.39,0-.77.05-1.15.05h-.38c-.29,0-.59,0-.89,0h-.36c-.42,0-.84-.08-1.26-.15l-.23,0c-.34-.06-.69-.12-1-.2l-.44-.11c-.27-.07-.55-.14-.82-.23l-.49-.15-.77-.29-.5-.2c-.26-.11-.51-.22-.77-.35l-.47-.23c-.28-.14-.55-.3-.83-.45l-.4-.23c-.4-.25-.8-.51-1.2-.8C.29,197.9,9.7,174.93,9.7,174.93L6,177.25c1-10.33,3.77-32.32,3.77-32.32l-3.68,2.32c.22-.94.45-1.87.68-2.78Q8.16,139,9.64,134.42c.54-1.72,1.1-3.36,1.65-4.91.18-.51.37-1,.55-1.52.5-1.33,1-2.58,1.48-3.78q1.1-2.68,2.16-4.94c.47-1,.93-2,1.37-2.83,3.81-7.49,6.74-10.63,6.74-10.63h-4c12.06-21,34.09-28.14,34.09-28.14C58.38,66.67,68.75,56,68.75,56h-4a42.76,42.76,0,0,1,4.34-3.77l4,5.66a34.32,34.32,0,0,0,25.52,14.4l10.28.76c.84.06,1.69.09,2.53.09A34.62,34.62,0,0,0,136.27,62.5L144,54.42a10.8,10.8,0,0,0,1.37-1.78,44.83,44.83,0,0,1,4,3.57h-4s9,9.39,13.93,19.6a60.7,60.7,0,0,1,18.73,7.46l-3.5,1.92S189,90,209.7,113.26l-4.34-.28s12.9,18,18.74,26.6l-4.34-.29S239,155,232.76,167.9Z"/><path d="M79.06,88.2a5,5,0,1,0-5-5A5,5,0,0,0,79.06,88.2Z"/><path d="M132.75,88.2a5,5,0,1,0-5-5A5,5,0,0,0,132.75,88.2Z"/><path d="M137.13,98.85l-1.62,1.07a51.45,51.45,0,0,1-58.4-1,3,3,0,1,0-3.47,4.89,57.41,57.41,0,0,0,65.17,1.13l1.62-1.07a3,3,0,0,0,.86-4.15A3,3,0,0,0,137.13,98.85Z"/><path d="M112.88,39.89a9.25,9.25,0,0,0-12.95-.84,8.53,8.53,0,0,0-1.07,1.1h0a9.26,9.26,0,0,0,.11,12L113,40l-.12-.12Z"/></g></g></svg>