<svg xmlns="http://www.w3.org/2000/svg" xmlns:xlink="http://www.w3.org/1999/xlink" viewBox="0 0 229.39 232.99"><defs><style>.cls-1{fill:#fff;}.cls-2,.cls-6{fill:#171d26;}.cls-3{fill:#e6e6e6;}.cls-4{fill:url(#linear-gradient);}.cls-5{fill:#17a9f9;}.cls-6{opacity:0.15;isolation:isolate;}.cls-7{fill:url(#linear-gradient-2);}.cls-8{fill:#c6c6c6;}</style><linearGradient id="linear-gradient" x1="148.91" y1="66.27" x2="151.9" y2="34.83" gradientUnits="userSpaceOnUse"><stop offset="0" stop-color="#17a9f9"/><stop offset="1" stop-color="#26d8e2"/></linearGradient><linearGradient id="linear-gradient-2" x1="151.82" y1="37.91" x2="154.22" y2="-0.95" xlink:href="#linear-gradient"/></defs><title>grunty-7-fullColor-onDark</title><g id="Layer_2" data-name="Layer 2"><g id="Artwork"><path class="cls-1" d="M211.59,114.83s6,30-2,67l-3.67-5a121.79,121.79,0,0,1-3.08,29l-3.58-2.59-2.83,18A13.88,13.88,0,0,1,182.72,233h0a13.89,13.89,0,0,1-13.46-10.45l-4.34-17a39,39,0,0,1-24.66,0l-4.34,17A13.88,13.88,0,0,1,122.47,233h0a13.88,13.88,0,0,1-13.72-11.73l-2.83-18-3.58,2.59a121.79,121.79,0,0,1-3.08-29l-3.67,5c-8-37-2-67-2-67s.67-30.34,5.67-45.09c3.83-11.31,15-21.75,15-21.75h-4c8.48-8.48,19.87-12.75,28.7-14.88a57.89,57.89,0,0,1,27.26,0c8.83,2.13,20.22,6.4,28.7,14.88h-4s10.34,10.75,15,21.75C205.92,69.74,213.75,84,211.59,114.83Z"/><circle class="cls-2" cx="179.26" cy="75.83" r="4"/><circle class="cls-2" cx="125.92" cy="75.83" r="4"/><path class="cls-2" d="M151.47,102.09a56.31,56.31,0,0,1-31-9.37l-1.61-1.06a2,2,0,1,1,2.2-3.34l1.61,1.06a52.12,52.12,0,0,0,59.14-1,2,2,0,0,1,2.31,3.27A56.33,56.33,0,0,1,151.47,102.09Z"/><path class="cls-1" d="M197.6,160.66c8.6-3.19,12.35-6,12.35-6,28.87-15.23,17-37.84,17-37.84-.23-.68-.5-1.39-.82-2.12-2.45-5.66-9.28-16.5-15.79-25.32a127.89,127.89,0,0,1-5.6,32,23.27,23.27,0,0,1-9.18,7.43c-9.25,5.44-21.89,4.51-21.89,4.51l3.09,2.64a98,98,0,0,1-33.4-4.33l.17,5s-9.79-6-21.1-6.8S101.68,143.53,108.82,156s31,5.43,31,5.43l-2.69,3.42c10.38,0,32.54-.45,32.54-.45l-2.69,3.42a139,139,0,0,0,30.67-7.12"/><path class="cls-3" d="M176.13,138.87a100.08,100.08,0,0,1-32.62-4.08l-.11-3.18a98,98,0,0,0,33.4,4.33l-3.09-2.64s12.64.93,21.89-4.51c10.38-4.8,12-13.38,11.56-16.2v.11a18.57,18.57,0,0,1-8.69,18.59A57.7,57.7,0,0,1,176.13,138.87Z"/><path class="cls-3" d="M142.9,139.57s-9.79-6-21.1-6.79c-6.88-.48-13.08,4.7-15.28,11.63,1.18-8.34,8.12-15.1,16-14.56,9.43.66,17.79,4.94,20.32,6.35Z"/><path class="cls-3" d="M213.6,152.66s-11.22,6.29-30.08,5.69c0,0,18.11,3.05,29.53-.68Z"/><path class="cls-3" d="M91.36,149.13s9.32,8.88,27.74,13c0,0-17.06-1-27.21-7.46Z"/><path class="cls-1" d="M93.53,108.34c-14.18.46-27.34-8-27.34-8l1,4A98.39,98.39,0,0,1,42.35,81.51l-2.76,4.22S35,75.2,26.24,68,1.37,67.27.05,81.55s22.2,22.24,22.2,22.24L18.09,105C26.56,111,45,123.39,45,123.39l-4.16,1.25c27.54,14.52,42.74,14,42.74,14l-2.61,3c23.74,4.64,43.6-7.28,43.6-7.28"/><path class="cls-4" d="M185.17,38l0,0c0,.45,0,.91,0,1.36-7.1,9.84-18.58,11.48-34.84,11.48-14.08,0-29.62-9.89-32.8-16.4.13-.53.27-1.06.41-1.58h0c-1.23-.06-3.42.35-3.42,2.67s-.68,5.06,1,6.7c1.25,1.25,5.88,8.61,8.47,11.48a32.36,32.36,0,0,0,20.5,10.38c5.19.55,10,.82,13.26.82A30.36,30.36,0,0,0,179,55.53s6-6.53,7.93-8.19c1.09-1,1.5-4,1.5-4.51V41.19A2.86,2.86,0,0,0,185.17,38Z"/><path class="cls-5" d="M185.14,38.05C184.53,23,173.9,4.52,153.81,3.13c-20.23-.73-31.19,12.32-35.87,29.78-.14.52-.28,1.05-.41,1.58,3.18,6.51,18.72,16.4,32.8,16.4,16.26,0,27.74-1.64,34.84-11.48C185.17,39,185.16,38.5,185.14,38.05Z"/><path class="cls-6" d="M151.15,56.35a15.31,15.31,0,0,1-15.22-13.66,14.75,14.75,0,0,0-.09,1.64,15.31,15.31,0,0,0,30.61,0,14.75,14.75,0,0,0-.09-1.64A15.29,15.29,0,0,1,151.15,56.35Z"/><path class="cls-7" d="M161.34,29.64,163,5.21a4.3,4.3,0,0,0-4-4.57L149.47,0a4.32,4.32,0,0,0-4.58,4L143.31,27.9a15.32,15.32,0,0,1,18,1.74Z"/><circle class="cls-1" cx="151.15" cy="41.05" r="15.3"/><path class="cls-8" d="M144.85,47.35a8.81,8.81,0,1,1,12.46-12.46Z"/></g></g></svg>