<svg xmlns="http://www.w3.org/2000/svg" xmlns:xlink="http://www.w3.org/1999/xlink" viewBox="0 0 232.95 236.88"><defs><style>.cls-1{fill:#b6b9bc;}.cls-2{fill:#fff;}.cls-3,.cls-6{fill:#171d26;}.cls-4{fill:url(#linear-gradient);}.cls-5{fill:#17a9f9;}.cls-6{opacity:0.15;isolation:isolate;}.cls-7{fill:url(#linear-gradient-2);}.cls-8{fill:#c6c6c6;}</style><linearGradient id="linear-gradient" x1="102.69" y1="68.18" x2="105.68" y2="36.74" gradientUnits="userSpaceOnUse"><stop offset="0" stop-color="#17a9f9"/><stop offset="1" stop-color="#26d8e2"/></linearGradient><linearGradient id="linear-gradient-2" x1="105.6" y1="39.82" x2="108" y2="0.96" xlink:href="#linear-gradient"/></defs><title>grunty-2-fullColor-onLight</title><g id="Layer_2" data-name="Layer 2"><g id="Artwork"><path class="cls-1" d="M133.55,236.88a15.87,15.87,0,0,1-15.36-12l-3.77-15a41.84,41.84,0,0,1-10.79,1.44h-.13a42.15,42.15,0,0,1-10.91-1.51l-3.86,15a15.88,15.88,0,0,1-31.08-1.55l-2.27-14.81L52,210.82l-.68-2.9a122.23,122.23,0,0,1-3-23.44l-2.75,3.72-.92-4.35a192.29,192.29,0,0,1-3.53-53.57,45.14,45.14,0,0,0-1,7.52l-.18,6.06-2.77-4a95.77,95.77,0,0,0,1.46,27.72l.69,2.85-4.45-.61a53,53,0,0,1,3.42,19.3c-.29,9-8.71,16.32-18.77,16.32A20.1,20.1,0,0,1,7.7,201.61C-1.45,195,.81,181.07,3,173.33l-2.4,1.52.4-4.08c.75-7.5,2.42-21.27,3.26-28.18L0,145.26l1.11-4.75c5.07-21.66,11.78-33.69,15.4-39H13.07l1.72-3c11.09-19.27,30-27.15,34.34-28.74,3.28-7.25,8.69-14.17,12.08-18.12H56.85l3.43-3.41a48.48,48.48,0,0,1,6.37-5.29,8.58,8.58,0,0,1-.44-3.41l.18-2.25a5,5,0,0,1,4-4.53C75.73,13.32,87.58,6.47,97.19,4.24A6.18,6.18,0,0,1,103,0l.47,0,9.69.75A6.13,6.13,0,0,1,118.8,6c16.21,6.82,20.74,22.23,21.93,32.11a5,5,0,0,1,3.43,5.13L144,45.14a44.39,44.39,0,0,1,3.76,3.37l3.4,3.43-4.36,0a87.07,87.07,0,0,1,10.84,15.85,62.65,62.65,0,0,1,18.41,7.5l2.94,1.8-3,1.65c5.71,3,17.34,10.31,32.14,26.92l3.25,3.65-5-.33c4,5.67,12.08,17,16.31,23.21l2.31,3.39-2.84-.19c5.6,5.77,14.24,17,9.34,27.11a20,20,0,0,1-18.09,11.44h0c-6.33,0-11.82-2.93-14.69-7.82a52.81,52.81,0,0,1-6.2-18.59l-3.63,2.66-.75-2.83a96.46,96.46,0,0,0-11.95-25.06l-.53,4.8-3-5.22a47.66,47.66,0,0,0-8.41-10.08l.58,4.72c.33,1.75,5.68,31.69-2.24,67.73l-.95,4.34-2.72-3.74a122.41,122.41,0,0,1-3.16,23.42l-.7,2.9-3.36-2.43-2.37,14.79a15.81,15.81,0,0,1-15.68,13.37Z"/><path class="cls-2" d="M158.24,105.4c9.72,4.56,16.09,15.51,16.09,15.51l.45-4a98.25,98.25,0,0,1,15.29,30l4.06-3s.58,11.46,6.31,21.24,23,9.44,29.26-3.47-13-28.61-13-28.61l4.34.29c-5.84-8.59-18.74-26.6-18.74-26.6l4.34.28C185.93,83.79,171.5,79,171.5,79L175,77c-20.61-12.66-43.38-8.45-43.38-8.45"/><path class="cls-2" d="M157.28,71.76C152.65,60.75,142.35,50,142.35,50h4c-8.46-8.51-19.83-12.81-28.65-15a58.06,58.06,0,0,0-27.27-.08C81.6,37,70.2,41.25,61.68,49.71h4S55.32,60.44,50.62,71.43c0,0-22,7.17-34.09,28.14h4S10.16,110.71,3.06,141l3.67-2.32S4,160.69,3,171l3.68-2.32s-9.41,23,2.23,31.34,27,.42,27.37-10.91-4.6-21.68-4.6-21.68l5,.68a98.12,98.12,0,0,1-.89-33.67l2.32,3.34s.37-12.66,6.74-21.31c0,0-6.1,30,1.78,67l3.68-5a121.72,121.72,0,0,0,3,29L56.86,205l2.77,18A13.87,13.87,0,0,0,73.3,234.75h0a13.88,13.88,0,0,0,13.49-10.42l4.39-17a39,39,0,0,0,24.67.08l4.28,17.06a13.89,13.89,0,0,0,13.42,10.5h0a13.89,13.89,0,0,0,13.76-11.69l2.88-18,3.58,2.6a121.58,121.58,0,0,0,3.17-29l3.65,5c8.12-37,2.21-67,2.21-67"/><circle class="cls-3" cx="77.26" cy="77.59" r="4"/><circle class="cls-3" cx="130.6" cy="77.76" r="4"/><path class="cls-3" d="M105.15,103.94A56.32,56.32,0,0,1,72.39,93.38a2,2,0,0,1,2.32-3.26,52.1,52.1,0,0,0,59.13,1.21l1.62-1.06a2,2,0,0,1,2.19,3.35L136,94.68A56.37,56.37,0,0,1,105.15,103.94Z"/><path class="cls-4" d="M139,39.93l0,0c0,.45,0,.91,0,1.36-7.11,9.84-18.58,11.48-34.85,11.48C90,52.8,74.49,42.91,71.31,36.4c.13-.53.26-1.06.4-1.58h0c-1.22-.06-3.41.35-3.41,2.67s-.68,5.06,1,6.7c1.25,1.25,5.88,8.61,8.47,11.48a32.33,32.33,0,0,0,20.5,10.38c5.19.55,10,.82,13.25.82a30.36,30.36,0,0,0,21.32-9.43s6-6.54,7.93-8.19c1.09-1,1.5-4,1.5-4.51V43.1A2.86,2.86,0,0,0,139,39.93Z"/><path class="cls-5" d="M138.92,40C138.31,24.88,127.68,6.43,107.59,5,87.36,4.31,76.4,17.36,71.71,34.82c-.14.52-.27,1-.4,1.58C74.49,42.91,90,52.8,104.1,52.8c16.27,0,27.74-1.64,34.85-11.48C139,40.87,138.94,40.41,138.92,40Z"/><path class="cls-6" d="M104.93,58.26A15.31,15.31,0,0,1,89.71,44.6a14.75,14.75,0,0,0-.09,1.64,15.31,15.31,0,0,0,30.61,0,14.75,14.75,0,0,0-.09-1.64A15.29,15.29,0,0,1,104.93,58.26Z"/><path class="cls-7" d="M115.12,31.55l1.62-24.43a4.3,4.3,0,0,0-4-4.57l-9.48-.63a4.32,4.32,0,0,0-4.58,4L97.09,29.81a15.32,15.32,0,0,1,18,1.74Z"/><circle class="cls-2" cx="104.92" cy="42.96" r="15.3"/><path class="cls-8" d="M98.62,49.26A8.81,8.81,0,0,1,111.09,36.8Z"/></g></g></svg>