<svg xmlns="http://www.w3.org/2000/svg" xmlns:xlink="http://www.w3.org/1999/xlink" viewBox="0 0 153.54 238.31"><defs><style>.cls-1{fill:#b6b9bc;}.cls-2{fill:#fff;}.cls-3,.cls-7{fill:#171d26;}.cls-4{fill:#e6e6e6;}.cls-5{fill:url(#linear-gradient);}.cls-6{fill:#17a9f9;}.cls-7{opacity:0.15;isolation:isolate;}.cls-8{fill:url(#linear-gradient-2);}.cls-9{fill:#c6c6c6;}</style><linearGradient id="linear-gradient" x1="77.14" y1="68.26" x2="80.13" y2="36.83" gradientUnits="userSpaceOnUse"><stop offset="0" stop-color="#17a9f9"/><stop offset="1" stop-color="#26d8e2"/></linearGradient><linearGradient id="linear-gradient-2" x1="80.05" y1="39.91" x2="82.45" y2="1.05" xlink:href="#linear-gradient"/></defs><title>grunty-1-fullColor-onLight</title><g id="Layer_2" data-name="Layer 2"><g id="Artwork"><path class="cls-1" d="M109.56,238.31a16,16,0,0,1-15.48-12l-3.84-15.12a41.58,41.58,0,0,1-22,0L64.4,226.28a16,16,0,0,1-31.26-1.47l-2.35-14.92-3.38,2.44-.7-2.9a123.78,123.78,0,0,1-3.1-23.61l-2.76,3.75-.94-4.34a187.6,187.6,0,0,1-3.77-26.89l-.21-1.85C-7.42,141.27,1.5,120.7,2.5,118.6c.23-.69.51-1.42.84-2.18,2.3-5.31,8.43-15.25,15-24.29,1.6-13.31,5-20.09,5.44-21,3.23-7.58,8.93-14.92,12.44-19H31.8l3.41-3.42a49.5,49.5,0,0,1,5.61-4.78,8.69,8.69,0,0,1-.66-4l.17-2.28a5.05,5.05,0,0,1,4-4.55C49.65,13.49,61.56,6.56,71.23,4.28A6.2,6.2,0,0,1,77.09,0l.46,0,9.76.72A6.18,6.18,0,0,1,93,6c16.34,6.81,21,22.3,22.18,32.24a5,5,0,0,1,3.46,5.15l-.08,1.13a49.45,49.45,0,0,1,4.75,4.14l3.41,3.42h-4.13c3.75,4.12,9.61,11.42,12.27,19.25,1.74,5.13,3.15,12.59,4.2,22.16,5.65,9.83,10.78,20.55,12.53,26.19.25.78.45,1.54.61,2.25A28.32,28.32,0,0,1,142.77,153l-.27,2.82a189.21,189.21,0,0,1-3.93,29.4l-.94,4.34-2.76-3.75a123.78,123.78,0,0,1-3.1,23.61l-.7,2.9-3.39-2.44-2.34,14.92A15.89,15.89,0,0,1,109.56,238.31Z"/><path class="cls-2" d="M19.85,117.43s-6,30.19,2,67.44l3.69-5A122.16,122.16,0,0,0,28.66,209l3.61-2.6,2.84,18.14a14,14,0,0,0,13.81,11.81h0a14,14,0,0,0,13.54-10.53l4.37-17.15a39.32,39.32,0,0,0,24.82,0L96,225.84a14,14,0,0,0,13.54,10.53h0a14,14,0,0,0,13.81-11.81l2.84-18.14,3.61,2.6a122.16,122.16,0,0,0,3.1-29.19l3.69,5c8.06-37.25,2-67.44,2-67.44s-.67-30.54-5.71-45.38c-3.86-11.39-15.1-21.89-15.1-21.89h4c-8.54-8.54-20-12.84-28.89-15a58.38,58.38,0,0,0-27.44,0c-8.89,2.15-20.35,6.45-28.89,15h4S30.25,61,25.56,72.05C25.56,72.05,17.68,86.39,19.85,117.43Z"/><circle class="cls-3" cx="52.4" cy="78.17" r="4.03"/><circle class="cls-3" cx="106.08" cy="78.17" r="4.03"/><path class="cls-3" d="M80.37,104.59A56.66,56.66,0,0,1,47.55,94.06a2,2,0,0,1,2.31-3.26,52.46,52.46,0,0,0,59.54,1L111,90.76a2,2,0,0,1,2.2,3.34l-1.62,1.07A56.7,56.7,0,0,1,80.37,104.59Z"/><path class="cls-2" d="M116.1,163.29c9-2.26,13-4.69,13-4.69,30.53-12.13,21.13-36,21.13-36-.15-.7-.35-1.44-.59-2.21-1.84-5.92-7.51-17.5-13.08-27a128,128,0,0,1-9,31.43,23.28,23.28,0,0,1-10,6.44c-9.85,4.46-22.39,2.16-22.39,2.16l2.8,3a98.73,98.73,0,0,1-33-7.93l-.37,5.06s-9.15-7.06-20.38-9.07S22,135.82,27.75,149s30.39,8.76,30.39,8.76l-3.06,3.14c10.39,1.14,32.61,3,32.61,3l-3,3.13a139.82,139.82,0,0,0,31.46-3.82"/><path class="cls-4" d="M97,139.17a100.52,100.52,0,0,1-32.21-7.6l.23-3.19a98.73,98.73,0,0,0,33,7.93l-2.8-3s12.54,2.3,22.39-2.16c10.9-3.69,13.43-12.1,13.31-15v.12A18.68,18.68,0,0,1,120.14,134,58.12,58.12,0,0,1,97,139.17Z"/><path class="cls-4" d="M63.63,136.3s-9.15-7.06-20.39-9.07c-6.84-1.23-13.6,3.29-16.54,10C28.77,129,36.45,123,44.23,124.37c9.36,1.68,17.27,6.86,19.65,8.54Z"/><path class="cls-2" d="M33.93,163.56c-8.65-3.21-12.42-6.06-12.42-6.06C-7.55,142.17,4.35,119.41,4.35,119.41c.23-.68.51-1.4.82-2.13,2.47-5.69,9.35-16.61,15.9-25.49A128.59,128.59,0,0,0,26.71,124,23.37,23.37,0,0,0,36,131.48C45.26,137,58,136,58,136l-3.11,2.66a98.82,98.82,0,0,0,33.62-4.36l-.17,5.07s9.85-6,21.24-6.84,20.92,13.77,13.74,26.28-31.15,5.47-31.15,5.47l2.7,3.43c-10.45,0-32.75-.44-32.75-.44l2.7,3.44a140.38,140.38,0,0,1-30.87-7.17"/><path class="cls-4" d="M55.54,141.62a100.58,100.58,0,0,0,32.84-4.1l.11-3.2a98.82,98.82,0,0,1-33.62,4.36L58,136s-12.72.94-22-4.54C25.5,126.65,23.89,118,24.31,115.17v.12A18.68,18.68,0,0,0,33.05,134,57.92,57.92,0,0,0,55.54,141.62Z"/><path class="cls-4" d="M89,142.33s9.85-6,21.24-6.83c6.93-.49,13.17,4.73,15.38,11.7-1.18-8.39-8.17-15.2-16-14.65-9.49.67-17.91,5-20.45,6.39Z"/><path class="cls-4" d="M17.83,155.51s11.3,6.33,30.28,5.72c0,0-18.23,3.08-29.73-.68Z"/><path class="cls-4" d="M140.87,152s-9.38,8.93-27.92,13c0,0,17.18-1,27.38-7.51Z"/><path class="cls-5" d="M113.4,40l0,0c0,.46,0,.92,0,1.37-7.11,9.84-18.58,11.48-34.85,11.48-14.07,0-29.61-9.89-32.79-16.4.13-.53.26-1.06.4-1.58h0c-1.22-.06-3.41.35-3.41,2.67s-.68,5.06,1,6.7c1.25,1.25,5.88,8.61,8.47,11.48a32.33,32.33,0,0,0,20.5,10.38c5.19.55,10,.82,13.25.82a30.36,30.36,0,0,0,21.32-9.43s6-6.54,7.93-8.2c1.09-.95,1.5-4,1.5-4.51V43.18A2.86,2.86,0,0,0,113.4,40Z"/><path class="cls-6" d="M113.37,40C112.76,25,102.13,6.52,82,5.13,61.81,4.4,50.85,17.45,46.16,34.91c-.14.52-.27,1.05-.4,1.58,3.18,6.51,18.72,16.4,32.79,16.4,16.27,0,27.74-1.64,34.85-11.48C113.4,41,113.39,40.5,113.37,40Z"/><path class="cls-7" d="M79.38,58.35A15.31,15.31,0,0,1,64.16,44.69a14.75,14.75,0,0,0-.09,1.64,15.31,15.31,0,0,0,30.61,0,14.75,14.75,0,0,0-.09-1.64A15.3,15.3,0,0,1,79.38,58.35Z"/><path class="cls-8" d="M89.57,31.64,91.19,7.21a4.3,4.3,0,0,0-4-4.57L77.7,2a4.31,4.31,0,0,0-4.58,4L71.54,29.9a15.28,15.28,0,0,1,18,1.74Z"/><circle class="cls-2" cx="79.37" cy="43.05" r="15.3"/><path class="cls-9" d="M73.07,49.35A8.82,8.82,0,0,1,85.54,36.88Z"/></g></g></svg>