<svg xmlns="http://www.w3.org/2000/svg" xmlns:xlink="http://www.w3.org/1999/xlink" viewBox="0 0 232.95 236.88"><defs><style>.cls-1{fill:#b6b9bc;}.cls-2{fill:#fff;}.cls-3,.cls-6{fill:#171d26;}.cls-4{fill:url(#linear-gradient);}.cls-5{fill:#17a9f9;}.cls-6{opacity:0.15;isolation:isolate;}.cls-7{fill:url(#linear-gradient-2);}.cls-8{fill:#c6c6c6;}</style><linearGradient id="linear-gradient" x1="124.41" y1="68.87" x2="127.4" y2="37.43" gradientTransform="matrix(0.99, -0.16, 0.16, 0.99, -3.71, 19.71)" gradientUnits="userSpaceOnUse"><stop offset="0" stop-color="#17a9f9"/><stop offset="1" stop-color="#26d8e2"/></linearGradient><linearGradient id="linear-gradient-2" x1="127.32" y1="40.52" x2="129.72" y2="1.65" xlink:href="#linear-gradient"/></defs><title>grunty-hs-4-fullColor-onLight</title><g id="Layer_2" data-name="Layer 2"><g id="Artwork"><path class="cls-1" d="M99.35,236.88a15.81,15.81,0,0,1-15.68-13.37l-2.37-14.8-3.36,2.44-.7-2.9a123.22,123.22,0,0,1-3.16-23.42l-2.72,3.74-1-4.34c-7.92-36-2.57-66-2.24-67.73l.58-4.72a47.06,47.06,0,0,0-8.4,10.08l-3.06,5.22-.53-4.8a95.35,95.35,0,0,0-11.94,25.06l-.76,2.83-3.63-2.66a52.81,52.81,0,0,1-6.2,18.59c-2.87,4.89-8.36,7.82-14.69,7.82A20,20,0,0,1,1.45,162.48c-4.9-10.16,3.74-21.34,9.34-27.11L8,135.56l2.31-3.4c4.24-6.23,12.27-17.53,16.31-23.2l-5,.33,3.25-3.65C39.62,89,51.25,81.67,57,78.72l-3-1.65,2.93-1.8c1.12-.69,2.28-1.35,3.51-2V69.66A12.34,12.34,0,0,1,72.73,57.33h1.18A45.92,45.92,0,0,1,93.67,30.39c3.92-14.46,13-21.21,20.48-24.36A6.13,6.13,0,0,1,119.76.77L129.45,0l.48,0a6.17,6.17,0,0,1,5.83,4.24c8.86,2.06,20,8.17,25.77,25.17A45.65,45.65,0,0,1,184.4,68.92V70c5.36,2.07,23.13,10.06,33.76,28.52l1.72,3h-3.44c3.62,5.31,10.33,17.34,15.4,39l1.11,4.75-4.23-2.67c.84,6.91,2.51,20.68,3.26,28.18l.41,4.08L230,173.32c2.16,7.75,4.42,21.7-4.73,28.29a20.1,20.1,0,0,1-11.77,3.85c-10.06,0-18.48-7.32-18.77-16.32a52.71,52.71,0,0,1,3.43-19.3l-4.46.61.69-2.85a96.34,96.34,0,0,0,1.46-27.72l-2.76,4-.19-6a46.18,46.18,0,0,0-1-7.49,192.41,192.41,0,0,1-3.53,53.54l-.92,4.35-2.75-3.72a122.23,122.23,0,0,1-3,23.44l-.68,2.9-3.37-2.41-2.28,14.81a15.88,15.88,0,0,1-31.08,1.55l-3.86-15a42.15,42.15,0,0,1-10.91,1.51h-.13a41.84,41.84,0,0,1-10.79-1.44l-3.77,15a15.87,15.87,0,0,1-15.36,12Z"/><path class="cls-2" d="M74.71,105.34C65,109.9,58.62,120.85,58.62,120.85l-.45-4a98.25,98.25,0,0,0-15.29,30l-4.06-3s-.58,11.46-6.31,21.24-23,9.44-29.26-3.47,13-28.61,13-28.61l-4.34.29c5.84-8.58,18.74-26.6,18.74-26.6l-4.33.28C47,83.73,61.45,78.89,61.45,78.89L57.94,77c20.61-12.66,43.39-8.45,43.39-8.45"/><path class="cls-2" d="M75.67,71.71c4.63-11,14.93-21.8,14.93-21.8h-4c8.46-8.51,19.83-12.81,28.65-15a58.06,58.06,0,0,1,27.27-.08c8.83,2.1,20.24,6.34,28.75,14.79h-4s10.36,10.72,15.07,21.71c0,0,22,7.18,34.09,28.14h-4s10.36,11.13,17.46,41.45l-3.67-2.33S229,160.63,230,171l-3.68-2.32s9.41,23-2.23,31.34-27,.42-27.37-10.91,4.6-21.68,4.6-21.68l-5,.68a98.12,98.12,0,0,0,.89-33.67l-2.32,3.34s-.37-12.66-6.73-21.31c0,0,6.09,30-1.79,67l-3.68-5a122,122,0,0,1-3,29l-3.6-2.57-2.77,18a13.87,13.87,0,0,1-13.67,11.78h0a13.89,13.89,0,0,1-13.49-10.42l-4.39-17a38.95,38.95,0,0,1-24.67.07l-4.28,17.06a13.88,13.88,0,0,1-13.42,10.5h0a13.9,13.9,0,0,1-13.76-11.69l-2.88-18-3.57,2.6a121.3,121.3,0,0,1-3.18-29l-3.65,5c-8.12-37-2.21-67-2.21-67"/><path class="cls-1" d="M138.82,25.33H118a43.66,43.66,0,0,0-42.51,34H72.73A10.33,10.33,0,0,0,62.4,69.66V79A10.33,10.33,0,0,0,72.73,89.33h2.74a42.46,42.46,0,0,0,41.33,33h13.6a5,5,0,0,0,0-10h-5a5,5,0,0,0-4.9,4h-3.7a36.44,36.44,0,0,1-36.4-36.4v-11A37.63,37.63,0,0,1,118,31.33h20.83A37.63,37.63,0,0,1,176.4,68.92v3.41a3,3,0,1,0,6,0V68.92A43.63,43.63,0,0,0,138.82,25.33Z"/><circle class="cls-3" cx="155.69" cy="77.53" r="4"/><circle class="cls-3" cx="102.36" cy="77.7" r="4"/><path class="cls-3" d="M127.8,103.88a56.31,56.31,0,0,1-30.88-9.26l-1.61-1.06a2,2,0,1,1,2.19-3.34l1.61,1a52.1,52.1,0,0,0,59.13-1.21,2,2,0,0,1,2.32,3.26A56.3,56.3,0,0,1,127.8,103.88Z"/><path class="cls-4" d="M161.37,34.38l0,0c.09.45.17.89.24,1.34C156.13,46.59,145.06,50,129,52.6c-13.89,2.23-30.81-5.07-35-11L94.17,40h0c-1.21.14-3.31.89-2.94,3.18s.12,5.11,2,6.46c1.44,1,7.17,7.57,10.19,10a32.31,32.31,0,0,0,21.88,7c5.21-.28,10-.77,13.22-1.29a30.35,30.35,0,0,0,19.55-12.69s4.92-7.41,6.53-9.35c.93-1.11.86-4.15.77-4.69L165.11,37A2.85,2.85,0,0,0,161.37,34.38Z"/><path class="cls-5" d="M161.35,34.41c-3-14.79-16.41-31.32-36.47-29.52C104.79,7.38,96,22,94.17,40L94,41.6c4.17,5.93,21.09,13.23,35,11,16.06-2.57,27.13-6,32.59-16.85C161.52,35.3,161.44,34.86,161.35,34.41Z"/><path class="cls-6" d="M130.68,57.87a15.31,15.31,0,0,1-17.19-11.08c0,.54.09,1.08.17,1.63a15.31,15.31,0,1,0,30.23-4.85,16.19,16.19,0,0,0-.35-1.6A15.3,15.3,0,0,1,130.68,57.87Z"/><path class="cls-7" d="M136.52,29.88,134.24,5.5a4.3,4.3,0,0,0-4.67-3.88l-9.47.88a4.31,4.31,0,0,0-3.88,4.68L118.44,31a15.32,15.32,0,0,1,18.08-1.13Z"/><circle class="cls-2" cx="128.26" cy="42.76" r="15.3"/><path class="cls-8" d="M123,50a8.82,8.82,0,0,1,10.34-14.29Z"/></g></g></svg>