<svg xmlns="http://www.w3.org/2000/svg" xmlns:xlink="http://www.w3.org/1999/xlink" viewBox="0 0 293.85 233.49"><defs><style>.cls-1{fill:#fff;}.cls-2,.cls-5{fill:#171d26;}.cls-3{fill:url(#linear-gradient);}.cls-4{fill:#17a9f9;}.cls-5{opacity:0.15;isolation:isolate;}.cls-6{fill:url(#linear-gradient-2);}.cls-7{fill:#c6c6c6;}</style><linearGradient id="linear-gradient" x1="144.74" y1="66.27" x2="147.74" y2="34.83" gradientUnits="userSpaceOnUse"><stop offset="0" stop-color="#17a9f9"/><stop offset="1" stop-color="#26d8e2"/></linearGradient><linearGradient id="linear-gradient-2" x1="147.65" y1="37.91" x2="150.05" y2="-0.95" xlink:href="#linear-gradient"/></defs><title>grunty-6-fullColor-onDark</title><g id="Layer_2" data-name="Layer 2"><g id="Artwork"><path class="cls-1" d="M88.26,115.33s-6,30,2,67l3.66-5a121.51,121.51,0,0,0,3.09,29l3.58-2.59,2.83,18a13.88,13.88,0,0,0,13.71,11.73h0A13.89,13.89,0,0,0,130.59,223l4.33-17a39,39,0,0,0,24.67,0l4.34,17a13.87,13.87,0,0,0,13.45,10.45h0a13.88,13.88,0,0,0,13.72-11.73l2.82-18,3.59,2.59a121.79,121.79,0,0,0,3.08-29l3.67,5c8-37,2-67,2-67,2.16-28.34-5.67-45.09-5.67-45.09-4.67-11-15-21.75-15-21.75h4c-8.48-8.48-19.87-12.75-28.7-14.88a57.93,57.93,0,0,0-27.27,0c-8.82,2.13-20.21,6.4-28.7,14.88h4s-10.33,10.75-15,21.75C93.92,70.24,85.59,86.66,88.26,115.33Z"/><path class="cls-1" d="M200.31,84.84c14.19.46,27.35-8,27.35-8l-1,4A98.23,98.23,0,0,0,251.49,58l2.76,4.22s4.56-10.53,13.36-17.69,24.87-.77,26.18,13.51S271.6,80.29,271.6,80.29l4.16,1.25c-8.48,6-26.87,18.35-26.87,18.35l4.16,1.25c-27.54,14.52-42.75,14-42.75,14l2.62,3c-23.74,4.64-43.6-7.28-43.6-7.28"/><path class="cls-1" d="M93.53,84.84c-14.18.46-27.34-8-27.34-8l1,4A98.39,98.39,0,0,1,42.35,58l-2.76,4.22S35,51.7,26.24,44.54,1.37,43.77.05,58.05s22.2,22.24,22.2,22.24l-4.16,1.25C26.56,87.53,45,99.89,45,99.89l-4.16,1.25c27.54,14.52,42.74,14,42.74,14l-2.61,3c23.74,4.64,43.6-7.28,43.6-7.28"/><circle class="cls-2" cx="120.59" cy="76.33" r="4"/><circle class="cls-2" cx="173.92" cy="76.33" r="4"/><path class="cls-2" d="M148.38,102.59a56.33,56.33,0,0,1-32.61-10.46,2,2,0,0,1,2.31-3.27,52.1,52.1,0,0,0,59.13,1l1.61-1.06a2,2,0,0,1,2.2,3.34l-1.61,1.06A56.33,56.33,0,0,1,148.38,102.59Z"/><path class="cls-3" d="M181,38l0,0c0,.45,0,.91,0,1.36-7.11,9.84-18.59,11.48-34.85,11.48-14.08,0-29.62-9.89-32.8-16.4.13-.53.27-1.06.41-1.58h0c-1.23-.06-3.41.35-3.41,2.67s-.69,5.06,1,6.7c1.26,1.25,5.88,8.61,8.48,11.48a32.3,32.3,0,0,0,20.49,10.38c5.2.55,10,.82,13.26.82a30.39,30.39,0,0,0,21.32-9.43s6-6.53,7.92-8.19c1.09-1,1.5-4,1.5-4.51V41.19A2.86,2.86,0,0,0,181,38Z"/><path class="cls-4" d="M181,38.05C180.37,23,169.74,4.52,149.64,3.13c-20.23-.73-31.19,12.32-35.87,29.78-.14.52-.28,1.05-.41,1.58,3.18,6.51,18.72,16.4,32.8,16.4,16.26,0,27.74-1.64,34.85-11.48C181,39,181,38.5,181,38.05Z"/><path class="cls-5" d="M147,56.35a15.31,15.31,0,0,1-15.22-13.66c0,.54-.08,1.08-.08,1.64a15.31,15.31,0,0,0,30.61,0,14.75,14.75,0,0,0-.09-1.64A15.31,15.31,0,0,1,147,56.35Z"/><path class="cls-6" d="M157.18,29.64l1.61-24.43a4.3,4.3,0,0,0-4-4.57L145.3,0a4.3,4.3,0,0,0-4.57,4L139.15,27.9a15.32,15.32,0,0,1,18,1.74Z"/><circle class="cls-1" cx="146.98" cy="41.05" r="15.3"/><path class="cls-7" d="M140.68,47.35a8.81,8.81,0,0,1,12.46-12.46Z"/></g></g></svg>