<svg xmlns="http://www.w3.org/2000/svg" xmlns:xlink="http://www.w3.org/1999/xlink" viewBox="0 0 227.98 233.14"><defs><style>.cls-1{fill:#fff;}.cls-2{fill:#b6b9bc;}.cls-3,.cls-6{fill:#171d26;}.cls-4{fill:url(#linear-gradient);}.cls-5{fill:#17a9f9;}.cls-6{opacity:0.15;isolation:isolate;}.cls-7{fill:url(#linear-gradient-2);}.cls-8{fill:#c6c6c6;}</style><linearGradient id="linear-gradient" x1="99.57" y1="66.27" x2="102.56" y2="34.83" gradientUnits="userSpaceOnUse"><stop offset="0" stop-color="#17a9f9"/><stop offset="1" stop-color="#26d8e2"/></linearGradient><linearGradient id="linear-gradient-2" x1="102.48" y1="37.91" x2="104.88" y2="-0.95" xlink:href="#linear-gradient"/></defs><title>grunty-hs-2-fullColor-onDark</title><g id="Layer_2" data-name="Layer 2"><g id="Artwork"><path class="cls-1" d="M213.74,131.26l4.33.29C212.24,123,199.33,105,199.33,105l4.34.28C183,82,168.54,77.15,168.54,77.15l3.51-1.92a60.65,60.65,0,0,0-18.73-7.46c-5-10.21-13.93-19.6-13.93-19.6h4c-8.46-8.51-19.83-12.81-28.66-15a58,58,0,0,0-27.26-.08c-8.84,2.1-20.24,6.33-28.75,14.79h4S52.35,58.64,47.65,69.63c0,0-22,7.18-34.09,28.14h4S7.19,108.91.1,139.22l3.67-2.32S1,158.89,0,169.22l3.67-2.32s-9.4,23,2.24,31.34,27,.42,27.37-10.91-4.6-21.68-4.6-21.68l5,.68a98.26,98.26,0,0,1-.9-33.67L35.11,136s.37-12.66,6.73-21.31c0,0-6.09,30,1.79,67l3.68-5a122,122,0,0,0,3,29l3.59-2.57,2.77,18a13.88,13.88,0,0,0,27.17,1.36l4.39-17a38.86,38.86,0,0,0,12.33,2,38.41,38.41,0,0,0,12.33-2l4.29,17.06a13.88,13.88,0,0,0,27.17-1.19l2.89-18,3.57,2.6a121.91,121.91,0,0,0,3.18-29l3.65,5c8.11-37,2.21-67,2.21-67l-1.17-9.55c7.78,5.15,12.7,13.59,12.7,13.59l.44-4a98,98,0,0,1,15.29,30l4.07-3s.57,11.46,6.31,21.24,23,9.44,29.26-3.47S213.74,131.26,213.74,131.26Z"/><path class="cls-2" d="M111.34,23.59H90.52A43.66,43.66,0,0,0,48,57.59H45.26A10.32,10.32,0,0,0,34.93,67.92v9.35A10.32,10.32,0,0,0,45.26,87.59H48a42.47,42.47,0,0,0,41.34,33h13.6a5,5,0,0,0,0-10h-5a5,5,0,0,0-4.9,4h-3.7a36.44,36.44,0,0,1-36.4-36.4v-11A37.63,37.63,0,0,1,90.52,29.59h20.82a37.63,37.63,0,0,1,37.59,37.59v3.41a3,3,0,0,0,6,0V67.18A43.63,43.63,0,0,0,111.34,23.59Z"/><circle class="cls-3" cx="74.3" cy="75.79" r="4"/><circle class="cls-3" cx="127.63" cy="75.96" r="4"/><path class="cls-3" d="M102.18,102.14A56.32,56.32,0,0,1,69.42,91.58a2,2,0,0,1,2.33-3.26,52.1,52.1,0,0,0,59.13,1.21l1.61-1a2,2,0,1,1,2.19,3.34l-1.61,1.06A56.43,56.43,0,0,1,102.18,102.14Z"/><path class="cls-4" d="M135.83,38l0,0c0,.45,0,.91,0,1.36-7.1,9.84-18.58,11.48-34.84,11.48-14.08,0-29.62-9.89-32.8-16.4.13-.53.27-1.06.41-1.58h0c-1.23-.06-3.41.35-3.41,2.67s-.69,5.06,1,6.7c1.26,1.25,5.88,8.61,8.48,11.48A32.3,32.3,0,0,0,95.11,64.14c5.2.55,10,.82,13.26.82a30.36,30.36,0,0,0,21.31-9.43s6-6.53,7.93-8.19c1.09-1,1.5-4,1.5-4.51V41.19A2.86,2.86,0,0,0,135.83,38Z"/><path class="cls-5" d="M135.81,38.05C135.2,23,124.56,4.52,104.47,3.13,84.24,2.4,73.28,15.45,68.6,32.91c-.14.52-.28,1.05-.41,1.58C71.37,41,86.91,50.89,101,50.89c16.26,0,27.74-1.64,34.84-11.48C135.83,39,135.82,38.5,135.81,38.05Z"/><path class="cls-6" d="M101.81,56.35A15.31,15.31,0,0,1,86.59,42.69c0,.54-.08,1.08-.08,1.64a15.3,15.3,0,0,0,30.6,0c0-.56,0-1.1-.08-1.64A15.31,15.31,0,0,1,101.81,56.35Z"/><path class="cls-7" d="M112,29.64l1.61-24.43a4.3,4.3,0,0,0-4-4.57L100.13,0a4.3,4.3,0,0,0-4.57,4L94,27.9a15.34,15.34,0,0,1,18,1.74Z"/><circle class="cls-1" cx="101.81" cy="41.05" r="15.3"/><path class="cls-8" d="M95.51,47.35A8.81,8.81,0,0,1,108,34.89Z"/></g></g></svg>