<svg xmlns="http://www.w3.org/2000/svg" viewBox="0 0 227.98 237.17"><defs><style>.cls-1{fill:#fff;}</style></defs><title>grunty-2-white</title><g id="Layer_2" data-name="Layer 2"><g id="Artwork"><path class="cls-1" d="M213.74,135.29l4.33.29C212.24,127,199.33,109,199.33,109l4.34.28C183,86,168.54,81.18,168.54,81.18l3.51-1.92a60.9,60.9,0,0,0-18.73-7.46c-5-10.21-13.93-19.6-13.93-19.6h4a44.94,44.94,0,0,0-4-3.57A10.28,10.28,0,0,1,138,50.42l-7.75,8.08a34.59,34.59,0,0,1-24.82,10.58c-.84,0-1.7,0-2.54-.09l-10.27-.76a34.32,34.32,0,0,1-25.53-14.4l-4-5.66a45,45,0,0,0-4.34,3.77h4S52.35,62.67,47.65,73.66c0,0-22,7.18-34.09,28.14h4S7.19,112.94.1,143.25l3.67-2.32S1,162.92,0,173.25l3.67-2.32s-9.4,23,2.24,31.34,27,.42,27.37-10.91-4.6-21.68-4.6-21.68l5,.68a98.26,98.26,0,0,1-.9-33.67L35.11,140s.37-12.66,6.73-21.31c0,0-6.1,30,1.79,67l3.68-5a122,122,0,0,0,3,29l3.59-2.57,2.77,18a13.88,13.88,0,0,0,27.17,1.36l4.39-17a38.86,38.86,0,0,0,12.33,2,38.41,38.41,0,0,0,12.33-2l4.29,17.06a13.87,13.87,0,0,0,13.42,10.5h0a13.88,13.88,0,0,0,13.75-11.69l2.89-18,3.57,2.6a121.91,121.91,0,0,0,3.18-29l3.65,5c8.11-37,2.21-67,2.21-67l-1.17-9.55c7.78,5.15,12.7,13.59,12.7,13.59l.44-4a98,98,0,0,1,15.29,30l4.07-3s.57,11.46,6.31,21.24,23,9.44,29.26-3.47S213.74,135.29,213.74,135.29Zm-87-61.14a5,5,0,1,1-5,5A5,5,0,0,1,126.72,74.15ZM73,74.15a5,5,0,1,1-5,5A5,5,0,0,1,73,74.15ZM135.7,98a3,3,0,0,1-1.29,1.9l-1.62,1.07A57.42,57.42,0,0,1,67.61,99.8a3,3,0,1,1,3.47-4.89,51.49,51.49,0,0,0,58.41,1l1.62-1.07a3,3,0,0,1,4.15.86A2.94,2.94,0,0,1,135.7,98Z"/><path class="cls-1" d="M66.33,45.86l4,5.65A30.4,30.4,0,0,0,92.9,64.24l10.27.76c.68,0,1.35.07,2,.07h.22l.65,0h.67l1-.07.63,0c.36,0,.72-.08,1.08-.13l.51-.06c.53-.08,1.06-.17,1.58-.28h0c.51-.11,1-.22,1.51-.35l.49-.14,1-.31.59-.2.92-.32.61-.24.86-.36.62-.28.83-.4.61-.32.81-.44.59-.35c.27-.15.53-.32.78-.48l.58-.38c.26-.17.51-.36.77-.54l.54-.39.77-.61.49-.4c.28-.23.55-.47.82-.72l.39-.35c.4-.37.79-.75,1.16-1.14l7.75-8.08a7,7,0,0,0,1.84-4.11l.17-2.28a3,3,0,0,0-2.19-3.13,2.89,2.89,0,0,0-.6-.1l-.47.34h0c-1.61-18.19-10.43-27-18.34-31.17h0l-1.8,24.41a17.29,17.29,0,0,1,3,6.14,17.68,17.68,0,0,1,.55,5.77A17.47,17.47,0,0,1,99.9,59.69c-.43,0-.87,0-1.31,0a17.47,17.47,0,0,1-16.12-18.7,16.52,16.52,0,0,1,.4-2.55,17.48,17.48,0,0,1,4.48-8.31l1.85-25C80.63,8,70.7,15.3,66.35,33.28h0l-.29-.3h-.23l-.2,0-.27,0-.31.07-.25.08c-.1,0-.19.08-.29.12l-.23.12-.25.18a1.56,1.56,0,0,0-.2.16,2.39,2.39,0,0,0-.22.23,1.45,1.45,0,0,0-.17.18c-.07.09-.12.19-.18.28a2.12,2.12,0,0,0-.12.2A2.24,2.24,0,0,0,63,35l-.07.18a2.82,2.82,0,0,0-.1.58h0l-.16,2.28a6.6,6.6,0,0,0,1.21,4.34Z"/><path class="cls-1" d="M101.16,24.82a17.29,17.29,0,0,1,8.67,3.08l1.68-22.73h0A4.17,4.17,0,0,0,107.66.73L97.91,0H97.6a2.85,2.85,0,0,0-.29,0c-.13,0-.25,0-.37,0l-.43.1-.34.1c-.14,0-.27.12-.4.18L95.46.6c-.13.08-.24.17-.36.25l-.27.21c-.11.1-.21.22-.31.33a2.4,2.4,0,0,0-.22.24A4.53,4.53,0,0,0,94,2c-.05.09-.12.18-.16.27a4.19,4.19,0,0,0-.2.49,2.67,2.67,0,0,0-.09.26,4,4,0,0,0-.14.8h0L91.75,26.8A17.34,17.34,0,0,1,101.16,24.82Z"/><path class="cls-1" d="M86.45,41.24a13.46,13.46,0,1,0,25.69-4.56,13.71,13.71,0,0,0-2.07-3.24,13.37,13.37,0,0,0-9.2-4.63c-.34,0-.67,0-1,0A13.52,13.52,0,0,0,86.45,41.24Zm7.45-6.19a9.26,9.26,0,0,1,13,.84L107,36l-14,12.1a9.25,9.25,0,0,1-.11-12A8.63,8.63,0,0,1,93.9,35.05Z"/></g></g></svg>