<svg xmlns="http://www.w3.org/2000/svg" viewBox="0 0 149.65 235.37"><defs><style>.cls-1{fill:#fff;}</style></defs><title>grunty-1-white</title><g id="Layer_2" data-name="Layer 2"><g id="Artwork"><path class="cls-1" d="M117.6,47a10.72,10.72,0,0,1-1.16,2.13h3.47C119.16,48.41,118.38,47.7,117.6,47Z"/><path class="cls-1" d="M148.29,121.56c-.15-.7-.35-1.44-.59-2.21-1.78-5.74-7.17-16.79-12.56-26.14-.86-7.94-2.16-16.28-4.16-22.16-3.47-10.25-12.91-19.77-14.77-21.58a10.31,10.31,0,0,1-.8,1l-7.75,8.07A34.55,34.55,0,0,1,82.84,69.07c-.84,0-1.7,0-2.54-.09L70,68.22a34.26,34.26,0,0,1-25.52-14.4l-5.83-8.19a45.46,45.46,0,0,0-4,3.52h4S28.31,60,23.61,71.05c0,0-3.68,6.71-5.31,20.89C12,100.59,5.59,110.83,3.23,116.28c-.32.73-.59,1.44-.82,2.13,0,0-10.89,20.83,13.61,36.06v.11c.17.09.48.25.93.46,3.21,1.5,13.61,5.69,29.22,5.19A101.35,101.35,0,0,1,29,161.39a45.36,45.36,0,0,1-12.56-1.84l-.25-2.29a186.78,186.78,0,0,0,3.73,26.61l3.69-5A122.48,122.48,0,0,0,26.72,208l3.61-2.6,2.84,18.14a14,14,0,0,0,27.35,1.28l4.36-17.15a39.35,39.35,0,0,0,24.83,0l4.37,17.15a14,14,0,0,0,27.35-1.28l2.84-18.14,3.61,2.6a122.77,122.77,0,0,0,3.1-29.19l3.69,5a187.54,187.54,0,0,0,3.9-29.17l-.18,1.79c-7.5,4.77-18.77,6.58-24.21,7.21-2,.22-3.18.3-3.18.3,2-.45,3.88-.95,5.67-1.49,12.29-3.7,19.52-9.22,21.6-11l.46-.39.2-.18V151C154.93,138.44,148.29,121.56,148.29,121.56ZM104.14,74.14a5,5,0,1,1-5,5A5,5,0,0,1,104.14,74.14Zm-53.68,0a5,5,0,1,1-5,5A5,5,0,0,1,50.46,74.14ZM44.32,95.62a3,3,0,0,1,4.18-.72,51.45,51.45,0,0,0,58.41,1l1.62-1.07a3,3,0,0,1,3.3,5l-1.62,1.06A57.44,57.44,0,0,1,45,99.8,3,3,0,0,1,44.32,95.62Zm-22.46,18.6,0-.12h0l.52.08.47.07a7.85,7.85,0,0,0,.06,2.12,15,15,0,0,0,.85,3.21,17.8,17.8,0,0,0,5.73,7.58,15,15,0,0,1,12.86-4.28c9.52,1.7,17.6,7,19.85,8.62l.23.16,0,.59-.29,4-.74-.57c-.09-.07-9.19-7-20.17-9a13.4,13.4,0,0,0-9.42,2,27.56,27.56,0,0,0,2.43,1.3c9.1,5.35,21.66,4.5,21.78,4.49l1.52-.11-3.29,2.81a101.23,101.23,0,0,0,21.5-1.72,91.85,91.85,0,0,1-13-4.4L62.6,131l-.32-.14.32-4.28.66.32a95.27,95.27,0,0,0,21.4,6.46c1.09-.32,1.69-.54,1.72-.55l.69-.24,0,1.2c2,.31,4,.58,6.08.78l1.11-.43-2.43-2.58,1.5.27a46.37,46.37,0,0,0,6.39.56,43.56,43.56,0,0,1,7.9-1.35,13.4,13.4,0,0,1,3.35.21,26.59,26.59,0,0,0,4.45-1.53c6.53-2.21,9.89-6.07,11.55-9.32a14.29,14.29,0,0,0,1.17-3.07,8.13,8.13,0,0,0,.3-2.11l.47,0,.53,0h0v.13a19.15,19.15,0,0,1-11,18.13c-.42.2-.87.38-1.3.57a18.36,18.36,0,0,1,7,12.11l-.49.11-.48.11a16.38,16.38,0,0,0-10.14-10.75c-.29-.09-.59-.17-.88-.24s-.69-.16-1-.22a12.08,12.08,0,0,0-2.82-.14,45.72,45.72,0,0,0-11.88,2.59l-1.53.57-1.06.42a51.26,51.26,0,0,0-6.54,3.18l-.79.48.13-4,0-.47-.27,0,0-.51v-.17l-.37.11c-.32.1-.68.21-1.1.32a101.4,101.4,0,0,1-27.26,3.73q-2,0-4.11-.09h0a58.69,58.69,0,0,1-22.68-7.69,20.77,20.77,0,0,1-2.5-1.82l-.37-.34c-.25-.22-.49-.45-.72-.68h0l-.35-.37A19.13,19.13,0,0,1,21.86,114.22Z"/><path class="cls-1" d="M41.92,43.27l5.85,8.24A30.39,30.39,0,0,0,70.32,64.23L80.6,65c.67.05,1.34.07,2,.08h.87l.67,0,1-.06.62,0,1.08-.13.51-.07c.53-.08,1.06-.17,1.58-.28h0c.5-.1,1-.22,1.51-.35L91,64c.35-.1.7-.19,1-.3l.58-.2c.31-.11.62-.21.93-.33l.61-.24.87-.36.61-.28.83-.4.61-.31c.27-.15.54-.29.81-.45s.4-.22.59-.34l.79-.49.57-.37.77-.55q.27-.18.54-.39c.26-.19.52-.4.77-.61l.49-.39c.28-.23.55-.48.82-.72s.27-.23.39-.35c.4-.37.79-.75,1.16-1.15l7.75-8.07a6.65,6.65,0,0,0,1.71-3.3h0a7.37,7.37,0,0,0,.13-.82l.17-2.27A3,3,0,0,0,111.74,38l-.46.35c-1.62-18.19-10.44-27-18.35-31.17l-1.8,24.4A17,17,0,0,1,93,34.69a17.45,17.45,0,0,1-15.7,25c-.44,0-.88,0-1.32,0a17.48,17.48,0,0,1-16.12-18.7,17.64,17.64,0,0,1,4.88-10.86l1.85-25C58.05,8,48.12,15.3,43.77,33.27L43.48,33a3.05,3.05,0,0,0-.43,0,2.23,2.23,0,0,0-.27,0,1.55,1.55,0,0,0-.31.07l-.25.07-.29.13-.23.11-.25.19a1.49,1.49,0,0,0-.2.15A2.39,2.39,0,0,0,41,34l-.17.18a2.82,2.82,0,0,0-.18.29,1.32,1.32,0,0,0-.12.2,2.13,2.13,0,0,0-.14.35c0,.06-.05.12-.07.19a2.61,2.61,0,0,0-.1.57v0L40.08,38a6.6,6.6,0,0,0,1.21,4.34Z"/><path class="cls-1" d="M78.58,24.81a17.4,17.4,0,0,1,8.67,3.09L88.93,5.17h0A4.16,4.16,0,0,0,85.08.73L75.33,0a4,4,0,0,0-.6,0l-.37,0a3,3,0,0,0-.43.1l-.34.1a2.87,2.87,0,0,0-.4.18l-.31.15c-.13.08-.24.17-.36.26l-.27.21c-.11.1-.21.21-.31.32a2.62,2.62,0,0,0-.22.25,2.75,2.75,0,0,0-.26.4c0,.09-.12.17-.16.26a4.34,4.34,0,0,0-.2.5A2.5,2.5,0,0,0,71,3a4.32,4.32,0,0,0-.14.8h0l-1.7,23A17.35,17.35,0,0,1,78.58,24.81Z"/><path class="cls-1" d="M76.31,55.65A13.46,13.46,0,0,0,87.49,33.44h0a13.41,13.41,0,0,0-9.2-4.63l-1,0a13.46,13.46,0,0,0-1,26.88Zm-6-7.54a9.26,9.26,0,1,1,14-12.1Z"/></g></g></svg>