<svg xmlns="http://www.w3.org/2000/svg" viewBox="0 0 229.38 237.11"><defs><style>.cls-1{fill:#fff;}</style></defs><title>grunty-5-white</title><g id="Layer_2" data-name="Layer 2"><g id="Artwork"><path class="cls-1" d="M229.33,85.67C228,71.39,211.94,65,203.15,72.16s-13.36,17.69-13.36,17.69L187,85.63a98,98,0,0,1-24.84,22.75l1-3.94s-13.16,8.48-27.34,8l-.3.25c-.48-9.67-1.84-28.27-5.42-38.85-3.84-11.32-15-21.75-15-21.75h4A43.27,43.27,0,0,0,115.69,49a10.65,10.65,0,0,1-1.12,1.39l-7.76,8.08A34.58,34.58,0,0,1,82,69.08c-.84,0-1.69,0-2.53-.09l-10.28-.76a34.32,34.32,0,0,1-25.52-14.4l-4.25-6a45.21,45.21,0,0,0-4.95,4.27h4s-10.33,10.75-15,21.75c0,0-3.66,6.67-5.28,20.75-6.26,8.61-12.62,18.77-15,24.19a22.57,22.57,0,0,0-.81,2.11s-10.82,20.7,13.51,35.83a.41.41,0,0,1,0,.11c1.33.7,12.29,6.18,29.95,5.61,0,0-18.12,3.06-29.53-.67l-.25-2.22a185.92,185.92,0,0,0,3.7,26.37l3.67-5a121.79,121.79,0,0,0,3.08,29l3.59-2.58,2.82,18a13.88,13.88,0,0,0,27.17,1.27l4.34-17a39,39,0,0,0,24.67,0l4.34,17a13.86,13.86,0,0,0,13.45,10.46h0a13.88,13.88,0,0,0,13.71-11.73l2.83-18,3.58,2.58a121.51,121.51,0,0,0,3.09-29l3.66,5a188,188,0,0,0,4.16-39.1,59,59,0,0,0,10.51-1.06l-2.62-3s15.21.53,42.74-14l-4.16-1.25s18.4-12.36,26.88-18.35l-4.17-1.25S230.64,100,229.33,85.67Zm-126-11.52a5,5,0,1,1-5,5A5,5,0,0,1,103.3,74.15Zm-53.69,0a5,5,0,1,1-5,5A5,5,0,0,1,49.61,74.15ZM43.47,95.62a3,3,0,0,1,4.18-.71,51.49,51.49,0,0,0,58.41,1l1.63-1.07a3,3,0,0,1,3.29,5l-1.62,1.07A57.41,57.41,0,0,1,44.19,99.8,3,3,0,0,1,43.47,95.62ZM85.88,138.9A99.58,99.58,0,0,1,53.25,143a57.43,57.43,0,0,1-22.34-7.57,18.56,18.56,0,0,1-8.7-18.59l0-.11c-.43,2.82,1.18,11.39,11.55,16.2,9.26,5.44,21.89,4.5,21.89,4.5l-3.09,2.65A98.15,98.15,0,0,0,86,135.72Zm21.7-2c-11.31.79-21.1,6.79-21.1,6.79l.12-3.38c2.52-1.4,10.88-5.68,20.31-6.34,7.83-.55,14.78,6.22,16,14.55C120.67,141.59,114.47,136.42,107.58,136.9Z"/><path class="cls-1" d="M42.71,45.58l4.21,5.93A30.44,30.44,0,0,0,69.48,64.24L79.75,65c.68,0,1.35.07,2,.07H82l.65,0h.68l1-.07.63,0c.36,0,.72-.08,1.08-.13l.51-.06c.53-.08,1-.17,1.58-.28h.05c.51-.11,1-.22,1.5-.35l.5-.15c.35-.09.69-.19,1-.3l.59-.2.92-.32.62-.24.86-.36.62-.28.83-.4.61-.32.8-.44.6-.35c.26-.15.52-.32.78-.48l.57-.38c.26-.17.52-.35.77-.54l.54-.39c.26-.2.52-.4.77-.61s.34-.26.5-.4l.81-.71.4-.36c.39-.37.78-.75,1.16-1.14l7.75-8.08a6.47,6.47,0,0,0,.79-1,6.7,6.7,0,0,0,1-3.09l.16-2.28A3,3,0,0,0,110.89,38l-.46.34C108.81,20.18,100,11.41,92.09,7.2L90.28,31.61a17.44,17.44,0,0,1-13.8,28.08c-.44,0-.87,0-1.31,0A17.48,17.48,0,0,1,59,40.94a16.37,16.37,0,0,1,.45-2.73,17.35,17.35,0,0,1,4.44-8.13l1.85-25C57.21,8,47.27,15.3,42.93,33.28l-.3-.3h-.22l-.21,0-.27,0-.31.07-.25.08a2.36,2.36,0,0,0-.28.12l-.23.12-.26.18-.2.16a2.39,2.39,0,0,0-.22.23c0,.06-.11.11-.16.18a2.9,2.9,0,0,0-.19.29l-.12.19-.14.36-.07.18a3.83,3.83,0,0,0-.1.59l-.17,2.28a6.71,6.71,0,0,0,1.21,4.34Z"/><path class="cls-1" d="M77.74,24.82a17.32,17.32,0,0,1,8.67,3.08L88.09,5.17h0A4.17,4.17,0,0,0,84.24.73L74.48,0h-.31a2.85,2.85,0,0,0-.29,0l-.37,0-.42.1-.35.1-.39.18A3.18,3.18,0,0,0,72,.6l-.35.25-.27.21a3.31,3.31,0,0,0-.32.33l-.22.24c-.09.13-.17.27-.25.4s-.12.18-.17.27a4.94,4.94,0,0,0-.19.49c0,.09-.07.17-.1.26a4.29,4.29,0,0,0-.14.81h0L68.32,26.8A17.36,17.36,0,0,1,77.74,24.82Z"/><path class="cls-1" d="M63,41.24A13.47,13.47,0,0,0,75.46,55.65,13.47,13.47,0,0,0,89.88,43.22a13.54,13.54,0,0,0-1.07-6.34,13.8,13.8,0,0,0-2.16-3.44,13.37,13.37,0,0,0-9.2-4.63c-.34,0-.67,0-1,0A13.48,13.48,0,0,0,64.05,37,13.27,13.27,0,0,0,63,41.24Zm7.45-6.19a9.26,9.26,0,0,1,13,1h0l-14,12.1a9.26,9.26,0,0,1,0-12A8.93,8.93,0,0,1,70.48,35.05Z"/></g></g></svg>