<svg xmlns="http://www.w3.org/2000/svg" xmlns:xlink="http://www.w3.org/1999/xlink" viewBox="0 0 297.85 237.78"><defs><style>.cls-1{fill:#b6b9bc;}.cls-2{fill:#fff;}.cls-3,.cls-6{fill:#171d26;}.cls-4{fill:url(#linear-gradient);}.cls-5{fill:#17a9f9;}.cls-6{opacity:0.15;isolation:isolate;}.cls-7{fill:url(#linear-gradient-2);}.cls-8{fill:#c6c6c6;}</style><linearGradient id="linear-gradient" x1="145.9" y1="68.05" x2="148.89" y2="36.62" gradientUnits="userSpaceOnUse"><stop offset="0" stop-color="#17a9f9"/><stop offset="1" stop-color="#26d8e2"/></linearGradient><linearGradient id="linear-gradient-2" x1="148.81" y1="39.7" x2="151.21" y2="0.84" xlink:href="#linear-gradient"/></defs><title>grunty-6-fullColor-onLight</title><g id="Layer_2" data-name="Layer 2"><g id="Artwork"><path class="cls-1" d="M179.38,237.78a15.87,15.87,0,0,1-15.39-12l-3.82-15a41.53,41.53,0,0,1-21.83,0l-3.81,15a15.89,15.89,0,0,1-31.09-1.46l-2.32-14.8L97.76,212l-.7-2.9A123,123,0,0,1,94,185.66l-2.74,3.72L90.3,185a189.87,189.87,0,0,1-2.9-61.89c-1.64-.18-3.27-.43-4.85-.74l-3.39-.66,2.24-2.6c-6.44-.75-19.86-3.58-39.53-14l-4.32-2.28,4.79-1.44c-5.77-3.9-17.25-11.67-23.41-16l-3.34-2.37,2.72-.82C11,78.83-1,71.38.06,60.16A20,20,0,0,1,19.6,41.88a15.5,15.5,0,0,1,9.9,3.4A52.91,52.91,0,0,1,41.82,60.52l2.46-3.76L46,59.14A96.5,96.5,0,0,0,66,78.43L65,74.69l4.26,2.74a56.42,56.42,0,0,0,20.66,7.43A59.66,59.66,0,0,1,94.11,71.7c3.2-7.53,8.86-14.82,12.35-18.92H102.1l3.41-3.41a46,46,0,0,1,5.22-4.49,8.68,8.68,0,0,1-1.31-5.23l.17-2.26a5,5,0,0,1,4-4.53c5.27-19.45,17.09-26.34,26.7-28.6A6.16,6.16,0,0,1,146.13,0l.45,0,9.7.71A6.15,6.15,0,0,1,161.9,6c16.23,6.77,20.81,22.16,22,32a5,5,0,0,1,3.44,5.12l-.1,1.36A49.1,49.1,0,0,1,193,49.37l3.41,3.41h-4.36c3.5,4.11,9.17,11.43,12.37,19a65.12,65.12,0,0,1,3.92,13,56.46,56.46,0,0,0,20.23-7.37l4.26-2.75-1,3.75a95.31,95.31,0,0,0,20-19.29l1.7-2.38L256,60.52a52.91,52.91,0,0,1,12.32-15.24,15.48,15.48,0,0,1,9.9-3.4,20,20,0,0,1,19.54,18.28c1,11.22-11,18.67-18.25,22.11l2.72.82-3.34,2.37c-6.16,4.35-17.64,12.12-23.41,16l4.79,1.44L256,105.2c-19.67,10.37-33.09,13.2-39.54,14l2.24,2.6-3.38.66c-1.36.27-2.76.49-4.19.66a189.8,189.8,0,0,1-2.9,62l-.94,4.34-2.73-3.72a122.3,122.3,0,0,1-3.09,23.42l-.69,2.9-3.36-2.42-2.33,14.8A15.79,15.79,0,0,1,179.38,237.78Z"/><path class="cls-2" d="M90.26,117.62s-6,30,2,67l3.66-5a121.51,121.51,0,0,0,3.09,29l3.58-2.59,2.83,18a13.88,13.88,0,0,0,13.71,11.73h0a13.88,13.88,0,0,0,13.46-10.46l4.33-17a39,39,0,0,0,24.67,0l4.34,17a13.87,13.87,0,0,0,13.45,10.46h0a13.88,13.88,0,0,0,13.72-11.73l2.82-18,3.59,2.59a121.79,121.79,0,0,0,3.08-29l3.67,5c8-37,2-67,2-67,2.16-28.34-5.67-45.09-5.67-45.09-4.67-11-15-21.75-15-21.75h4C183.11,42.3,171.72,38,162.89,35.9a57.93,57.93,0,0,0-27.27,0c-8.82,2.13-20.21,6.4-28.7,14.88h4s-10.33,10.75-15,21.75C95.92,72.53,87.59,89,90.26,117.62Z"/><path class="cls-2" d="M202.31,87.13c14.19.46,27.35-8,27.35-8l-1,3.94A98.09,98.09,0,0,0,253.49,60.3l2.77,4.22S260.81,54,269.61,46.83s24.87-.77,26.19,13.51-22.2,22.24-22.2,22.24l4.16,1.25c-8.48,6-26.87,18.35-26.87,18.35l4.16,1.25c-27.54,14.52-42.74,14-42.74,14l2.61,3c-23.74,4.63-43.6-7.28-43.6-7.28"/><path class="cls-2" d="M95.53,87.13c-14.18.46-27.34-8-27.34-8l1,3.94A98.09,98.09,0,0,1,44.36,60.3l-2.77,4.22S37,54,28.24,46.83,3.37,46.06,2.05,60.34s22.2,22.24,22.2,22.24l-4.16,1.25c8.48,6,26.87,18.35,26.87,18.35l-4.16,1.25c27.54,14.52,42.74,14,42.74,14l-2.61,3c23.74,4.63,43.6-7.28,43.6-7.28"/><circle class="cls-3" cx="122.59" cy="78.62" r="4"/><circle class="cls-3" cx="175.92" cy="78.62" r="4"/><path class="cls-3" d="M150.38,104.88a56.27,56.27,0,0,1-32.61-10.47,2,2,0,1,1,2.31-3.26,52.1,52.1,0,0,0,59.13,1l1.61-1.06a2,2,0,1,1,2.2,3.34l-1.61,1.06A56.33,56.33,0,0,1,150.38,104.88Z"/><path class="cls-4" d="M182.16,39.81l0,0c0,.46,0,.92,0,1.37-7.1,9.84-18.58,11.48-34.84,11.48-14.08,0-29.62-9.89-32.8-16.4.13-.53.26-1.06.41-1.58h0c-1.22-.06-3.41.35-3.41,2.67s-.68,5.06,1,6.7c1.25,1.25,5.88,8.61,8.47,11.48a32.36,32.36,0,0,0,20.5,10.38c5.19.55,10,.82,13.25.82A30.36,30.36,0,0,0,176,57.32s6-6.54,7.93-8.2c1.09-.95,1.5-4,1.5-4.51V43A2.86,2.86,0,0,0,182.16,39.81Z"/><path class="cls-5" d="M182.13,39.83c-.61-15.07-11.24-33.52-31.33-34.91-20.23-.73-31.19,12.32-35.87,29.78-.15.52-.28,1-.41,1.58,3.18,6.51,18.72,16.4,32.8,16.4,16.26,0,27.74-1.64,34.84-11.48C182.16,40.75,182.15,40.29,182.13,39.83Z"/><path class="cls-6" d="M148.14,58.14a15.31,15.31,0,0,1-15.22-13.66,14.75,14.75,0,0,0-.09,1.64,15.31,15.31,0,0,0,30.61,0,14.75,14.75,0,0,0-.09-1.64A15.29,15.29,0,0,1,148.14,58.14Z"/><path class="cls-7" d="M158.33,31.43,160,7a4.3,4.3,0,0,0-4-4.57l-9.48-.63a4.31,4.31,0,0,0-4.58,4L140.3,29.69a15.28,15.28,0,0,1,18,1.74Z"/><circle class="cls-2" cx="148.14" cy="42.84" r="15.3"/><path class="cls-8" d="M141.84,49.14A8.81,8.81,0,1,1,154.3,36.67Z"/></g></g></svg>