<svg xmlns="http://www.w3.org/2000/svg" viewBox="0 0 229.37 236.76"><defs><style>.cls-1{fill:#fff;}</style></defs><title>grunty-7-white</title><g id="Layer_2" data-name="Layer 2"><g id="Artwork"><path class="cls-1" d="M227,120.56c-.23-.68-.5-1.39-.82-2.12-2.34-5.41-8.71-15.58-15-24.18-1.63-14.08-5.29-20.75-5.29-20.75-4.66-11-15-21.75-15-21.75h4a44.88,44.88,0,0,0-3.5-3.14,10.37,10.37,0,0,1-1.38,1.8l-7.75,8.08a34.58,34.58,0,0,1-24.82,10.58c-.84,0-1.7,0-2.54-.09l-10.27-.76a34.32,34.32,0,0,1-25.52-14.4l-4.3-6.06a46.39,46.39,0,0,0-4.58,4h4s-11.17,10.43-15,21.75c-3.59,10.58-5,29.17-5.43,38.84l-.3-.25c-14.18.46-27.34-8-27.34-8l1,4A98.39,98.39,0,0,1,42.35,85.27L39.59,89.5S35,79,26.24,71.81,1.37,71,.05,85.31s22.2,22.24,22.2,22.24l-4.16,1.25c8.47,6,26.87,18.35,26.87,18.35L40.8,128.4c27.54,14.52,42.74,14,42.74,14l-2.61,3a57,57,0,0,0,10.51,1.06,187.41,187.41,0,0,0,4.15,39.11l3.67-5a121.79,121.79,0,0,0,3.08,29l3.58-2.58,2.83,18a13.88,13.88,0,0,0,27.17,1.28l4.34-17a39,39,0,0,0,24.66,0l4.34,17a13.9,13.9,0,0,0,13.46,10.46h0A13.89,13.89,0,0,0,196.43,225l2.83-18,3.58,2.58a121.79,121.79,0,0,0,3.08-29l3.67,5a184.44,184.44,0,0,0,3.56-24.48c-11.11,4.64-28.43,3.18-28.43,3.18,17.25-1,27.69-7.24,29.43-8.35C237.58,140.85,227,120.56,227,120.56ZM178.77,74.15a5,5,0,1,1-5,5A5,5,0,0,1,178.77,74.15Zm-53.68,0a5,5,0,1,1-5,5A5,5,0,0,1,125.09,74.15ZM119,95.62a3,3,0,0,1,4.18-.71,51.47,51.47,0,0,0,58.41,1l1.62-1.07A3,3,0,0,1,187.75,98a3,3,0,0,1-1.29,1.9l-1.62,1.07a57.42,57.42,0,0,1-65.18-1.13A3,3,0,0,1,119,95.62Zm2.85,40.92c-6.88-.48-13.08,4.7-15.28,11.63,1.18-8.34,8.12-15.1,16-14.55,9.43.66,17.79,4.93,20.32,6.34l.11,3.37S133.11,137.33,121.8,136.54Zm76.68-1.48a57.88,57.88,0,0,1-22.35,7.57,100.08,100.08,0,0,1-32.62-4.08l-.11-3.18a98,98,0,0,0,33.4,4.33l-3.09-2.64s12.64.94,21.89-4.51c10.38-4.8,12-13.38,11.56-16.2v.12A18.58,18.58,0,0,1,198.48,135.06Z"/><path class="cls-1" d="M153.22,24.82a17.25,17.25,0,0,1,8.66,3.08l1.68-22.73h0A4.18,4.18,0,0,0,159.72.73L150,0h-.31a2.85,2.85,0,0,0-.29,0c-.12,0-.25,0-.37,0l-.42.1-.35.1c-.14,0-.27.12-.4.18l-.31.16-.36.25-.27.21c-.11.1-.21.22-.31.33l-.22.24c-.09.13-.17.27-.25.4s-.12.18-.17.27a4.14,4.14,0,0,0-.19.49c0,.09-.07.17-.1.26a4,4,0,0,0-.14.8h0L143.8,26.8A17.36,17.36,0,0,1,153.22,24.82Z"/><path class="cls-1" d="M118.12,45.48l4.28,6A30.44,30.44,0,0,0,145,64.24l10.28.76c.67,0,1.35.07,2,.07h.22l.65,0h.68l1-.07.62,0c.37,0,.73-.08,1.09-.13l.51-.06c.53-.08,1.05-.17,1.57-.28h.05c.51-.11,1-.22,1.51-.35l.5-.14,1-.31.59-.2.92-.32.61-.24.87-.36.62-.28.83-.4.61-.32.8-.44.6-.35c.26-.15.52-.32.78-.48l.57-.38c.26-.17.52-.36.77-.54l.54-.39c.26-.2.52-.4.77-.61l.49-.4c.28-.23.55-.47.82-.72l.4-.35c.39-.37.78-.75,1.16-1.14l7.75-8.08a5.44,5.44,0,0,0,.56-.69,7.17,7.17,0,0,0,.46-.75,6.68,6.68,0,0,0,.55-1.29,5.9,5.9,0,0,0,.26-1.38l.17-2.28A3,3,0,0,0,187,38.13a3.11,3.11,0,0,0-.61-.1l-.46.34h0c-1.62-18.19-10.44-27-18.34-31.17h0l-1.81,24.41a17.23,17.23,0,0,1,3,5.91,17.41,17.41,0,0,1-5.4,17.93A17.31,17.31,0,0,1,152,59.69c-.44,0-.88,0-1.32,0A17.36,17.36,0,0,1,135,37.93a17.29,17.29,0,0,1,4.38-7.85l1.84-25C132.69,8,122.75,15.3,118.41,33.28h0l-.3-.3h-.22l-.21,0-.27,0-.31.07-.25.08a2.36,2.36,0,0,0-.28.12l-.23.12a2.4,2.4,0,0,0-.26.18,1.56,1.56,0,0,0-.2.16,2.39,2.39,0,0,0-.22.23,1.37,1.37,0,0,0-.16.18c-.07.09-.13.19-.19.28l-.12.2c0,.11-.09.24-.14.36l-.07.18a3.7,3.7,0,0,0-.1.58h0l-.17,2.28a6.65,6.65,0,0,0,1.21,4.34Z"/><path class="cls-1" d="M138.51,41.24a13.47,13.47,0,0,0,12.43,14.41,13.45,13.45,0,0,0,13.12-19.24,13.55,13.55,0,0,0-1.94-3,13.33,13.33,0,0,0-9.2-4.63c-.33,0-.67,0-1,0a13.47,13.47,0,0,0-12.25,8A13.33,13.33,0,0,0,138.51,41.24ZM146,35.05a9.25,9.25,0,0,1,12.65.53L159,36l-14,12.1a9.26,9.26,0,0,1,.26-12.39A9,9,0,0,1,146,35.05Z"/></g></g></svg>