<svg xmlns="http://www.w3.org/2000/svg" xmlns:xlink="http://www.w3.org/1999/xlink" viewBox="0 0 233.33 236.78"><defs><style>.cls-1{fill:#b6b9bc;}.cls-2{fill:#fff;}.cls-3,.cls-7{fill:#171d26;}.cls-4{fill:#e6e6e6;}.cls-5{fill:url(#linear-gradient);}.cls-6{fill:#17a9f9;}.cls-7{opacity:0.15;isolation:isolate;}.cls-8{fill:url(#linear-gradient-2);}.cls-9{fill:#c6c6c6;}</style><linearGradient id="linear-gradient" x1="151.57" y1="67.75" x2="154.56" y2="36.31" gradientUnits="userSpaceOnUse"><stop offset="0" stop-color="#17a9f9"/><stop offset="1" stop-color="#26d8e2"/></linearGradient><linearGradient id="linear-gradient-2" x1="154.48" y1="39.4" x2="156.88" y2="0.53" xlink:href="#linear-gradient"/></defs><title>grunty-hs-7-fullColor-onLight</title><g id="Layer_2" data-name="Layer 2"><g id="Artwork"><path class="cls-1" d="M184.72,236.78a15.89,15.89,0,0,1-15.4-12l-3.82-15a41.49,41.49,0,0,1-21.82,0l-3.82,15a15.89,15.89,0,0,1-31.09-1.46l-2.32-14.8L103.09,211l-.69-2.9a122.3,122.3,0,0,1-3.09-23.42l-2.73,3.72L95.64,184a186.36,186.36,0,0,1-3.91-29.29l-.81-8.32a60.38,60.38,0,0,1-8.37-1l-3.39-.66,2.25-2.6c-6.45-.75-19.87-3.58-39.54-14l-4.32-2.28,4.79-1.44c-5.77-3.9-17.25-11.67-23.41-16l-3.35-2.37,2.73-.82C11,101.83-1,94.38.06,83.16A20,20,0,0,1,19.6,64.89a15.49,15.49,0,0,1,9.9,3.39A52.91,52.91,0,0,1,41.82,83.52l2.46-3.76L46,82.14a96.59,96.59,0,0,0,20,19.29L65,97.69l4.26,2.74c.12.07,11.89,7.54,24.68,7.71.27-4.75.72-11,1.48-17.32a12.31,12.31,0,0,1-9-11.86V69.61A12.34,12.34,0,0,1,98.79,57.28H100a45.92,45.92,0,0,1,19.92-27c5.63-17.55,16.92-23.86,25.94-26A6.16,6.16,0,0,1,151.67,0l.45,0,9.7.71A6.16,6.16,0,0,1,167.44,6c7.29,3,16.22,9.57,20.31,23.48a45.67,45.67,0,0,1,22.71,39.41v3.38c1.14,2.67,3.44,9.06,4.67,19.28,6.51,9,12.59,18.86,14.88,24.14.32.75.61,1.48.84,2.16,1,2.1,9.85,22.53-13.35,37.66l-.21,1.91A188.37,188.37,0,0,1,213.55,184l-.94,4.34-2.74-3.72a123,123,0,0,1-3.08,23.42l-.7,2.9-3.36-2.42-2.32,14.8A15.8,15.8,0,0,1,184.72,236.78ZM91.45,146.46Z"/><path class="cls-2" d="M213.59,116.62s6,30-2,67l-3.67-5a121.79,121.79,0,0,1-3.08,29L201.26,205l-2.83,18a13.88,13.88,0,0,1-13.71,11.73h0a13.88,13.88,0,0,1-13.46-10.46l-4.34-17a39,39,0,0,1-24.66,0l-4.34,17a13.88,13.88,0,0,1-13.45,10.46h0a13.88,13.88,0,0,1-13.72-11.73l-2.83-18-3.58,2.59a121.79,121.79,0,0,1-3.08-29l-3.67,5c-8-37-2-67-2-67s.67-30.34,5.67-45.09c3.83-11.31,15-21.75,15-21.75h-4C120.74,41.3,132.13,37,141,34.9a57.89,57.89,0,0,1,27.26,0c8.83,2.13,20.22,6.4,28.7,14.88h-4s10.34,10.75,15,21.75C207.92,71.53,215.75,85.78,213.59,116.62Z"/><circle class="cls-3" cx="181.26" cy="77.62" r="4"/><circle class="cls-3" cx="127.92" cy="77.62" r="4"/><path class="cls-3" d="M153.47,103.88a56.39,56.39,0,0,1-31-9.37l-1.61-1.06a2,2,0,1,1,2.2-3.34l1.61,1.06a52.12,52.12,0,0,0,59.14-1,2,2,0,1,1,2.31,3.26A56.27,56.27,0,0,1,153.47,103.88Z"/><path class="cls-2" d="M95.53,110.13c-14.18.46-27.34-8-27.34-8l1,3.94A98.09,98.09,0,0,1,44.36,83.3l-2.77,4.22S37,77,28.24,69.83,3.37,69.06,2.05,83.34s22.2,22.24,22.2,22.24l-4.16,1.25c8.47,6,26.87,18.35,26.87,18.35l-4.16,1.25c27.54,14.52,42.74,14,42.74,14l-2.61,3c23.74,4.63,43.6-7.28,43.6-7.28"/><path class="cls-2" d="M199.6,162.45c8.6-3.19,12.35-6,12.35-6,28.87-15.23,17-37.84,17-37.84-.23-.68-.5-1.39-.82-2.12-2.45-5.66-9.28-16.5-15.79-25.32a127.89,127.89,0,0,1-5.6,32,23.27,23.27,0,0,1-9.18,7.43c-9.25,5.44-21.89,4.51-21.89,4.51l3.09,2.64a98.31,98.31,0,0,1-33.4-4.33l.17,5s-9.79-6-21.1-6.79-20.79,13.68-13.65,26.11,31,5.43,31,5.43l-2.69,3.42c10.38,0,32.54-.45,32.54-.45l-2.69,3.42a139.57,139.57,0,0,0,30.67-7.12"/><path class="cls-4" d="M178.13,140.65a99.5,99.5,0,0,1-32.62-4.08l-.11-3.17a98.31,98.31,0,0,0,33.4,4.33l-3.09-2.64s12.64.93,21.89-4.51c10.38-4.8,12-13.38,11.56-16.2l0,.11a18.59,18.59,0,0,1-8.7,18.59A57.55,57.55,0,0,1,178.13,140.65Z"/><path class="cls-4" d="M144.9,141.36s-9.79-6-21.1-6.79c-6.88-.48-13.08,4.7-15.28,11.62,1.18-8.33,8.12-15.09,16-14.55,9.43.66,17.79,4.94,20.32,6.35Z"/><path class="cls-4" d="M215.6,154.45s-11.22,6.29-30.08,5.68c0,0,18.11,3.06,29.53-.67Z"/><path class="cls-5" d="M187.83,39.5l0,0c0,.46,0,.91,0,1.36-7.1,9.84-18.58,11.48-34.84,11.48-14.08,0-29.62-9.89-32.8-16.4.13-.53.27-1,.41-1.58h0c-1.23-.06-3.41.35-3.41,2.68s-.69,5.06,1,6.69c1.26,1.25,5.88,8.61,8.47,11.48a32.36,32.36,0,0,0,20.5,10.39c5.2.54,10,.82,13.26.82A30.4,30.4,0,0,0,181.68,57s6-6.54,7.93-8.2c1.09-1,1.5-4,1.5-4.51V42.67A2.86,2.86,0,0,0,187.83,39.5Z"/><path class="cls-6" d="M187.81,39.53C187.2,24.45,176.56,6,156.47,4.61c-20.23-.73-31.19,12.33-35.87,29.78-.14.53-.28,1-.41,1.58,3.18,6.51,18.72,16.4,32.8,16.4,16.26,0,27.74-1.64,34.84-11.48C187.83,40.44,187.82,40,187.81,39.53Z"/><path class="cls-7" d="M153.81,57.84a15.31,15.31,0,0,1-15.22-13.67c-.05.54-.08,1.09-.08,1.64a15.3,15.3,0,1,0,30.6,0c0-.55,0-1.1-.08-1.64A15.31,15.31,0,0,1,153.81,57.84Z"/><path class="cls-8" d="M164,31.12l1.61-24.43a4.3,4.3,0,0,0-4-4.57l-9.49-.63a4.31,4.31,0,0,0-4.57,4L146,29.38a15.34,15.34,0,0,1,18,1.74Z"/><circle class="cls-2" cx="153.81" cy="42.53" r="15.3"/><path class="cls-9" d="M147.51,48.83A8.81,8.81,0,0,1,160,36.37Z"/></g></g></svg>