<svg xmlns="http://www.w3.org/2000/svg" xmlns:xlink="http://www.w3.org/1999/xlink" viewBox="0 0 250.22 234.09"><defs><style>.cls-1{fill:#fff;}.cls-2,.cls-6{fill:#171d26;}.cls-3{fill:#b6b9bc;}.cls-4{fill:url(#linear-gradient);}.cls-5{fill:#17a9f9;}.cls-6{opacity:0.15;isolation:isolate;}.cls-7{fill:url(#linear-gradient-2);}.cls-8{fill:#c6c6c6;}</style><linearGradient id="linear-gradient" x1="122.6" y1="66.27" x2="125.59" y2="34.83" gradientUnits="userSpaceOnUse"><stop offset="0" stop-color="#17a9f9"/><stop offset="1" stop-color="#26d8e2"/></linearGradient><linearGradient id="linear-gradient-2" x1="125.51" y1="37.91" x2="127.91" y2="-0.95" xlink:href="#linear-gradient"/></defs><title>grunty-hs-3-fullColor-onDark</title><g id="Layer_2" data-name="Layer 2"><g id="Artwork"><path class="cls-1" d="M235.91,132l4.34.27c-5.87-8.56-18.83-26.54-18.83-26.54l4.34.27C205,82.77,190.54,78,190.54,78l3.5-1.93a60.53,60.53,0,0,0-18.75-7.4c-5-10.19-14-19.56-14-19.56h4c-8.48-8.48-19.87-12.75-28.7-14.89a58.15,58.15,0,0,0-27.26,0c-8.83,2.14-20.22,6.41-28.7,14.89h4s-10.34,10.75-15,21.75a67.23,67.23,0,0,0-2.4,6.55C59,79.47,47.82,83.82,38.31,92.93l3.83,1.13s-13.08,7.77-28.41,34.87l4.18-1.2s-8.81,20.34-12.71,30l4.18-1.2S-6.1,175.89,2.71,187.2s25.8,8,29.34-2.78,1.68-22.1,1.68-22.1l4.6,2.06a98.26,98.26,0,0,1,8.61-32.56l1.29,3.86s6.17-12.57,15.7-19.92l0,.16s-6,30,2,67l3.67-5a121.79,121.79,0,0,0,3.08,29l3.58-2.58,2.83,18a13.89,13.89,0,0,0,13.72,11.73h0a13.89,13.89,0,0,0,13.45-10.46l4.34-17a39,39,0,0,0,24.66,0l4.34,17a13.88,13.88,0,0,0,27.17-1.27l2.83-18,3.58,2.58a121.79,121.79,0,0,0,3.08-29l3.67,5c8-37,4.16-66.24,4.16-66.24q-.62-4.64-1.2-8.74a48.11,48.11,0,0,1,10.58,12l.44-4a98.17,98.17,0,0,1,15.38,30l4.05-3s.62,11.47,6.38,21.23,23.06,9.36,29.25-3.57S235.91,132,235.91,132Z"/><circle class="cls-2" cx="96.29" cy="76.92" r="4"/><circle class="cls-2" cx="149.63" cy="76.92" r="4"/><path class="cls-2" d="M124.08,103.19A56.27,56.27,0,0,1,91.47,92.72a2,2,0,0,1,2.31-3.26,52.12,52.12,0,0,0,59.14,1l1.61-1.06a2,2,0,0,1,2.2,3.34l-1.61,1.06A56.39,56.39,0,0,1,124.08,103.19Z"/><path class="cls-3" d="M134,25.59H113.21a43.66,43.66,0,0,0-42.51,34H68A10.32,10.32,0,0,0,57.63,69.92v9.35A10.32,10.32,0,0,0,68,89.59h2.74a42.47,42.47,0,0,0,41.34,33h13.6a5,5,0,0,0,0-10h-5a5,5,0,0,0-4.9,4H112a36.44,36.44,0,0,1-36.4-36.4v-11a37.63,37.63,0,0,1,37.58-37.59H134a37.63,37.63,0,0,1,37.59,37.59v3.41a3,3,0,0,0,6,0V69.18A43.64,43.64,0,0,0,134,25.59Z"/><path class="cls-4" d="M158.86,38l0,0c0,.45,0,.91,0,1.36-7.11,9.84-18.58,11.48-34.85,11.48-14.07,0-29.61-9.89-32.79-16.4.13-.53.26-1.06.4-1.58h0c-1.22-.06-3.41.35-3.41,2.67s-.68,5.06,1,6.7c1.25,1.25,5.88,8.61,8.47,11.48a32.33,32.33,0,0,0,20.5,10.38c5.19.55,10,.82,13.25.82a30.36,30.36,0,0,0,21.32-9.43s6-6.53,7.93-8.19c1.09-1,1.5-4,1.5-4.51V41.19A2.86,2.86,0,0,0,158.86,38Z"/><path class="cls-5" d="M158.83,38.05C158.22,23,147.59,4.52,127.5,3.13,107.27,2.4,96.31,15.45,91.62,32.91c-.14.52-.27,1.05-.4,1.58C94.4,41,109.94,50.89,124,50.89c16.27,0,27.74-1.64,34.85-11.48C158.86,39,158.85,38.5,158.83,38.05Z"/><path class="cls-6" d="M124.84,56.35a15.31,15.31,0,0,1-15.22-13.66,14.75,14.75,0,0,0-.09,1.64,15.31,15.31,0,0,0,30.61,0,14.75,14.75,0,0,0-.09-1.64A15.3,15.3,0,0,1,124.84,56.35Z"/><path class="cls-7" d="M135,29.64l1.62-24.43a4.3,4.3,0,0,0-4-4.57L123.16,0a4.32,4.32,0,0,0-4.58,4L117,27.9a15.32,15.32,0,0,1,18,1.74Z"/><circle class="cls-1" cx="124.83" cy="41.05" r="15.3"/><path class="cls-8" d="M118.53,47.35A8.81,8.81,0,0,1,131,34.89Z"/></g></g></svg>