<svg xmlns="http://www.w3.org/2000/svg" viewBox="0 0 1086.68 169.34"><defs><style>.cls-1{fill:#242e3b;}</style></defs><title>gruntwork-grunty-logo-blue</title><g id="Layer_2" data-name="Layer 2"><g id="Layer_1-2" data-name="Layer 1"><g id="Layer_2-2" data-name="Layer 2"><g id="Artwork"><path class="cls-1" d="M86.22,61.87a3.53,3.53,0,1,0-3.53-3.53h0A3.53,3.53,0,0,0,86.22,61.87Z"/><path class="cls-1" d="M127.4,58.35a3.53,3.53,0,1,0-3.54,3.52h0A3.54,3.54,0,0,0,127.4,58.35Z"/><path class="cls-1" d="M81.91,69.88a2.12,2.12,0,0,0,.5,2.94,40.31,40.31,0,0,0,45.72.79l1.14-.75A2.11,2.11,0,0,0,127,69.34l-1.14.75a36.1,36.1,0,0,1-41-.71A2.12,2.12,0,0,0,81.91,69.88Z"/><path class="cls-1" d="M110,28.07a6.5,6.5,0,1,0-10,8.26c.06.08.13.15.2.23Z"/><path class="cls-1" d="M211,130.73a28.18,28.18,0,0,0-1.77-3.46c-.45-.74-.93-1.45-1.45-2.14-.26-.34-.52-.68-.79-1-.55-.66-1.13-1.3-1.73-1.9-.31-.31-.62-.6-.93-.89a26.72,26.72,0,0,0-18-7h-1.19a43.15,43.15,0,0,0-7.7-16.08c-.52-.69-1.08-1.35-1.64-2A43.17,43.17,0,0,0,156.86,83.6h0a43.37,43.37,0,0,0-45.09,11,44.79,44.79,0,0,0-3.17,3.7l-.4-.09a35.35,35.35,0,0,0-38.39,15.42c-.24.38-.49.76-.72,1.16a26.51,26.51,0,0,0-4.79-.44,14.66,14.66,0,0,0-2,.09A128.56,128.56,0,0,1,63,87.06q-1.68-.18-3.39-.51l1.83-2.13H59.57l-.86-.09h-.15l-1-.15h-.18L56.16,84H56c-.45-.08-.92-.18-1.42-.29h-.18c-.52-.11-1.07-.24-1.64-.39h-.1c-.6-.15-1.22-.32-1.86-.5h-.08c-.64-.18-1.31-.39-2-.61l-.22-.07c-.68-.21-1.38-.45-2.11-.7L46,81.3c-.72-.26-1.46-.53-2.23-.83l-.38-.14c-.77-.3-1.57-.62-2.38-1L40.53,79c-.83-.36-1.68-.73-2.56-1.13l-.37-.17c-.91-.42-1.85-.86-2.81-1.33l-.25-.12c-1-.5-2-1-3.11-1.59l2.92-.88S21.44,65.07,15.49,60.86L18.41,60S1.92,54.4,2.84,44.38A6.47,6.47,0,0,1,3,43.21l.06-.31c.07-.32.14-.64.23-.95a.24.24,0,0,1,.05-.17,7.76,7.76,0,0,1,.36-1,1.89,1.89,0,0,1,.11-.25,8.25,8.25,0,0,1,.37-.8l.11-.22a10.11,10.11,0,0,1,.53-.9L5,38.39c.16-.24.33-.47.5-.7l.17-.21c.22-.26.44-.52.67-.77l.09-.08c.21-.21.43-.42.66-.62a1.12,1.12,0,0,1,.2-.18c.24-.2.48-.4.73-.58h.07c.27-.2.55-.37.83-.55l.22-.13c.24-.14.48-.27.73-.39L10,34.1c.29-.14.59-.27.89-.39l.22-.08c.24-.09.49-.17.74-.24l.23-.07c.31-.09.61-.16.92-.22h.17L14,33h2.24a4.26,4.26,0,0,1,.5.06H17a3.4,3.4,0,0,1,.46.09l.31.08a1.8,1.8,0,0,1,.44.12l.3.1.43.16.29.13a3.42,3.42,0,0,1,.43.21l.26.13.46.28.21.13c.21.15.43.3.63.47a28,28,0,0,1,3.16,3,38.53,38.53,0,0,1,6.21,9.4l1.94-3A68.78,68.78,0,0,0,50,60.35l-.7-2.77a39,39,0,0,0,5.51,2.79c1.12.47,2.37.93,3.72,1.35A34.69,34.69,0,0,0,64.3,63c.23-1.31.49-2.49.75-3.54.18-.71.35-1.35.52-2,.26-.88.52-1.65.75-2.29a18.22,18.22,0,0,1,1.07-2.54C70.68,44.88,78,37.29,78,37.29H75.16A30.27,30.27,0,0,1,78,34.82l4,5.75a24.13,24.13,0,0,0,18,10.1l7.2.53c.59,0,1.19.06,1.78.06a24.26,24.26,0,0,0,17.42-7.42l5.43-5.66a7.11,7.11,0,0,0,.55-.68c1.23,1.19,7.92,7.9,10.38,15.15a57.51,57.51,0,0,1,2.06,9.07c.08.48.15,1,.22,1.45a27.89,27.89,0,0,0,3.42-.34c.56-.08,1.11-.19,1.65-.3,1.08-.23,2.12-.5,3.11-.81a41.52,41.52,0,0,0,9.33-4.17l-.7,2.77a68.78,68.78,0,0,0,17.42-16l1.94,3a38.53,38.53,0,0,1,6.21-9.4,28,28,0,0,1,3.16-3c.21-.17.42-.32.63-.47l.22-.14.45-.27.27-.14.42-.2.3-.13.42-.16.31-.1a2.54,2.54,0,0,0,.43-.12l.31-.08a2.49,2.49,0,0,0,.46-.09h.3l.5-.06h2.24l.79.11h.17c.31.06.62.13.93.22l.22.07q.38.11.75.24l.21.08q.45.18.9.39l.16.08c.25.12.49.25.73.39l.22.13c.28.17.56.36.84.55h0c.26.19.5.38.74.59l.2.17c.23.21.46.42.68.64l.07.07c.23.25.46.51.68.78l.16.2.51.7c0,.06.08.12.11.17.19.3.37.6.54.91l.1.22c.14.26.26.52.38.8,0,.08.07.16.1.25.14.34.26.68.37,1v.17c.09.31.17.63.23,1l.06.31c.07.38.13.77.17,1.17.92,10-15.57,15.6-15.57,15.6l2.92.88c-6,4.21-18.85,12.87-18.85,12.87l2.92.88c-1.07.56-2.1,1.09-3.12,1.59l-.25.12c-1,.47-1.89.91-2.81,1.33l-.36.17c-.88.4-1.74.77-2.57,1.13l-.4.16-2.39,1-.38.14c-.77.3-1.51.57-2.23.83l-.32.11c-.72.25-1.43.49-2.1.7l-.23.07c-.69.22-1.37.43-2,.61h-.07c-.65.19-1.27.35-1.87.5h-.09q-.87.22-1.65.39h-.18l-.43.09h0a44.72,44.72,0,0,1,4.49,1.8A101.64,101.64,0,0,0,181.59,77l6.07-3.19-3.82-1.15c4.31-2.91,10.43-7.07,14-9.6l4.69-3.32-1.39-.42c5.15-3,11.18-8.1,10.52-15.28a15.45,15.45,0,0,0-15.07-14,12.31,12.31,0,0,0-7.83,2.7,36.72,36.72,0,0,0-7.82,9.12l-1.62-2.47-2.38,3.35a64.4,64.4,0,0,1-10.51,10.75L167,51.3l-6,3.86a38.24,38.24,0,0,1-13.63,5,56.38,56.38,0,0,0-2-8.4,39.49,39.49,0,0,0-6.87-11.65h3.22l-4.79-4.79a36.08,36.08,0,0,0-3-2.66L134,32a4.94,4.94,0,0,0-2.53-4.68A30.81,30.81,0,0,0,125,11.6a25.4,25.4,0,0,0-9.17-7,5.63,5.63,0,0,0-1.17-2.13,5.67,5.67,0,0,0-3.91-2L103.87,0h-.42A5.78,5.78,0,0,0,98.3,3.22a24.72,24.72,0,0,0-10.24,5.5c-4,3.59-6.92,8.55-8.72,14.77a4.93,4.93,0,0,0-3.08,4.2l-.12,1.6a7.41,7.41,0,0,0,.42,3.06,37.08,37.08,0,0,0-3.39,3L68.38,40.1h3.51a53.46,53.46,0,0,0-7,11.35,37.46,37.46,0,0,0-2.76,8.3,39.44,39.44,0,0,1-11.34-4.56l-6-3.82.54,2.12A64.2,64.2,0,0,1,34.8,42.73l-2.38-3.35-1.61,2.47A37.26,37.26,0,0,0,23,32.73,12.32,12.32,0,0,0,15.15,30,15.45,15.45,0,0,0,.05,44.13C-.61,51.31,5.42,56.4,10.58,59.41l-1.4.42,4.69,3.32c3.58,2.53,9.69,6.69,14,9.6L24.06,73.9l6.06,3.19c11.75,6.2,20.43,8.62,25.67,9.56l-1.5,1.73L59,89.3l.8.15a133.46,133.46,0,0,0-.34,25.36c-.83.15-1.65.34-2.45.56q-.78.22-1.53.48a26.81,26.81,0,0,0-8,4.47l-.34.28a26.53,26.53,0,0,0-3.51,3.52c-.27.33-.53.67-.79,1a23.54,23.54,0,0,0-1.44,2.14,25.68,25.68,0,0,0-2.68,5.92,27.07,27.07,0,0,0-.89,3.89,26.5,26.5,0,0,0-.31,4.08C37.52,156,49.73,165.41,64.3,168l1.94.32h.23l1.33.2a88.93,88.93,0,0,0,12.84.82c4.22,0,7.49-.13,10.79-.42l1.11-.1,1.68-.18c1.7-.19,3.48-.41,5.47-.68,2.36-.33,4.67-.68,6.92-1.15a35,35,0,0,0,13.53-5.37,43.24,43.24,0,0,0,47.43-1.13,27.48,27.48,0,0,0,3.94,3.19A26.79,26.79,0,0,0,208.63,156a27.3,27.3,0,0,0,2.67-5.18,25.74,25.74,0,0,0,1.18-3.93l.12-.59A26.89,26.89,0,0,0,211,130.73ZM133.31,35.79c.55.48,1.1,1,1.63,1.5H132.5A7.75,7.75,0,0,0,133.31,35.79ZM100.54,5.51h0a2.2,2.2,0,0,1,.1-.57l.06-.17a2.13,2.13,0,0,1,.14-.35,1.18,1.18,0,0,1,.11-.19l.18-.28.16-.17a2.39,2.39,0,0,1,.22-.23,1.33,1.33,0,0,1,.19-.14,1.44,1.44,0,0,1,.25-.18l.22-.11.28-.13.24-.07.3-.07h.68l6.84.51a2.92,2.92,0,0,1,2.7,3.12h0L112,22.38a12.17,12.17,0,0,0-12.68-.77ZM97.91,26.26A9.42,9.42,0,0,1,105,23h.7a9.35,9.35,0,0,1,6.46,3.24h0a9.45,9.45,0,1,1-14.29,0ZM79.06,27.9h0a1.76,1.76,0,0,1,.07-.4.58.58,0,0,1,.05-.14,2.44,2.44,0,0,1,.1-.24.64.64,0,0,1,.08-.14,1.37,1.37,0,0,1,.13-.2.69.69,0,0,1,.11-.13l.16-.16.14-.11.18-.13.16-.08.2-.09.18,0,.21-.05L81,26h.3l.21.21a39.78,39.78,0,0,1,1.8-5.64c.23-.56.47-1.11.72-1.63A29.91,29.91,0,0,1,85.64,16a23.52,23.52,0,0,1,3.65-4.55c.43-.42.86-.81,1.31-1.18a14.44,14.44,0,0,1,1.33-1,22.13,22.13,0,0,1,4.24-2.33c.47-.19.93-.36,1.39-.52L96.28,23.73v.18a12.23,12.23,0,0,0,7.88,20.73h.93a12.25,12.25,0,0,0,11-17.54,13.12,13.12,0,0,0-1.34-2.1l.08-1L116,7.87c5.48,2.91,11.56,9,12.81,21.37,0,.17.05.32.06.49h0l.33-.25h0a2.15,2.15,0,0,1,1.86,1.58,1.94,1.94,0,0,1,.06.68l-.11,1.6a5.67,5.67,0,0,1-.1.57.81.81,0,0,1,0,.22,4.57,4.57,0,0,1-.65,1.46,3.9,3.9,0,0,1-.51.63l-5.44,5.67h0a17.24,17.24,0,0,1-1.48,1.39l-.15.14c-.49.41-1,.8-1.52,1.16a2.2,2.2,0,0,1-.25.17,18.57,18.57,0,0,1-1.58,1l-.28.15a17.13,17.13,0,0,1-1.67.81l-.27.12c-.58.24-1.17.46-1.78.65l-.2.06c-.63.19-1.27.36-1.93.49h0c-.65.13-1.31.23-2,.3H111c-.64.07-1.28.09-1.92.1h-.33a13,13,0,0,1-1.42,0l-7.21-.53A21.32,21.32,0,0,1,84.3,38.92l-4.1-5.77-.44-.63a4.7,4.7,0,0,1-.76-1.9,4.27,4.27,0,0,1-.07-1.13ZM186.31,165a23.62,23.62,0,0,1-16.64-6.79l-1.77-1.73-2,1.4a40.32,40.32,0,0,1-44.15,1l-1.69-1-1.36,1-.27.19q-.44.31-.9.6c-.26.17-.53.33-.8.49a26.81,26.81,0,0,1-2.56,1.31c-4.59,2-9.81,2.9-14.86,3.59a118.69,118.69,0,0,1-18.64,1.36A81,81,0,0,1,64.82,165a34.62,34.62,0,0,1-17.33-8,21.08,21.08,0,0,1-7-15.79,23.77,23.77,0,0,1,22-23.72c.58,0,1.16-.07,1.75-.07a23.44,23.44,0,0,1,4.26.39l2.07.37,1.05-1.82a32.46,32.46,0,0,1,36.16-15.09l1.93.5,1.21-1.58a40,40,0,0,1,32-15.81,40.17,40.17,0,0,1,39.17,30.78l.58,2.4,2.47-.11h1.09a23.79,23.79,0,0,1,0,47.58Z"/><path class="cls-1" d="M290.24,81.68H350a.89.89,0,0,1,.88.79,81.36,81.36,0,0,1,.57,9.36q0,25.31-16.31,41.69t-41.43,16.39q-25.31,0-42.68-16.81T233.62,91.67q0-24.47,17.22-41.35t42.35-16.89q19.14,0,33.95,8.73A45.58,45.58,0,0,1,347.28,66a.91.91,0,0,1-.55,1.15h0l-24.86,7.19a.89.89,0,0,1-1-.44q-8.22-15.33-27.62-15.34A30.38,30.38,0,0,0,270.39,68q-9.15,9.48-9.15,23.63t9.4,23.71A31.42,31.42,0,0,0,294,125q10.81,0,18.56-5.33A28.29,28.29,0,0,0,323.47,105H290.24a.87.87,0,0,1-.88-.88h0V82.56A.9.9,0,0,1,290.24,81.68Z"/><path class="cls-1" d="M417,62.71a25.34,25.34,0,0,1,5.28.51.86.86,0,0,1,.68.9l-1.09,25A.89.89,0,0,1,421,90h-4q-28.78,0-28.78,31.29v25.24a.87.87,0,0,1-.88.88H362.46a.87.87,0,0,1-.88-.88h0V64.76a.87.87,0,0,1,.88-.88h24.87a.87.87,0,0,1,.88.88h0V79.85Q398.52,62.72,417,62.71Z"/><path class="cls-1" d="M517.83,64.75v81.79a.87.87,0,0,1-.87.87H492.09a.87.87,0,0,1-.88-.86h0v-7.11q-10,10.47-25.63,10.48-14.64,0-23.55-9.57t-8.9-25.21V64.75a.87.87,0,0,1,.87-.87h24.71a.87.87,0,0,1,.88.86h0v44.72q0,7.34,4,11.9A13,13,0,0,0,473.9,126q8.16,0,12.73-5.74t4.58-17.56V64.75a.87.87,0,0,1,.87-.87H517A.87.87,0,0,1,517.83,64.75Z"/><path class="cls-1" d="M583.73,61.38q14.64,0,23.54,9.57t8.91,25.21v50.38a.89.89,0,0,1-.88.87H590.6a.87.87,0,0,1-.88-.86h0V101.82q0-7.32-4-11.9a13.08,13.08,0,0,0-10.32-4.58q-8.16,0-12.73,5.75t-4.58,17.55v37.9a.87.87,0,0,1-.87.87H532.36a.87.87,0,0,1-.88-.86h0V64.75a.87.87,0,0,1,.87-.87h24.88a.87.87,0,0,1,.87.87v7.11Q568.09,61.39,583.73,61.38Z"/><path class="cls-1" d="M687.2,123.82l5.66,19.24a.89.89,0,0,1-.44,1,47.69,47.69,0,0,1-22.16,5.82q-15.81,0-24.54-8.49T637,116.63V85H622.71a.87.87,0,0,1-.87-.87V64.75a.87.87,0,0,1,.87-.87H637V40.12a.87.87,0,0,1,.87-.87h24.88a.87.87,0,0,1,.87.87V63.88h23.76a.87.87,0,0,1,.87.87V84.14a.87.87,0,0,1-.87.87H663.6v29q0,12.15,11.15,12.14A23.88,23.88,0,0,0,686,123.3a.87.87,0,0,1,1.16.41S687.19,123.78,687.2,123.82Z"/><path class="cls-1" d="M824.32,65l-26.23,82a.89.89,0,0,1-.83.61H775.39a.87.87,0,0,1-.83-.6l-14.78-44.66L744.84,147a.87.87,0,0,1-.83.6H722.15a.87.87,0,0,1-.83-.61L695.08,65a.87.87,0,0,1,.57-1.09.75.75,0,0,1,.26,0H720.2a.87.87,0,0,1,.83.62l13.46,44.31,15.6-44.35a.88.88,0,0,1,.83-.58h17.57a.86.86,0,0,1,.82.58L784.91,109l13.46-44.5a.87.87,0,0,1,.83-.62h24.29a.87.87,0,0,1,.87.87A1,1,0,0,1,824.32,65Z"/><path class="cls-1" d="M869.61,61.71q19.14,0,32.45,12.32t13.31,31.62q0,19.47-13.31,31.78t-32.45,12.31q-19.47,0-32.86-12.31t-13.4-31.78q0-19.31,13.4-31.62T869.61,61.71Zm0,65.57a19.19,19.19,0,0,0,14.15-6.08q6-6.08,6-15.55t-6.08-15.56A19.32,19.32,0,0,0,869.61,84a20,20,0,0,0-14.48,6.08Q849,96.17,849,105.65t6.07,15.55A19.82,19.82,0,0,0,869.61,127.28Z"/><path class="cls-1" d="M980.1,62.71a25.34,25.34,0,0,1,5.28.51.87.87,0,0,1,.68.9l-1.09,25a.89.89,0,0,1-.88.84h-4q-28.79,0-28.79,31.29v25.24a.87.87,0,0,1-.86.88H925.57a.87.87,0,0,1-.88-.86V64.76a.87.87,0,0,1,.86-.88h24.88a.87.87,0,0,1,.88.86V79.85Q961.63,62.72,980.1,62.71Z"/><path class="cls-1" d="M1085.76,147.41H1054a.84.84,0,0,1-.65-.29l-26.86-29.83h-4.83v29.25a.87.87,0,0,1-.87.87H996a.87.87,0,0,1-.88-.86h0V28.48a.87.87,0,0,1,.86-.88h24.89a.87.87,0,0,1,.87.87h0V92.33h3.66l26.2-28.17a.88.88,0,0,1,.65-.28H1082a.89.89,0,0,1,.87.89.93.93,0,0,1-.23.58l-35.25,38.3,39.08,42.29a.88.88,0,0,1-.69,1.47Z"/></g></g></g></g></svg>