<svg xmlns="http://www.w3.org/2000/svg" viewBox="0 0 631.72 312.86"><defs><style>.cls-1{fill:#fff;}</style></defs><title>gruntwork-grunty-logo-stack-white</title><g id="Layer_2" data-name="Layer 2"><g id="Annotations"><path class="cls-1" d="M41.94,262.33H86.17a.66.66,0,0,1,.66.58,60.41,60.41,0,0,1,.42,6.94q0,18.73-12.08,30.87T44.49,312.86q-18.74,0-31.61-12.45a43.07,43.07,0,0,1-.13-61.31q12.77-12.51,31.37-12.51a48.56,48.56,0,0,1,25.14,6.47A33.73,33.73,0,0,1,84.17,250.7a.66.66,0,0,1-.43.86l-18.41,5.32a.64.64,0,0,1-.75-.32q-6.09-11.35-20.46-11.36a22.49,22.49,0,0,0-16.88,7,25.8,25.8,0,0,0,.18,35.06,23.26,23.26,0,0,0,17.31,7.09,23.68,23.68,0,0,0,13.75-3.94,21.05,21.05,0,0,0,8.07-10.85H41.94a.66.66,0,0,1-.66-.65V263A.66.66,0,0,1,41.94,262.33Z"/><path class="cls-1" d="M135.8,248.28a19.6,19.6,0,0,1,3.91.37.66.66,0,0,1,.51.67l-.82,18.55a.64.64,0,0,1-.65.62H135.8q-21.32,0-21.32,23.17v18.69a.66.66,0,0,1-.65.66H95.42a.66.66,0,0,1-.65-.66V249.79a.65.65,0,0,1,.65-.65h18.41a.65.65,0,0,1,.65.65V261Q122.13,248.28,135.8,248.28Z"/><path class="cls-1" d="M210.48,249.79v60.57a.65.65,0,0,1-.65.65H191.41a.65.65,0,0,1-.65-.65v-5.27q-7.39,7.77-19,7.77-10.86,0-17.44-7.09t-6.6-18.67V249.79a.66.66,0,0,1,.65-.65h18.3a.65.65,0,0,1,.65.65v33.12a12.91,12.91,0,0,0,3,8.81,9.66,9.66,0,0,0,7.64,3.39,11.39,11.39,0,0,0,9.42-4.25q3.39-4.26,3.39-13V249.79a.65.65,0,0,1,.65-.65h18.42A.65.65,0,0,1,210.48,249.79Z"/><path class="cls-1" d="M259.28,247.3q10.85,0,17.44,7.08t6.59,18.67v37.31a.65.65,0,0,1-.65.65H264.37a.65.65,0,0,1-.65-.65V277.24a12.93,12.93,0,0,0-3-8.81,9.67,9.67,0,0,0-7.64-3.39,11.39,11.39,0,0,0-9.43,4.25q-3.39,4.26-3.39,13v28.07a.65.65,0,0,1-.65.65H221.24a.65.65,0,0,1-.65-.65V249.79a.65.65,0,0,1,.65-.65h18.41a.65.65,0,0,1,.65.65v5.27Q247.7,247.29,259.28,247.3Z"/><path class="cls-1" d="M335.91,293.53l4.19,14.25a.65.65,0,0,1-.33.76,35.19,35.19,0,0,1-16.41,4.32q-11.7,0-18.17-6.29t-6.47-18.36V264.79H288.15a.64.64,0,0,1-.65-.64V249.79a.65.65,0,0,1,.65-.65h10.57V231.55a.65.65,0,0,1,.64-.65h18.43a.65.65,0,0,1,.64.65v17.59H336a.65.65,0,0,1,.64.65v14.36a.64.64,0,0,1-.64.64h-17.6v21.45q0,9,8.26,9a17.73,17.73,0,0,0,8.3-2.08A.64.64,0,0,1,335.91,293.53Z"/><path class="cls-1" d="M437.45,250,418,310.68a.63.63,0,0,1-.61.45H401.22a.64.64,0,0,1-.61-.44l-10.95-33.08-11.07,33.08a.64.64,0,0,1-.61.44H361.79a.65.65,0,0,1-.62-.45L341.75,250a.64.64,0,0,1,.61-.84h18a.64.64,0,0,1,.61.46l10,32.82,11.55-32.85a.67.67,0,0,1,.61-.43h13a.65.65,0,0,1,.61.43l11.56,33,10-32.94a.64.64,0,0,1,.61-.46h18A.64.64,0,0,1,437.45,250Z"/><path class="cls-1" d="M471,247.54q14.17,0,24,9.12t9.86,23.42q0,14.42-9.86,23.53t-24,9.12q-14.42,0-24.33-9.12t-9.92-23.53q0-14.29,9.92-23.42T471,247.54Zm0,48.56a14.23,14.23,0,0,0,10.48-4.5,17.09,17.09,0,0,0-.06-23.05,14.3,14.3,0,0,0-10.42-4.5,14.78,14.78,0,0,0-10.72,4.5,16.93,16.93,0,0,0-.06,23.05A14.7,14.7,0,0,0,471,296.1Z"/><path class="cls-1" d="M552.82,248.28a19.67,19.67,0,0,1,3.91.37.65.65,0,0,1,.5.67l-.81,18.55a.64.64,0,0,1-.65.62h-2.95q-21.33,0-21.32,23.17v18.69a.66.66,0,0,1-.65.66H512.44a.67.67,0,0,1-.66-.66V249.79a.66.66,0,0,1,.66-.65h18.41a.65.65,0,0,1,.65.65V261Q539.14,248.28,552.82,248.28Z"/><path class="cls-1" d="M631.07,311H607.58a.66.66,0,0,1-.49-.22L587.2,288.7h-3.57v21.66a.65.65,0,0,1-.65.65H564.56a.65.65,0,0,1-.65-.65V222.93a.65.65,0,0,1,.65-.65H583a.65.65,0,0,1,.65.65v47.29h2.71l19.4-20.87a.67.67,0,0,1,.48-.21h22a.65.65,0,0,1,.47,1.09l-26.1,28.37,28.93,31.32A.65.65,0,0,1,631.07,311Z"/><path class="cls-1" d="M261.6,93.34l-2.08,2.43c1.31.26,2.61.45,3.89.58a148.05,148.05,0,0,0-.47,35,30.21,30.21,0,0,1,7.39-.91,28.14,28.14,0,0,1,3,.16c.81.08,1.62.19,2.41.34a40.39,40.39,0,0,1,45-18.79c.37-.49.76-1,1.14-1.44a49.32,49.32,0,0,1,37.22-17.9H360a52,52,0,0,1,6.36.4h0c4.89-.57,15.57-2.76,31.25-11l-3.34-1s14.82-9.91,21.57-14.72l-3.35-1s18.87-6.4,17.81-17.85-13.94-16.57-21-10.83a42.22,42.22,0,0,0-10.75,14.17l-2.21-3.42A78.66,78.66,0,0,1,376.4,65.72l.81-3.15s-9.41,6.05-20,6.41a73.44,73.44,0,0,0-2.6-12c-2.81-8.26-10.41-15.95-11.86-17.32a5.94,5.94,0,0,1-.64.77l-6.21,6.51A27.79,27.79,0,0,1,316,55.42a17.39,17.39,0,0,1-2-.08l-8.24-.65a27.5,27.5,0,0,1-20.51-11.55l-4.67-6.57a37.29,37.29,0,0,0-3.2,2.82h3.22s-8.3,8.73-12.08,17.58c0,0-2.08,3.82-3.53,11.8a46.72,46.72,0,0,1-17.23-6.1l.81,3.16A79,79,0,0,1,228.55,47.6L226.34,51a42.08,42.08,0,0,0-10.72-14.19c-7.05-5.84-19.91-.72-21,10.73s17.85,17.84,17.85,17.84l-3.34,1c6.84,4.8,21.56,14.72,21.56,14.72l-3.34,1C249.39,93.77,261.6,93.34,261.6,93.34ZM333,59.49a4,4,0,1,1-4,4.06v0A4,4,0,0,1,333,59.49Zm-43.07,0a4,4,0,1,1-4,4,4,4,0,0,1,4-4Zm-4.92,17.23a2.39,2.39,0,0,1,3.35-.58,41.29,41.29,0,0,0,46.86.81l1.3-.86a2.41,2.41,0,0,1,2.65,4h0l-1.3.85a46.09,46.09,0,0,1-52.29-.9,2.39,2.39,0,0,1-.58-3.33Z"/><path class="cls-1" d="M343.84,37.73a8.54,8.54,0,0,1-.92,1.71h2.78Q344.79,38.54,343.84,37.73Z"/><path class="cls-1" d="M312.53,19.92a13.84,13.84,0,0,1,7,2.47l1.35-18.23h0a3.38,3.38,0,0,0-.17-1.3A3.33,3.33,0,0,0,317.75.58L311.94.16l-2-.16h-.78l-.35.08-.27.14-.32.13L308,.48l-.27.2-.23.17-.24.29a1.07,1.07,0,0,0-.18.19,2.92,2.92,0,0,0-.21.32l-.13.22a2.74,2.74,0,0,0-.15.4c0,.07-.06.12-.08.2a3.24,3.24,0,0,0-.12.62h0L305,21.5A13.81,13.81,0,0,1,312.53,19.92Z"/><path class="cls-1" d="M283.12,34.72l4.7,6.61a24.35,24.35,0,0,0,18.09,10.25l8.24.61c.55,0,1.14.05,1.62.07h.39a19.77,19.77,0,0,0,2.18-.12h.23c.76-.08,1.52-.2,2.28-.34h0c.74-.16,1.47-.35,2.2-.57l.23-.07a18.13,18.13,0,0,0,2-.75l.32-.13c.65-.28,1.29-.59,1.91-.92l.33-.18a18.11,18.11,0,0,0,1.8-1.14l.28-.19c.6-.43,1.14-.86,1.73-1.34l.19-.15c.58-.51,1.14-1,1.68-1.59h0l6.22-6.48a5.29,5.29,0,0,0,1.37-2.65,3.76,3.76,0,0,0,.1-.66l.14-1.82a2.4,2.4,0,0,0-2.21-2.58h-.07l-.37.28c-.77-8.57-3.52-14.54-6.94-18.69a25.84,25.84,0,0,0-6.91-5.84c-.28-.17-.58-.32-.86-.47l-1.45,19.57a15,15,0,0,1,1.53,2.47,14,14,0,0,1-12.56,20h-1.06a14,14,0,0,1-12.94-15,14.13,14.13,0,0,1,3.93-8.78l1.48-20c-6.84,2.28-14.82,8.2-18.32,22.62h0l-.24-.24h-.57l-.24.06-.21.05-.23.1-.18.1-.2.14-.16.13-.19.18a1.58,1.58,0,0,0-.12.15,1.14,1.14,0,0,0-.15.23l-.1.16a2.36,2.36,0,0,0-.12.28.88.88,0,0,1-.05.15,2.67,2.67,0,0,0-.08.48l-.14,1.82a5.32,5.32,0,0,0,1,3.48Z"/><path class="cls-1" d="M310.71,44.64a10.79,10.79,0,0,0,9-17.81h0a10.77,10.77,0,0,0-7.37-3.71h-.81a10.79,10.79,0,0,0-.79,21.56Zm-4.78-6a7.44,7.44,0,0,1,10.94-10.09c.11.12.22.25.32.38Z"/><path class="cls-1" d="M409.32,133.81h-1.23l-2.82.12-.66-2.73a45.77,45.77,0,0,0-42.09-35c-.84,0-1.7-.08-2.55-.08h-.37a45.9,45.9,0,0,0-36.11,18l-1.38,1.8-2.19-.57a37,37,0,0,0-41.21,17.2l-1.21,2.07-2.35-.42a26.29,26.29,0,0,0-4.85-.45,27.12,27.12,0,0,0-27.1,27.11,24.06,24.06,0,0,0,8,18c4.89,4.56,11.91,7.79,19.76,9.12a93.09,93.09,0,0,0,18,1.52,135.58,135.58,0,0,0,21.2-1.49c7.62-1,15.59-2.42,21.79-6.84l1.86-1.31,1.92,1.2A45.92,45.92,0,0,0,386,179.91l2.28-1.6,2,2a27.11,27.11,0,1,0,18.95-46.47Z"/></g></g></svg>