<svg xmlns="http://www.w3.org/2000/svg" xmlns:xlink="http://www.w3.org/1999/xlink" viewBox="0 0 1082.98 165.13"><defs><style>.cls-1{fill:#fff;}.cls-2{fill:#242e3b;}.cls-3{fill:url(#linear-gradient);}.cls-4{fill:url(#linear-gradient-2);}.cls-5{fill:#17a9f9;}.cls-6{fill:#171d26;opacity:0.15;isolation:isolate;}.cls-7{fill:url(#linear-gradient-3);}.cls-8{fill:#c6c6c6;}</style><linearGradient id="linear-gradient" x1="40.6" y1="43.05" x2="210.19" y2="43.05" gradientTransform="matrix(1, 0, 0, -1, 0, 167.19)" gradientUnits="userSpaceOnUse"><stop offset="0" stop-color="#17a9f9"/><stop offset="1" stop-color="#26d8e2"/></linearGradient><linearGradient id="linear-gradient-2" x1="100.14" y1="45.67" x2="102.2" y2="24" gradientTransform="matrix(1, 0, 0, 1, 0, 0)" xlink:href="#linear-gradient"/><linearGradient id="linear-gradient-3" x1="102.15" y1="26.13" x2="103.8" y2="-0.66" gradientTransform="matrix(1, 0, 0, 1, 0, 0)" xlink:href="#linear-gradient"/></defs><title>gruntwork-grunty-logo-fullColor-lt</title><g id="Layer_2" data-name="Layer 2"><g id="Layer_1-2" data-name="Layer 1"><path class="cls-1" d="M286.58,80.29h59.74a.9.9,0,0,1,.88.79,81.36,81.36,0,0,1,.57,9.36q0,25.32-16.31,41.68T290,148.52q-25.31,0-42.68-16.81T230,90.27q0-24.47,17.23-41.35T289.54,32q19.14,0,33.95,8.74a45.6,45.6,0,0,1,20.13,23.82.89.89,0,0,1-.53,1.14l-.06,0L318.17,73a.89.89,0,0,1-1-.44Q309,57.18,289.55,57.17a30.41,30.41,0,0,0-22.8,9.48q-9.15,9.5-9.15,23.63T267,114a31.45,31.45,0,0,0,23.36,9.59q10.81,0,18.56-5.33a28.26,28.26,0,0,0,10.89-14.67H286.58a.89.89,0,0,1-.88-.88V81.17a.89.89,0,0,1,.88-.88Z"/><path class="cls-1" d="M413.33,61.32a26.62,26.62,0,0,1,5.28.5.88.88,0,0,1,.68.9l-1.09,25a.88.88,0,0,1-.88.84h-4q-28.79,0-28.79,31.28v25.25a.86.86,0,0,1-.86.88H358.8a.88.88,0,0,1-.88-.88h0V63.36a.9.9,0,0,1,.88-.88h24.87a.88.88,0,0,1,.87.88v15.1Q394.86,61.32,413.33,61.32Z"/><path class="cls-1" d="M514.17,63.36v81.78a.86.86,0,0,1-.86.88H488.43a.87.87,0,0,1-.88-.86V138q-10,10.5-25.63,10.49-14.64,0-23.55-9.57t-8.9-25.21V63.36a.89.89,0,0,1,.88-.88H455a.88.88,0,0,1,.88.88h0v44.72q0,7.32,4,11.9a13,13,0,0,0,10.32,4.61q8.16,0,12.73-5.74t4.58-17.55V63.36a.89.89,0,0,1,.88-.88h24.86a.88.88,0,0,1,.88.88Z"/><path class="cls-1" d="M580,60q14.64,0,23.54,9.57t8.91,25.21v50.37a.87.87,0,0,1-.88.88H586.94a.87.87,0,0,1-.88-.86V100.42q0-7.31-4-11.89A13.08,13.08,0,0,0,571.74,84q-8.16,0-12.73,5.74t-4.58,17.56v37.89a.86.86,0,0,1-.86.88H528.69a.87.87,0,0,1-.87-.87h0V63.36a.89.89,0,0,1,.87-.88h24.88a.88.88,0,0,1,.87.88v7.11Q564.43,60,580,60Z"/><path class="cls-1" d="M683.54,122.42l5.65,19.25a.86.86,0,0,1-.43,1,47.59,47.59,0,0,1-22.16,5.83q-15.81,0-24.54-8.49t-8.74-24.79V83.59H619a.87.87,0,0,1-.87-.87V63.35a.87.87,0,0,1,.87-.87h14.27V38.73a.87.87,0,0,1,.87-.87H659a.87.87,0,0,1,.87.87V62.48h23.76a.87.87,0,0,1,.87.87v19.4a.87.87,0,0,1-.87.87H659.94v29q0,12.15,11.15,12.15A24,24,0,0,0,682.3,122a.87.87,0,0,1,1.18.32A.84.84,0,0,1,683.54,122.42Z"/><path class="cls-1" d="M820.66,63.59l-26.23,82a.87.87,0,0,1-.83.6H771.73a.88.88,0,0,1-.83-.59l-14.78-44.67-14.94,44.66a.85.85,0,0,1-.83.59H718.49a.87.87,0,0,1-.83-.6l-26.24-82a.89.89,0,0,1,.83-1.14h24.29a.87.87,0,0,1,.83.62l13.46,44.31L746.43,63a.91.91,0,0,1,.83-.59h17.57a.86.86,0,0,1,.82.59l15.6,44.55,13.46-44.48a.9.9,0,0,1,.83-.62h24.29a.87.87,0,0,1,.86.88A.78.78,0,0,1,820.66,63.59Z"/><path class="cls-1" d="M866,60.32q19.14,0,32.45,12.31t13.31,31.62q0,19.47-13.31,31.79T866,148.35q-19.47,0-32.86-12.31t-13.4-31.79q0-19.29,13.4-31.62T866,60.32Zm0,65.56a19.18,19.18,0,0,0,14.15-6.07q6-6.06,6-15.56T880,88.69A19.32,19.32,0,0,0,866,82.59a20,20,0,0,0-14.48,6.07q-6.15,6.09-6.15,15.56t6.07,15.56A19.86,19.86,0,0,0,866,125.88Z"/><path class="cls-1" d="M976.44,61.32a26.62,26.62,0,0,1,5.28.5.88.88,0,0,1,.68.9l-1.1,25a.86.86,0,0,1-.87.84h-4q-28.77,0-28.79,31.28v25.25a.87.87,0,0,1-.88.88H921.91a.88.88,0,0,1-.88-.88h0V63.36a.89.89,0,0,1,.88-.88h24.86a.88.88,0,0,1,.88.88h0v15.1Q958,61.32,976.44,61.32Z"/><path class="cls-1" d="M1082.1,146h-31.72a.87.87,0,0,1-.65-.29l-26.86-29.83H1018v29.24a.86.86,0,0,1-.86.88H992.3a.87.87,0,0,1-.88-.86V27.08a.87.87,0,0,1,.87-.87h24.88a.87.87,0,0,1,.87.87V90.94h3.66l26.2-28.18a1,1,0,0,1,.64-.28h29.74a.88.88,0,0,1,.87.9.83.83,0,0,1-.23.57l-35.25,38.3,39.08,42.3a.89.89,0,0,1-.06,1.25A.9.9,0,0,1,1082.1,146Z"/><path class="cls-1" d="M67.88,113.43c.42.06.84.12,1.25.2a35.41,35.41,0,0,1,37.66-16.91c.62.13,1.24.26,1.85.42a44.08,44.08,0,0,1,7.82-7.86A43.18,43.18,0,0,1,143,80.15q1.82,0,3.6.15l-.41-.48s10.57.37,29.71-9.72l-2.9-.87s12.79-8.59,18.68-12.76l-2.88-.88s16.34-5.53,15.43-15.46S192.18,25.78,186,30.76a36.94,36.94,0,0,0-9.28,12.29l-1.92-2.93a68,68,0,0,1-17.26,15.81l.69-2.74a39.46,39.46,0,0,1-15.92,5.48,47.1,47.1,0,0,0-2.89-10C136.23,41,129,33.5,129,33.5h2.78a31.56,31.56,0,0,0-4.46-3.69,4.43,4.43,0,0,1-1.24,2.69l-5.35,5.58a21,21,0,0,1-16.7,6.4L97,44A21,21,0,0,1,81.4,35.17l-3.86-5.44A32.93,32.93,0,0,0,73,33.5h2.78S68.57,41,65.33,48.59a42.37,42.37,0,0,0-3.06,10.08A39.48,39.48,0,0,1,46,53.19l.7,2.74A68,68,0,0,1,29.48,40.12l-1.92,2.93a36.35,36.35,0,0,0-9.28-12.29C12.16,25.78,1,30.22,0,40.14S15.51,55.59,15.51,55.59l-2.9.87c5.9,4.17,18.68,12.76,18.68,12.76l-2.89.87c19.14,10.1,29.71,9.73,29.71,9.73L56.3,81.93a39,39,0,0,0,4.67.62c-1.34,5.5-2.17,19.63-1.84,31.15a26.79,26.79,0,0,1,8.75-.27Zm53.06-62a3.28,3.28,0,1,1-3.28,3.28h0a3.28,3.28,0,0,1,3.28-3.26Zm-37.07,0a3.28,3.28,0,1,1-3.28,3.28h0a3.28,3.28,0,0,1,3.28-3.26Zm-4.09,17.7a1.89,1.89,0,0,1,2.63-.45,35.73,35.73,0,0,0,40.54.7l1.12-.74a1.89,1.89,0,0,1,2.08,3.16h0l-1.11.79a39.46,39.46,0,0,1-44.81-.78,1.88,1.88,0,0,1-.5-2.61A.18.18,0,0,0,79.78,69.13Z"/><path class="cls-2" d="M83.87,51.45a3.28,3.28,0,1,0,3.28,3.28h0A3.28,3.28,0,0,0,83.87,51.45Z"/><circle class="cls-2" cx="120.94" cy="54.73" r="3.28"/><path class="cls-2" d="M126.69,69.18a1.9,1.9,0,0,0-2.62-.54l-1.12.74a35.73,35.73,0,0,1-40.54-.7,1.89,1.89,0,0,0-2.2,3.08h0a39.46,39.46,0,0,0,44.82.83l1.12-.74a1.9,1.9,0,0,0,.56-2.63Z"/><path class="cls-3" d="M186.35,116.19h-1.09l-2.47.11-.58-2.4a40.15,40.15,0,0,0-38.32-30.76H143A40,40,0,0,0,111,99l-1.23,1.63-1.92-.49a32.43,32.43,0,0,0-36.17,15.09l-1,1.81-2.07-.41a23.82,23.82,0,0,0-28,23.4,21.12,21.12,0,0,0,7,15.79c4.29,4,10.44,6.84,17.33,8a80.85,80.85,0,0,0,15.83,1.34,118.47,118.47,0,0,0,18.63-1.35c6.69-.92,13.68-2.13,19.12-6l1.63-1.15,1.69,1a40.3,40.3,0,0,0,44.15-1l2-1.4,1.77,1.73a23.79,23.79,0,1,0,16.64-40.79Z"/><path class="cls-2" d="M167.61,159.12c.28.28.57.54.86.81C168.18,159.66,167.89,159.4,167.61,159.12Z"/><path class="cls-4" d="M125.13,26.21h0c0,.32,0,.63,0,.94-4.89,6.78-12.8,7.91-24,7.91-9.7,0-20.42-6.81-22.6-11.3.08-.36.18-.73.27-1.09h0c-.84,0-2.35.24-2.35,1.85S76,28,77.1,29.14c.87.86,4.05,5.93,5.84,7.91a22.31,22.31,0,0,0,14.13,7.16c3.58.38,6.87.56,9.13.56a21,21,0,0,0,14.7-6.49s4.15-4.51,5.46-5.66c.75-.65,1-2.73,1-3.1V28.39A2,2,0,0,0,125.13,26.21Z"/><path class="cls-5" d="M125.12,26.22c-.42-10.39-7.75-23.1-21.6-24.06C89.58,1.65,82,10.65,78.79,22.68c-.09.36-.19.73-.27,1.09,2.18,4.49,12.9,11.3,22.6,11.3,11.21,0,19.12-1.13,24-7.91C125.13,26.85,125.13,26.54,125.12,26.22Z"/><path class="cls-6" d="M101.68,38.84A10.54,10.54,0,0,1,91.2,29.42a10.55,10.55,0,1,0,21,0A10.54,10.54,0,0,1,101.68,38.84Z"/><path class="cls-7" d="M108.71,20.43l1.12-16.84A3,3,0,0,0,107.07.44L100.53,0a3,3,0,0,0-3.16,2.76L96.28,19.23a10.53,10.53,0,0,1,12.43,1.2Z"/><circle class="cls-1" cx="101.68" cy="28.29" r="10.55"/><path class="cls-8" d="M97.34,32.63A6.07,6.07,0,0,1,105.93,24Z"/></g></g></svg>