<svg xmlns="http://www.w3.org/2000/svg" viewBox="0 0 631.72 312.86"><title>gruntwork-grunty-logo-vertical-blue</title><g id="Layer_2" data-name="Layer 2"><g id="Annotations"><path d="M41.94,262.33H86.17a.66.66,0,0,1,.66.58,60.41,60.41,0,0,1,.42,6.94q0,18.73-12.08,30.87T44.49,312.86q-18.74,0-31.61-12.45a43.07,43.07,0,0,1-.13-61.31q12.77-12.51,31.37-12.51a48.56,48.56,0,0,1,25.14,6.47A33.73,33.73,0,0,1,84.17,250.7a.66.66,0,0,1-.43.86l-18.41,5.32a.64.64,0,0,1-.75-.32q-6.09-11.35-20.46-11.36a22.49,22.49,0,0,0-16.88,7,25.8,25.8,0,0,0,.18,35.06,23.26,23.26,0,0,0,17.31,7.09,23.68,23.68,0,0,0,13.75-3.94,21.05,21.05,0,0,0,8.07-10.85H41.94a.66.66,0,0,1-.66-.65V263A.66.66,0,0,1,41.94,262.33Z"/><path d="M135.8,248.28a19.6,19.6,0,0,1,3.91.37.66.66,0,0,1,.51.67l-.82,18.55a.64.64,0,0,1-.65.62H135.8q-21.32,0-21.32,23.17v18.69a.66.66,0,0,1-.65.66H95.42a.66.66,0,0,1-.65-.66V249.79a.65.65,0,0,1,.65-.65h18.41a.65.65,0,0,1,.65.65V261Q122.13,248.28,135.8,248.28Z"/><path d="M210.48,249.79v60.57a.65.65,0,0,1-.65.65H191.41a.65.65,0,0,1-.65-.65v-5.27q-7.39,7.77-19,7.77-10.86,0-17.44-7.09t-6.6-18.67V249.79a.66.66,0,0,1,.65-.65h18.3a.65.65,0,0,1,.65.65v33.12a12.91,12.91,0,0,0,3,8.81,9.66,9.66,0,0,0,7.64,3.39,11.39,11.39,0,0,0,9.42-4.25q3.39-4.26,3.39-13V249.79a.65.65,0,0,1,.65-.65h18.42A.65.65,0,0,1,210.48,249.79Z"/><path d="M259.28,247.3q10.85,0,17.44,7.08t6.59,18.67v37.31a.65.65,0,0,1-.65.65H264.37a.65.65,0,0,1-.65-.65V277.24a12.93,12.93,0,0,0-3-8.81,9.67,9.67,0,0,0-7.64-3.39,11.39,11.39,0,0,0-9.43,4.25q-3.39,4.26-3.39,13v28.07a.65.65,0,0,1-.65.65H221.24a.65.65,0,0,1-.65-.65V249.79a.65.65,0,0,1,.65-.65h18.41a.65.65,0,0,1,.65.65v5.27Q247.7,247.29,259.28,247.3Z"/><path d="M335.91,293.53l4.19,14.25a.65.65,0,0,1-.33.76,35.19,35.19,0,0,1-16.41,4.32q-11.7,0-18.17-6.29t-6.47-18.36V264.79H288.15a.64.64,0,0,1-.65-.64V249.79a.65.65,0,0,1,.65-.65h10.57V231.55a.65.65,0,0,1,.64-.65h18.43a.65.65,0,0,1,.64.65v17.59H336a.65.65,0,0,1,.64.65v14.36a.64.64,0,0,1-.64.64h-17.6v21.45q0,9,8.26,9a17.73,17.73,0,0,0,8.3-2.08A.64.64,0,0,1,335.91,293.53Z"/><path d="M437.45,250,418,310.68a.63.63,0,0,1-.61.45H401.22a.64.64,0,0,1-.61-.44l-10.95-33.08-11.07,33.08a.64.64,0,0,1-.61.44H361.79a.65.65,0,0,1-.62-.45L341.75,250a.64.64,0,0,1,.61-.84h18a.64.64,0,0,1,.61.46l10,32.82,11.55-32.85a.67.67,0,0,1,.61-.43h13a.65.65,0,0,1,.61.43l11.56,33,10-32.94a.64.64,0,0,1,.61-.46h18A.64.64,0,0,1,437.45,250Z"/><path d="M471,247.54q14.17,0,24,9.12t9.86,23.42q0,14.42-9.86,23.53t-24,9.12q-14.42,0-24.33-9.12t-9.92-23.53q0-14.29,9.92-23.42T471,247.54Zm0,48.56a14.23,14.23,0,0,0,10.48-4.5,17.09,17.09,0,0,0-.06-23.05,14.3,14.3,0,0,0-10.42-4.5,14.78,14.78,0,0,0-10.72,4.5,16.93,16.93,0,0,0-.06,23.05A14.7,14.7,0,0,0,471,296.1Z"/><path d="M552.82,248.28a19.67,19.67,0,0,1,3.91.37.65.65,0,0,1,.5.67l-.81,18.55a.64.64,0,0,1-.65.62h-2.95q-21.33,0-21.32,23.17v18.69a.66.66,0,0,1-.65.66H512.44a.67.67,0,0,1-.66-.66V249.79a.66.66,0,0,1,.66-.65h18.41a.65.65,0,0,1,.65.65V261Q539.14,248.28,552.82,248.28Z"/><path d="M631.07,311H607.58a.66.66,0,0,1-.49-.22L587.2,288.7h-3.57v21.66a.65.65,0,0,1-.65.65H564.56a.65.65,0,0,1-.65-.65V222.93a.65.65,0,0,1,.65-.65H583a.65.65,0,0,1,.65.65v47.29h2.71l19.4-20.87a.67.67,0,0,1,.48-.21h22a.65.65,0,0,1,.47,1.09l-26.1,28.37,28.93,31.32A.65.65,0,0,1,631.07,311Z"/><path d="M293.37,69.27a3.95,3.95,0,1,0-3.95-4A4,4,0,0,0,293.37,69.27Z"/><path d="M339.48,65.32a4,4,0,1,0-4,4A3.95,3.95,0,0,0,339.48,65.32Z"/><path d="M288.55,78.24a2.35,2.35,0,0,0,.56,3.28,45.08,45.08,0,0,0,51.18.89l1.28-.84A2.36,2.36,0,0,0,339,77.63l-1.28.84a40.41,40.41,0,0,1-45.87-.79A2.35,2.35,0,0,0,288.55,78.24Z"/><path d="M320,31.42a7.28,7.28,0,0,0-11,9.51Z"/><path d="M433.06,146.36a30,30,0,0,0-2-3.87c-.5-.83-1-1.63-1.61-2.4-.29-.38-.59-.76-.9-1.13-.61-.74-1.25-1.45-1.93-2.13-.34-.34-.69-.67-1-1a29.89,29.89,0,0,0-20.17-7.79h0c-.45,0-.89,0-1.33,0a48.36,48.36,0,0,0-8.61-18c-.59-.77-1.21-1.52-1.85-2.25a48.56,48.56,0,0,0-16.12-12.21,46.55,46.55,0,0,0-5-2h0A48.47,48.47,0,0,0,322,105.94a50,50,0,0,0-3.56,4.13L318,110a40,40,0,0,0-9.53-1.16A39.55,39.55,0,0,0,275,127.24c-.27.43-.55.85-.81,1.29a30.53,30.53,0,0,0-5.36-.48c-.76,0-1.51,0-2.26.09a143.33,143.33,0,0,1,.77-30.67c-1.25-.14-2.52-.32-3.8-.57l2-2.38H265l-.59,0h-.05l-.79-.06h-.11l-1-.1-.17,0-1.16-.16-.2,0-1.37-.24-.22,0c-.5-.09-1-.2-1.58-.32l-.21,0L255.76,93l-.11,0c-.67-.17-1.36-.35-2.09-.56l-.08,0c-.72-.21-1.47-.43-2.25-.68l-.25-.08c-.76-.24-1.55-.5-2.36-.79l-.36-.12-2.49-.92-.43-.17c-.87-.33-1.75-.69-2.67-1.08l-.45-.19c-.93-.39-1.89-.81-2.87-1.26l-.42-.19c-1-.46-2.06-1-3.14-1.48l-.28-.14c-1.13-.56-2.29-1.15-3.48-1.78l3.26-1s-14.44-9.7-21.1-14.41l3.27-1S199,60.9,200,49.69q.06-.67.18-1.32c0-.11,0-.23.07-.34.07-.36.16-.71.26-1.06a1.46,1.46,0,0,1,.05-.2c.12-.4.26-.78.4-1.16l.12-.28c.13-.31.27-.6.42-.89l.12-.25c.19-.35.39-.69.6-1a1.43,1.43,0,0,1,.14-.2,8.54,8.54,0,0,1,.56-.78l.18-.24c.25-.29.49-.58.76-.86L204,41c.24-.24.49-.47.74-.7l.23-.2c.27-.22.53-.44.81-.64l.08-.06c.3-.22.61-.42.93-.61l.25-.15c.27-.16.54-.3.81-.44l.19-.09c.33-.16.66-.3,1-.43l.24-.09.84-.28.25-.07c.35-.1.69-.18,1-.25l.18,0,.89-.12.29,0c.35,0,.7,0,1.05,0h.11c.25,0,.51,0,.76,0l.29,0,.57.07.33.05.52.11.34.08.49.14.35.12a4.52,4.52,0,0,1,.47.18l.33.14.48.23.29.15.51.31.24.15c.24.16.48.34.71.52a32.41,32.41,0,0,1,3.53,3.37,42.85,42.85,0,0,1,7,10.52l2.17-3.31a76.93,76.93,0,0,0,19.5,17.87l-.78-3.1a42.25,42.25,0,0,0,6.17,3.12c1.25.53,2.65,1,4.16,1.52a38.58,38.58,0,0,0,6.53,1.43c.26-1.47.55-2.79.84-4,.19-.79.39-1.51.59-2.17.29-1,.57-1.85.83-2.57a23,23,0,0,1,1.2-2.85c3.69-8.69,11.86-17.19,11.86-17.19H281A35.36,35.36,0,0,1,284.12,39l4.57,6.44a26.93,26.93,0,0,0,20.05,11.3l8.07.6c.66,0,1.33.07,2,.07a27.15,27.15,0,0,0,19.49-8.31l6.09-6.34A6.34,6.34,0,0,0,345,42c1.38,1.34,8.87,8.85,11.62,17a63.45,63.45,0,0,1,2.31,10.16c.09.53.17,1.08.25,1.62a32.05,32.05,0,0,0,3.83-.37c.62-.1,1.24-.22,1.84-.34,1.21-.26,2.38-.57,3.49-.91a46.73,46.73,0,0,0,10.45-4.67l-.79,3.1A77.09,77.09,0,0,0,397.5,49.66L399.66,53a43.21,43.21,0,0,1,7-10.52,33.34,33.34,0,0,1,3.53-3.37c.23-.18.47-.36.71-.52a2.07,2.07,0,0,1,.25-.15c.16-.11.33-.21.5-.31l.3-.15.47-.23.33-.14a4.52,4.52,0,0,1,.47-.18l.35-.12.48-.14.35-.08.51-.11.34-.05.57-.07.29,0,.76,0h.11c.35,0,.7,0,1.06,0l.28,0c.3,0,.59.07.89.12l.18,0c.35.07.7.15,1,.25l.25.07c.29.08.56.18.84.28l.24.09c.34.13.67.27,1,.43l.19.09.81.44.25.14c.32.2.63.4.93.62l.07.05a10.16,10.16,0,0,1,.82.65l.23.2c.26.23.51.46.75.71l.08.08c.27.28.52.57.76.87l.18.23q.3.38.57.78l.13.2a9.26,9.26,0,0,1,.6,1l.12.24q.23.43.42.9l.12.28c.15.38.28.76.4,1.16l.06.2c.09.34.18.7.25,1.06,0,.12.05.23.07.34.08.43.15.87.19,1.32,1,11.21-17.44,17.46-17.44,17.46l3.27,1c-6.65,4.71-21.1,14.41-21.1,14.41l3.27,1c-1.2.63-2.36,1.22-3.49,1.78l-.28.14c-1.08.52-2.12,1-3.14,1.48l-.41.19c-1,.45-1.95.87-2.88,1.27l-.45.18q-1.36.59-2.67,1.08l-.43.17c-.85.33-1.69.63-2.49.92l-.36.12c-.81.29-1.6.55-2.36.79l-.25.08c-.78.25-1.53.47-2.25.68l-.08,0c-.73.21-1.43.39-2.09.56L375,93c-.64.16-1.25.3-1.84.43l-.21,0-.48.1h0a46.55,46.55,0,0,1,5,2,114.53,114.53,0,0,0,22.7-9.31L407,82.73l-4.27-1.28c4.82-3.26,11.67-7.92,15.67-10.75L423.63,67l-1.57-.47c5.77-3.36,12.53-9.07,11.79-17.11a17.3,17.3,0,0,0-16.91-15.77,13.74,13.74,0,0,0-8.77,3,41.78,41.78,0,0,0-8.76,10.21l-1.8-2.76-2.67,3.75a72.13,72.13,0,0,1-11.77,12l.61-2.41-6.71,4.32a42.54,42.54,0,0,1-15.25,5.56,61.72,61.72,0,0,0-2.24-9.42,44.42,44.42,0,0,0-7.69-13h3.61l-5.37-5.36a36.28,36.28,0,0,0-3.37-3l.06-.77A5.53,5.53,0,0,0,344,30.54c-1-7-3.4-12.93-7.23-17.55a28,28,0,0,0-10.27-7.81A6.42,6.42,0,0,0,320.8.58L313.13,0l-.47,0h0a6.44,6.44,0,0,0-5.76,3.6,27.49,27.49,0,0,0-11.47,6.17c-4.47,4-7.75,9.56-9.77,16.53a5.51,5.51,0,0,0-3.44,4.7l-.14,1.79a8.48,8.48,0,0,0,.48,3.43,38,38,0,0,0-3.8,3.31l-5.36,5.36h3.92a60.23,60.23,0,0,0-7.88,12.71,42.07,42.07,0,0,0-3.08,9.29,44.11,44.11,0,0,1-12.7-5.1L247,57.51l.6,2.38a70.85,70.85,0,0,1-11.77-12l-2.67-3.75-1.81,2.76a41.78,41.78,0,0,0-8.76-10.21,13.73,13.73,0,0,0-8.76-3A17.3,17.3,0,0,0,196.9,49.4c-.74,8,6,13.75,11.78,17.11l-1.56.47,5.25,3.72c4,2.83,10.85,7.49,15.67,10.75l-4.27,1.28,6.79,3.58C243.72,93.25,253.44,96,259.3,97l-1.67,1.93,5.31,1,.89.17a150.54,150.54,0,0,0-.38,28.39c-.93.17-1.84.38-2.74.63-.58.16-1.15.34-1.72.54a29.86,29.86,0,0,0-9,5l-.39.32a30.4,30.4,0,0,0-3.92,3.94c-.3.37-.6.75-.89,1.13-.57.77-1.11,1.57-1.61,2.4a28.83,28.83,0,0,0-2,3.87,29.32,29.32,0,0,0-1,2.76,30.28,30.28,0,0,0-1.35,8.92c0,16.56,13.68,27.14,30,30l2.17.36.26.05,1.49.22a100.08,100.08,0,0,0,14.38.91c4.72,0,8.38-.14,12.07-.47l1.24-.11,1.89-.2c1.9-.21,3.89-.46,6.12-.76,2.64-.36,5.23-.76,7.75-1.28,5.54-1.14,10.7-2.87,15.14-6a49.63,49.63,0,0,0,5.81,3.09A48.45,48.45,0,0,0,356.93,188a48.34,48.34,0,0,0,27.52-8.56,30.33,30.33,0,0,0,4.41,3.57,30,30,0,0,0,44.55-14.22,31,31,0,0,0,1.32-4.4c0-.22.09-.44.13-.66a30.14,30.14,0,0,0-1.8-17.4Zm-87-106.3c.62.54,1.23,1.1,1.82,1.69h-2.73A8.35,8.35,0,0,0,346.09,40.06ZM309.4,6.17h0a2.77,2.77,0,0,1,.11-.64c0-.06.05-.12.07-.19a2.66,2.66,0,0,1,.16-.39,1.43,1.43,0,0,1,.12-.21,3.53,3.53,0,0,1,.21-.32l.17-.19a2.89,2.89,0,0,1,.24-.25l.22-.17a2.83,2.83,0,0,1,.28-.2l.24-.12.32-.14.27-.08.33-.08.29,0,.23,0h.24l7.66.57a3.29,3.29,0,0,1,3,3.49h0l-1.32,17.85a13.59,13.59,0,0,0-14.2-.87ZM306.46,29.4a10.59,10.59,0,0,1,8-3.66l.79,0a10.52,10.52,0,0,1,7.22,3.63h0a10.57,10.57,0,1,1-16,0Zm-21.11,1.84v0a2.36,2.36,0,0,1,.08-.45l.06-.15a1.28,1.28,0,0,1,.11-.27.83.83,0,0,1,.09-.16l.14-.22.13-.14a1.62,1.62,0,0,1,.18-.19l.15-.12a1.53,1.53,0,0,1,.21-.14l.17-.09.23-.1a1.17,1.17,0,0,1,.2-.06l.24-.06.21,0h.34l.23.23a43.1,43.1,0,0,1,2-6.32c.26-.63.53-1.24.8-1.82a34.29,34.29,0,0,1,1.78-3.26,27.64,27.64,0,0,1,4.08-5.1c.48-.47,1-.9,1.47-1.31s1-.8,1.5-1.15a23.7,23.7,0,0,1,4.74-2.6c.52-.22,1-.41,1.55-.58l-1.43,19.43,0,.2a14,14,0,0,0-3.84,8.53A13.73,13.73,0,0,0,313.44,50c.34,0,.69,0,1,0A13.67,13.67,0,0,0,325.31,28l.09-1.16,1.33-18c6.13,3.26,12.94,10,14.34,23.93,0,.18.05.35.06.54h0l.37-.27h0a2.35,2.35,0,0,1,1.78,1.09,2.46,2.46,0,0,1,.31.68,2.43,2.43,0,0,1,.07.77l-.13,1.78c0,.22-.07.44-.11.65s0,.17,0,.25a5.2,5.2,0,0,1-.73,1.63,5.54,5.54,0,0,1-.57.71L336,46.91h0c-.53.55-1.09,1.07-1.66,1.56l-.17.15c-.55.46-1.12.89-1.7,1.3l-.28.19a20.1,20.1,0,0,1-1.77,1.1l-.31.17c-.61.33-1.23.63-1.87.91l-.31.12a20.46,20.46,0,0,1-2,.73l-.23.07c-.71.22-1.43.41-2.16.56h0c-.73.15-1.47.26-2.21.34l-.23,0c-.71.07-1.42.11-2.14.11h-.37c-.53,0-1.06,0-1.59-.06l-8.07-.6a23.87,23.87,0,0,1-17.71-10l-4.59-6.47-.5-.7a5.12,5.12,0,0,1-.87-2.15,5.28,5.28,0,0,1-.08-1.26ZM405.42,184.67a26.48,26.48,0,0,1-18.62-7.6l-2-1.94-2.28,1.57a45.14,45.14,0,0,1-49.42,1.18l-1.9-1.18-1.52,1.08-.3.21c-.33.23-.67.46-1,.67s-.59.37-.89.55a27.62,27.62,0,0,1-2.87,1.46c-5.14,2.29-11,3.26-16.64,4a133,133,0,0,1-20.86,1.51,92,92,0,0,1-17.72-1.49c-7.71-1.35-14.6-4.54-19.4-9A23.63,23.63,0,0,1,242.2,158a26.66,26.66,0,0,1,21.56-26.14,24.25,24.25,0,0,1,3.11-.41c.65-.05,1.3-.08,2-.08a26.58,26.58,0,0,1,4.76.43l2.32.42,1.18-2a36.41,36.41,0,0,1,31.36-18.06,36,36,0,0,1,9.13,1.17l2.16.56,1.35-1.77a44.82,44.82,0,0,1,35.84-17.71,45.71,45.71,0,0,1,8.88.88,44,44,0,0,1,6.06,1.64,44.94,44.94,0,0,1,28.92,31.94l.65,2.69,2.77-.12c.4,0,.81,0,1.21,0a26.63,26.63,0,0,1,0,53.26Z"/></g></g></svg>