<svg xmlns="http://www.w3.org/2000/svg" xmlns:xlink="http://www.w3.org/1999/xlink" viewBox="0 0 631.72 311.71"><defs><style>.cls-1{fill:#fff;}.cls-2{fill:#242e3b;}.cls-3{fill:url(#linear-gradient);}.cls-4{fill:url(#linear-gradient-2);}.cls-5{fill:#17a9f9;}.cls-6{fill:#171d26;opacity:0.15;isolation:isolate;}.cls-7{fill:url(#linear-gradient-3);}.cls-8{fill:#c6c6c6;}</style><linearGradient id="linear-gradient" x1="242.43" y1="-3171.11" x2="434.42" y2="-3171.11" gradientTransform="matrix(1, 0, 0, -1, 0, -3030.58)" gradientUnits="userSpaceOnUse"><stop offset="0" stop-color="#17a9f9"/><stop offset="1" stop-color="#26d8e2"/></linearGradient><linearGradient id="linear-gradient-2" x1="309.83" y1="51.7" x2="312.17" y2="27.17" gradientTransform="matrix(1, 0, 0, 1, 0, 0)" xlink:href="#linear-gradient"/><linearGradient id="linear-gradient-3" x1="312.1" y1="29.58" x2="313.98" y2="-0.74" gradientTransform="matrix(1, 0, 0, 1, 0, 0)" xlink:href="#linear-gradient"/></defs><title>gruntwork-grunty-logo-stack-fullColor-lt</title><g id="Layer_2" data-name="Layer 2"><g id="Annotations"><path class="cls-1" d="M41.94,261.18H86.17a.67.67,0,0,1,.66.59,60.37,60.37,0,0,1,.42,6.93q0,18.74-12.08,30.87T44.49,311.71q-18.74,0-31.61-12.45a43.06,43.06,0,0,1-.13-61.3q12.77-12.51,31.37-12.51a48.47,48.47,0,0,1,25.14,6.47,33.75,33.75,0,0,1,14.91,17.63.65.65,0,0,1-.43.86l-18.41,5.33a.64.64,0,0,1-.75-.33q-6.09-11.35-20.46-11.36a22.49,22.49,0,0,0-16.88,7,25.8,25.8,0,0,0,.18,35.06,23.3,23.3,0,0,0,17.31,7.09,23.69,23.69,0,0,0,13.75-4,21,21,0,0,0,8.07-10.84H41.94a.67.67,0,0,1-.66-.66V261.84A.67.67,0,0,1,41.94,261.18Z"/><path class="cls-1" d="M135.8,247.14a18.89,18.89,0,0,1,3.91.37.65.65,0,0,1,.51.66l-.82,18.55a.65.65,0,0,1-.65.63H135.8q-21.32,0-21.32,23.16v18.7a.65.65,0,0,1-.65.65H95.42a.65.65,0,0,1-.65-.65V248.65a.65.65,0,0,1,.65-.65h18.41a.65.65,0,0,1,.65.65v11.18Q122.13,247.14,135.8,247.14Z"/><path class="cls-1" d="M210.48,248.65v60.56a.65.65,0,0,1-.65.65H191.41a.65.65,0,0,1-.65-.65V304q-7.39,7.76-19,7.76-10.86,0-17.44-7.09T147.75,286v-37.3a.66.66,0,0,1,.65-.65h18.3a.65.65,0,0,1,.65.65v33.11a12.94,12.94,0,0,0,3,8.82A9.65,9.65,0,0,0,178,294a11.36,11.36,0,0,0,9.42-4.25q3.39-4.24,3.39-13V248.65a.65.65,0,0,1,.65-.65h18.42A.65.65,0,0,1,210.48,248.65Z"/><path class="cls-1" d="M259.28,246.15q10.85,0,17.44,7.08t6.59,18.67v37.31a.65.65,0,0,1-.65.65H264.37a.65.65,0,0,1-.65-.65V276.09a13,13,0,0,0-3-8.81,9.66,9.66,0,0,0-7.64-3.38,11.36,11.36,0,0,0-9.43,4.25q-3.39,4.25-3.39,13v28.06a.65.65,0,0,1-.65.65H221.24a.65.65,0,0,1-.65-.65V248.65a.65.65,0,0,1,.65-.65h18.41a.65.65,0,0,1,.65.65v5.26Q247.7,246.16,259.28,246.15Z"/><path class="cls-1" d="M335.91,292.39l4.19,14.25a.65.65,0,0,1-.33.76,35.3,35.3,0,0,1-16.41,4.31q-11.7,0-18.17-6.29t-6.47-18.36V263.65H288.15a.65.65,0,0,1-.65-.65V248.64a.65.65,0,0,1,.65-.64h10.57V230.4a.64.64,0,0,1,.64-.64h18.43a.64.64,0,0,1,.64.64V248H336a.64.64,0,0,1,.64.64V263a.65.65,0,0,1-.64.65h-17.6v21.44q0,9,8.26,9A17.85,17.85,0,0,0,335,292,.64.64,0,0,1,335.91,292.39Z"/><path class="cls-1" d="M437.45,248.84,418,309.53a.63.63,0,0,1-.61.45H401.22a.64.64,0,0,1-.61-.44l-10.95-33.07-11.07,33.07a.62.62,0,0,1-.61.44H361.79a.65.65,0,0,1-.62-.45l-19.42-60.69a.64.64,0,0,1,.61-.84h18a.63.63,0,0,1,.61.46l10,32.81,11.55-32.84a.66.66,0,0,1,.61-.43h13a.64.64,0,0,1,.61.43l11.56,33,10-32.93a.63.63,0,0,1,.61-.46h18A.64.64,0,0,1,437.45,248.84Z"/><path class="cls-1" d="M471,246.4q14.17,0,24,9.12t9.86,23.41q0,14.42-9.86,23.54t-24,9.12q-14.42,0-24.33-9.12t-9.92-23.54q0-14.3,9.92-23.41T471,246.4ZM471,295a14.23,14.23,0,0,0,10.48-4.5,17.08,17.08,0,0,0-.06-23,14.3,14.3,0,0,0-10.42-4.5,14.78,14.78,0,0,0-10.72,4.5,16.91,16.91,0,0,0-.06,23A14.7,14.7,0,0,0,471,295Z"/><path class="cls-1" d="M552.82,247.14a19,19,0,0,1,3.91.37.64.64,0,0,1,.5.66l-.81,18.55a.65.65,0,0,1-.65.63h-2.95q-21.33,0-21.32,23.16v18.7a.65.65,0,0,1-.65.65H512.44a.66.66,0,0,1-.66-.65V248.65a.66.66,0,0,1,.66-.65h18.41a.65.65,0,0,1,.65.65v11.18Q539.14,247.14,552.82,247.14Z"/><path class="cls-1" d="M631.07,309.86H607.58a.69.69,0,0,1-.49-.21L587.2,287.56h-3.57v21.65a.65.65,0,0,1-.65.65H564.56a.65.65,0,0,1-.65-.65V221.78a.65.65,0,0,1,.65-.65H583a.65.65,0,0,1,.65.65v47.29h2.71l19.4-20.86a.63.63,0,0,1,.48-.21h22a.65.65,0,0,1,.47,1.09l-26.1,28.36,28.93,31.32A.65.65,0,0,1,631.07,309.86Z"/><path class="cls-1" d="M273.31,128.42c.48.07,1,.13,1.42.22a40.07,40.07,0,0,1,42.63-19.14c.71.15,1.41.29,2.1.48a49.71,49.71,0,0,1,8.85-8.9A48.84,48.84,0,0,1,358.4,90.74c1.37,0,2.73.06,4.08.17l-.47-.54s12,.42,33.64-11l-3.28-1s14.48-9.73,21.14-14.45l-3.26-1s18.5-6.26,17.47-17.51S414,29.19,407.08,34.83a41.45,41.45,0,0,0-10.5,13.91l-2.18-3.32a77,77,0,0,1-19.54,17.9l.79-3.1a44.81,44.81,0,0,1-18,6.2,53.72,53.72,0,0,0-3.27-11.32c-3.66-8.71-11.8-17.17-11.8-17.17h3.15a35.48,35.48,0,0,0-5.05-4.18,5.08,5.08,0,0,1-1.4,3l-6.06,6.31a23.77,23.77,0,0,1-18.91,7.25l-8-.6a23.77,23.77,0,0,1-17.63-9.94l-4.37-6.16a35.88,35.88,0,0,0-5.17,4.27h3.14S274.1,46.39,270.43,55A47.6,47.6,0,0,0,267,66.42a44.7,44.7,0,0,1-18.37-6.2l.79,3.1a77.12,77.12,0,0,1-19.54-17.9l-2.17,3.32a41.25,41.25,0,0,0-10.51-13.91c-6.93-5.64-19.52-.61-20.65,10.62S214,62.94,214,62.94l-3.29,1c6.68,4.72,21.15,14.45,21.15,14.45l-3.27,1c21.67,11.44,33.63,11,33.63,11l-2.05,2.39a45.06,45.06,0,0,0,5.29.7c-1.52,6.23-2.46,22.22-2.08,35.26a30.19,30.19,0,0,1,9.9-.3Zm60.07-70.19a3.71,3.71,0,1,1-3.71,3.71h0a3.71,3.71,0,0,1,3.71-3.69Zm-42,0a3.71,3.71,0,1,1-3.72,3.71h0a3.72,3.72,0,0,1,3.72-3.69Zm-4.63,20a2.12,2.12,0,0,1,3-.51,40.46,40.46,0,0,0,45.9.79l1.27-.84a2.14,2.14,0,0,1,2.35,3.58h0l-1.25.89a44.71,44.71,0,0,1-50.73-.88,2.13,2.13,0,0,1-.57-3Z"/><path class="cls-2" d="M291.42,58.25A3.72,3.72,0,1,0,295.13,62h0A3.71,3.71,0,0,0,291.42,58.25Z"/><circle class="cls-2" cx="333.38" cy="61.96" r="3.71"/><path class="cls-2" d="M339.89,78.32a2.15,2.15,0,0,0-3-.61l-1.27.84a40.46,40.46,0,0,1-45.9-.79,2.14,2.14,0,0,0-2.49,3.48h0a44.7,44.7,0,0,0,50.75.94l1.26-.84a2.14,2.14,0,0,0,.63-3Z"/><path class="cls-3" d="M407.43,131.54H406.2l-2.8.13-.65-2.72a45.47,45.47,0,0,0-43.38-34.82h-1A45.26,45.26,0,0,0,322.18,112l-1.4,1.84-2.17-.55a36.68,36.68,0,0,0-40.95,17.08l-1.19,2.05-2.34-.46a26.92,26.92,0,0,0-31.27,21.74,26,26,0,0,0-.43,4.75,23.88,23.88,0,0,0,7.92,17.87c4.86,4.53,11.82,7.75,19.62,9.06a92.13,92.13,0,0,0,17.93,1.52A135.34,135.34,0,0,0,309,185.41c7.57-1,15.48-2.41,21.64-6.79l1.85-1.31,1.91,1.19a45.62,45.62,0,0,0,50-1.19l2.27-1.58,2,2a26.93,26.93,0,1,0,18.84-46.18Z"/><path class="cls-2" d="M386.22,180.14c.32.32.64.62,1,.92C386.86,180.76,386.54,180.46,386.22,180.14Z"/><path class="cls-4" d="M338.13,29.67l0,0c0,.35,0,.71,0,1.06-5.55,7.68-14.5,9-27.19,9-11,0-23.11-7.72-25.59-12.8.1-.41.21-.82.32-1.23h0c-1-.05-2.67.27-2.67,2.09s-.53,3.94.75,5.22c1,1,4.59,6.72,6.61,9a25.28,25.28,0,0,0,16,8.1c4.06.43,7.79.64,10.35.64a23.69,23.69,0,0,0,16.63-7.36s4.7-5.1,6.18-6.4c.86-.74,1.18-3.09,1.18-3.51V32.14A2.24,2.24,0,0,0,338.13,29.67Z"/><path class="cls-5" d="M338.11,29.69c-.48-11.77-8.77-26.16-24.45-27.25-15.79-.57-24.34,9.62-28,23.24-.11.41-.22.82-.32,1.23,2.48,5.08,14.61,12.8,25.59,12.8,12.69,0,21.64-1.28,27.19-9C338.13,30.4,338.12,30,338.11,29.69Z"/><path class="cls-6" d="M311.58,44a11.94,11.94,0,0,1-11.87-10.66,10.86,10.86,0,0,0-.07,1.28,11.94,11.94,0,1,0,23.88,0,10.86,10.86,0,0,0-.07-1.28A11.94,11.94,0,0,1,311.58,44Z"/><path class="cls-7" d="M319.54,23.13,320.8,4.07A3.37,3.37,0,0,0,317.67.5L310.27,0a3.36,3.36,0,0,0-3.57,3.12l-1.23,18.64a11.95,11.95,0,0,1,14.07,1.36Z"/><circle class="cls-1" cx="311.58" cy="32.03" r="11.94"/><path class="cls-8" d="M306.66,37a6.88,6.88,0,1,1,9.73-9.73Z"/></g></g></svg>