<svg xmlns="http://www.w3.org/2000/svg" xmlns:xlink="http://www.w3.org/1999/xlink" viewBox="0 0 1085.68 165.22"><defs><style>.cls-1{fill:#242e3b;}.cls-2{fill:none;}.cls-3,.cls-8{fill:#171d26;}.cls-4{fill:url(#linear-gradient);}.cls-5{fill:#fff;}.cls-6{fill:url(#linear-gradient-2);}.cls-7{fill:#17a9f9;}.cls-8{opacity:0.15;isolation:isolate;}.cls-9{fill:url(#linear-gradient-3);}.cls-10{fill:#c6c6c6;}</style><linearGradient id="linear-gradient" x1="15.86" y1="42.99" x2="331.92" y2="42.99" gradientTransform="matrix(1, 0, 0, -1, 0, 167.33)" gradientUnits="userSpaceOnUse"><stop offset="0" stop-color="#17a9f9"/><stop offset="1" stop-color="#26d8e2"/></linearGradient><linearGradient id="linear-gradient-2" x1="101.18" y1="45.71" x2="103.24" y2="24.02" gradientTransform="matrix(1, 0, 0, 1, 0, 0)" xlink:href="#linear-gradient"/><linearGradient id="linear-gradient-3" x1="103.19" y1="26.15" x2="104.84" y2="-0.66" gradientTransform="matrix(1, 0, 0, 1, 0, 0)" xlink:href="#linear-gradient"/></defs><title>gruntwork-grunty-logo-fullcolor-dk</title><g id="Layer_2" data-name="Layer 2"><g id="Layer_1-2" data-name="Layer 1"><path class="cls-1" d="M289.31,80.36H349a.9.9,0,0,1,.88.79,79.32,79.32,0,0,1,.58,9.36q0,25.32-16.31,41.68t-41.44,16.4q-25.29,0-42.68-16.81T232.68,90.34q0-24.47,17.22-41.35T292.25,32.1q19.14,0,33.95,8.74a45.54,45.54,0,0,1,20.14,23.82.89.89,0,0,1-.53,1.15h-.05L320.9,73a.89.89,0,0,1-1-.44q-8.22-15.33-27.63-15.34a30.44,30.44,0,0,0-22.79,9.48q-9.15,9.5-9.16,23.63t9.41,23.72a31.45,31.45,0,0,0,23.36,9.59q10.82,0,18.55-5.33a28.2,28.2,0,0,0,10.9-14.67H289.31a.88.88,0,0,1-.88-.88h0V81.24a.88.88,0,0,1,.86-.88Z"/><path class="cls-1" d="M416.06,61.39a26.59,26.59,0,0,1,5.27.5.89.89,0,0,1,.69.9l-1.1,25.05a.88.88,0,0,1-.88.84h-4q-28.8,0-28.79,31.28v25.25a.86.86,0,0,1-.86.88H361.53a.87.87,0,0,1-.88-.86V63.43a.89.89,0,0,1,.88-.88h24.86a.88.88,0,0,1,.88.88h0v15.1Q397.62,61.38,416.06,61.39Z"/><path class="cls-1" d="M516.9,63.43v81.78a.86.86,0,0,1-.86.88H491.15a.88.88,0,0,1-.88-.88h0V138.1q-10,10.5-25.62,10.49-14.65,0-23.55-9.57t-8.9-25.21V63.43a.89.89,0,0,1,.87-.88h24.71a.89.89,0,0,1,.88.88v44.72q0,7.32,4,11.9A13,13,0,0,0,473,124.66q8.14,0,12.73-5.74t4.57-17.55V63.43a.9.9,0,0,1,.88-.88H516A.88.88,0,0,1,516.9,63.43Z"/><path class="cls-1" d="M582.8,60.06q14.64,0,23.54,9.57t8.9,25.21v50.37a.86.86,0,0,1-.86.88H589.66a.87.87,0,0,1-.87-.87h0V100.49q0-7.3-4-11.89A13,13,0,0,0,574.48,84q-8.16,0-12.73,5.74t-4.58,17.56v37.89a.86.86,0,0,1-.86.88H531.42a.87.87,0,0,1-.87-.87h0V63.43a.89.89,0,0,1,.87-.88h24.87a.88.88,0,0,1,.88.88h0v7.11Q567.16,60.07,582.8,60.06Z"/><path class="cls-1" d="M686.27,122.49l5.65,19.25a.86.86,0,0,1-.43,1,47.59,47.59,0,0,1-22.16,5.83q-15.81,0-24.55-8.49t-8.73-24.79V83.66H621.77a.87.87,0,0,1-.87-.87V63.42a.87.87,0,0,1,.87-.87h14.28V38.8a.87.87,0,0,1,.87-.87H661.8a.87.87,0,0,1,.87.87V62.55h23.76a.87.87,0,0,1,.87.87v19.4a.87.87,0,0,1-.87.87H662.67v29q0,12.15,11.15,12.15A23.91,23.91,0,0,0,685,122a.88.88,0,0,1,1.19.33A.75.75,0,0,1,686.27,122.49Z"/><path class="cls-1" d="M823.39,63.66l-26.24,82a.85.85,0,0,1-.83.6H774.46a.87.87,0,0,1-.85-.6L758.83,101l-14.92,44.67a.86.86,0,0,1-.83.59H721.21a.86.86,0,0,1-.83-.6l-26.23-82a.89.89,0,0,1,.83-1.14h24.29a.88.88,0,0,1,.83.62l13.51,44.34,15.6-44.34a.89.89,0,0,1,.82-.59H767.6a.89.89,0,0,1,.82.59L784,107.66l13.46-44.48a.9.9,0,0,1,.83-.62h24.34a.88.88,0,0,1,.81.93A.47.47,0,0,1,823.39,63.66Z"/><path class="cls-1" d="M868.68,60.39q19.14,0,32.45,12.31t13.31,31.62q0,19.47-13.31,31.79t-32.45,12.31q-19.47,0-32.87-12.31t-13.39-31.79q0-19.29,13.39-31.62T868.68,60.39Zm0,65.56a19.16,19.16,0,0,0,14.14-6.07q6-6.06,6-15.56t-6.08-15.56a19.33,19.33,0,0,0-14.06-6.1,20,20,0,0,0-14.48,6.07Q848,94.82,848,104.29t6.08,15.56A19.83,19.83,0,0,0,868.68,126Z"/><path class="cls-1" d="M979.17,61.39a26.59,26.59,0,0,1,5.27.5.89.89,0,0,1,.69.9L984,87.84a.88.88,0,0,1-.88.84h-4q-28.8,0-28.79,31.28v25.25a.87.87,0,0,1-.88.88H924.61a.88.88,0,0,1-.88-.88h0V63.43a.89.89,0,0,1,.88-.88h24.86a.88.88,0,0,1,.88.88h0v15.1Q960.7,61.38,979.17,61.39Z"/><path class="cls-1" d="M1084.83,146.09h-31.72a.86.86,0,0,1-.65-.29L1025.61,116h-4.83v29.24a.86.86,0,0,1-.86.88H995a.87.87,0,0,1-.87-.87h0V27.15a.87.87,0,0,1,.87-.87h24.87a.87.87,0,0,1,.88.86h0V91h3.66l26.18-28.18a1,1,0,0,1,.64-.28H1081a.89.89,0,0,1,.88.89.85.85,0,0,1-.23.58l-35.25,38.3,39.07,42.3a.89.89,0,0,1-.06,1.25A.82.82,0,0,1,1084.83,146.09Z"/><path class="cls-2" d="M60.67,114.08v.73h0C60.68,114.57,60.68,114.33,60.67,114.08Z"/><path class="cls-2" d="M155.91,78.82h0Z"/><path class="cls-2" d="M60.67,114.08c-.05-1.44-.07-2.92-.08-4.42C60.57,111.16,60.62,112.64,60.67,114.08Z"/><path class="cls-2" d="M157.81,78.3h0Z"/><path class="cls-2" d="M160,77.64l-.23.08Z"/><path class="cls-1" d="M60.67,114.08c-.05-1.44-.07-2.92-.08-4.42v-4.51c.15-9.1.87-18.1,1.87-22.23a38,38,0,0,1-4.64-.62h0l1.8-2.1H57.79L57,80.11h-.16l-1-.14h-.2l-1.18-.21h-.21c-.44-.08-.9-.17-1.38-.28h-.2L51,79.1H50.9l-1.8-.49H49L47,78,46.79,78c-.66-.21-1.35-.44-2.06-.69l-.32-.12q-1.06-.37-2.19-.81l-.39-.15c-.75-.29-1.54-.61-2.34-1L39.1,75l-2.53-1.12-.36-.17c-.9-.41-1.81-.85-2.77-1.32l-.23-.12c-1-.48-2-1-3.07-1.56h0L32,70,33,69.65l-6.37-4.3L20.59,61.2l-3-2-.69-.48L16,58l-1.54-1.09,2.88-.87S9.69,53.43,5.18,48.59L5.1,48.5a14.47,14.47,0,0,1-1.57-2c-.15-.24-.3-.5-.44-.75a11.13,11.13,0,0,1-.67-1.59A8.73,8.73,0,0,1,2,40.62H2a11.16,11.16,0,0,1,.16-1.16l.06-.3c.07-.32.14-.63.23-.93v-.18a9.19,9.19,0,0,1,.36-1l.1-.25c.12-.27.23-.53.36-.79l.11-.21c.16-.3.34-.6.52-.89L4,34.73l.48-.68.17-.22c.21-.26.43-.51.67-.76L5.41,33l.64-.61.21-.18L7,31.64l.08-.06q.39-.28.81-.54l.22-.13.71-.38L9,30.44c.29-.14.58-.26.88-.38l.22-.08q.34-.14.72-.24l.23-.07.9-.21h.18a4.92,4.92,0,0,1,.77-.11h2.2l.5.06.29.05.46.09.29.07.45.12.29.1.42.17.28.11.43.21.26.14.44.27.21.13a7.36,7.36,0,0,1,.63.47c.75.62,1.47,1.28,2.14,1.94l.05.06a37.81,37.81,0,0,1,6.44,9c.39.76.58,1.22.58,1.22l1.91-2.92s.87,1.22,2.54,3.13l.89,1c.48.52,1,1.1,1.6,1.69,1,1,2.06,2.05,3.28,3.16a70,70,0,0,0,8.84,6.78l-.62-2.79h0a40.71,40.71,0,0,0,12.91,5.06,31.27,31.27,0,0,0,3.18.43c.08-.41.16-.81.25-1.19.41-1.92.85-3.55,1.27-4.86a29.53,29.53,0,0,1,1.52-4,39.19,39.19,0,0,1,3-5.57c.48-.75,1-1.48,1.45-2.16l.4-.57A67.48,67.48,0,0,1,77.15,34H74.42A32,32,0,0,1,79,30.25l-.6-.86a4.41,4.41,0,0,1-.46-.82,33.14,33.14,0,0,0-4.88,4L69.62,36H72.8A54.63,54.63,0,0,0,65,48.24a42.86,42.86,0,0,0-2.8,8.7,38,38,0,0,1-13.45-5l-4.24-2.74.61,2.43A65.19,65.19,0,0,1,32.84,39.44l-1.69-2.36-1.59,2.43,0,.08a36.59,36.59,0,0,0-8.16-9.87,11.28,11.28,0,0,0-7.22-2.48A14.42,14.42,0,0,0,.05,40.44C-.64,47.88,6.46,53,11.61,55.68L10,56.17l3.32,2.36c3.91,2.76,10.93,7.53,15.12,10.39l-3.51,1,4.29,2.27c12.59,6.7,21.54,8.87,26.39,9.58l-1.5,1.75,3.35.66c.88.16,1.76.31,2.66.42-1.17,7-1.79,20.28-1.38,30.9.64-.27,1.29-.52,2-.74A5.84,5.84,0,0,1,60.67,114.08Z"/><path class="cls-1" d="M128.34,30.23A32.88,32.88,0,0,1,132.89,34h-2.8a68.63,68.63,0,0,1,7.38,9.5,39.13,39.13,0,0,1,3,5.57,46.21,46.21,0,0,1,2.87,10,9.39,9.39,0,0,0,1.4-.17,40,40,0,0,0,14.41-5.29h0l-.67,2.69c1.06-.69,2.07-1.39,3.05-2.1a72.16,72.16,0,0,0,11.56-10.53c1.67-1.9,2.53-3.13,2.53-3.13h0l1.91,2.92a37.1,37.1,0,0,1,3.47-6,36.5,36.5,0,0,1,2.4-3,28.59,28.59,0,0,1,3.32-3.19h0c.2-.16.41-.31.62-.46l.22-.13a3.87,3.87,0,0,1,.43-.27l.27-.14.45-.17L189,30l.41-.16.31-.1.42-.11.32-.08.43-.09.31-.05.48-.06h2.17a5.23,5.23,0,0,1,.78.11h.17l.91.21.23.07q.36.11.72.24l.22.08c.29.12.59.24.87.38l.17.09.71.38.23.13q.4.25.81.54a.18.18,0,0,0,.07.05c.24.18.48.38.72.58l.19.17a7.79,7.79,0,0,1,.66.62l.08.07c.23.25.45.5.66.77l.16.2.5.69.12.18c.19.29.36.59.53.89l.1.21c.13.26.25.52.36.79,0,.09.08.17.11.25.13.34.25.68.36,1a.25.25,0,0,0,.05.18c.08.3.16.61.22.93l.06.3c.07.38.13.77.17,1.16s0,.61,0,.92a9.49,9.49,0,0,1-1.55,5,15.45,15.45,0,0,1-2.27,2.76C196.46,53.66,189.47,56,189.47,56l2.87.87c-1,.73-2.29,1.62-3.66,2.56l-1.94,1.34-1.05.72L182.12,64l-2.68,1.83-1.32.89-4.34,2.9.65.19,2.22.68h0c-1.05.56-2.07,1.08-3.08,1.58l-.23.1c-.94.47-1.86.91-2.77,1.32l-.34.17c-.88.39-1.72.77-2.55,1.12l-.38.16c-.81.33-1.59.65-2.35,1l-.37.14c-.76.29-1.48.56-2.2.81l-.32.12c-.71.25-1.4.48-2.06.69l-.23.08-2,.58h-.1l-1.79.49h-.12l-1.61.38H154c-.49.11-1,.2-1.38.28h-.21l-1.19.21H151l-1,.14h-.15l-.86.09h-1.8l.28.33a42.86,42.86,0,0,1,7.33.65c5.18-1.16,12.85-3.63,22.84-8.9l4.24-2-3.51-1c4.21-2.86,11.21-7.63,15.11-10.39l3.32-2.36-1.61-.49c5.16-2.69,12.26-7.8,11.57-15.24a14.44,14.44,0,0,0-14.12-13.21,11.34,11.34,0,0,0-7.22,2.48,36.89,36.89,0,0,0-8.15,9.87l-.05-.08-1.57-2.42L174,39.46a65.08,65.08,0,0,1-12.28,12.2l.61-2.43L158.06,52a38.66,38.66,0,0,1-13.16,4.94,45.5,45.5,0,0,0-2.63-8.63A54.6,54.6,0,0,0,134.48,36h3.17l-3.38-3.39a36,36,0,0,0-5.93-4.73Z"/><path class="cls-1" d="M159.78,77.72l-2,.58Z"/><path class="cls-1" d="M60.57,106.64v0Z"/><path class="cls-1" d="M157.71,78.33l-1.79.49Z"/><ellipse class="cls-3" cx="85.23" cy="55.16" rx="3.26" ry="3.27"/><ellipse class="cls-3" cx="122.04" cy="55.16" rx="3.26" ry="3.27"/><path class="cls-3" d="M81.62,72.13a39,39,0,0,0,44.49.83l1.12-.74A1.91,1.91,0,0,0,125.12,69l-1.11.73a35.38,35.38,0,0,1-40.26-.69,1.87,1.87,0,1,0-2.15,3.05Z"/><path class="cls-4" d="M60.84,117.93c-.67.25-1.34.53-2,.84a23.72,23.72,0,0,0-13.39,21.36,21.05,21.05,0,0,0,7,15.74c4.26,4,10.37,6.82,17.21,8a80.22,80.22,0,0,0,15.77,1.38,119.33,119.33,0,0,0,18.5-1.35c6.64-.91,13.59-2.12,19-6l1.62-1.14,1.67,1a39.94,39.94,0,0,0,43.85-1l2-1.4,1.76,1.73a23.67,23.67,0,1,0,16.53-40.66h-1.09l-2.45.11-.57-2.39a40.11,40.11,0,0,0-38.9-30.68c-.83,0-1.64,0-2.45.07a39.66,39.66,0,0,0-29.35,15.73l-1.2,1.61-1.91-.49a32.15,32.15,0,0,0-35.92,15l-1,1.81-2.11-.36a23.35,23.35,0,0,0-12.52,1.12"/><path class="cls-5" d="M60.69,114.82h0c-.66.22-1.31.47-2,.74h0C59.38,115.28,60,115,60.69,114.82Z"/><path class="cls-5" d="M60.69,114.82h0v0Z"/><path class="cls-5" d="M60.72,115.56v-.75c-.65.22-1.31.47-2,.74,0,1.11.1,2.18.16,3.22.65-.31,1.31-.59,2-.84C60.79,117.17,60.75,116.37,60.72,115.56Z"/><path class="cls-5" d="M60.72,115.56c0,.81.07,1.61.12,2.37h0C60.79,117.17,60.75,116.37,60.72,115.56Z"/><path class="cls-6" d="M126.19,26.22l0,0c0,.32,0,.63,0,.94-4.9,6.79-12.82,7.92-24,7.92-9.71,0-20.43-6.82-22.62-11.31.09-.37.18-.73.28-1.09h0c-.85,0-2.36.24-2.36,1.84S77,28,78.12,29.16C79,30,82.18,35.1,84,37.08A22.28,22.28,0,0,0,98.1,44.24c3.59.38,6.88.57,9.15.57A21,21,0,0,0,122,38.3s4.16-4.51,5.47-5.65c.75-.66,1-2.73,1-3.11V28.41A2,2,0,0,0,126.19,26.22Z"/><path class="cls-7" d="M126.17,26.24c-.42-10.4-7.75-23.12-21.61-24.08-14-.5-21.51,8.5-24.74,20.54-.1.36-.19.72-.28,1.09,2.19,4.49,12.91,11.31,22.62,11.31,11.21,0,19.13-1.13,24-7.92C126.19,26.87,126.18,26.56,126.17,26.24Z"/><path class="cls-8" d="M102.72,38.87a10.56,10.56,0,0,1-10.49-9.43,10.69,10.69,0,0,0-.06,1.13,10.56,10.56,0,1,0,21.11,0,10.69,10.69,0,0,0-.06-1.13A10.57,10.57,0,0,1,102.72,38.87Z"/><path class="cls-9" d="M109.76,20.44l1.11-16.85A3,3,0,0,0,108.11.44L101.56,0a3,3,0,0,0-3.15,2.76L97.32,19.24a10.59,10.59,0,0,1,12.44,1.2Z"/><circle class="cls-5" cx="102.72" cy="28.31" r="10.56"/><path class="cls-10" d="M98.38,32.66a6.08,6.08,0,0,1,8.59-8.6Z"/></g></g></svg>