<svg xmlns="http://www.w3.org/2000/svg" xmlns:xlink="http://www.w3.org/1999/xlink" viewBox="0 0 631.72 308.86"><defs><style>.cls-1{fill:#242e3b;}.cls-2,.cls-9{fill:#171d26;}.cls-3{fill:#17a9f9;}.cls-4{fill:url(#New_Gradient_Swatch_1);}.cls-5{fill:url(#New_Gradient_Swatch_1-2);}.cls-6{fill:url(#New_Gradient_Swatch_1-3);}.cls-7{fill:url(#New_Gradient_Swatch_1-4);}.cls-8{fill:url(#New_Gradient_Swatch_1-5);}.cls-9{opacity:0.15;}.cls-10{fill:#fff;}.cls-11{fill:#c6c6c6;}.cls-12{fill:url(#New_Gradient_Swatch_1-6);}</style><linearGradient id="New_Gradient_Swatch_1" x1="312.57" y1="24.83" x2="312.57" y2="-2.66" gradientUnits="userSpaceOnUse"><stop offset="0" stop-color="#17a9f9"/><stop offset="1" stop-color="#26d8e2"/></linearGradient><linearGradient id="New_Gradient_Swatch_1-2" x1="308.62" y1="58.54" x2="311.36" y2="29.21" xlink:href="#New_Gradient_Swatch_1"/><linearGradient id="New_Gradient_Swatch_1-3" x1="427.2" y1="-123.97" x2="427.2" y2="-146.2" gradientTransform="translate(-125.37 141.35) rotate(4.23)" xlink:href="#New_Gradient_Swatch_1"/><linearGradient id="New_Gradient_Swatch_1-4" x1="437.87" y1="-123.97" x2="437.87" y2="-146.2" gradientTransform="translate(-125.37 141.35) rotate(4.23)" xlink:href="#New_Gradient_Swatch_1"/><linearGradient id="New_Gradient_Swatch_1-5" x1="416.56" y1="-123.97" x2="416.56" y2="-146.2" gradientTransform="translate(-125.37 141.35) rotate(4.23)" xlink:href="#New_Gradient_Swatch_1"/><linearGradient id="New_Gradient_Swatch_1-6" x1="214.45" y1="137.31" x2="565.42" y2="137.31" xlink:href="#New_Gradient_Swatch_1"/></defs><title>gruntwork-grunty-logo-stack-fullColor-dk</title><g id="Layer_2" data-name="Layer 2"><g id="Artwork"><path class="cls-1" d="M41.94,258.33H86.17a.66.66,0,0,1,.66.58,60.41,60.41,0,0,1,.42,6.94q0,18.73-12.08,30.87T44.49,308.86q-18.74,0-31.61-12.45a43.07,43.07,0,0,1-.13-61.31q12.77-12.51,31.37-12.51a48.56,48.56,0,0,1,25.14,6.47A33.73,33.73,0,0,1,84.17,246.7a.66.66,0,0,1-.43.86l-18.41,5.32a.64.64,0,0,1-.75-.32q-6.09-11.35-20.46-11.36a22.49,22.49,0,0,0-16.88,7,25.8,25.8,0,0,0,.18,35.06,23.26,23.26,0,0,0,17.31,7.09,23.68,23.68,0,0,0,13.75-3.94,21.05,21.05,0,0,0,8.07-10.85H41.94a.66.66,0,0,1-.66-.65V259A.66.66,0,0,1,41.94,258.33Z"/><path class="cls-1" d="M135.8,244.28a19.6,19.6,0,0,1,3.91.37.66.66,0,0,1,.51.67l-.82,18.55a.64.64,0,0,1-.65.62H135.8q-21.32,0-21.32,23.17v18.69a.66.66,0,0,1-.65.66H95.42a.66.66,0,0,1-.65-.66V245.79a.65.65,0,0,1,.65-.65h18.41a.65.65,0,0,1,.65.65V257Q122.13,244.28,135.8,244.28Z"/><path class="cls-1" d="M210.48,245.79v60.57a.65.65,0,0,1-.65.65H191.41a.65.65,0,0,1-.65-.65v-5.27q-7.39,7.77-19,7.77-10.86,0-17.44-7.09t-6.6-18.67V245.79a.66.66,0,0,1,.65-.65h18.3a.65.65,0,0,1,.65.65v33.12a12.91,12.91,0,0,0,3,8.81,9.66,9.66,0,0,0,7.64,3.39,11.39,11.39,0,0,0,9.42-4.25q3.39-4.26,3.39-13V245.79a.65.65,0,0,1,.65-.65h18.42A.65.65,0,0,1,210.48,245.79Z"/><path class="cls-1" d="M259.28,243.3q10.85,0,17.44,7.08t6.59,18.67v37.31a.65.65,0,0,1-.65.65H264.37a.65.65,0,0,1-.65-.65V273.24a12.93,12.93,0,0,0-3-8.81,9.67,9.67,0,0,0-7.64-3.39,11.39,11.39,0,0,0-9.43,4.25q-3.39,4.26-3.39,13v28.07a.65.65,0,0,1-.65.65H221.24a.65.65,0,0,1-.65-.65V245.79a.65.65,0,0,1,.65-.65h18.41a.65.65,0,0,1,.65.65v5.27Q247.7,243.29,259.28,243.3Z"/><path class="cls-1" d="M335.91,289.53l4.19,14.25a.65.65,0,0,1-.33.76,35.19,35.19,0,0,1-16.41,4.32q-11.7,0-18.17-6.29t-6.47-18.36V260.79H288.15a.64.64,0,0,1-.65-.64V245.79a.65.65,0,0,1,.65-.65h10.57V227.55a.65.65,0,0,1,.64-.65h18.43a.65.65,0,0,1,.64.65v17.59H336a.65.65,0,0,1,.64.65v14.36a.64.64,0,0,1-.64.64h-17.6v21.45q0,9,8.26,9a17.73,17.73,0,0,0,8.3-2.08A.64.64,0,0,1,335.91,289.53Z"/><path class="cls-1" d="M437.45,246,418,306.68a.63.63,0,0,1-.61.45H401.22a.64.64,0,0,1-.61-.44l-10.95-33.08-11.07,33.08a.64.64,0,0,1-.61.44H361.79a.65.65,0,0,1-.62-.45L341.75,246a.64.64,0,0,1,.61-.84h18a.64.64,0,0,1,.61.46l10,32.82,11.55-32.85a.67.67,0,0,1,.61-.43h13a.65.65,0,0,1,.61.43l11.56,33,10-32.94a.64.64,0,0,1,.61-.46h18A.64.64,0,0,1,437.45,246Z"/><path class="cls-1" d="M471,243.54q14.17,0,24,9.12t9.86,23.42q0,14.42-9.86,23.53t-24,9.12q-14.42,0-24.33-9.12t-9.92-23.53q0-14.29,9.92-23.42T471,243.54Zm0,48.56a14.23,14.23,0,0,0,10.48-4.5,17.09,17.09,0,0,0-.06-23.05,14.3,14.3,0,0,0-10.42-4.5,14.78,14.78,0,0,0-10.72,4.5,16.93,16.93,0,0,0-.06,23.05A14.7,14.7,0,0,0,471,292.1Z"/><path class="cls-1" d="M552.82,244.28a19.67,19.67,0,0,1,3.91.37.65.65,0,0,1,.5.67l-.81,18.55a.64.64,0,0,1-.65.62h-2.95q-21.33,0-21.32,23.17v18.69a.66.66,0,0,1-.65.66H512.44a.67.67,0,0,1-.66-.66V245.79a.66.66,0,0,1,.66-.65h18.41a.65.65,0,0,1,.65.65V257Q539.14,244.28,552.82,244.28Z"/><path class="cls-1" d="M631.07,307H607.58a.66.66,0,0,1-.49-.22L587.2,284.7h-3.57v21.66a.65.65,0,0,1-.65.65H564.56a.65.65,0,0,1-.65-.65V218.93a.65.65,0,0,1,.65-.65H583a.65.65,0,0,1,.65.65v47.29h2.71l19.4-20.87a.67.67,0,0,1,.48-.21h22a.65.65,0,0,1,.47,1.09l-26.1,28.37,28.93,31.32A.65.65,0,0,1,631.07,307Z"/><path class="cls-1" d="M264.22,125.94c-.05-1.59-.08-3.23-.09-4.89,0-1.1,0-2.22,0-3.34,0-.56,0-1.12,0-1.68.17-10.07,1-20,2.08-24.59a45.45,45.45,0,0,1-5.16-.69h0l2-2.32h-.57l-.56,0h-.06l-.76,0H261c-.28,0-.6-.06-.94-.11l-.17,0-1.12-.15-.22,0c-.41-.06-.85-.13-1.31-.22l-.24,0-1.53-.32-.21,0L253.49,87l-.13,0-2-.53-.1,0c-.7-.2-1.43-.42-2.18-.66l-.27-.08c-.73-.24-1.49-.49-2.28-.77l-.36-.12q-1.18-.42-2.43-.9l-.43-.16c-.84-.33-1.71-.68-2.6-1.05l-.43-.19q-1.36-.57-2.82-1.23l-.39-.18c-1-.46-2-.94-3.07-1.46l-.27-.13c-1.11-.54-2.24-1.12-3.41-1.74h0l2-.6,1.19-.35L226.45,72c-2.11-1.43-4.47-3-6.73-4.59l-3.29-2.25-.77-.54-1-.71-1.72-1.21,3.19-1s-8.5-2.88-13.5-8.23l-.09-.1a16,16,0,0,1-1.74-2.24c-.17-.28-.33-.55-.49-.84a11.35,11.35,0,0,1-.75-1.76,9.43,9.43,0,0,1-.44-3.88h0c0-.44.1-.86.18-1.28l.06-.34c.08-.35.16-.69.26-1a1.33,1.33,0,0,1,0-.19c.11-.39.25-.77.39-1.14l.12-.28c.13-.29.26-.58.4-.86,0-.08.08-.16.13-.24.18-.34.37-.67.58-1l.13-.2c.18-.26.36-.51.55-.75l.18-.24c.24-.29.48-.57.74-.84l.09-.09c.23-.23.47-.46.72-.68l.23-.2c.25-.22.52-.42.78-.62l.09-.06q.43-.31.9-.6l.25-.14.78-.42.2-.1c.32-.16.64-.29,1-.42l.25-.09c.27-.1.53-.19.8-.27l.26-.07c.33-.09.67-.17,1-.24l.19,0c.28,0,.57-.09.85-.12l.29,0c.34,0,.68,0,1,0h.13l.72,0,.29,0,.55.07.32.05.51.1.33.09.49.14.32.1.48.19L217,33l.47.23.29.14.5.31.23.14c.23.16.47.33.69.51a30.86,30.86,0,0,1,2.38,2.16l.05.06a42,42,0,0,1,7.16,10c.43.85.65,1.35.65,1.35l2.11-3.23s1,1.35,2.82,3.46l1,1.11c.53.58,1.14,1.22,1.78,1.87,1.07,1.1,2.27,2.27,3.63,3.49a76.49,76.49,0,0,0,9.81,7.51l-.76-3h0a45,45,0,0,0,14.35,5.6,33.69,33.69,0,0,0,3.53.47c.09-.45.18-.89.27-1.31.46-2.13.95-3.92,1.41-5.38A32.57,32.57,0,0,1,271,54a43,43,0,0,1,3.31-6.16c.53-.83,1.07-1.63,1.61-2.4l.44-.62a75.68,75.68,0,0,1,6.14-7.49h-3.06a35.23,35.23,0,0,1,5-4.16l-.68-.95a5.79,5.79,0,0,1-.5-.91,37.21,37.21,0,0,0-5.42,4.46l-3.77,3.76h3.53A59.94,59.94,0,0,0,269,53.1a46.43,46.43,0,0,0-3.12,9.62A42.68,42.68,0,0,1,251,57.21l-4.71-3,.69,2.69a72.33,72.33,0,0,1-13.65-13.51l-1.88-2.62-1.76,2.7-.06.08a40.26,40.26,0,0,0-9.06-10.91,12.53,12.53,0,0,0-8-2.75,16,16,0,0,0-15.65,14.61c-.76,8.24,7.13,13.88,12.85,16.86l-1.79.54,3.69,2.61C216,67.54,223.75,72.82,228.42,76l-3.89,1.17,4.76,2.51c14,7.38,23.92,9.81,29.3,10.61l-1.66,1.93,3.73.73c1,.18,1.95.34,2.94.47-1.29,7.68-2,22.43-1.53,34.18.71-.3,1.44-.57,2.17-.81C264.23,126.48,264.22,126.22,264.22,125.94Z"/><path class="cls-1" d="M339.49,33.11l0,.17a35.55,35.55,0,0,1,4.92,4.07h-3.07a74.82,74.82,0,0,1,8.19,10.51A43,43,0,0,1,352.81,54,51.29,51.29,0,0,1,356,65.1c.52,0,1-.11,1.55-.18a44.51,44.51,0,0,0,16-5.86h0v0l-.76,3c1.19-.76,2.31-1.54,3.39-2.33A79.14,79.14,0,0,0,389,48.11c1.85-2.11,2.82-3.46,2.82-3.46h0l2.11,3.23a41.84,41.84,0,0,1,6.53-10,32.44,32.44,0,0,1,3.71-3.59h0c.22-.18.45-.35.68-.51l.24-.15.49-.29.3-.16.46-.22.32-.14.46-.17.34-.12.47-.13.34-.09.49-.09.34-.06.54-.07.3,0,.71,0h.14c.34,0,.68,0,1,0l.29,0c.28,0,.57.07.85.12l.19,0c.34.07.68.15,1,.24l.26.07q.4.12.81.27l.23.09c.33.13.66.27,1,.42l.18.09.79.43.25.14c.31.19.61.39.91.6l.07,0c.27.2.54.41.8.63l.22.2c.25.22.49.45.73.69l.08.08c.26.27.5.55.74.84l.18.23c.19.25.38.5.55.76l.13.2c.21.32.41.65.59,1l.12.24c.14.28.27.57.4.87l.12.27c.14.37.28.75.39,1.14l.06.19c.09.34.17.68.25,1l.06.33c.08.42.14.85.18,1.28a8.78,8.78,0,0,1,0,1,10.36,10.36,0,0,1-1.72,5.46,16.82,16.82,0,0,1-2.52,3c-5.05,4.9-12.81,7.53-12.81,7.53l3.19,1c-1.16.82-2.55,1.79-4.07,2.83L404.2,67l-1.16.79c-1.32.91-2.66,1.82-4,2.7l-3,2-1.48,1-4.8,3.24.72.21,2.47.74h0c-1.17.62-2.31,1.2-3.42,1.75l-.25.12c-1.06.52-2.08,1-3.08,1.46l-.39.18c-1,.44-1.91.85-2.82,1.24l-.43.18q-1.33.56-2.61,1.05l-.41.16c-.84.32-1.65.62-2.44.9l-.35.12c-.79.28-1.56.54-2.3.77l-.25.08q-1.14.36-2.19.66l-.1,0-2,.53-.13,0-1.79.42-.21,0c-.54.12-1.05.23-1.54.32l-.22,0c-.47.09-.91.16-1.32.22l-.22,0-1.12.15-.17,0c-.34,0-.66.08-.94.11h-.12l-.76,0h-.06l-.56,0h-.56l.31.36a48.62,48.62,0,0,1,8.15.72c5.74-1.28,14.26-4,25.33-9.86l4.76-2.51L394.92,76c4.67-3.15,12.45-8.43,16.78-11.49l3.69-2.61-1.79-.54c5.73-3,13.61-8.62,12.85-16.86A16,16,0,0,0,410.8,29.86a12.55,12.55,0,0,0-8,2.75,40.26,40.26,0,0,0-9.06,10.91l-.06-.08-1.77-2.7L390,43.37a72.93,72.93,0,0,1-13.64,13.5l.68-2.69-4.71,3a42.93,42.93,0,0,1-14.61,5.46,51.05,51.05,0,0,0-2.92-9.54,60,60,0,0,0-8.66-13.58h3.53l-3.76-3.76a38.17,38.17,0,0,0-6.39-5.09,2.49,2.49,0,0,1,.07.68Z"/><path class="cls-1" d="M276,45.46l.44-.62Z"/><path class="cls-1" d="M374.27,85.71q-1.14.36-2.19.66Q373.13,86.07,374.27,85.71Z"/><path class="cls-1" d="M264.14,117.71c0,1.12,0,2.24,0,3.34C264.13,120,264.13,118.83,264.14,117.71Z"/><path class="cls-1" d="M372,86.4l-2,.53Z"/><circle class="cls-2" cx="291.48" cy="60.76" r="3.62"/><circle class="cls-2" cx="332.37" cy="60.76" r="3.62"/><path class="cls-2" d="M287.47,79.54a43.54,43.54,0,0,0,49.41.85l1.23-.81a2.08,2.08,0,1,0-2.29-3.48l-1.23.81a39.39,39.39,0,0,1-44.71-.77,2.05,2.05,0,0,0-1.56-.35,2.08,2.08,0,0,0-.85,3.75Z"/><polygon class="cls-1" points="279.48 37.35 279.48 37.35 282.54 37.35 282.54 37.35 279.48 37.35"/><path class="cls-3" d="M337.14,29.22l0,0,0,0c-1.45-16.27-10.46-22.65-17-25.11a25,25,0,0,0-5.21-1.37l0,0s-.74-.09-1.54-.14-1.54-.08-1.54-.08h0a28.13,28.13,0,0,0-5,.43v0c-7,1.38-17.19,6.4-21.07,22.42h0c-.08.36-.17.71-.25,1.08A13.52,13.52,0,0,0,287.33,29h0a22.11,22.11,0,0,0,1.61,1.62,29.84,29.84,0,0,0,10.69,6.12h0l1.26.4a11.85,11.85,0,0,1-.74-1.62,11.4,11.4,0,0,1-.75-3.78,9.67,9.67,0,0,0-.15,1.08,9.67,9.67,0,0,1,.15-1.08,10,10,0,0,1,0-1.22,11.91,11.91,0,0,1,1.16-4.27,11.55,11.55,0,0,1,1.79-2.67,14.84,14.84,0,0,1,3.13-2.21v-.26a11.61,11.61,0,0,1,13.25,1.31h0a11,11,0,0,1,.87.8,12.37,12.37,0,0,1,1.91,2.63h0a11.69,11.69,0,0,1,1.36,6.41,12.12,12.12,0,0,1-.15,1.21h0a11.89,11.89,0,0,1-1.3,3.64,12.67,12.67,0,0,1-1.08,1.62c.45-.06.9-.11,1.33-.18,9.08-1.34,13.19-5.15,14.74-7.09a7.68,7.68,0,0,0,.79-1.17c0-.33-.06-.64-.08-1Z"/><path class="cls-4" d="M317.19.56,309.76,0a3.18,3.18,0,0,0-3.4,2.93V3L305,21.33a11.69,11.69,0,0,1,13.75,1.05l1.35-18.27,0-.15A3.19,3.19,0,0,0,317.19.56Z"/><path class="cls-5" d="M339.55,30.74h0A2.29,2.29,0,0,0,337.49,29L334.71,31a34.64,34.64,0,0,1-12.39,5.83,11.79,11.79,0,0,1-23-1.72,34.62,34.62,0,0,1-6.78-3.71c-.72-.5-1.41-1-2.09-1.6s-1.2-1-1.77-1.57l-.72-.68-2.22-2.23-.22-.23A2.31,2.31,0,0,0,283,27.24L282.92,29a4.91,4.91,0,0,0,.42,2.39,4,4,0,0,0,.5.91l.67.95,4.26,6A23.16,23.16,0,0,0,306,48.92l7.82.58a23.14,23.14,0,0,0,18.41-7.06l5.91-6.15a5.09,5.09,0,0,0,1.37-3h0l0-.17.13-1.73A2.58,2.58,0,0,0,339.55,30.74Z"/><path class="cls-6" d="M310.3,43.09a11.75,11.75,0,0,1-9.41-6l-1.26-.4a11.76,11.76,0,0,0,22.07,1.81c-.43.07-.88.12-1.33.18A11.76,11.76,0,0,1,310.3,43.09Z"/><path class="cls-7" d="M321.45,37.07a12.67,12.67,0,0,1-1.08,1.62c.45-.06.9-.11,1.33-.18a11.66,11.66,0,0,0,.62-1.65Z"/><path class="cls-8" d="M300.15,35.48l-.83-.34a11.64,11.64,0,0,0,.31,1.56l1.26.4A11.85,11.85,0,0,1,300.15,35.48Z"/><path class="cls-9" d="M322.73,34.46a9.73,9.73,0,0,0,0-1.08,11.79,11.79,0,0,1-1.3,3.64h0a12.67,12.67,0,0,1-1.08,1.62,11.73,11.73,0,0,1-20.22-3.21,11.34,11.34,0,0,1-.75-3.77,9.19,9.19,0,0,0-.15,1.07,11.88,11.88,0,0,0,.38,3.92,11.76,11.76,0,0,0,22.07,1.81,11.66,11.66,0,0,0,.62-1.65l-.44.1.44-.1A12,12,0,0,0,322.73,34.46Z"/><path class="cls-10" d="M321.54,25.81h0a12.37,12.37,0,0,0-1.91-2.63,11,11,0,0,0-.87-.8A11.69,11.69,0,0,0,305,21.33a11.93,11.93,0,0,0-2.64,2.21,11.55,11.55,0,0,0-1.79,2.67,11.91,11.91,0,0,0-1.16,4.27,10,10,0,0,0,0,1.22,11.4,11.4,0,0,0,.75,3.78,11.77,11.77,0,0,0,20.22,3.21,12.67,12.67,0,0,0,1.08-1.62,11.89,11.89,0,0,0,1.3-3.64,12.12,12.12,0,0,0,.15-1.21A11.69,11.69,0,0,0,321.54,25.81Z"/><path class="cls-11" d="M313.6,25h0a6.3,6.3,0,0,0-5.92.17h0a5.81,5.81,0,0,0-1.34,1,6.32,6.32,0,0,0,0,8.94l8.94-8.94A6.35,6.35,0,0,0,313.6,25Z"/><path class="cls-12" d="M264.4,130.21c-.73.28-1.45.58-2.15.92a26.25,26.25,0,0,0-14.86,23.64,23.28,23.28,0,0,0,7.68,17.41c4.73,4.4,11.52,7.54,19.12,8.87a90.51,90.51,0,0,0,17.45,1.47A131.68,131.68,0,0,0,312.19,181c7.37-1,15.08-2.35,21.08-6.61l1.8-1.27,1.87,1.16a44.46,44.46,0,0,0,48.68-1.16l2.24-1.55,1.95,1.91a26.23,26.23,0,1,0,18.34-45c-.4,0-.8,0-1.19,0l-2.73.12-.64-2.65a44.28,44.28,0,0,0-38.18-33.66,46.2,46.2,0,0,0-5-.28c-.91,0-1.81,0-2.71.08a44.14,44.14,0,0,0-32.59,17.36l-1.33,1.74-2.13-.55a35.71,35.71,0,0,0-39.88,16.64l-1.16,2-2.28-.42a26.81,26.81,0,0,0-4.69-.42,26.14,26.14,0,0,0-9.22,1.67"/><path class="cls-10" d="M264.24,126.76h0c-.73.24-1.46.51-2.17.81h0C262.78,127.27,263.51,127,264.24,126.76Z"/><path class="cls-10" d="M264.24,126.76h0l0,.83Z"/></g></g></svg>