<svg xmlns="http://www.w3.org/2000/svg" viewBox="0 0 1085.11 166.32"><defs><style>.cls-1{fill:#fff;}</style></defs><title>gruntwork-grunty-logo-white</title><g id="Layer_2" data-name="Layer 2"><g id="Layer_1-2" data-name="Layer 1"><g id="Layer_2-2" data-name="Layer 2"><g id="Artwork"><path class="cls-1" d="M288.74,80.84h59.73a.89.89,0,0,1,.88.78,79.36,79.36,0,0,1,.58,9.37q0,25.29-16.31,41.68t-41.44,16.39q-25.29,0-42.68-16.8T232.11,90.82q0-24.46,17.22-41.35t42.35-16.89q19.14,0,33.95,8.74a45.52,45.52,0,0,1,20.14,23.81.88.88,0,0,1-.52,1.14l-.06,0-24.87,7.19a.87.87,0,0,1-1-.43q-8.22-15.34-27.63-15.34a30.4,30.4,0,0,0-22.79,9.48q-9.15,9.5-9.16,23.63t9.41,23.71a31.36,31.36,0,0,0,23.38,9.57q10.82,0,18.55-5.32A28.23,28.23,0,0,0,322,104.13H288.74a.87.87,0,0,1-.88-.86V81.72a.88.88,0,0,1,.86-.88Z"/><path class="cls-1" d="M415.49,61.87a25.86,25.86,0,0,1,5.27.5.88.88,0,0,1,.69.9l-1.1,25a.88.88,0,0,1-.88.84h-4q-28.8,0-28.79,31.28v25.25a.87.87,0,0,1-.88.88H361a.88.88,0,0,1-.88-.88h0V63.91A.88.88,0,0,1,361,63h24.86a.87.87,0,0,1,.88.88h0V79Q397.05,61.85,415.49,61.87Z"/><path class="cls-1" d="M516.33,63.91v81.78a.89.89,0,0,1-.88.88H490.58a.9.9,0,0,1-.88-.88v-7.11q-10,10.48-25.62,10.48-14.65,0-23.55-9.56t-8.9-25.21V63.91a.88.88,0,0,1,.86-.88h24.72a.87.87,0,0,1,.88.88h0v44.72q0,7.32,4,11.9a13.05,13.05,0,0,0,10.32,4.57q8.14,0,12.73-5.74t4.57-17.55V63.91a.88.88,0,0,1,.88-.88h24.87A.88.88,0,0,1,516.33,63.91Z"/><path class="cls-1" d="M582.23,60.54q14.64,0,23.54,9.56t8.9,25.21v50.38a.88.88,0,0,1-.87.88H589.09a.89.89,0,0,1-.87-.88V101q0-7.32-4-11.9a13,13,0,0,0-10.32-4.57q-8.14,0-12.72,5.74t-4.58,17.55v37.9a.87.87,0,0,1-.88.88H530.85a.9.9,0,0,1-.88-.88V63.91a.88.88,0,0,1,.88-.88h24.87a.86.86,0,0,1,.88.86V71Q566.59,60.55,582.23,60.54Z"/><path class="cls-1" d="M685.7,123l5.65,19.25a.86.86,0,0,1-.44,1,47.54,47.54,0,0,1-22.15,5.82q-15.82,0-24.55-8.48t-8.74-24.8V84.17H621.2a.87.87,0,0,1-.87-.87h0V63.9a.87.87,0,0,1,.87-.87h14.27V39.27a.87.87,0,0,1,.87-.87h24.89a.87.87,0,0,1,.87.87V63h23.76a.87.87,0,0,1,.87.87V83.29a.87.87,0,0,1-.86.88H662.1v29q0,12.15,11.15,12.15a24,24,0,0,0,11.2-2.81.88.88,0,0,1,1.19.34A.94.94,0,0,1,685.7,123Z"/><path class="cls-1" d="M822.81,64.17l-26.23,82a.86.86,0,0,1-.83.6H773.89a.88.88,0,0,1-.83-.6l-14.78-44.66-14.94,44.63a.87.87,0,0,1-.83.59H720.64a.88.88,0,0,1-.83-.6l-26.23-82a.87.87,0,0,1,.56-1.1.84.84,0,0,1,.27,0h24.28a.87.87,0,0,1,.84.62L733,108l15.6-44.35a.86.86,0,0,1,.82-.58H767a.86.86,0,0,1,.82.58l15.61,44.52,13.46-44.48a.87.87,0,0,1,.83-.62H822a.87.87,0,0,1,.81.93A.51.51,0,0,1,822.81,64.17Z"/><path class="cls-1" d="M868.1,60.87q19.14,0,32.45,12.31t13.32,31.62q0,19.47-13.32,31.78T868.1,148.9q-19.44,0-32.86-12.32T821.85,104.8q0-19.3,13.39-31.62T868.1,60.87Zm0,65.56a19.18,19.18,0,0,0,14.15-6.07q6-6.08,6-15.56t-6.07-15.56a19.3,19.3,0,0,0-14.07-6.07,19.92,19.92,0,0,0-14.47,6.07q-6.17,6.08-6.16,15.56t6.07,15.56A19.89,19.89,0,0,0,868.1,126.43Z"/><path class="cls-1" d="M978.6,61.87a25.86,25.86,0,0,1,5.27.5.88.88,0,0,1,.69.9l-1.1,25a.88.88,0,0,1-.88.84h-4q-28.8,0-28.79,31.28v25.25a.87.87,0,0,1-.88.88H924a.88.88,0,0,1-.88-.88h0V63.91A.89.89,0,0,1,924,63H948.9a.87.87,0,0,1,.88.88h0V79Q960.13,61.85,978.6,61.87Z"/><path class="cls-1" d="M1084.26,146.57h-31.72a.91.91,0,0,1-.65-.29L1025,116.45h-4.82v29.24a.87.87,0,0,1-.88.88H994.45a.9.9,0,0,1-.88-.88V27.63a.89.89,0,0,1,.88-.87h24.87a.86.86,0,0,1,.88.86h0V91.49h3.66L1050,63.31a.88.88,0,0,1,.64-.28h29.73a.88.88,0,0,1,.88.88.86.86,0,0,1-.23.59l-35.26,38.3,39.08,42.3a.88.88,0,0,1-.62,1.47Z"/><path class="cls-1" d="M58.86,81.92,57,84.05c1.15.23,2.29.39,3.41.51A130,130,0,0,0,60,115.23a26.74,26.74,0,0,1,6.48-.8,26.22,26.22,0,0,1,2.67.14c.71.07,1.42.17,2.12.3a35.44,35.44,0,0,1,39.51-16.49c.32-.43.66-.85,1-1.26a43.22,43.22,0,0,1,32.66-15.71h.73a45.19,45.19,0,0,1,5.58.35h0c4.29-.5,13.67-2.42,27.43-9.67l-2.93-.88s13-8.7,18.93-12.92l-2.94-.88s16.56-5.61,15.63-15.66-12.24-14.54-18.43-9.51A37.16,37.16,0,0,0,179,44.68l-1.94-3a68.89,68.89,0,0,1-17.49,16l.71-2.77s-8.26,5.31-17.58,5.63A63.26,63.26,0,0,0,140.46,50c-2.46-7.25-9.13-14-10.41-15.2a4.42,4.42,0,0,1-.56.67L124,41.19a24.36,24.36,0,0,1-17.48,7.45,15.31,15.31,0,0,1-1.79-.07L97.54,48a24.14,24.14,0,0,1-18-10.14l-4.1-5.77a33,33,0,0,0-2.81,2.48h2.83S68.17,42.23,64.86,50c0,0-1.83,3.35-3.1,10.35A40.86,40.86,0,0,1,46.64,55l.71,2.77a69.06,69.06,0,0,1-17.49-16l-1.94,3a37,37,0,0,0-9.41-12.46C12.32,27.19,1,31.68,0,41.73S15.71,57.39,15.71,57.39l-2.93.88c6,4.22,18.92,12.92,18.92,12.92l-2.93.88C48.15,82.29,58.86,81.92,58.86,81.92Zm62.7-29.71A3.54,3.54,0,1,1,118,55.77v0A3.54,3.54,0,0,1,121.56,52.21Zm-37.8,0a3.54,3.54,0,1,1-3.54,3.54,3.53,3.53,0,0,1,3.54-3.54ZM79.44,67.33a2.11,2.11,0,0,1,2.94-.51,36.24,36.24,0,0,0,41.13.71l1.14-.75A2.11,2.11,0,1,1,127,70.31h0l-1.14.75a40.44,40.44,0,0,1-45.89-.79,2.11,2.11,0,0,1-.51-2.93Z"/><path class="cls-1" d="M131,33.11a7.25,7.25,0,0,1-.81,1.5h2.44C132.13,34.09,131.59,33.59,131,33.11Z"/><path class="cls-1" d="M103.56,17.48a12.19,12.19,0,0,1,6.11,2.17l1.18-16h0a2.76,2.76,0,0,0-.15-1.14,2.89,2.89,0,0,0-2.56-2L103,.14,101.27,0h-.69l-.3.07L100,.19a1.69,1.69,0,0,0-.28.12l-.22.11L99.3.6a1.3,1.3,0,0,0-.2.15L98.89,1a1.29,1.29,0,0,0-.16.17l-.18.28-.12.19A3.62,3.62,0,0,0,98.3,2c0,.06,0,.11-.07.18a3.41,3.41,0,0,0-.1.54h0L96.94,18.87A12.19,12.19,0,0,1,103.56,17.48Z"/><path class="cls-1" d="M77.75,30.47l4.12,5.8a21.42,21.42,0,0,0,15.88,9l7.23.53c.48,0,1,.05,1.42.06h.34a17.51,17.51,0,0,0,1.92-.1h.2c.67-.07,1.34-.17,2-.3h0c.65-.14,1.29-.31,1.93-.5l.2-.06a18,18,0,0,0,1.78-.66l.28-.11c.57-.25,1.13-.52,1.67-.81l.29-.16a15.51,15.51,0,0,0,1.58-1,2.2,2.2,0,0,0,.25-.17c.52-.37,1-.75,1.52-1.17l.16-.13c.51-.45,1-.91,1.48-1.4h0l5.46-5.69a4.59,4.59,0,0,0,1.2-2.32,2.8,2.8,0,0,0,.09-.58l.12-1.6a2.11,2.11,0,0,0-1.94-2.27h-.06l-.33.24c-.67-7.52-3.09-12.76-6.09-16.4a22.59,22.59,0,0,0-6.06-5.12c-.25-.15-.51-.28-.76-.42l-1.27,17.18a12.43,12.43,0,0,1,1.34,2.17,12.29,12.29,0,0,1-5.89,16.35A12.11,12.11,0,0,1,102.68,42h-.93a12.3,12.3,0,0,1-7.91-20.82l1.3-17.6c-6,2-13,7.2-16.08,19.85h0l-.21-.21h-.5l-.21.05-.18.05-.2.09-.16.08-.18.13-.14.11-.16.16A.69.69,0,0,0,77,24a1.37,1.37,0,0,0-.13.2l-.09.14a1.86,1.86,0,0,0-.1.25.69.69,0,0,1,0,.13c0,.14,0,.28-.07.42l-.12,1.6a4.68,4.68,0,0,0,.85,3Z"/><path class="cls-1" d="M102,39.18a9.47,9.47,0,0,0,7.88-15.63h0a9.42,9.42,0,0,0-6.47-3.26h-.71A9.47,9.47,0,0,0,102,39.21Zm-4.19-5.3a6.53,6.53,0,0,1,9.6-8.86l.28.33Z"/><path class="cls-1" d="M188.5,117.43h-1.08l-2.47.11-.58-2.4a40.16,40.16,0,0,0-36.94-30.71c-.74,0-1.49-.07-2.24-.07h-.32a40.28,40.28,0,0,0-31.69,15.8L112,101.74l-1.93-.5a32.46,32.46,0,0,0-36.16,15.1l-1.06,1.81-2.07-.37a23.25,23.25,0,0,0-4.25-.39,23.81,23.81,0,0,0-23.79,23.79,21.12,21.12,0,0,0,7,15.79c4.29,4,10.45,6.84,17.34,8a81.53,81.53,0,0,0,15.82,1.34A119.48,119.48,0,0,0,101.48,165c6.69-.91,13.68-2.12,19.12-6l1.63-1.15,1.69,1.05a40.31,40.31,0,0,0,44.12-1l2-1.4,1.77,1.73a23.79,23.79,0,1,0,16.63-40.79Z"/></g></g></g></g></svg>