
<svg width="52px" height="51px" viewBox="605 535 52 51" version="1.1" xmlns="http://www.w3.org/2000/svg" xmlns:xlink="http://www.w3.org/1999/xlink">
    <!-- Generator: Sketch 42 (36781) - http://www.bohemiancoding.com/sketch -->
    <desc>Created with Sketch.</desc>
    <defs>
        <linearGradient x1="100%" y1="100%" x2="0%" y2="0%" id="linearGradient-1">
            <stop stop-color="#06A2FF" offset="0%"></stop>
            <stop stop-color="#1AE5DC" offset="100%"></stop>
        </linearGradient>
    </defs>
    <path d="M648.713895,535 L612.285649,535 C608.262757,535 605,538.261542 605,542.285649 L605,578.713895 C605,582.738002 608.262757,585.999545 612.285649,585.999545 L634.142597,585.999545 C634.814091,585.999545 635.356872,585.455549 635.356872,584.78527 C635.356872,584.11499 634.814091,583.570995 634.142597,583.570995 L612.285649,583.570995 C609.608173,583.570995 607.42855,581.392586 607.42855,578.713895 L607.42855,552.188061 L629.95942,560.388059 C629.977634,560.397773 629.998277,560.401416 630.018919,560.409916 L630.099062,560.439059 C630.129418,560.451201 630.162204,560.44513 630.192561,560.45363 C630.29456,560.47913 630.39413,560.500987 630.499772,560.499772 C630.606628,560.500987 630.706199,560.47913 630.808198,560.45363 C630.838555,560.44513 630.87134,560.449987 630.901697,560.439059 L630.981839,560.409916 C631.001268,560.401416 631.023125,560.397773 631.041339,560.388059 L653.570995,552.188061 L653.570995,564.142597 C653.570995,564.812877 654.11499,565.356872 654.78527,565.356872 C655.456764,565.356872 655.999545,564.812877 655.999545,564.142597 L655.999545,542.285649 C655.999545,538.261542 652.738002,535 648.713895,535 L648.713895,535 Z M653.570995,549.604084 L630.499772,558.000795 L607.42855,549.604084 L607.42855,542.285649 C607.42855,539.606959 609.608173,537.42855 612.285649,537.42855 L648.713895,537.42855 C651.392586,537.42855 653.570995,539.606959 653.570995,542.285649 L653.570995,549.604084 Z M653.851492,571.835028 C654.342059,571.292247 655.139838,571.292247 655.631619,571.835028 C656.123401,572.379023 656.122186,573.258158 655.631619,573.800939 L644.950857,585.592762 C644.46029,586.135543 643.662512,586.135543 643.170731,585.592762 L636.940286,578.713895 C636.448505,578.171114 636.448505,577.290765 636.940286,576.747984 C637.432067,576.206418 638.228632,576.205203 638.720413,576.747984 L644.060794,582.644503 L653.851492,571.835028 Z" id="Combined-Shape" stroke="none" fill="url(#linearGradient-1)" fill-rule="evenodd"></path>
</svg>
