<svg width="137px" height="99px" viewBox="855 395 137 99" version="1.1" xmlns="http://www.w3.org/2000/svg" xmlns:xlink="http://www.w3.org/1999/xlink">
    <!-- Generator: Sketch 42 (36781) - http://www.bohemiancoding.com/sketch -->
    <desc>Created with Sketch.</desc>
    <defs>
        <linearGradient x1="0%" y1="0%" x2="81.0099085%" y2="92.078125%" id="linearGradient-1">
            <stop stop-color="#FF5C3B" offset="0%"></stop>
            <stop stop-color="#FF2B67" offset="100%"></stop>
        </linearGradient>
        <linearGradient x1="100%" y1="100%" x2="0%" y2="0%" id="linearGradient-2">
            <stop stop-color="#06A2FF" offset="0%"></stop>
            <stop stop-color="#1AE5DC" offset="100%"></stop>
        </linearGradient>
    </defs>
    <g id="Illustrations" stroke="none" stroke-width="1" fill="none" fill-rule="evenodd" transform="translate(856.000000, 396.000000)" stroke-linecap="round" stroke-linejoin="round">
        <g id="Floating">
            <path d="M13.0537643,62.585019 L0,54.3907489 L26.1080842,38 L52.2143163,54.3907489 L50.6472313,55.3745287 L52.2156128,54.3900049 L52.2156128,80.6092511 L26.1075286,97 L0,80.6099951 L0,54.3907489 L13.0537643,62.585019 Z M26.1075286,70.7792891 L26.1075286,96.9985352 L26.1080842,70.7796378 Z M13.0537643,62.585019 L26.1080842,70.7796378 L50.6472313,55.3745287 L26.1075286,70.7788938 L13.0537643,62.585019 Z" id="Combined-Shape-Copy-19" stroke="#161D26" fill="url(#linearGradient-1)"></path>
            <path d="M84.6679261,31.3918093 L68,20.928813 L101.336562,0 L134.670758,20.928813 L132.669799,22.1849693 L134.672414,20.927863 L134.672414,54.4063637 L101.335852,75.3351767 L68,54.4073137 L68,20.928813 L84.6679261,31.3918093 Z M101.335852,41.8548056 L101.335852,75.3333063 L101.336562,41.855251 Z M84.6679261,31.3918093 L101.336562,41.855251 L132.669799,22.1849693 L101.335852,41.854301 L84.6679261,31.3918093 Z" id="Combined-Shape" stroke="url(#linearGradient-2)" fill="#161D26"></path>
        </g>
    </g>
</svg>
