
<svg width="704px" height="609px" viewBox="611 288 704 609" version="1.1" xmlns="http://www.w3.org/2000/svg" xmlns:xlink="http://www.w3.org/1999/xlink">
    <!-- Generator: Sketch 42 (36781) - http://www.bohemiancoding.com/sketch -->
    <desc>Created with Sketch.</desc>
    <defs>
        <linearGradient x1="100%" y1="100%" x2="0%" y2="0%" id="linearGradient-1">
            <stop stop-color="#06A2FF" offset="0%"></stop>
            <stop stop-color="#1AE5DC" offset="100%"></stop>
        </linearGradient>
        <linearGradient x1="100%" y1="50%" x2="0%" y2="50%" id="linearGradient-2">
            <stop stop-color="#06A2FF" offset="0%"></stop>
            <stop stop-color="#1AE5DC" offset="100%"></stop>
        </linearGradient>
        <circle id="path-3" cx="6.5" cy="222.5" r="6.5"></circle>
        <mask id="mask-4" maskContentUnits="userSpaceOnUse" maskUnits="objectBoundingBox" x="0" y="0" width="13" height="13" fill="white">
            <use xlink:href="#path-3"></use>
        </mask>
        <mask id="mask-5" maskContentUnits="userSpaceOnUse" maskUnits="objectBoundingBox" x="-3" y="-3" width="19" height="19">
            <rect x="-3" y="213" width="19" height="19" fill="white"></rect>
            <use xlink:href="#path-3" fill="black"></use>
        </mask>
        <circle id="path-6" cx="6.5" cy="106.5" r="6.5"></circle>
        <mask id="mask-7" maskContentUnits="userSpaceOnUse" maskUnits="objectBoundingBox" x="-3" y="-3" width="19" height="19">
            <rect x="-3" y="97" width="19" height="19" fill="white"></rect>
            <use xlink:href="#path-6" fill="black"></use>
        </mask>
    </defs>
    <g id="Grid-illo" stroke="none" stroke-width="1" fill="none" fill-rule="evenodd" transform="translate(612.000000, 289.000000)">
        <g id="Grid" opacity="0.196582889" transform="translate(0.000000, 89.000000)" stroke="#FEFEFE" stroke-linecap="round" stroke-linejoin="round">
            <polygon id="Stroke-5" fill="#000000" points="200 146.928813 233.336562 126 266.670758 146.928813 233.336562 167.855251"></polygon>
            <polygon id="Stroke-5-Copy-3" fill="#000000" points="166 125.928813 199.336562 105 232.670758 125.928813 199.336562 146.855251"></polygon>
            <g id="Group" transform="translate(200.000000, 147.000000)">
                <polygon id="Stroke-5-Copy" fill="#000000" points="33 20.928813 66.3365616 0 99.6707584 20.928813 66.3365616 41.855251"></polygon>
                <polygon id="Stroke-5-Copy-6" points="0 41.928813 33.3365616 21 66.6707584 41.928813 33.3365616 62.855251"></polygon>
                <polygon id="Stroke-5-Copy-7" fill="#000000" points="33 62.928813 66.3365616 42 99.6707584 62.928813 66.3365616 83.855251"></polygon>
                <polygon id="Stroke-5-Copy-5" points="66 41.928813 99.3365616 21 132.670758 41.928813 99.3365616 62.855251"></polygon>
            </g>
            <g id="Group-Copy-6" transform="translate(233.000000, 272.000000)" fill="#000000">
                <polygon id="Stroke-5-Copy" points="0 20.928813 33.3365616 0 66.6707584 20.928813 33.3365616 41.855251"></polygon>
                <polygon id="Stroke-5-Copy-7" points="1 62.928813 34.3365616 42 67.6707584 62.928813 34.3365616 83.855251"></polygon>
            </g>
            <g id="Group-Copy-7" transform="translate(334.000000, 335.000000)" fill="#000000">
                <polygon id="Stroke-5-Copy-5" points="0 20.928813 33.3365616 0 66.6707584 20.928813 33.3365616 41.855251"></polygon>
            </g>
            <g id="Group-Copy-8" transform="translate(334.000000, 272.000000)" fill="#000000">
                <polygon id="Stroke-5-Copy" points="33 20.928813 66.3365616 0 99.6707584 20.928813 66.3365616 41.855251"></polygon>
                <polygon id="Stroke-5-Copy-6" points="0 41.928813 33.3365616 21 66.6707584 41.928813 33.3365616 62.855251"></polygon>
                <polygon id="Stroke-5-Copy-5" points="67 41.928813 100.336562 21 133.670758 41.928813 100.336562 62.855251"></polygon>
            </g>
            <g id="Group-Copy-10" transform="translate(401.000000, 314.000000)">
                <polygon id="Stroke-5-Copy" points="33 20.928813 66.3365616 0 99.6707584 20.928813 66.3365616 41.855251"></polygon>
                <polygon id="Stroke-5-Copy-6" points="0 41.928813 33.3365616 21 66.6707584 41.928813 33.3365616 62.855251"></polygon>
                <polygon id="Stroke-5-Copy-7" fill="#000000" points="34 62.928813 67.3365616 42 100.670758 62.928813 67.3365616 83.855251"></polygon>
                <polygon id="Stroke-5-Copy-5" points="67 41.928813 100.336562 21 133.670758 41.928813 100.336562 62.855251"></polygon>
                <polygon id="Stroke-5-Copy-9" fill="#000000" points="101 20.928813 134.336562 0 167.670758 20.928813 134.336562 41.855251"></polygon>
            </g>
            <g id="Group-Copy-4" transform="translate(133.670758, 189.000000)" fill="#000000">
                <polygon id="Stroke-5-Copy" points="33 20.928813 66.3365616 0 99.6707584 20.928813 66.3365616 41.855251"></polygon>
                <polygon id="Stroke-5-Copy-6" points="0 41.928813 33.3365616 21 66.6707584 41.928813 33.3365616 62.855251"></polygon>
                <polygon id="Stroke-5-Copy-5" points="66 41.928813 99.3365616 21 132.670758 41.928813 99.3365616 62.855251"></polygon>
            </g>
            <g id="Group-Copy-11" transform="translate(67.000000, 231.000000)">
                <polygon id="Stroke-5-Copy" points="33 20.928813 66.3365616 0 99.6707584 20.928813 66.3365616 41.855251"></polygon>
                <polygon id="Stroke-5-Copy-6" fill="#000000" points="0 41.928813 33.3365616 21 66.6707584 41.928813 33.3365616 62.855251"></polygon>
            </g>
            <g id="Group-Copy" transform="translate(266.000000, 189.000000)" fill="#000000">
                <polygon id="Stroke-5-Copy" points="33 20.928813 66.3365616 0 99.6707584 20.928813 66.3365616 41.855251"></polygon>
                <polygon id="Stroke-5-Copy-6" points="0 41.928813 33.3365616 21 66.6707584 41.928813 33.3365616 62.855251"></polygon>
                <polygon id="Stroke-5-Copy-5" points="67 41.928813 100.336562 21 133.670758 41.928813 100.336562 62.855251"></polygon>
            </g>
            <g id="Group-Copy-16" transform="translate(33.000000, 168.000000)" fill="#000000">
                <polygon id="Stroke-5-Copy" points="33 20.928813 66.3365616 0 99.6707584 20.928813 66.3365616 41.855251"></polygon>
                <polygon id="Stroke-5-Copy-6" points="0 41.928813 33.3365616 21 66.6707584 41.928813 33.3365616 62.855251"></polygon>
                <polygon id="Stroke-5-Copy-7" points="34 62.928813 67.3365616 42 100.670758 62.928813 67.3365616 83.855251"></polygon>
                <polygon id="Stroke-5-Copy-5" points="67 41.928813 100.336562 21 133.670758 41.928813 100.336562 62.855251"></polygon>
            </g>
            <g id="Group-Copy-22" transform="translate(0.000000, 273.000000)" fill="#000000">
                <polygon id="Stroke-5-Copy" points="33 20.928813 66.3365616 0 99.6707584 20.928813 66.3365616 41.855251"></polygon>
                <polygon id="Stroke-5-Copy-6" points="0 41.928813 33.3365616 21 66.6707584 41.928813 33.3365616 62.855251"></polygon>
                <polygon id="Stroke-5-Copy-7" points="34 62.928813 67.3365616 42 100.670758 62.928813 67.3365616 83.855251"></polygon>
                <polygon id="Stroke-5-Copy-13" points="100 104.928813 133.336562 84 166.670758 104.928813 133.336562 125.855251"></polygon>
                <polygon id="Stroke-5-Copy-14" points="100 146.928813 133.336562 126 166.670758 146.928813 133.336562 167.855251"></polygon>
                <polygon id="Stroke-5-Copy-5" points="67 41.928813 100.336562 21 133.670758 41.928813 100.336562 62.855251"></polygon>
            </g>
            <g id="Group-Copy-15" transform="translate(535.000000, 168.000000)">
                <polygon id="Stroke-5-Copy-5" points="0 20.928813 33.3365616 0 66.6707584 20.928813 33.3365616 41.855251"></polygon>
            </g>
            <g id="Group-Copy-3" transform="translate(332.000000, 63.000000)" fill="#000000">
                <polygon id="Stroke-5-Copy" points="34 20.928813 67.3365616 0 100.670758 20.928813 67.3365616 41.855251"></polygon>
                <polygon id="Stroke-5-Copy-6" points="0 41.928813 33.3365616 21 66.6707584 41.928813 33.3365616 62.855251"></polygon>
                <polygon id="Stroke-5-Copy-5" points="68 41.928813 101.336562 21 134.670758 41.928813 101.336562 62.855251"></polygon>
            </g>
            <g id="Group-Copy-14" transform="translate(434.000000, 105.000000)">
                <polygon id="Stroke-5-Copy" points="0 20.928813 33.3365616 0 66.6707584 20.928813 33.3365616 41.855251"></polygon>
                <polygon id="Stroke-5-Copy-5" fill="#000000" points="34 41.928813 67.3365616 21 100.670758 41.928813 67.3365616 62.855251"></polygon>
            </g>
            <g id="Group-Copy-18" transform="translate(434.000000, 63.000000)" fill="#000000">
                <polygon id="Stroke-5-Copy-6" points="0 20.928813 33.3365616 0 66.6707584 20.928813 33.3365616 41.855251"></polygon>
                <polygon id="Stroke-5-Copy-7" points="34 41.928813 67.3365616 21 100.670758 41.928813 67.3365616 62.855251"></polygon>
                <polygon id="Stroke-5-Copy-5" points="67 20.928813 100.336562 0 133.670758 20.928813 100.336562 41.855251"></polygon>
            </g>
            <g id="Group-Copy-20" transform="translate(468.000000, 0.000000)" fill="#000000">
                <polygon id="Stroke-5-Copy-6" points="67 20.928813 100.336562 0 133.670758 20.928813 100.336562 41.855251"></polygon>
                <polygon id="Stroke-5-Copy-7" points="0 62.928813 33.3365616 42 66.6707584 62.928813 33.3365616 83.855251"></polygon>
                <polygon id="Stroke-5-Copy-5" points="33 41.928813 66.3365616 21 99.6707584 41.928813 66.3365616 62.855251"></polygon>
            </g>
            <g id="Group-Copy-17" transform="translate(501.000000, 84.000000)">
                <polygon id="Stroke-5-Copy" fill="#000000" points="33 20.928813 66.3365616 0 99.6707584 20.928813 66.3365616 41.855251"></polygon>
                <polygon id="Stroke-5-Copy-6" points="0 41.928813 33.3365616 21 66.6707584 41.928813 33.3365616 62.855251"></polygon>
                <polygon id="Stroke-5-Copy-7" points="34 62.928813 67.3365616 42 100.670758 62.928813 67.3365616 83.855251"></polygon>
                <polygon id="Stroke-5-Copy-10" points="67 83.928813 100.336562 63 133.670758 83.928813 100.336562 104.855251"></polygon>
                <polygon id="Stroke-5-Copy-5" points="67 41.928813 100.336562 21 133.670758 41.928813 100.336562 62.855251"></polygon>
            </g>
            <g id="Group-Copy-21" transform="translate(568.000000, 42.000000)">
                <polygon id="Stroke-5-Copy" fill="#000000" points="33 20.928813 66.3365616 0 99.6707584 20.928813 66.3365616 41.855251"></polygon>
                <polygon id="Stroke-5-Copy-6" fill="#000000" points="0 41.928813 33.3365616 21 66.6707584 41.928813 33.3365616 62.855251"></polygon>
                <polygon id="Stroke-5-Copy-7" fill="#000000" points="34 62.928813 67.3365616 42 100.670758 62.928813 67.3365616 83.855251"></polygon>
                <polygon id="Stroke-5-Copy-5" points="67 41.928813 100.336562 21 133.670758 41.928813 100.336562 62.855251"></polygon>
            </g>
            <g id="Group-Copy-5" transform="translate(333.000000, 42.000000)" fill="#000000">
                <polygon id="Stroke-5-Copy" points="0 20.928813 33.3365616 0 66.6707584 20.928813 33.3365616 41.855251"></polygon>
            </g>
            <g id="Group-Copy-9" transform="translate(99.000000, 63.000000)" fill="#000000">
                <polygon id="Stroke-5-Copy" points="0 20.928813 33.3365616 0 66.6707584 20.928813 33.3365616 41.855251"></polygon>
                <polygon id="Stroke-5-Copy-7" points="1 62.928813 34.3365616 42 67.6707584 62.928813 34.3365616 83.855251"></polygon>
                <polygon id="Stroke-5-Copy-5" points="34 41.928813 67.3365616 21 100.670758 41.928813 67.3365616 62.855251"></polygon>
            </g>
            <g id="Group-Copy-19" transform="translate(31.000000, 1.000000)" fill="#000000">
                <polygon id="Stroke-5-Copy" points="0 20.928813 33.3365616 0 66.6707584 20.928813 33.3365616 41.855251"></polygon>
                <polygon id="Stroke-5-Copy-7" points="1 82.928813 34.3365616 62 67.6707584 82.928813 34.3365616 103.855251"></polygon>
                <polygon id="Stroke-5-Copy-5" points="34 61.928813 67.3365616 41 100.670758 61.928813 67.3365616 82.855251"></polygon>
                <polygon id="Stroke-5-Copy-11" points="67 40.928813 100.336562 20 133.670758 40.928813 100.336562 61.855251"></polygon>
            </g>
            <g id="Group-Copy-13" transform="translate(99.000000, 126.000000)" fill="#000000">
                <polygon id="Stroke-5-Copy" points="33 20.928813 66.3365616 0 99.6707584 20.928813 66.3365616 41.855251"></polygon>
                <polygon id="Stroke-5-Copy-6" points="0 41.928813 33.3365616 21 66.6707584 41.928813 33.3365616 62.855251"></polygon>
            </g>
            <polygon id="Stroke-5-Copy-2" fill="#000000" points="266 146.928813 299.336562 126 332.670758 146.928813 299.336562 167.855251"></polygon>
            <polygon id="Stroke-5-Copy-4" fill="#000000" points="299 125.928813 332.336562 105 365.670758 125.928813 332.336562 146.855251"></polygon>
            <polygon id="Stroke-5-Copy-8" fill="#000000" points="332 146.928813 365.336562 126 398.670758 146.928813 365.336562 167.855251"></polygon>
        </g>
        <g id="Floating" transform="translate(176.000000, 0.000000)">
            <path d="M32.6679261,150.391809 L16,139.928813 L49.3365616,119 L82.6707584,139.928813 L80.6697986,141.184969 L82.6724138,139.927863 L82.6724138,173.406364 L49.3358522,194.335177 L16,173.407314 L16,139.928813 L32.6679261,150.391809 Z M49.3358522,160.854806 L49.3358522,194.333306 L49.3365616,160.855251 Z M32.6679261,150.391809 L49.3365616,160.855251 L80.6697986,141.184969 L49.3358522,160.854301 L32.6679261,150.391809 Z" id="Combined-Shape-Copy-2" stroke="url(#linearGradient-1)" stroke-linecap="round" stroke-linejoin="round" fill="#161D26"></path>
            <path d="M73.6679261,176.391809 L57,165.928813 L90.3365616,145 L123.670758,165.928813 L121.669799,167.184969 L123.672414,165.927863 L123.672414,199.406364 L90.3358522,220.335177 L57,199.407314 L57,165.928813 L73.6679261,176.391809 Z M90.3358522,186.854806 L90.3358522,220.333306 L90.3365616,186.855251 Z M73.6679261,176.391809 L90.3365616,186.855251 L121.669799,167.184969 L90.3358522,186.854301 L73.6679261,176.391809 Z" id="Combined-Shape" stroke="url(#linearGradient-1)" stroke-linecap="round" stroke-linejoin="round" fill="#161D26"></path>
            <path d="M73.6679261,133.391809 L57,122.928813 L90.3365616,102 L123.670758,122.928813 L121.669799,124.184969 L123.672414,122.927863 L123.672414,156.406364 L90.3358522,177.335177 L57,156.407314 L57,122.928813 L73.6679261,133.391809 Z M90.3358522,143.854806 L90.3358522,177.333306 L90.3365616,143.855251 Z M73.6679261,133.391809 L90.3365616,143.855251 L121.669799,124.184969 L90.3358522,143.854301 L73.6679261,133.391809 Z" id="Combined-Shape-Copy-8" stroke="url(#linearGradient-1)" stroke-linecap="round" stroke-linejoin="round" fill="#161D26"></path>
            <path d="M73.6679261,90.3918093 L57,79.928813 L90.3365616,59 L123.670758,79.928813 L121.669799,81.1849693 L123.672414,79.927863 L123.672414,113.406364 L90.3358522,134.335177 L57,113.407314 L57,79.928813 L73.6679261,90.3918093 Z M90.3358522,100.854806 L90.3358522,134.333306 L90.3365616,100.855251 Z M73.6679261,90.3918093 L90.3365616,100.855251 L121.669799,81.1849693 L90.3358522,100.854301 L73.6679261,90.3918093 Z" id="Combined-Shape-Copy-9" stroke="url(#linearGradient-1)" stroke-linecap="round" stroke-linejoin="round" fill="#161D26"></path>
            <path d="M273.667926,302.391809 L257,291.928813 L290.336562,271 L323.670758,291.928813 L321.669799,293.184969 L323.672414,291.927863 L323.672414,325.406364 L290.335852,346.335177 L257,325.407314 L257,291.928813 L273.667926,302.391809 Z M290.335852,312.854806 L290.335852,346.333306 L290.336562,312.855251 Z M273.667926,302.391809 L290.336562,312.855251 L321.669799,293.184969 L290.335852,312.854301 L273.667926,302.391809 Z" id="Combined-Shape-Copy-4" stroke="url(#linearGradient-1)" stroke-linecap="round" stroke-linejoin="round" fill="#161D26"></path>
            <path d="M279.836095,274.714188 L269.336207,268.123069 L290.33643,254.939053 L311.335164,268.123069 L310.074668,268.914379 L311.336207,268.12247 L311.336207,289.212108 L290.335983,302.396123 L269.336207,289.212706 L269.336207,268.123069 L279.836095,274.714188 Z M290.335983,281.305308 L290.335983,302.394945 L290.33643,281.305588 Z M279.836095,274.714188 L290.33643,281.305588 L310.074668,268.914379 L290.335983,281.30499 L279.836095,274.714188 Z" id="Combined-Shape-Copy-7" stroke="#161D26" stroke-linecap="round" stroke-linejoin="round" fill="url(#linearGradient-1)"></path>
            <g id="Group-3" transform="translate(289.000000, 238.000000)" stroke="url(#linearGradient-1)" opacity="0.57591712">
                <path d="M1.4609375,0.15625 L1.4609375,12.8962498" id="Path-3-Copy-2"></path>
                <path d="M14.3959374,6.21063006 L9.52593756,14.6457173" id="Path-3-Copy-4"></path>
                <path d="M23.4045474,14.9845637 L17.9315411,20.4575701" id="Path-3-Copy-6"></path>
                <path d="M30.6649962,27.167725 L24.1546563,28.9121653" id="Path-3-Copy-5"></path>
            </g>
            <g id="Group-3-Copy" transform="translate(272.000000, 255.500000) scale(-1, 1) translate(-272.000000, -255.500000) translate(261.000000, 244.000000)" stroke="url(#linearGradient-1)" opacity="0.57591712">
                <path d="M5.39593744,0.210630057 L0.525937557,8.64571729" id="Path-3-Copy-4"></path>
                <path d="M14.4045474,8.98456373 L8.93154112,14.4575701" id="Path-3-Copy-6"></path>
                <path d="M21.6649962,21.167725 L15.1546563,22.9121653" id="Path-3-Copy-5"></path>
            </g>
            <path d="M240.667926,113.391809 L224,102.928813 L257.336562,82 L290.670758,102.928813 L288.669799,104.184969 L290.672414,102.927863 L290.672414,136.406364 L257.335852,157.335177 L224,136.407314 L224,102.928813 L240.667926,113.391809 Z M257.335852,123.854806 L257.335852,157.333306 L257.336562,123.855251 Z M240.667926,113.391809 L257.336562,123.855251 L288.669799,104.184969 L257.335852,123.854301 L240.667926,113.391809 Z" id="Combined-Shape-Copy" stroke="url(#linearGradient-1)" stroke-linecap="round" stroke-linejoin="round" fill="#161D26"></path>
            <path d="M240.667926,31.3918093 L224,20.928813 L257.336562,0 L290.670758,20.928813 L288.669799,22.1849693 L290.672414,20.927863 L290.672414,54.4063637 L257.335852,75.3351767 L224,54.4073137 L224,20.928813 L240.667926,31.3918093 Z M257.335852,41.8548056 L257.335852,75.3333063 L257.336562,41.855251 Z M240.667926,31.3918093 L257.336562,41.855251 L288.669799,22.1849693 L257.335852,41.854301 L240.667926,31.3918093 Z" id="Combined-Shape-Copy-5" stroke="url(#linearGradient-1)" stroke-linecap="round" stroke-linejoin="round" fill="#161D26"></path>
            <path d="M12.6679793,364.975078 L1,357.65071 L24.3364552,343 L47.671255,357.65071 L46.2705314,358.530052 L47.6724138,357.650045 L47.6724138,381.085862 L24.3359586,395.736572 L1,381.086527 L1,357.65071 L12.6679793,364.975078 Z M24.3359586,372.299446 L24.3359586,395.735263 L24.3364552,372.299758 Z M12.6679793,364.975078 L24.3364552,372.299758 L46.2705314,358.530052 L24.3359586,372.299093 L12.6679793,364.975078 Z" id="Combined-Shape-Copy-3" stroke="url(#linearGradient-1)" stroke-linecap="round" stroke-linejoin="round" fill="#161D26"></path>
            <g id="Group-2" transform="translate(0.000000, 384.000000)" stroke="url(#linearGradient-1)" opacity="0.466089221">
                <path d="M1.4609375,0 L1.4609375,18.7416721" id="Path-3"></path>
                <path d="M47.4609375,0.15625 L47.4609375,15.8962498" id="Path-3-Copy"></path>
                <path d="M24.4609375,14.15625 L24.4609375,29.8962498" id="Path-3-Copy-2"></path>
                <path d="M1.4609375,22 L1.4609375,29.7399998" id="Path-3-Copy-3"></path>
            </g>
            <path d="M35.6679793,458.975078 L24,451.65071 L47.3364552,437 L70.671255,451.65071 L69.2705314,452.530052 L70.6724138,451.650045 L70.6724138,475.085862 L47.3359586,489.736572 L24,475.086527 L24,451.65071 L35.6679793,458.975078 Z M47.3359586,466.299446 L47.3359586,489.735263 L47.3364552,466.299758 Z M35.6679793,458.975078 L47.3364552,466.299758 L69.2705314,452.530052 L47.3359586,466.299093 L35.6679793,458.975078 Z" id="Combined-Shape-Copy-6" stroke="url(#linearGradient-1)" stroke-linecap="round" stroke-linejoin="round" fill="#161D26"></path>
            <g id="Group-2" transform="translate(223.000000, 63.000000)" stroke="url(#linearGradient-1)" opacity="0.466089221">
                <path d="M1.4609375,0.15625 L1.4609375,18.8979221" id="Path-3"></path>
                <path d="M68.4609375,0.15625 L68.4609375,27.8962498" id="Path-3-Copy"></path>
                <path d="M34.4609375,16.15625 L34.4609375,31.8962498" id="Path-3-Copy-2"></path>
                <path d="M34.4609375,37.15625 L34.4609375,44.8962498" id="Path-3-Copy-3"></path>
            </g>
        </g>
        <g id="Lines" transform="translate(49.000000, 105.000000)">
            <ellipse id="Oval" fill="url(#linearGradient-2)" opacity="0.640398551" cx="401.5" cy="26" rx="3.5" ry="4"></ellipse>
            <polyline id="Path-4" stroke="#FFFFFF" stroke-linecap="round" stroke-linejoin="round" stroke-dasharray="5" points="156.558594 62.6445312 0.119140625 161.117188 133.224609 244.863281"></polyline>
            <polyline id="Path-4-Copy-2" stroke="#FFFFFF" stroke-linecap="round" stroke-linejoin="round" stroke-dasharray="10,10" points="235.126953 0.4296875 417.802734 117.080078 417.802734 127.873047"></polyline>
            <polyline id="Path-4-Copy" stroke="url(#linearGradient-2)" stroke-width="3" stroke-linecap="round" stroke-linejoin="round" points="402.03125 26.5351562 533.361328 110.046875 439.476562 171.007812"></polyline>
        </g>
    </g>
    <g id="Header-divider" stroke="none" stroke-width="1" fill="none" fill-rule="evenodd" transform="translate(624.000000, 665.000000)">
        <path d="M6.1875,112.753906 L6.1875,212.753906" id="Path-5" stroke="#FFFFFF" opacity="0.542629076"></path>
        <g id="Oval-2" opacity="0.542629076">
            <use stroke="#FFFFFF" mask="url(#mask-4)" stroke-width="2" fill="#161D26" fill-rule="evenodd" xlink:href="#path-3"></use>
            <use stroke="#161D26" mask="url(#mask-5)" stroke-width="6" xlink:href="#path-3"></use>
        </g>
        <path d="M7,106.71875 L175.484388,0.834619364" id="Path-4-Copy" stroke="url(#linearGradient-2)" stroke-width="3" stroke-linecap="round" stroke-linejoin="round"></path>
        <g id="Oval-2-Copy">
            <use fill="url(#linearGradient-1)" fill-rule="evenodd" xlink:href="#path-6"></use>
            <use stroke="#161D26" mask="url(#mask-7)" stroke-width="6" xlink:href="#path-6"></use>
        </g>
    </g>
</svg>
