
<svg width="637px" height="400px" viewBox="352 461 637 400" version="1.1" xmlns="http://www.w3.org/2000/svg" xmlns:xlink="http://www.w3.org/1999/xlink">
    <!-- Generator: Sketch 42 (36781) - http://www.bohemiancoding.com/sketch -->
    <desc>Created with Sketch.</desc>
    <defs></defs>
    <g id="Grid" opacity="0.196582889" stroke="none" stroke-width="1" fill="none" fill-rule="evenodd" transform="translate(353.000000, 462.000000)" stroke-linecap="round" stroke-linejoin="round">
        <polygon id="Stroke-5-Copy-3" stroke="#FEFEFE" fill="#000000" points="166 124.928813 199.336562 104 232.670758 124.928813 199.336562 145.855251"></polygon>
        <g id="Group-Copy-6" transform="translate(234.000000, 313.000000)" stroke="#FEFEFE" fill="#000000">
            <polygon id="Stroke-5-Copy-7" points="0 20.928813 33.3365616 0 66.6707584 20.928813 33.3365616 41.855251"></polygon>
        </g>
        <g id="Group-Copy-7" transform="translate(334.000000, 334.000000)" stroke="#FEFEFE" fill="#000000">
            <polygon id="Stroke-5-Copy-5" points="0 20.928813 33.3365616 0 66.6707584 20.928813 33.3365616 41.855251"></polygon>
        </g>
        <g id="Group-Copy-8" transform="translate(334.000000, 292.000000)" stroke="#FEFEFE" fill="#000000">
            <polygon id="Stroke-5-Copy-6" points="0 20.928813 33.3365616 -7.10542736e-15 66.6707584 20.928813 33.3365616 41.855251"></polygon>
            <polygon id="Stroke-5-Copy-5" points="67 20.928813 100.336562 3.55271368e-15 133.670758 20.928813 100.336562 41.855251"></polygon>
        </g>
        <g id="Group-Copy-10" transform="translate(401.000000, 334.000000)" stroke="#FEFEFE">
            <polygon id="Stroke-5-Copy-6" points="0 20.928813 33.3365616 3.55271368e-15 66.6707584 20.928813 33.3365616 41.855251"></polygon>
        </g>
        <g id="Group-Copy-22" transform="translate(0.000000, 293.000000)" stroke="#FEFEFE" fill="#000000">
            <polygon id="Stroke-5-Copy-6" points="0 20.928813 33.3365616 3.55271368e-15 66.6707584 20.928813 33.3365616 41.855251"></polygon>
            <polygon id="Stroke-5-Copy-7" points="34 41.928813 67.3365616 21 100.670758 41.928813 67.3365616 62.855251"></polygon>
            <polygon id="Stroke-5-Copy-13" points="100 83.928813 133.336562 63 166.670758 83.928813 133.336562 104.855251"></polygon>
            <polygon id="Stroke-5-Copy-5" points="67 20.928813 100.336562 3.55271368e-15 133.670758 20.928813 100.336562 41.855251"></polygon>
        </g>
        <g id="Group-Copy-15" transform="translate(535.000000, 167.000000)" stroke="#FEFEFE">
            <polygon id="Stroke-5-Copy-5" points="0 20.928813 33.3365616 0 66.6707584 20.928813 33.3365616 41.855251"></polygon>
        </g>
        <g id="Group-Copy-3" transform="translate(332.000000, 62.000000)" stroke="#FEFEFE" fill="#000000">
            <polygon id="Stroke-5-Copy" points="34 20.928813 67.3365616 0 100.670758 20.928813 67.3365616 41.855251"></polygon>
            <polygon id="Stroke-5-Copy-6" points="0 41.928813 33.3365616 21 66.6707584 41.928813 33.3365616 62.855251"></polygon>
            <polygon id="Stroke-5-Copy-5" points="68 41.928813 101.336562 21 134.670758 41.928813 101.336562 62.855251"></polygon>
        </g>
        <g id="Group-Copy-14" transform="translate(434.000000, 104.000000)" stroke="#FEFEFE">
            <polygon id="Stroke-5-Copy" points="0 20.928813 33.3365616 0 66.6707584 20.928813 33.3365616 41.855251"></polygon>
            <polygon id="Stroke-5-Copy-5" fill="#000000" points="34 41.928813 67.3365616 21 100.670758 41.928813 67.3365616 62.855251"></polygon>
        </g>
        <g id="Group-Copy-18" transform="translate(434.000000, 62.000000)" stroke="#FEFEFE" fill="#000000">
            <polygon id="Stroke-5-Copy-6" points="0 20.928813 33.3365616 0 66.6707584 20.928813 33.3365616 41.855251"></polygon>
            <polygon id="Stroke-5-Copy-7" points="34 41.928813 67.3365616 21 100.670758 41.928813 67.3365616 62.855251"></polygon>
            <polygon id="Stroke-5-Copy-5" points="67 20.928813 100.336562 0 133.670758 20.928813 100.336562 41.855251"></polygon>
        </g>
        <g id="Group-Copy-20" transform="translate(468.000000, 20.000000)" stroke="#FEFEFE" fill="#000000">
            <polygon id="Stroke-5-Copy-7" points="0 41.928813 33.3365616 21 66.6707584 41.928813 33.3365616 62.855251"></polygon>
            <polygon id="Stroke-5-Copy-5" points="33 20.928813 66.3365616 3.55271368e-15 99.6707584 20.928813 66.3365616 41.855251"></polygon>
        </g>
        <g id="Group-Copy-17" transform="translate(501.000000, 104.000000)" stroke="#FEFEFE">
            <polygon id="Stroke-5-Copy-6" points="0 20.928813 33.3365616 3.55271368e-15 66.6707584 20.928813 33.3365616 41.855251"></polygon>
            <polygon id="Stroke-5-Copy-7" points="34 41.928813 67.3365616 21 100.670758 41.928813 67.3365616 62.855251"></polygon>
            <polygon id="Stroke-5-Copy-10" points="67 62.928813 100.336562 42 133.670758 62.928813 100.336562 83.855251"></polygon>
        </g>
        <g id="Group-Copy-5" transform="translate(333.000000, 41.000000)" stroke="#FEFEFE" fill="#000000">
            <polygon id="Stroke-5-Copy" points="0 20.928813 33.3365616 0 66.6707584 20.928813 33.3365616 41.855251"></polygon>
        </g>
        <g id="Group-Copy-9" transform="translate(99.000000, 62.000000)" stroke="#FEFEFE" fill="#000000">
            <polygon id="Stroke-5-Copy" points="0 20.928813 33.3365616 0 66.6707584 20.928813 33.3365616 41.855251"></polygon>
            <polygon id="Stroke-5-Copy-7" points="1 62.928813 34.3365616 42 67.6707584 62.928813 34.3365616 83.855251"></polygon>
            <polygon id="Stroke-5-Copy-5" points="34 41.928813 67.3365616 21 100.670758 41.928813 67.3365616 62.855251"></polygon>
        </g>
        <g id="Group-Copy-19" transform="translate(31.000000, 0.000000)" stroke="#FEFEFE" fill="#000000">
            <polygon id="Stroke-5-Copy" points="0 20.928813 33.3365616 0 66.6707584 20.928813 33.3365616 41.855251"></polygon>
            <polygon id="Stroke-5-Copy-7" points="1 82.928813 34.3365616 62 67.6707584 82.928813 34.3365616 103.855251"></polygon>
            <polygon id="Stroke-5-Copy-5" points="34 61.928813 67.3365616 41 100.670758 61.928813 67.3365616 82.855251"></polygon>
            <polygon id="Stroke-5-Copy-11" points="67 40.928813 100.336562 20 133.670758 40.928813 100.336562 61.855251"></polygon>
        </g>
        <g id="Group-Copy-13" transform="translate(99.000000, 125.000000)" stroke="#FEFEFE" fill="#000000">
            <polygon id="Stroke-5-Copy" points="33 20.928813 66.3365616 0 99.6707584 20.928813 66.3365616 41.855251"></polygon>
            <polygon id="Stroke-5-Copy-6" points="0 41.928813 33.3365616 21 66.6707584 41.928813 33.3365616 62.855251"></polygon>
        </g>
        <polygon id="Stroke-5-Copy-8" stroke="#FEFEFE" fill="#000000" points="332 145.928813 365.336562 125 398.670758 145.928813 365.336562 166.855251"></polygon>
    </g>
</svg>
