
<svg width="141px" height="66px" viewBox="373 1393 141 66" version="1.1" xmlns="http://www.w3.org/2000/svg" xmlns:xlink="http://www.w3.org/1999/xlink">
    <!-- Generator: Sketch 42 (36781) - http://www.bohemiancoding.com/sketch -->
    <desc>Created with Sketch.</desc>
    <defs>
        <linearGradient x1="100%" y1="100%" x2="0%" y2="0%" id="linearGradient-1">
            <stop stop-color="#06A2FF" offset="0%"></stop>
            <stop stop-color="#1AE5DC" offset="100%"></stop>
        </linearGradient>
    </defs>
    <g id="Cube-divider" stroke="none" stroke-width="1" fill="none" fill-rule="evenodd" transform="translate(374.000000, 1394.000000)">
        <g id="Smaller-cubes" transform="translate(0.000000, 16.000000)" stroke-linecap="round" stroke-linejoin="round">
            <path d="M60.8360952,20.7141884 L50.3362069,14.1230689 L71.3364304,0.939053254 L92.3351641,14.1230689 L91.0746681,14.9143791 L92.3362069,14.1224704 L92.3362069,35.2121078 L71.3359834,48.3961235 L50.3362069,35.2127063 L50.3362069,14.1230689 L60.8360952,20.7141884 Z M71.3359834,27.3053079 L71.3359834,48.3949452 L71.3364304,27.3055884 Z M60.8360952,20.7141884 L71.3364304,27.3055884 L91.0746681,14.9143791 L71.3359834,27.3049899 L60.8360952,20.7141884 Z" id="Combined-Shape-Copy-7" stroke="#161D26" fill="url(#linearGradient-1)"></path>
            <path d="M117.167424,24.4988839 L110,19.9996602 L124.335153,11 L138.669288,19.9996602 L137.80885,20.5398237 L138.67,19.9992517 L138.67,34.3954399 L124.334848,43.3951001 L110,34.3958484 L110,19.9996602 L117.167424,24.4988839 Z M124.334848,28.9981077 L124.334848,43.3942959 L124.335153,28.9982992 Z M117.167424,24.4988839 L124.335153,28.9982992 L137.80885,20.5398237 L124.334848,28.9978906 L117.167424,24.4988839 Z" id="Combined-Shape-Copy-3" stroke="url(#linearGradient-1)" fill="#161D26"></path>
            <path d="M7.16742375,24.4988839 L0,19.9996602 L14.3351526,11 L28.6692883,19.9996602 L27.8088497,20.5398237 L28.6700001,19.9992517 L28.6700001,34.3954399 L14.3348475,43.3951001 L0,34.3958484 L0,19.9996602 L7.16742375,24.4988839 Z M14.3348475,28.9981077 L14.3348475,43.3942959 L14.3351526,28.9982992 Z M7.16742375,24.4988839 L14.3351526,28.9982992 L27.8088497,20.5398237 L14.3348475,28.9978906 L7.16742375,24.4988839 Z" id="Combined-Shape-Copy-4" stroke="url(#linearGradient-1)" fill="#161D26"></path>
        </g>
        <g id="Group-3" transform="translate(70.000000, 0.000000)" stroke="url(#linearGradient-1)" opacity="0.57591712">
            <path d="M1.4609375,0.15625 L1.4609375,12.8962498" id="Path-3-Copy-2"></path>
            <path d="M14.3959374,6.21063006 L9.52593756,14.6457173" id="Path-3-Copy-4"></path>
            <path d="M23.4045474,14.9845637 L17.9315411,20.4575701" id="Path-3-Copy-6"></path>
            <path d="M30.6649962,27.167725 L24.1546563,28.9121653" id="Path-3-Copy-5"></path>
        </g>
        <g id="Group-3-Copy" transform="translate(53.000000, 17.500000) scale(-1, 1) translate(-53.000000, -17.500000) translate(42.000000, 6.000000)" stroke="url(#linearGradient-1)" opacity="0.57591712">
            <path d="M5.39593744,0.210630057 L0.525937557,8.64571729" id="Path-3-Copy-4"></path>
            <path d="M14.4045474,8.98456373 L8.93154112,14.4575701" id="Path-3-Copy-6"></path>
            <path d="M21.6649962,21.167725 L15.1546563,22.9121653" id="Path-3-Copy-5"></path>
        </g>
    </g>
</svg>
