
<svg width="46px" height="57px" viewBox="536 751 46 57" version="1.1" xmlns="http://www.w3.org/2000/svg" xmlns:xlink="http://www.w3.org/1999/xlink">
    <!-- Generator: Sketch 42 (36781) - http://www.bohemiancoding.com/sketch -->
    <desc>Created with Sketch.</desc>
    <defs>
        <linearGradient x1="100%" y1="100%" x2="0%" y2="0%" id="linearGradient-1">
            <stop stop-color="#06A2FF" offset="0%"></stop>
            <stop stop-color="#1AE5DC" offset="100%"></stop>
        </linearGradient>
    </defs>
    <g id="Group-2" stroke="none" stroke-width="1" fill="none" fill-rule="evenodd" transform="translate(537.000000, 752.000000)" stroke-linecap="round" stroke-linejoin="round">
        <path d="M7.16742375,36.4988839 L0,31.9996602 L14.3351526,23 L28.6692883,31.9996602 L27.8088497,32.5398237 L28.6700001,31.9992517 L28.6700001,46.3954399 L14.3348475,55.3951001 L0,46.3958484 L0,31.9996602 L7.16742375,36.4988839 Z M14.3348475,40.9981077 L14.3348475,55.3942959 L14.3351526,40.9982992 Z M7.16742375,36.4988839 L14.3351526,40.9982992 L27.8088497,32.5398237 L14.3348475,40.9978906 L7.16742375,36.4988839 Z" id="Combined-Shape-Copy-3" stroke="url(#linearGradient-1)" fill="#161D26"></path>
        <path d="M22.1674238,13.4988839 L15,8.99966023 L29.3351526,0 L43.6692883,8.99966023 L42.8088497,9.53982366 L43.6700001,8.99925171 L43.6700001,23.3954399 L29.3348475,32.3951001 L15,23.3958484 L15,8.99966023 L22.1674238,13.4988839 Z M29.3348475,17.9981077 L29.3348475,32.3942959 L29.3351526,17.9982992 Z M22.1674238,13.4988839 L29.3351526,17.9982992 L42.8088497,9.53982366 L29.3348475,17.9978906 L22.1674238,13.4988839 Z" id="Combined-Shape-Copy-9" stroke="url(#linearGradient-1)" fill="#161D26"></path>
    </g>
</svg>
