
<svg width="549px" height="359px" viewBox="476 304 549 359" version="1.1" xmlns="http://www.w3.org/2000/svg" xmlns:xlink="http://www.w3.org/1999/xlink">
    <!-- Generator: Sketch 42 (36781) - http://www.bohemiancoding.com/sketch -->
    <desc>Created with Sketch.</desc>
    <defs>
        <linearGradient x1="-1.14613181%" y1="49.9901999%" x2="101.146132%" y2="49.9901999%" id="linearGradient-1">
            <stop stop-color="#17A9F9" offset="0%"></stop>
            <stop stop-color="#26D8E2" offset="100%"></stop>
        </linearGradient>
        <linearGradient x1="18673%" y1="19553%" x2="27519%" y2="19553%" id="linearGradient-2">
            <stop stop-color="#17A9F9" offset="0%"></stop>
            <stop stop-color="#26D8E2" offset="100%"></stop>
        </linearGradient>
        <linearGradient x1="22946%" y1="23178%" x2="23146%" y2="23178%" id="linearGradient-3">
            <stop stop-color="#17A9F9" offset="0%"></stop>
            <stop stop-color="#26D8E2" offset="100%"></stop>
        </linearGradient>
        <linearGradient x1="18646%" y1="13813%" x2="27571%" y2="13813%" id="linearGradient-4">
            <stop stop-color="#17A9F9" offset="0%"></stop>
            <stop stop-color="#26D8E2" offset="100%"></stop>
        </linearGradient>
        <linearGradient x1="18673%" y1="12953%" x2="27519%" y2="12953%" id="linearGradient-5">
            <stop stop-color="#17A9F9" offset="0%"></stop>
            <stop stop-color="#26D8E2" offset="100%"></stop>
        </linearGradient>
        <linearGradient x1="22946%" y1="16578%" x2="23146%" y2="16578%" id="linearGradient-6">
            <stop stop-color="#17A9F9" offset="0%"></stop>
            <stop stop-color="#26D8E2" offset="100%"></stop>
        </linearGradient>
        <linearGradient x1="18646%" y1="7213%" x2="27571%" y2="7213%" id="linearGradient-7">
            <stop stop-color="#17A9F9" offset="0%"></stop>
            <stop stop-color="#26D8E2" offset="100%"></stop>
        </linearGradient>
        <linearGradient x1="18673%" y1="6353%" x2="27519%" y2="6353%" id="linearGradient-8">
            <stop stop-color="#17A9F9" offset="0%"></stop>
            <stop stop-color="#26D8E2" offset="100%"></stop>
        </linearGradient>
        <linearGradient x1="22946%" y1="9978%" x2="23146%" y2="9978%" id="linearGradient-9">
            <stop stop-color="#17A9F9" offset="0%"></stop>
            <stop stop-color="#26D8E2" offset="100%"></stop>
        </linearGradient>
        <linearGradient x1="0%" y1="0%" x2="100%" y2="0%" id="linearGradient-10">
            <stop stop-color="#FD2D68" offset="0%"></stop>
            <stop stop-color="#FE593F" offset="100%"></stop>
        </linearGradient>
        <linearGradient x1="29146%" y1="14528%" x2="42346%" y2="14528%" id="linearGradient-11">
            <stop stop-color="#FD2D68" offset="0%"></stop>
            <stop stop-color="#FE593F" offset="100%"></stop>
        </linearGradient>
        <linearGradient x1="29146%" y1="21528%" x2="42346%" y2="21528%" id="linearGradient-12">
            <stop stop-color="#FD2D68" offset="0%"></stop>
            <stop stop-color="#FE593F" offset="100%"></stop>
        </linearGradient>
        <linearGradient x1="6454%" y1="-3906%" x2="6454%" y2="-7006%" id="linearGradient-13">
            <stop stop-color="#17A9F9" offset="0%"></stop>
            <stop stop-color="#26D8E2" offset="100%"></stop>
        </linearGradient>
        <linearGradient x1="6454%" y1="-606%" x2="6454%" y2="-3506%" id="linearGradient-14">
            <stop stop-color="#17A9F9" offset="0%"></stop>
            <stop stop-color="#26D8E2" offset="100%"></stop>
        </linearGradient>
    </defs>
    <g id="Grid" opacity="0.196582889" stroke="none" stroke-width="1" fill="none" fill-rule="evenodd" transform="translate(477.000000, 326.000000)" stroke-linecap="round" stroke-linejoin="round">
        <polygon id="Stroke-5" stroke="#FEFEFE" fill="#000000" points="200 41.928813 233.336562 21 266.670758 41.928813 233.336562 62.855251"></polygon>
        <polygon id="Stroke-5-Copy-3" stroke="#FEFEFE" fill="#000000" points="166 20.928813 199.336562 0 232.670758 20.928813 199.336562 41.855251"></polygon>
        <g id="Group" transform="translate(233.000000, 42.000000)" stroke="#FEFEFE">
            <polygon id="Stroke-5-Copy" fill="#000000" points="0 20.928813 33.3365616 0 66.6707584 20.928813 33.3365616 41.855251"></polygon>
            <polygon id="Stroke-5-Copy-7" fill="#000000" points="0 62.928813 33.3365616 42 66.6707584 62.928813 33.3365616 83.855251"></polygon>
            <polygon id="Stroke-5-Copy-5" points="33 41.928813 66.3365616 21 99.6707584 41.928813 66.3365616 62.855251"></polygon>
        </g>
        <g id="Group-Copy-4" transform="translate(133.670758, 105.000000)" stroke="#FEFEFE" fill="#000000">
            <polygon id="Stroke-5-Copy-6" points="0 20.928813 33.3365616 -3.55271368e-15 66.6707584 20.928813 33.3365616 41.855251"></polygon>
            <polygon id="Stroke-5-Copy-5" points="66 20.928813 99.3365616 -3.55271368e-15 132.670758 20.928813 99.3365616 41.855251"></polygon>
        </g>
        <g id="Group-Copy-11" transform="translate(67.000000, 126.000000)" stroke="#FEFEFE">
            <polygon id="Stroke-5-Copy" points="33 20.928813 66.3365616 0 99.6707584 20.928813 66.3365616 41.855251"></polygon>
            <polygon id="Stroke-5-Copy-6" fill="#000000" points="0 41.928813 33.3365616 21 66.6707584 41.928813 33.3365616 62.855251"></polygon>
        </g>
        <g id="Group-Copy-16" transform="translate(33.000000, 63.000000)" stroke="#FEFEFE" fill="#000000">
            <polygon id="Stroke-5-Copy" points="33 20.928813 66.3365616 0 99.6707584 20.928813 66.3365616 41.855251"></polygon>
            <polygon id="Stroke-5-Copy-6" points="0 41.928813 33.3365616 21 66.6707584 41.928813 33.3365616 62.855251"></polygon>
            <polygon id="Stroke-5-Copy-7" points="34 62.928813 67.3365616 42 100.670758 62.928813 67.3365616 83.855251"></polygon>
            <polygon id="Stroke-5-Copy-5" points="67 41.928813 100.336562 21 133.670758 41.928813 100.336562 62.855251"></polygon>
        </g>
        <g id="Group-Copy-22" transform="translate(0.000000, 189.000000)" stroke="#FEFEFE" fill="#000000">
            <polygon id="Stroke-5-Copy-6" points="0 20.928813 33.3365616 -3.55271368e-15 66.6707584 20.928813 33.3365616 41.855251"></polygon>
            <polygon id="Stroke-5-Copy-13" points="100 83.928813 133.336562 63 166.670758 83.928813 133.336562 104.855251"></polygon>
            <polygon id="Stroke-5-Copy-14" points="100 125.928813 133.336562 105 166.670758 125.928813 133.336562 146.855251"></polygon>
        </g>
        <g id="Group-Copy-13" transform="translate(132.000000, 21.000000)" stroke="#FEFEFE" fill="#000000">
            <polygon id="Stroke-5-Copy" points="0 20.928813 33.3365616 0 66.6707584 20.928813 33.3365616 41.855251"></polygon>
        </g>
        <polygon id="Stroke-5-Copy-2" stroke="#FEFEFE" fill="#000000" points="266 41.928813 299.336562 21 332.670758 41.928813 299.336562 62.855251"></polygon>
        <polygon id="Stroke-5-Copy-4" stroke="#FEFEFE" fill="#000000" points="299 20.928813 332.336562 0 365.670758 20.928813 332.336562 41.855251"></polygon>
        <polygon id="Stroke-5-Copy-8" stroke="#FEFEFE" fill="#000000" points="332 41.928813 365.336562 21 398.670758 41.928813 365.336562 62.855251"></polygon>
    </g>
    <g id="Gruntwork_Illustrations-04" stroke="none" stroke-width="1" fill="none" fill-rule="evenodd" transform="translate(600.000000, 304.000000)">
        <polygon id="Shape" stroke="#495058" stroke-width="2" fill="#171D26" fill-rule="nonzero" points="146.63 227.23 75.08 269.04 5.54 227.5 76.05 184.42"></polygon>
        <path d="M17.8,115.62 C17.8,115.62 11.8,145.62 19.8,182.62 L23.47,177.62 C23.3305517,187.375178 24.364641,197.111733 26.55,206.62 L30.13,204 L32.96,222 C34.0192757,228.755955 39.8415079,233.733709 46.68,233.73 L46.68,233.73 C53.0277111,233.729056 58.5659387,229.422004 60.13,223.27 L64.47,206.27 C72.4767014,208.93941 81.1332986,208.93941 89.14,206.27 L93.48,223.27 C95.0440613,229.422004 100.582289,233.729056 106.93,233.73 L106.93,233.73 C113.768492,233.733709 119.590724,228.755955 120.65,222 L123.48,204 L127.06,206.58 C129.245359,197.071733 130.279448,187.335178 130.14,177.58 L133.81,182.58 C141.81,145.58 135.81,115.58 135.81,115.58 C135.81,115.58 135.14,85.25 130.14,70.5 C126.3,59.18 115.14,48.75 115.14,48.75 L119.14,48.75 C110.65,40.3 99.26,36 90.43,33.9 C81.469186,31.7326965 72.120814,31.7326965 63.16,33.9 C54.33,36 42.95,40.3 34.46,48.78 L38.46,48.78 C38.46,48.78 28.13,59.53 23.46,70.53 C23.46,70.53 15.64,84.78 17.8,115.62 Z" id="Shape" fill="#FFFFFF" fill-rule="nonzero"></path>
        <circle id="Oval" fill="#171D26" fill-rule="nonzero" cx="50.13" cy="76.62" r="4"></circle>
        <circle id="Oval" fill="#171D26" fill-rule="nonzero" cx="103.46" cy="76.62" r="4"></circle>
        <path d="M46.46,90.78 L46.46,90.78 C64.7512265,103.745593 89.1220654,104.166396 107.85,91.84 L109.46,90.78" id="Shape" stroke="#171D26" stroke-width="4" stroke-linecap="round"></path>
        <path d="M113.41,161.18 C122.3,158.93 126.33,156.52 126.33,156.52 C156.66,144.46 147.33,120.72 147.33,120.72 C147.18,120.02 146.98,119.29 146.75,118.53 C144.92,112.65 139.28,101.14 133.75,91.67 C132.093261,102.417803 129.068724,112.909585 124.75,122.89 C122.049327,125.841625 118.632419,128.046082 114.83,129.29 C105.05,133.71 92.59,131.43 92.59,131.43 L95.38,134.43 C84.0907429,133.710632 73.0108727,131.044697 62.63,126.55 L62.26,131.55 C62.26,131.55 53.17,124.55 42.01,122.55 C30.85,120.55 19.88,133.89 25.64,147 C31.4,160.11 55.83,155.71 55.83,155.71 L52.83,158.82 C63.15,159.96 85.23,161.82 85.23,161.82 L82.23,164.93 C92.7568558,164.849239 103.240565,163.574419 113.48,161.13" id="Shape" fill="#FFFFFF" fill-rule="nonzero"></path>
        <path d="M94.4,137.22 C83.3894504,136.488664 72.5762533,133.937426 62.4,129.67 L62.63,126.5 C73.0108727,130.994697 84.0907429,133.660632 95.38,134.38 L92.59,131.38 C92.59,131.38 105.05,133.66 114.83,129.24 C125.66,125.57 128.18,117.24 128.06,114.37 L128.06,114.49 C128.361866,121.946497 124.170838,128.859331 117.42,132.04 C110.185406,135.333934 102.348229,137.097469 94.4,137.22 Z" id="Shape" fill="#E6E6E6" fill-rule="nonzero"></path>
        <path d="M61.28,134.36 C61.28,134.36 52.19,127.36 41.03,125.36 C34.23,124.14 27.51,128.63 24.59,135.28 C26.65,127.12 34.28,121.14 42,122.52 C51.3,124.18 59.16,129.33 61.52,131 L61.28,134.36 Z" id="Shape" fill="#E6E6E6" fill-rule="nonzero"></path>
        <path d="M31.79,161.45 C23.19,158.26 19.45,155.45 19.45,155.45 C-9.42,140.22 2.45,117.6 2.45,117.6 C2.67,116.92 2.95,116.21 3.26,115.48 C5.66,109.81 12.5,99 19,90.15 C19.4950036,101.011765 21.3769328,111.765646 24.6,122.15 C26.9691569,125.375831 30.1312588,127.935136 33.78,129.58 C43.03,135.02 55.67,134.09 55.67,134.09 L52.58,136.73 C63.8863407,137.224599 75.1930303,135.759669 86,132.4 L85.83,137.4 C85.83,137.4 95.62,131.4 106.93,130.61 C118.24,129.82 127.72,144.28 120.58,156.72 C113.44,169.16 89.63,162.15 89.63,162.15 L92.32,165.57 C81.94,165.57 59.78,165.12 59.78,165.12 L62.47,168.54 C52.0102627,167.334402 41.7211083,164.945788 31.8,161.42" id="Shape" fill="#FFFFFF" fill-rule="nonzero"></path>
        <path d="M53.25,139.65 C64.2773976,140.102503 75.3035301,138.723814 85.88,135.57 L86,132.4 C75.1993984,135.757378 63.8996742,137.222282 52.6,136.73 L55.69,134.09 C55.69,134.09 43,135 33.79,129.58 C23.41,124.78 21.79,116.2 22.23,113.38 L22.23,113.5 C21.130841,120.881923 24.557815,128.204618 30.93,132.09 C37.7706928,136.118649 45.369141,138.692317 53.25,139.65 Z" id="Shape" fill="#E6E6E6" fill-rule="nonzero"></path>
        <path d="M86.49,140.36 C86.49,140.36 96.28,134.36 107.59,133.57 C114.48,133.09 120.68,138.27 122.87,145.2 C121.7,136.86 114.75,130.1 106.92,130.65 C97.49,131.31 89.13,135.59 86.6,136.99 L86.49,140.36 Z" id="Shape" fill="#E6E6E6" fill-rule="nonzero"></path>
        <path d="M15.79,153.45 C15.79,153.45 27.01,159.74 45.88,159.14 C45.88,159.14 27.77,162.2 16.35,158.47 L15.79,153.45 Z" id="Shape" fill="#E6E6E6" fill-rule="nonzero"></path>
        <path d="M138,149.92 C138,149.92 128.68,158.79 110.26,162.92 C110.26,162.92 127.33,161.92 137.47,155.46 L138,149.92 Z" id="Shape" fill="#E6E6E6" fill-rule="nonzero"></path>
        <polygon id="Shape" stroke="url(#linearGradient-1)" stroke-width="2" fill="#171D26" fill-rule="nonzero" points="274.71 228.62 230.46 256.16 187.46 228.62 187.46 182.62 231.06 154.12 274.66 182.62"></polygon>
        <polyline id="Shape" stroke="url(#linearGradient-2)" stroke-width="2" fill="#171D26" fill-rule="nonzero" points="274.66 182.62 230.46 210.11 187.27 182.62"></polyline>
        <path d="M230.46,210.28 L230.46,255.28" id="Shape" stroke="url(#linearGradient-3)" stroke-width="2" fill="#171D26" fill-rule="nonzero"></path>
        <polygon id="Shape" stroke="url(#linearGradient-4)" stroke-width="2" fill="#171D26" fill-rule="nonzero" points="274.71 162.62 230.46 190.16 187.46 162.62 187.46 116.62 231.06 88.12 274.66 116.62"></polygon>
        <polyline id="Shape" stroke="url(#linearGradient-5)" stroke-width="2" fill="#171D26" fill-rule="nonzero" points="274.66 116.62 230.46 144.11 187.27 116.62"></polyline>
        <path d="M230.46,144.28 L230.46,189.28" id="Shape" stroke="url(#linearGradient-6)" stroke-width="2" fill="#171D26" fill-rule="nonzero"></path>
        <polygon id="Shape" stroke="url(#linearGradient-7)" stroke-width="2" fill="#171D26" fill-rule="nonzero" points="274.71 96.62 230.46 124.16 187.46 96.62 187.46 50.62 231.06 22.12 274.66 50.62"></polygon>
        <polyline id="Shape" stroke="url(#linearGradient-8)" stroke-width="2" fill="#171D26" fill-rule="nonzero" points="274.66 50.62 230.46 78.11 187.27 50.62"></polyline>
        <path d="M230.46,78.28 L230.46,123.28" id="Shape" stroke="url(#linearGradient-9)" stroke-width="2" fill="#171D26" fill-rule="nonzero"></path>
        <path d="M291.46,76.28 L423.46,76.28" id="Shape" stroke="url(#linearGradient-10)" stroke-width="2"></path>
        <path d="M341.69,53.47 C341.845172,55.7689358 341.024757,58.0268904 339.43,59.69 C337.923333,61.1233333 335.756667,61.84 332.93,61.84 L328.34,61.84 L328.34,45.42 L333.42,45.42 C335.653196,45.2828754 337.848818,46.0423449 339.52,47.53 C341.039904,49.1208311 341.826516,51.274046 341.69,53.47 Z M338.86,53.56 C338.86,49.6266667 337.023333,47.66 333.35,47.66 L331,47.66 L331,59.58 L332.91,59.58 C336.876667,59.58 338.86,57.5733333 338.86,53.56 Z" id="Shape" fill="#FFFFFF" fill-rule="nonzero"></path>
        <path d="M359.79,53.6 C359.928565,55.8540413 359.214677,58.0778024 357.79,59.83 C354.569281,62.7874869 349.620719,62.7874869 346.4,59.83 C344.965681,58.0674393 344.2512,55.8275429 344.4,53.56 C344.248836,51.3013421 344.964023,49.0699589 346.4,47.32 C347.901928,45.8006993 349.987858,45.0057122 352.12,45.14 C354.239462,45.0110276 356.308698,45.8189801 357.78,47.35 C359.213074,49.1059227 359.930876,51.3378951 359.79,53.6 L359.79,53.6 Z M347.26,53.6 C347.146034,55.2261283 347.575143,56.8440813 348.48,58.2 C349.423672,59.190459 350.731963,59.7510001 352.1,59.7510001 C353.468037,59.7510001 354.776328,59.190459 355.72,58.2 C356.628468,56.8382271 357.057705,55.2127537 356.94,53.58 C357.050163,51.9619192 356.624975,50.3525314 355.73,49 C354.854082,47.9268397 353.512003,47.3452719 352.13,47.44 C350.736875,47.3471813 349.383562,47.9271724 348.49,49 C347.576678,50.3524361 347.143563,51.9722154 347.26,53.6 Z" id="Shape" fill="#FFFFFF" fill-rule="nonzero"></path>
        <path d="M370.3,47.48 C368.894832,47.4163325 367.543258,48.0252833 366.66,49.12 C365.70901,50.4317359 365.242492,52.0327415 365.34,53.65 C365.223635,55.2742103 365.672304,56.8887124 366.61,58.22 C367.529904,59.2853194 368.895281,59.8588518 370.3,59.77 C370.972153,59.7696994 371.642444,59.6993189 372.3,59.56 C372.966667,59.42 373.633333,59.2433333 374.3,59.03 L374.3,61.33 C372.896264,61.8366057 371.412163,62.0839558 369.92,62.06 C367.840935,62.1939625 365.810242,61.394881 364.38,59.88 C362.987681,58.1060913 362.300291,55.880087 362.45,53.63 C362.416338,52.0844063 362.73793,50.5517122 363.39,49.15 C363.972501,47.9166517 364.918079,46.8908221 366.1,46.21 C367.376691,45.51268 368.815905,45.1675445 370.27,45.21 C371.905956,45.1742257 373.527045,45.5272324 375,46.24 L374,48.47 C373.429035,48.2018037 372.841108,47.9713099 372.24,47.78 C371.612868,47.5797263 370.958333,47.4785094 370.3,47.48 Z" id="Shape" fill="#FFFFFF" fill-rule="nonzero"></path>
        <path d="M390.43,61.84 L387.32,61.84 L382.17,54.41 L380.59,55.7 L380.59,61.84 L377.91,61.84 L377.91,45.42 L380.59,45.42 L380.59,53.26 C381.323333,52.36 382.053333,51.4966667 382.78,50.67 L387.22,45.43 L390.27,45.43 C387.403333,48.7966667 385.346667,51.1966667 384.1,52.63 L390.43,61.84 Z" id="Shape" fill="#FFFFFF" fill-rule="nonzero"></path>
        <polygon id="Shape" fill="#FFFFFF" fill-rule="nonzero" points="401.88 61.84 392.59 61.84 392.59 45.42 401.88 45.42 401.88 47.69 395.28 47.69 395.28 52.16 401.47 52.16 401.47 54.4 395.28 54.4 395.28 59.55 401.88 59.55"></polygon>
        <path d="M408.11,55.28 L408.11,61.84 L405.43,61.84 L405.43,45.42 L410.07,45.42 C411.727783,45.2921761 413.381878,45.7100898 414.78,46.61 C415.837619,47.4910106 416.406964,48.8269247 416.31,50.2 C416.342229,52.2057091 415.040127,53.9894664 413.12,54.57 L417.76,61.84 L414.71,61.84 L410.78,55.28 L408.11,55.28 Z M408.11,53.06 L410,53.06 C410.959728,53.140853 411.918532,52.894102 412.72,52.36 C413.305962,51.8376736 413.616285,51.0729486 413.56,50.29 C413.630992,49.5094359 413.285122,48.7492825 412.65,48.29 C411.813653,47.8291984 410.862844,47.6175219 409.91,47.68 L408.14,47.68 L408.11,53.06 Z" id="Shape" fill="#FFFFFF" fill-rule="nonzero"></path>
        <path d="M291.46,146.28 L423.46,146.28" id="Shape" stroke="url(#linearGradient-11)" stroke-width="2"></path>
        <path d="M386.45,115.42 L389.24,115.42 L383.49,131.84 L380.66,131.84 L374.93,115.42 L377.69,115.42 L381.11,125.63 C381.29,126.116667 381.48,126.743333 381.68,127.51 C381.88,128.276667 382.01,128.846667 382.07,129.22 C382.17,128.653333 382.32,127.986667 382.52,127.22 C382.72,126.453333 382.883333,125.9 383.01,125.56 L386.45,115.42 Z" id="Shape" fill="#FFFFFF" fill-rule="nonzero"></path>
        <path d="M402.27,120.38 C402.35864,121.886203 401.732426,123.346133 400.58,124.32 C399.188945,125.31507 397.496842,125.799032 395.79,125.69 L394.08,125.69 L394.08,131.83 L391.4,131.83 L391.4,115.42 L396.13,115.42 C397.765621,115.29963 399.39299,115.74442 400.74,116.68 C401.798226,117.607872 402.363853,118.975728 402.27,120.38 Z M394.08,123.44 L395.51,123.44 C396.560243,123.514163 397.607815,123.262746 398.51,122.72 C399.196938,122.183103 399.571798,121.339669 399.51,120.47 C399.570975,119.67058 399.252428,118.889029 398.65,118.36 C397.853732,117.831007 396.902984,117.584517 395.95,117.66 L394.09,117.66 L394.08,123.44 Z" id="Shape" fill="#FFFFFF" fill-rule="nonzero"></path>
        <path d="M412.54,117.48 C411.134832,117.416332 409.783258,118.025283 408.9,119.12 C407.166074,121.905545 407.166074,125.434455 408.9,128.22 C409.819904,129.285319 411.185281,129.858852 412.59,129.77 C413.262153,129.769699 413.932444,129.699319 414.59,129.56 C415.256667,129.42 415.923333,129.243333 416.59,129.03 L416.59,131.33 C415.186207,131.83639 413.702147,132.083734 412.21,132.06 C410.12935,132.191406 408.098407,131.38856 406.67,129.87 C405.276828,128.096538 404.589335,125.870199 404.74,123.62 C404.706338,122.074406 405.02793,120.541712 405.68,119.14 C406.262501,117.906652 407.208079,116.880822 408.39,116.2 C409.666691,115.50268 411.105905,115.157545 412.56,115.2 C414.171423,115.186156 415.763777,115.549144 417.21,116.26 L416.21,118.49 C415.639035,118.221804 415.051108,117.99131 414.45,117.8 C413.833516,117.595996 413.189311,117.488067 412.54,117.48 L412.54,117.48 Z" id="Shape" fill="#FFFFFF" fill-rule="nonzero"></path>
        <path d="M291.46,216.28 L423.46,216.28" id="Shape" stroke="url(#linearGradient-12)" stroke-width="2"></path>
        <path d="M380.71,201.84 L379.07,197.28 L372.79,197.28 L371.18,201.84 L368.35,201.84 L374.49,185.35 L377.41,185.35 L383.55,201.84 L380.71,201.84 Z M378.36,195 L376.82,190.53 C376.706667,190.23 376.55,189.76 376.35,189.12 C376.15,188.48 376.013333,188.006667 375.94,187.7 C375.705594,188.717426 375.408357,189.719346 375.05,190.7 L373.58,195 L378.36,195 Z" id="Shape" fill="#FFFFFF" fill-rule="nonzero"></path>
        <path d="M400.88,201.84 L398,201.84 L395.18,192 C395.06,191.573333 394.91,190.956667 394.73,190.15 C394.55,189.343333 394.44,188.783333 394.4,188.47 C394.326667,188.95 394.203333,189.573333 394.03,190.34 C393.856667,191.106667 393.716667,191.676667 393.61,192.05 L390.89,201.8 L388,201.8 L385.88,193.58 L383.72,185.38 L386.46,185.38 L388.81,194.95 C389.141404,196.292563 389.405071,197.650946 389.6,199.02 C389.68,198.353333 389.803333,197.643333 389.97,196.89 C390.136667,196.136667 390.286667,195.5 390.42,194.98 L393.09,185.39 L395.75,185.39 L398.49,195.03 C398.842157,196.346548 399.119269,197.682031 399.32,199.03 C399.491518,197.648998 399.762217,196.282133 400.13,194.94 L402.47,185.39 L405.19,185.39 L400.88,201.84 Z" id="Shape" fill="#FFFFFF" fill-rule="nonzero"></path>
        <path d="M417,197.38 C417.060787,198.714737 416.472108,199.996418 415.42,200.82 C414.14666,201.718977 412.606124,202.159634 411.05,202.07 C409.483944,202.126243 407.925342,201.828879 406.49,201.2 L406.49,198.66 C407.256152,199.017755 408.05702,199.295881 408.88,199.49 C409.648869,199.681751 410.437617,199.782442 411.23,199.79 C412.059372,199.853655 412.886298,199.639007 413.58,199.18 C414.077116,198.787638 414.359025,198.183016 414.34,197.55 C414.351912,196.95144 414.095057,196.379022 413.64,195.99 C412.768216,195.337141 411.799903,194.824307 410.77,194.47 C409.554772,194.055214 408.464261,193.339673 407.6,192.39 C406.978375,191.5875 406.653346,190.594748 406.68,189.58 C406.627531,188.332845 407.169151,187.134602 408.14,186.35 C409.27023,185.513862 410.656015,185.096713 412.06,185.17 C413.676172,185.170657 415.274121,185.511371 416.75,186.17 L415.9,188.36 C414.670099,187.79846 413.341254,187.48579 411.99,187.44 C411.276696,187.385461 410.567381,187.587615 409.99,188.01 C409.545992,188.378935 409.298457,188.933119 409.32,189.51 C409.308065,189.894421 409.401429,190.274794 409.59,190.61 C409.817741,190.960343 410.122057,191.254402 410.48,191.47 C411.18927,191.887195 411.931796,192.245079 412.7,192.54 C413.637811,192.895326 414.527937,193.365581 415.35,193.94 C415.873509,194.32532 416.298417,194.829042 416.59,195.41 C416.875969,196.026524 417.016254,196.700577 417,197.38 L417,197.38 Z" id="Shape" fill="#FFFFFF" fill-rule="nonzero"></path>
        <path d="M110.81,40.46 C108.81,11.28 88.63,5.59 81.68,4.57 L81.68,4.57 C81.68,4.57 80.68,4.45 79.68,4.38 C78.68,4.31 77.68,4.28 77.68,4.28 L77.68,4.28 C69.68,4.19 49.6,6.9 43.36,35.47 C43.36,35.47 50.53,49.47 75.53,51.65 L75.53,51.65 C76.53,51.72 75.86,51.65 76.03,51.65 L76.53,51.65 L76.53,51.65 C104.46,53.45 110.81,40.46 110.81,40.46 Z" id="Shape" fill="#17A9F9" fill-rule="nonzero"></path>
        <path d="M53.91,21.85 C53.91,21.85 58.83,29 52.4,42.22" id="Shape"></path>
        <path d="M73.8180483,1.33034565 L83.5380483,1.33034565 C85.8245072,1.33034565 87.6780483,3.18388678 87.6780483,5.47034565 L87.6780483,32.3303456 L69.6780483,32.3303456 L69.6780483,5.47034565 C69.6780483,4.37234938 70.1142256,3.31932418 70.8906263,2.54292357 C71.6670269,1.76652296 72.7200521,1.33034565 73.8180483,1.33034565 L73.8180483,1.33034565 Z" id="Shape" fill="url(#linearGradient-13)" fill-rule="nonzero" transform="translate(78.678048, 16.830346) rotate(4.230000) translate(-78.678048, -16.830346) "></path>
        <path d="M41.16,43.11 L47.6,52.18 C52.8106246,59.5201409 61.0230776,64.1543108 70,64.82 L80.21,65.57 C89.1822698,66.22663 97.980385,62.8503533 104.21,56.36 L111.91,48.36 C112.973916,47.2498527 113.617515,45.8035224 113.73,44.27 L113.9,42.01 C114.020416,40.3590281 112.780817,38.9225252 111.13,38.8 L107.5,41.5 C99.2087994,47.6707582 89.0461429,50.7993591 78.72,50.36 L76.19,50.25 L73.69,50 C63.4124698,48.9140271 53.821937,44.3235659 46.53,37 L43.34,33.8 C41.6890281,33.6795843 40.2525252,34.9191833 40.13,36.57 L40,38.8 C39.8752482,40.3277076 40.2853061,41.8512848 41.16,43.11 L41.16,43.11 Z" id="Shape" fill="url(#linearGradient-14)" fill-rule="nonzero"></path>
        <path d="M75.74,56.22 C68.0566498,55.6447465 61.9902459,49.4628327 61.56,41.77 C60.2925682,47.6356368 62.5571828,53.7022455 67.3581854,57.3025863 C72.1591879,60.902927 78.6172764,61.3775986 83.8930934,58.5179075 C89.1689104,55.6582163 92.2961919,49.9879137 91.9,44 C90.3480883,51.5545909 83.4316422,56.7847253 75.74,56.22 L75.74,56.22 Z" id="Shape" fill="#171D26" fill-rule="nonzero" opacity="0.15"></path>
        <circle id="Oval" fill="#FFFFFF" fill-rule="nonzero" transform="translate(76.803385, 41.906003) rotate(-85.770000) translate(-76.803385, -41.906003) " cx="76.8033853" cy="41.9060033" r="15.36"></circle>
        <path d="M69,48.61 C66.2516338,45.467641 65.6789056,40.9742968 67.5511443,37.2429889 C69.4233829,33.5116809 73.3679936,31.2849779 77.53,31.61" id="Shape" fill="#F2F2F2" fill-rule="nonzero"></path>
    </g>
</svg>
