<svg xmlns="http://www.w3.org/2000/svg" width="184" height="59" viewBox="0 0 184 59">
    <defs>
        <linearGradient id="a" x1="50%" x2="50%" y1="0%" y2="100%">
            <stop offset="0%" stop-color="#067CBC"/>
            <stop offset="100%" stop-color="#099AE9"/>
        </linearGradient>
        <linearGradient id="b" x1="50%" x2="50%" y1="0%" y2="100%">
            <stop offset="0%" stop-color="#067CBC"/>
            <stop offset="100%" stop-color="#099AE9"/>
        </linearGradient>
        <linearGradient id="c" x1="50%" x2="50%" y1="0%" y2="100%">
            <stop offset="0%" stop-color="#51D8F7"/>
            <stop offset="100%" stop-color="#569CEA"/>
        </linearGradient>
        <linearGradient id="d" x1="50%" x2="50%" y1="0%" y2="100%">
            <stop offset="0%" stop-color="#6AE1FC"/>
            <stop offset="100%" stop-color="#569CEA"/>
        </linearGradient>
    </defs>
    <g fill="none" fill-rule="evenodd">
        <path fill="url(#a)" d="M95.2 0L19.614 47.68l-2.87-23.11c19.994-6.541 35.861-11.65 47.6-15.326C76.082 5.568 86.368 2.487 95.2 0z" transform="translate(88.8)"/>
        <path fill="url(#b)" d="M33.727 39.165L19.614 47.68l5.74-14.352z" transform="translate(88.8)"/>
        <path fill="url(#c)" d="M25.355 33.327l20.57 15.812L95.2 0z" transform="translate(88.8)"/>
        <path fill="url(#d)" d="M0 12.163L16.744 24.57 95.2 0z" transform="translate(88.8)"/>
        <path stroke="#06A6FD" stroke-dasharray="8,4.800000000000001" stroke-opacity=".452" stroke-width="1.6" d="M0 58c13.6 0 27.972-2.618 39.7-9.588 13.735-8.162 4.143-20.906-4.878-18.249-7.721 2.275-4.981 19.951.74 22.292C56 60.82 72.748 51.81 100 41.278"/>
    </g>
</svg>
