
<svg width="43px" height="44px" viewBox="95 50 43 44" version="1.1" xmlns="http://www.w3.org/2000/svg" xmlns:xlink="http://www.w3.org/1999/xlink">
    <!-- Generator: Sketch 42 (36781) - http://www.bohemiancoding.com/sketch -->
    <desc>Created with Sketch.</desc>
    <defs></defs>
    <g id="Icon" stroke="none" stroke-width="1" fill="none" fill-rule="evenodd" transform="translate(96.000000, 51.000000)" stroke-linecap="round" stroke-linejoin="round">
        <path d="M5,7 L12,0" id="Stroke-1" stroke="#FFFFFF"></path>
        <path d="M5,13 L12,20" id="Stroke-3" stroke="#FFFFFF"></path>
        <polyline id="Stroke-4" stroke="#FFFFFF" points="12 20 5 20 5 0 41 0 41 20 25 20"></polyline>
        <path d="M41,7 L34,0" id="Stroke-6" stroke="#FFFFFF"></path>
        <path d="M41,13 L34,20" id="Stroke-8" stroke="#FFFFFF"></path>
        <polyline id="Stroke-11" stroke="#FFFFFF" points="25 6 21 6 20 8 21 10 25 10 26 12 25 14 21 14"></polyline>
        <path d="M23,6 L23,4" id="Stroke-12" stroke="#FFFFFF"></path>
        <path d="M23,16 L23,14" id="Stroke-13" stroke="#FFFFFF"></path>
        <polyline id="Stroke-14" stroke="#FFFFFF" points="4 42 15 37 29 37 40 30 39 27 29 30 15 29"></polyline>
        <polyline id="Stroke-16" stroke="#FFFFFF" points="16 29 20 23 19 20 9 26 4 32 0 33"></polyline>
    </g>
</svg>
