<?xml version="1.0" encoding="iso-8859-1"?>
<!DOCTYPE svg PUBLIC "-//W3C//DTD SVG 1.1//EN" "http://www.w3.org/Graphics/SVG/1.1/DTD/svg11.dtd">
<svg xmlns="http://www.w3.org/2000/svg" xmlns:xlink="http://www.w3.org/1999/xlink" version="1.1" id="Capa_1" x="0px" y="0px" viewBox="0 0 60 60" style="enable-background:new 0 0 60 60;" xml:space="preserve" width="512px" height="512px">
<g>
	<path d="M8,16h15c0.552,0,1-0.447,1-1s-0.448-1-1-1H8c-0.552,0-1,0.447-1,1S7.448,16,8,16z" fill="#FFFFFF"/>
	<path d="M8,13h9c0.552,0,1-0.447,1-1s-0.448-1-1-1H8c-0.552,0-1,0.447-1,1S7.448,13,8,13z" fill="#FFFFFF"/>
	<path d="M24,18c0-0.553-0.448-1-1-1H8c-0.552,0-1,0.447-1,1s0.448,1,1,1h15C23.552,19,24,18.553,24,18z" fill="#FFFFFF"/>
	<path d="M60,4H31V1c0-0.553-0.448-1-1-1s-1,0.447-1,1v3H0v42h27.586L15.293,58.293c-0.391,0.391-0.391,1.023,0,1.414   C15.488,59.902,15.744,60,16,60s0.512-0.098,0.707-0.293L29,47.414V57c0,0.553,0.448,1,1,1s1-0.447,1-1v-9.586l12.293,12.293   C43.488,59.902,43.744,60,44,60s0.512-0.098,0.707-0.293c0.391-0.391,0.391-1.023,0-1.414L32.414,46H60V4z M58,44H2V6h56V44z" fill="#FFFFFF"/>
	<path d="M41,20h4.586L33.6,31.986l-8.293-8.293c-0.391-0.391-1.023-0.391-1.414,0l-12.6,12.6c-0.391,0.391-0.391,1.023,0,1.414   C11.488,37.902,11.744,38,12,38s0.512-0.098,0.707-0.293L24.6,25.814l8.293,8.293c0.195,0.195,0.451,0.293,0.707,0.293   s0.512-0.098,0.707-0.293L47,21.414V26c0,0.553,0.447,1,1,1s1-0.447,1-1v-7c0-0.13-0.026-0.26-0.077-0.382   c-0.101-0.245-0.296-0.44-0.541-0.541C48.26,18.026,48.13,18,48,18h-7c-0.552,0-1,0.447-1,1S40.448,20,41,20z" fill="#FFFFFF"/>
</g>
</svg>
