
<svg width="48px" height="48px" viewBox="110 34 48 48" version="1.1" xmlns="http://www.w3.org/2000/svg" xmlns:xlink="http://www.w3.org/1999/xlink">
    <!-- Generator: Sketch 42 (36781) - http://www.bohemiancoding.com/sketch -->
    <desc>Created with Sketch.</desc>
    <defs></defs>
    <g id="Icon" stroke="none" stroke-width="1" fill="none" fill-rule="evenodd" transform="translate(111.000000, 35.000000)" stroke-linejoin="round">
        <polygon id="Stroke-1" stroke="#FFFFFF" points="45.9166667 41.2291667 37.5833333 45.9166667 29.25 41.2291667 29.25 31.8541667 37.5833333 27.1666667 45.9166667 31.8541667"></polygon>
        <polyline id="Stroke-3" stroke="#FFFFFF" stroke-linecap="round" points="33.4166667 36.5416667 36.5416667 39.6666667 41.75 33.4166667"></polyline>
        <polyline id="Stroke-4" stroke="#FFFFFF" stroke-linecap="round" points="25.0833333 31.3333333 0.0833333333 31.3333333 0.0833333333 0.0833333333 37.5833333 0.0833333333 37.5833333 20.9166667"></polyline>
        <path d="M0.0833333333,20.9166667 L37.5833333,20.9166667" id="Stroke-6" stroke="#FFFFFF" stroke-linecap="round"></path>
        <path d="M0.0833333333,10.5 L37.5833333,10.5" id="Stroke-8" stroke="#FFFFFF" stroke-linecap="round"></path>
        <path d="M31.3333333,4.25 L31.3333333,6.33333333" id="Stroke-11" stroke="#FFFFFF" stroke-linecap="round"></path>
        <path d="M27.1666667,4.25 L27.1666667,6.33333333" id="Stroke-12" stroke="#FFFFFF" stroke-linecap="round"></path>
        <path d="M23,4.25 L23,6.33333333" id="Stroke-13" stroke="#FFFFFF" stroke-linecap="round"></path>
        <path d="M6.33333333,6.33333333 L10.5,6.33333333" id="Stroke-14" stroke="#FFFFFF" stroke-linecap="round"></path>
        <path d="M31.3333333,14.6666667 L31.3333333,16.75" id="Stroke-15" stroke="#FFFFFF" stroke-linecap="round"></path>
        <path d="M27.1666667,14.6666667 L27.1666667,16.75" id="Stroke-16" stroke="#FFFFFF" stroke-linecap="round"></path>
        <path d="M23,14.6666667 L23,16.75" id="Stroke-17" stroke="#FFFFFF" stroke-linecap="round"></path>
        <path d="M6.33333333,16.75 L10.5,16.75" id="Stroke-18" stroke="#FFFFFF" stroke-linecap="round"></path>
        <path d="M6.33333333,27.1666667 L10.5,27.1666667" id="Stroke-19" stroke="#FFFFFF" stroke-linecap="round"></path>
        <path d="M18.8333333,31.3333333 L18.8333333,37.5833333" id="Stroke-20" stroke="#FFFFFF" stroke-linecap="round"></path>
        <path d="M0.0833333333,41.75 L14.6666667,41.75" id="Stroke-21" stroke="#FFFFFF" stroke-linecap="round"></path>
        <polygon id="Stroke-23" stroke="#FFFFFF" stroke-linecap="round" points="18.8333333 45.9166667 14.6666667 41.75 18.8333333 37.5833333 23 41.75"></polygon>
        <path d="M23,41.75 L25.0833333,41.75" id="Stroke-26" stroke="#FFFFFF" stroke-linecap="round"></path>
    </g>
</svg>
