
<svg width="54px" height="49px" viewBox="89 35 54 49" version="1.1" xmlns="http://www.w3.org/2000/svg" xmlns:xlink="http://www.w3.org/1999/xlink">
    <!-- Generator: Sketch 42 (36781) - http://www.bohemiancoding.com/sketch -->
    <desc>Created with Sketch.</desc>
    <defs></defs>
    <g id="Icon" stroke="none" stroke-width="1" fill="none" fill-rule="evenodd" transform="translate(90.000000, 36.000000)" stroke-linejoin="round">
        <polygon id="Stroke-1" stroke="#FFFFFF" points="37.8067633 31.378836 26 37.8857143 14.1932367 31.378836 14.1932367 15.9989418 26 9.49206349 37.8067633 15.9989418"></polygon>
        <path d="M30.7227053,12.0938684 L30.7227053,35.2843826" id="Stroke-2" stroke="#FFFFFF"></path>
        <path d="M21.2772947,12.0938684 L21.2772947,35.2843826" id="Stroke-3" stroke="#FFFFFF"></path>
        <path d="M14.1932367,18.9566138 L37.8067633,18.9566138" id="Stroke-4" stroke="#FFFFFF"></path>
        <path d="M14.1932367,28.421164 L37.8067633,28.421164" id="Stroke-5" stroke="#FFFFFF"></path>
        <polyline id="Stroke-6" stroke="#FFFFFF" stroke-linecap="round" points="17.7352657 4.75978836 26 0.0275132275 47.2521739 11.8582011 47.2521739 30.7873016"></polyline>
        <polyline id="Stroke-8" stroke="#FFFFFF" stroke-linecap="round" points="51.9748792 26.0550265 47.2521739 30.7873016 42.5294686 26.0550265"></polyline>
        <polyline id="Stroke-10" stroke="#FFFFFF" stroke-linecap="round" points="34.2647343 42.6179894 26 47.3502646 4.74782609 35.5195767 4.74782609 16.5904762"></polyline>
        <polyline id="Stroke-12" stroke="#FFFFFF" stroke-linecap="round" points="0.0251207729 21.3227513 4.74782609 16.5904762 9.4705314 21.3227513"></polyline>
    </g>
</svg>
