<svg xmlns="http://www.w3.org/2000/svg" viewBox="0 0 328.65 47.12"><defs><style>.cls-1{fill:#17a9f9;}</style></defs><title>gruntwork-logo-ltblue</title><g id="Layer_2" data-name="Layer 2"><g id="Artwork"><path class="cls-1" d="M44.83,20.84h-23a.34.34,0,0,0-.34.34v8.29a.34.34,0,0,0,.34.34h12.8a10.81,10.81,0,0,1-4.2,5.64,12.29,12.29,0,0,1-7.15,2.06,12.09,12.09,0,0,1-9-3.69,12.51,12.51,0,0,1-3.63-9.14,12.6,12.6,0,0,1,3.53-9.1A11.7,11.7,0,0,1,23,11.92c5,0,8.53,2,10.65,5.91A.32.32,0,0,0,34,18l9.57-2.77a.34.34,0,0,0,.23-.44A17.54,17.54,0,0,0,36,5.61,25.28,25.28,0,0,0,23,2.24,22.39,22.39,0,0,0,6.64,8.75,21.44,21.44,0,0,0,0,24.68a21.32,21.32,0,0,0,6.7,16,22.79,22.79,0,0,0,16.44,6.47,21.57,21.57,0,0,0,16-6.31q6.28-6.31,6.28-16.06a30.49,30.49,0,0,0-.22-3.61A.34.34,0,0,0,44.83,20.84Z"/><path class="cls-1" d="M59.56,45.82V36.09q0-12,11.09-12.05h1.54a.32.32,0,0,0,.33-.32L73,14.07a.35.35,0,0,0-.27-.35,9.8,9.8,0,0,0-2-.19q-7.11,0-11.09,6.6V14.32a.34.34,0,0,0-.34-.34H49.64a.34.34,0,0,0-.34.34v31.5a.34.34,0,0,0,.34.34h9.58A.34.34,0,0,0,59.56,45.82Z"/><path class="cls-1" d="M109.16,14H99.58a.34.34,0,0,0-.34.33v14.6c0,3-.59,5.29-1.76,6.77a5.94,5.94,0,0,1-4.9,2.21,5.05,5.05,0,0,1-4-1.76,6.77,6.77,0,0,1-1.54-4.59V14.31a.34.34,0,0,0-.34-.33H77.21a.34.34,0,0,0-.34.33V33.72a13.69,13.69,0,0,0,3.43,9.72,11.82,11.82,0,0,0,9.07,3.68,13,13,0,0,0,9.87-4v2.74a.34.34,0,0,0,.34.34h9.58a.34.34,0,0,0,.34-.34V14.31A.34.34,0,0,0,109.16,14Z"/><path class="cls-1" d="M134.89,13a13,13,0,0,0-9.87,4V14.31a.34.34,0,0,0-.34-.33H115.1a.34.34,0,0,0-.34.33V45.82a.34.34,0,0,0,.34.34h9.58a.34.34,0,0,0,.34-.34V31.22c0-3,.58-5.29,1.76-6.76a5.89,5.89,0,0,1,4.9-2.21,5,5,0,0,1,4,1.76,6.75,6.75,0,0,1,1.54,4.58V45.82a.34.34,0,0,0,.34.34h9.51a.34.34,0,0,0,.34-.34V26.41A13.68,13.68,0,0,0,144,16.7,11.8,11.8,0,0,0,134.89,13Z"/><path class="cls-1" d="M174.27,36.87A9.21,9.21,0,0,1,170,38q-4.31,0-4.3-4.68V22.12h9.16a.34.34,0,0,0,.33-.34V14.31a.33.33,0,0,0-.33-.33h-9.16V4.82a.33.33,0,0,0-.33-.33h-9.59a.33.33,0,0,0-.33.33V14h-5.5a.34.34,0,0,0-.34.33v7.47a.34.34,0,0,0,.34.34h5.5V34.3q0,6.29,3.36,9.55t9.46,3.27a18.36,18.36,0,0,0,8.53-2.24.33.33,0,0,0,.17-.4l-2.17-7.41A.34.34,0,0,0,174.27,36.87Z"/><path class="cls-1" d="M227.26,14h-9.35a.35.35,0,0,0-.33.23L212.4,31.35l-6-17.15a.35.35,0,0,0-.32-.22H199.3a.32.32,0,0,0-.31.22l-6,17.09-5.18-17.08a.32.32,0,0,0-.32-.23h-9.36a.33.33,0,0,0-.32.43L187.9,46a.32.32,0,0,0,.32.23h8.42A.32.32,0,0,0,197,46l5.76-17.2L208.41,46a.34.34,0,0,0,.32.23h8.42a.32.32,0,0,0,.32-.23l10.11-31.58A.33.33,0,0,0,227.26,14Z"/><path class="cls-1" d="M245,13.14a18,18,0,0,0-12.66,4.75,15.79,15.79,0,0,0-5.16,12.18,15.86,15.86,0,0,0,5.16,12.24A18,18,0,0,0,245,47.06a17.7,17.7,0,0,0,12.5-4.75,15.91,15.91,0,0,0,5.13-12.24,15.84,15.84,0,0,0-5.13-12.18A17.7,17.7,0,0,0,245,13.14Zm5.45,22.92A7.4,7.4,0,0,1,245,38.4a7.65,7.65,0,0,1-5.61-2.34,8.12,8.12,0,0,1-2.34-6,8.07,8.07,0,0,1,2.37-6A7.68,7.68,0,0,1,245,21.73a7.44,7.44,0,0,1,5.42,2.34,8.12,8.12,0,0,1,2.34,6A8.17,8.17,0,0,1,250.48,36.06Z"/><path class="cls-1" d="M289.63,13.72a9.8,9.8,0,0,0-2-.19q-7.11,0-11.09,6.6V14.32a.34.34,0,0,0-.34-.34h-9.58a.34.34,0,0,0-.34.34v31.5a.34.34,0,0,0,.34.34h9.58a.34.34,0,0,0,.34-.34V36.09q0-12,11.09-12.05h1.54a.32.32,0,0,0,.33-.32l.43-9.65A.35.35,0,0,0,289.63,13.72Z"/><path class="cls-1" d="M313.5,29.3l13.58-14.76a.33.33,0,0,0-.24-.56H315.38a.39.39,0,0,0-.25.1L305,24.94h-1.41V.34a.34.34,0,0,0-.34-.34h-9.58a.34.34,0,0,0-.34.34V45.82a.34.34,0,0,0,.34.34h9.58a.34.34,0,0,0,.34-.34V34.56h1.86l10.35,11.49a.33.33,0,0,0,.25.11h12.22a.34.34,0,0,0,.25-.57Z"/></g></g></svg>