
<svg width="123px" height="43px" viewBox="52 40 123 43" version="1.1" xmlns="http://www.w3.org/2000/svg" xmlns:xlink="http://www.w3.org/1999/xlink">
    <!-- Generator: Sketch 42 (36781) - http://www.bohemiancoding.com/sketch -->
    <desc>Created with Sketch.</desc>
    <defs></defs>
    <path d="M58.6909751,60.7945733 C58.6697754,64.8267018 61.6263853,67.2304259 66.3445207,66.1375433 L66.3445207,55.4516034 C61.5667457,53.9965842 58.7109599,56.9402864 58.6909751,60.7945733 M66.4888544,40.0000295 L72.9871109,40.0000295 L72.9871109,70.7585371 C66.7583088,71.7768666 60.7926607,72.4227598 56.5248896,70.0364037 C51.0297489,66.9640423 50.5879831,57.2006741 54.9362974,52.8522073 C57.1409605,50.6476967 61.5793475,49.0956851 66.3445207,50.108481 L66.3445207,40.4333401 C66.3320714,40.2282881 66.3205418,40.0241608 66.4888544,40.0000295 Z M83.5287642,46.7870794 L77.0305072,46.7870794 L77.0305072,40 L83.5287642,40 L83.5287642,46.7870794 L83.5287642,46.7870794 Z M161.796753,49.8195991 C167.206588,49.241186 171.287904,51.6284619 172.916156,55.3070567 C175.694319,61.583508 172.763371,68.7854478 168.295167,70.9029609 C165.979365,72.0004524 163.554432,72.1049754 161.3636,71.9137598 C154.592047,71.3232073 150.32136,64.4222298 152.699259,56.7510088 C153.071391,55.5503764 153.489483,54.8159511 153.710211,54.4405881 C155.182141,51.9378795 157.667175,50.2612076 161.796753,49.8195991 Z M161.507935,66.4263022 C157.934941,65.0378383 157.79245,56.0420969 162.230064,55.162569 C169.375748,53.7464324 168.591978,69.1792561 161.507935,66.4263022 Z M103.889953,71.0473403 C98.5220822,71.356148 90.3643694,73.1846857 87.4277339,69.6033883 C85.7024895,67.4990918 85.8880181,63.485566 87.4277339,61.5165346 C89.4175139,58.9723218 93.7610595,58.4174301 97.6805181,58.0508273 C98.0363577,57.1746786 97.7964157,55.7491718 97.3916967,55.1624608 C93.8065577,54.2492642 90.2444753,55.6643237 87.7167092,56.7509006 L87.7167092,51.696906 C91.5345656,49.9427641 100.377826,48.0957812 103.023642,52.1300641 C104.413183,54.2489593 103.889953,57.9443073 103.889953,61.2275592 L103.889953,71.0473403 L103.889953,71.0473403 Z M92.4820359,63.971443 C90.6847016,66.9920053 95.2005562,67.7156733 98.1136737,66.859657 L98.1136737,62.3829983 C95.8753444,62.695495 93.3275965,62.5500826 92.4820359,63.971443 Z M126.706218,71.3363354 L120.207961,71.3363354 L120.207961,62.9606588 C120.207961,60.2029436 120.654029,56.7061893 119.196855,55.5959386 C118.05571,54.7259383 115.34841,55.1624756 113.709705,55.5959386 L113.709705,71.3363354 L107.211294,71.3363354 L107.211294,51.2637676 C113.854192,49.5382133 125.844979,47.6881562 126.706218,56.0290918 C127.130919,60.1414595 126.391573,66.3112383 126.706218,71.3363354 Z M152.699289,50.686171 C152.120878,52.4183311 151.274395,53.8821155 150.533204,55.4516477 C149.863488,55.6016689 149.283078,55.1854214 148.944608,55.4516477 C148.796431,62.490812 150.443744,72.0334571 147.644987,77.1123502 C145.959861,80.1702654 142.857373,82.1320662 138.11418,82.4554726 C134.658926,82.6911142 131.977143,82.1265326 129.449838,81.1558558 L129.449838,75.0907524 C132.414141,76.8215304 139.904598,78.2325909 142.013196,74.6574419 C142.633571,73.605606 142.594221,72.5184094 142.879507,70.9029166 C141.521938,70.9742382 140.204026,71.6029108 138.54749,71.6250451 C131.737048,71.7154268 127.523694,66.2926849 129.161017,58.7727148 C129.794303,55.8639012 131.498643,53.5218186 133.782163,52.1301231 C138.52474,49.2396022 145.814759,49.4591005 152.699289,50.686171 Z M136.381404,64.4046601 C137.474899,66.1738632 140.435974,66.8372768 142.879507,65.7042819 C142.745318,62.3246524 142.698436,58.8577154 142.735173,55.3070075 C137.119213,53.8232432 133.772325,60.1843902 136.381404,64.4046601 Z M83.528779,50.2238252 C83.5214009,55.0089817 83.522483,58.4474786 83.5220157,64.260802 C83.245952,69.9737538 83.310203,74.5231163 81.2183593,77.2567002 C80.8058008,77.7957634 79.9296521,78.5821453 79.196608,79.1341202 C78.5809975,79.5975531 77.4077271,80.5373403 76.7417001,80.5782248 C76.0702935,80.6194437 74.3453566,79.6461255 73.5646622,79.2784505 C72.539568,78.7956477 71.5919443,78.1545208 70.5322655,77.8344984 C73.0040805,76.3027766 75.3504684,75.1544057 76.308391,72.058218 C77.1415008,69.3655234 77.030522,65.4635839 77.030522,61.6609485 C77.030522,57.9061134 77.0472752,53.5407409 77.0472752,50.2255173 L83.528778,50.2240416 L83.528779,50.2238252 Z" id="Combined-Shape" stroke="none" fill="#FFFFFF" fill-rule="evenodd"></path>
</svg>
