
<svg width="136px" height="37px" viewBox="45 40 136 37" version="1.1" xmlns="http://www.w3.org/2000/svg" xmlns:xlink="http://www.w3.org/1999/xlink">
    <!-- Generator: Sketch 42 (36781) - http://www.bohemiancoding.com/sketch -->
    <desc>Created with Sketch.</desc>
    <defs></defs>
    <path d="M113.197164,40.0000538 C113.103626,40.001196 113.009013,40.0235213 112.925535,40.072487 C112.75886,40.1703432 112.653904,40.350058 112.653904,40.5433124 L112.653904,54.3963996 C112.653904,54.5325169 112.590521,54.654149 112.472818,54.7224133 C112.354818,54.7908488 112.210824,54.7908488 112.092537,54.7224133 L109.828956,53.4185894 C109.491701,53.2241175 109.079767,53.224234 108.742437,53.4185894 L99.7062229,58.6338801 C99.3683876,58.8287587 99.162962,59.2036787 99.162962,59.5936094 L99.162962,70.0241908 C99.162962,70.4138292 99.3686777,70.7706134 99.7062229,70.9658392 L108.742437,76.1811299 C109.080272,76.3760656 109.491121,76.3760656 109.828956,76.1811299 L118.86517,70.9658392 C119.202715,70.7706134 119.408431,70.4138292 119.408431,70.0241908 L119.408431,44.0201728 C119.408431,43.6246043 119.192575,43.2533804 118.847062,43.0604139 L113.468794,40.0543787 C113.384335,40.0072679 113.290703,39.9990395 113.197164,40.0000835 L113.197164,40.0000538 Z M55.0684083,53.0201425 C54.896088,53.0270871 54.7341937,53.0572272 54.5794746,53.1469304 L45.5432586,58.3622211 C45.206554,58.5568667 45,58.9113917 45,59.3038718 L45.0180695,73.3018256 C45.0180695,73.4965305 45.1185161,73.6773258 45.2897011,73.772708 C45.4574868,73.8731318 45.6657404,73.8731318 45.8329597,73.772708 L51.1931192,70.6941802 C51.5326586,70.4924645 51.7544861,70.1415922 51.7544861,69.7525318 L51.7544861,63.2153387 C51.7544861,62.825408 51.9596101,62.4675249 52.297747,62.273688 L54.5794358,60.9517879 C54.7497321,60.8533332 54.9325582,60.8069168 55.1226944,60.8069168 C55.3089288,60.8069168 55.5003694,60.8532761 55.6659552,60.9517879 L57.9476441,62.273688 C58.2857695,62.4675249 58.4909027,62.825408 58.4909027,63.2153387 L58.4909027,69.7525318 C58.4909027,70.1415922 58.714946,70.4947261 59.0522719,70.6941802 L64.4124314,73.772708 C64.5807699,73.8731318 64.7887312,73.8731318 64.95569,73.772708 C65.1220754,73.6773258 65.2273193,73.4965305 65.2273193,73.3018256 L65.2453887,59.3038718 C65.2453887,58.9113917 65.0411237,58.5568667 64.7021301,58.3622211 L55.6659347,53.1469304 C55.5130979,53.0572272 55.3504863,53.0272104 55.177001,53.0201425 L55.0683489,53.0201425 L55.0684083,53.0201425 Z M136.267581,53.1469304 C136.078799,53.146702 135.893816,53.1944479 135.72432,53.2917992 L126.688106,58.50709 C126.350561,58.7020256 126.144847,59.0588099 126.144847,59.4487406 L126.144847,69.8793198 C126.144847,70.2715097 126.365772,70.6271358 126.706214,70.8209704 L135.669995,75.9276089 C136.00102,76.1166349 136.405206,76.130773 136.738404,75.9455642 L142.170999,72.9213911 C142.343392,72.8257759 142.460012,72.6471827 142.460736,72.4505657 C142.461878,72.2538916 142.359328,72.0776148 142.189107,71.9797404 L133.098566,66.7644497 C132.928345,66.6673885 132.808828,66.4707144 132.808828,66.2754886 L132.808828,63.0159325 C132.808828,62.821054 132.929793,62.6424585 133.098566,62.5451643 L135.923516,60.9153291 C136.091564,60.818092 136.298002,60.818092 136.466774,60.9153291 L139.291724,62.5451643 C139.460497,62.6424585 139.563353,62.821054 139.563353,63.0159325 L139.563353,65.5874183 C139.563353,65.7825847 139.66621,65.9608901 139.834983,66.0581843 C140.004479,66.1557686 140.209471,66.1561729 140.378243,66.0581843 L145.792728,62.9073374 C146.128825,62.7121117 146.335987,62.3543999 146.335987,61.9656891 L146.335987,59.4485579 C146.335987,59.0597853 146.129549,58.702133 145.792728,58.5069072 L136.810839,53.2916165 C136.641701,53.1935707 136.456362,53.1469807 136.267581,53.1467477 L136.267581,53.1469304 Z M109.249479,60.9336499 C109.296589,60.9336499 109.352045,60.9452317 109.394347,60.9695764 L112.490926,62.7623613 C112.574951,62.8110369 112.635795,62.900683 112.635795,62.9977442 L112.635795,66.5832569 C112.635795,66.6806082 112.575531,66.7703114 112.490926,66.8186992 L109.394347,68.6114247 C109.310033,68.6595224 109.207032,68.6595224 109.122718,68.6114247 L106.026139,66.8186992 C105.941825,66.7700236 105.88127,66.6806082 105.88127,66.5832569 L105.88127,62.9977442 C105.88127,62.900683 105.942115,62.8112699 106.026139,62.7623613 L109.122718,60.9698665 C109.16502,60.9455287 109.202361,60.93394 109.249479,60.93394 L109.249479,60.9336499 Z M163.340007,52.8934095 L163.340007,52.8934095 C163.65329,52.8934095 163.960046,52.9581946 164.227331,53.1107138 L172.756503,58.0362646 C173.308456,58.355384 173.643826,58.9547356 173.643826,59.5936094 L173.643826,69.4266324 C173.643826,70.065159 173.308456,70.6628887 172.756503,70.9839201 L164.227331,75.8913923 C163.954977,76.049008 163.655821,76.1267753 163.340007,76.1267753 C163.028538,76.1267753 162.725037,76.049008 162.452684,75.8913923 L159.591518,74.2073167 C159.167049,73.969558 159.379285,73.8938192 159.519082,73.8451436 C160.086244,73.6484101 160.199968,73.608543 160.804795,73.2656661 C160.867815,73.2303175 160.956908,73.2274209 161.0221,73.2656661 L163.213247,74.5694899 C163.292924,74.6129503 163.393608,74.6129503 163.466768,74.5694899 L171.99594,69.6620177 C172.075589,69.6167595 172.1227,69.5205663 172.1227,69.4266324 L172.1227,59.5936094 C172.1227,59.4974163 172.058959,59.4069021 171.977831,59.3582265 L163.466768,54.4507543 C163.387813,54.4049752 163.292924,54.4049752 163.213247,54.4507543 L154.702183,59.3582265 C154.619608,59.4054538 154.557312,59.5002558 154.557312,59.5936094 L154.557312,69.4266324 C154.557312,69.5205663 154.620332,69.5993182 154.702183,69.6439368 L157.020089,71.0020558 C158.286246,71.6350199 159.066365,70.881815 159.066365,70.1328407 L159.066365,60.4266079 C159.066365,60.2893872 159.182985,60.1911655 159.319888,60.1911655 L160.388297,60.1911655 C160.523026,60.1911655 160.641818,60.2893872 160.641818,60.4266079 L160.641818,70.1328407 C160.641818,71.8225953 159.72697,72.7947836 158.124717,72.7947836 C157.632162,72.7947836 157.233046,72.803012 156.150874,72.269663 L153.92351,70.9839201 C153.371559,70.665148 153.036186,70.065159 153.036186,69.4266324 L153.036186,59.5936094 C153.036186,58.9547356 153.371559,58.3540499 153.92351,58.0362646 L162.452684,53.1107138 C162.722141,52.9581946 163.026725,52.8934095 163.340007,52.8934095 Z M82.2132684,53.0925758 C82.4015633,53.0925758 82.5879006,53.1400933 82.7565293,53.2374446 L91.792743,58.4346567 C92.1305783,58.6293593 92.3360039,59.0042245 92.3360039,59.394386 L92.3360039,69.8249651 C92.3360039,70.2150123 92.1299981,70.5715065 91.792743,70.7666158 L82.7565293,75.9819065 C82.4186939,76.1770158 82.0078451,76.1770158 81.6700098,75.9819065 L72.6337961,70.7666158 C72.29618,70.5715065 72.0905352,70.2150123 72.0905352,69.8249651 L72.0905352,59.394386 C72.0905352,59.0048025 72.2959607,58.6293593 72.6337961,58.4346567 L81.6700098,53.2374446 C81.8386385,53.1400933 82.0249734,53.0925758 82.2132684,53.0925758 Z M175.99795,53.1470469 L175.99795,53.1470469 L177.718272,53.1470469 L177.718272,53.4005679 L176.993926,53.4005679 L176.993926,55.265729 L176.704188,55.265729 L176.704188,53.4005679 L175.99795,53.4005679 L175.99795,53.1470469 Z M177.971793,53.1470469 L177.971832,53.1468733 L178.38833,53.1468733 L178.985916,54.9396582 L179.60161,53.1468733 L180,53.1468733 L180,55.2655553 L179.728371,55.2655553 L179.728371,54.0160885 C179.728371,53.9722808 179.727229,53.8978738 179.728371,53.7987841 C179.731203,53.6969714 179.74644,53.5868709 179.74644,53.4728299 L179.130746,55.2655553 L178.841008,55.2655553 L178.243423,53.4728299 L178.243423,53.5272987 C178.243423,53.5796842 178.23995,53.6733851 178.243423,53.7808791 C178.24573,53.8864017 178.243423,53.9652678 178.243423,54.0162621 L178.243423,55.265729 L177.971793,55.265729 L177.971793,53.1470469 Z M165.621696,59.9196802 L165.621696,59.9196802 C168.351031,59.9196802 169.706283,60.8754689 169.877228,62.9076367 C169.883748,62.9777536 169.851152,63.0365125 169.804795,63.088665 C169.757711,63.1375143 169.691795,63.1792363 169.623707,63.1792363 L168.519079,63.1792363 C168.404634,63.1792363 168.306846,63.0909837 168.283667,62.9800722 C168.018557,61.8000826 167.371715,61.4226703 165.621696,61.4226703 C163.662341,61.4226703 163.44866,62.1065099 163.44866,62.6178991 C163.44866,63.2374173 163.70073,63.4087096 166.346043,63.7587138 C168.963828,64.1048346 170.221293,64.5987231 170.221293,66.4387947 C170.221293,68.2949164 168.664674,69.3543157 165.965761,69.3543157 C162.237552,69.3543157 161.456708,67.6568536 161.456708,66.2214903 C161.456708,66.0850806 161.574053,65.9679694 161.710229,65.9679694 L162.814857,65.9679694 C162.937995,65.9679694 163.030736,66.0650306 163.050268,66.1852737 C163.216144,67.3066186 163.711597,67.869347 165.965761,67.869347 C167.759965,67.869347 168.519079,67.4633662 168.519079,66.511228 C168.519079,65.9622904 168.301777,65.5528328 165.513044,65.2798397 C163.182099,65.0492082 161.746446,64.5368939 161.746446,62.6721943 C161.746446,60.9532933 163.192964,59.9196802 165.621696,59.9196802 Z M136.249472,62.4005947 C136.285602,62.4005947 136.307795,62.3994297 136.340014,62.41855 L138.078444,63.4326339 C138.142941,63.4699516 138.187096,63.5387344 138.187096,63.6137194 L138.187096,65.6056706 C138.187096,65.6806555 138.142912,65.7496713 138.078444,65.7867583 L136.340014,66.7827042 C136.275548,66.8203691 136.20601,66.8203691 136.14082,66.7827042 L134.40239,65.7867583 C134.337198,65.7493812 134.293738,65.6806555 134.293738,65.6056706 L134.293738,63.6137194 C134.293738,63.5387344 134.337198,63.4697209 134.40239,63.4326339 L136.14082,62.41855 C136.173416,62.4005947 136.21337,62.4005947 136.249472,62.4005947 Z" id="Combined-Shape" stroke="none" fill="#FFFFFF" fill-rule="evenodd"></path>
</svg>
