
<svg width="121px" height="43px" viewBox="53 34 121 43" version="1.1" xmlns="http://www.w3.org/2000/svg" xmlns:xlink="http://www.w3.org/1999/xlink">
    <!-- Generator: Sketch 42 (36781) - http://www.bohemiancoding.com/sketch -->
    <desc>Created with Sketch.</desc>
    <defs></defs>
    <path d="M157.450619,70.7062389 L167.483455,70.6759283 L167.483455,68.008588 C161.178833,68.008588 169.635514,68.0388987 162.81561,68.008588 C160.360445,68.008588 157.147512,66.0990149 157.147512,62.3708007 L157.147512,60.4612276 C157.147512,56.7330134 160.390755,54.7325082 162.81561,54.7325082 L172.211922,54.7325082 L172.211922,60.2490528 L162.421571,60.2490528 L162.421571,62.7951503 L167.362213,62.7951503 C170.090174,62.7951503 173,64.8865875 173,68.4329376 L173,70.5546855 C172.878757,74.7072493 169.393029,76.1924728 167.362213,76.1924728 L157.450619,76.1924728 L157.450619,70.7062389 Z M104.3463,69.3725688 L111.105582,76.1924728 L102.497348,76.1924728 L97.4657742,70.9790351 L97.4657742,76.1924728 L91.6461228,76.1924728 L91.6461228,54.5809548 L103.224804,54.5809548 C103.224804,54.5809548 109.650669,55.2174792 109.650669,62.0676939 C109.650669,68.9179086 104.3463,69.3725688 104.3463,69.3725688 Z M102.103309,64.9472089 C102.103309,64.9472089 103.436979,64.4319273 103.436979,62.4617328 C103.436979,60.4915383 102.13362,60.0065673 102.13362,60.0065673 L97.4657742,60.0065673 L97.4657742,64.9472089 L102.103309,64.9472089 Z M124.017934,54.7325082 C125.472847,54.7325082 129.655721,55.7630715 129.655721,60.3702955 L129.655721,76.1924728 L123.927002,76.1924728 L123.927002,72.4036373 L118.380147,72.4036373 L118.380147,76.1924728 L112.469563,76.1924728 L112.469563,60.3702955 C112.469563,58.5516545 113.894165,54.7325082 118.10735,54.7325082 L124.017934,54.7325082 Z M123.927002,66.280879 L123.896691,66.280879 L123.896691,61.0371306 C123.896691,61.0371306 123.86638,59.8550139 122.229603,59.8550139 L120.198788,59.8550139 C118.349836,59.8550139 118.349836,61.0371306 118.349836,61.0371306 L118.349836,66.280879 L123.927002,66.280879 Z M132.353372,54.7325082 L138.506441,54.7325082 L138.506441,76.1924728 L132.353372,76.1924728 L132.353372,54.7325082 Z M147.144986,70.6456176 L155.419803,70.6456176 L155.419803,76.1924728 L147.144986,76.1924728 L141.022228,76.1924728 L141.022228,70.6456176 L141.022228,54.7325082 L147.144986,54.7325082 L147.144986,70.6456176 Z M55.1217479,76.1924728 C55.1217479,76.1924728 56.0310685,67.2205102 62.3963122,56.6117706 C68.7615559,46.0030311 79.612781,37.9706997 88.4331902,37.1826219 C105.983077,35.4246022 121.744632,51.1558474 121.744632,51.1558474 C121.744632,51.1558474 121.229351,51.5195757 120.683759,51.9742359 C103.46729,39.2437484 92.9494822,45.245264 89.6456176,46.8517302 C74.4902753,55.3084112 79.0671887,76.1924728 79.0671887,76.1924728 L55.1217479,76.1924728 Z M105.013135,38.8800202 C104.043193,38.4859813 103.073251,38.1222531 102.072998,37.7888356 L102.194241,35.7883304 C104.103814,36.3339227 104.861581,36.6976509 105.134377,36.8492043 L105.013135,38.8800202 Z M102.13362,45.3058853 C103.103562,45.3665067 104.103814,45.4877494 105.134377,45.6999242 L105.013135,47.5791867 C104.012882,47.3670119 103.012629,47.2457691 102.012377,47.2154584 L102.13362,45.3058853 Z M90.9186663,35.8489518 C90.0396565,35.8489518 89.1606466,35.8792624 88.2816368,35.9701945 L87.7057338,34.1818641 C88.7059864,34.0606214 89.6759283,34 90.6155595,34 L91.2217732,35.8489518 L90.9186663,35.8489518 Z M92.3735792,47.0032837 C93.1313463,46.6698661 94.0103562,46.3364486 95.0409194,46.0333418 L95.7077545,48.0338469 C94.8287446,48.3066431 93.9497348,48.6703713 93.0707249,49.0947209 L92.3735792,47.0032837 Z M78.6125284,39.0315736 C77.8244506,39.4256125 77.0666835,39.8802728 76.2786057,40.3652437 L74.8843142,38.2434958 C75.7027027,37.7585249 76.4907805,37.3341753 77.2485476,36.9401364 L78.6125284,39.0315736 Z M84.8262187,52.6713817 C85.3718111,51.9742359 86.0083354,51.2770902 86.7054812,50.6405658 L88.069462,52.7016923 C87.4026269,53.3988381 86.7964132,54.0959838 86.2811316,54.8537509 L84.8262187,52.6713817 Z M80.4311695,62.4314221 C80.673655,61.3402374 80.9464511,60.2187421 81.34049,59.0972468 L83.5228593,60.8249558 C83.2197525,62.0070725 83.0075777,63.1891892 82.8863349,64.3713059 L80.4311695,62.4314221 Z M67.1550897,48.0338469 C66.4276332,48.791614 65.7304875,49.6100025 65.0939631,50.428391 L62.7600404,48.4278858 C63.4571862,47.6701187 64.2149533,46.9123516 65.0030311,46.1545845 L67.1550897,48.0338469 Z M58.0012629,61.5827229 C57.516292,62.7042182 56.8797676,64.1894418 56.4857287,65.2200051 L53,63.9469563 C53.3031068,63.1285678 53.9396312,61.6130336 54.5155342,60.3096742 L58.0012629,61.5827229 Z M79.9765092,70.1303359 L83.2500631,71.3124526 C83.4319273,72.7370548 83.7047234,74.0707249 83.9775196,75.2528416 L80.3402374,73.9494822 C80.188684,73.0401617 80.0371306,71.7368022 79.9765092,70.1303359 Z" id="Combined-Shape" stroke="none" fill="#FFFFFF" fill-rule="evenodd"></path>
</svg>
