<svg xmlns="http://www.w3.org/2000/svg" viewBox="0 0 238.57 189.57"><defs><style>.cls-1{fill:#242e3b;}</style></defs><title>grunty-cloud-dkblue</title><g id="Layer_2" data-name="Layer 2"><g id="Annotations"><path class="cls-1" d="M96.53,69.27a3.95,3.95,0,1,0-4-4A3.95,3.95,0,0,0,96.53,69.27Z"/><path class="cls-1" d="M142.64,65.32a3.95,3.95,0,1,0-3.95,4A4,4,0,0,0,142.64,65.32Z"/><path class="cls-1" d="M91.71,78.24a2.35,2.35,0,0,0,.56,3.28,45.08,45.08,0,0,0,51.18.89l1.28-.84a2.36,2.36,0,0,0-2.59-3.94l-1.28.84A40.41,40.41,0,0,1,95,77.68,2.35,2.35,0,0,0,91.71,78.24Z"/><path class="cls-1" d="M123.18,31.42a7.28,7.28,0,0,0-11,9.51Z"/><path class="cls-1" d="M236.22,146.36a30,30,0,0,0-2-3.87,28,28,0,0,0-1.62-2.4c-.28-.38-.58-.76-.89-1.13-.61-.74-1.25-1.45-1.93-2.13-.34-.34-.69-.67-1-1a29.89,29.89,0,0,0-20.17-7.79h0c-.45,0-.89,0-1.33,0a48.23,48.23,0,0,0-8.62-18c-.59-.77-1.21-1.52-1.84-2.25a48.56,48.56,0,0,0-16.12-12.21,46.55,46.55,0,0,0-5-2h0a48.47,48.47,0,0,0-50.47,12.34,50,50,0,0,0-3.56,4.13l-.44-.1a40,40,0,0,0-9.54-1.16,39.54,39.54,0,0,0-33.44,18.43c-.27.43-.55.85-.81,1.29a30.53,30.53,0,0,0-5.36-.48c-.76,0-1.51,0-2.26.09a143.33,143.33,0,0,1,.77-30.67c-1.25-.14-2.52-.32-3.8-.57l2-2.38h-.57l-.59,0h0l-.79-.06h-.11l-1-.1-.17,0-1.16-.16-.2,0-1.37-.24-.22,0c-.5-.09-1-.2-1.58-.32l-.21,0c-.59-.13-1.2-.27-1.84-.43l-.11,0c-.67-.17-1.36-.35-2.09-.56l-.08,0c-.72-.21-1.47-.43-2.25-.68l-.25-.08c-.76-.24-1.55-.5-2.36-.79l-.36-.12-2.49-.92-.43-.17c-.87-.33-1.75-.69-2.67-1.08l-.45-.19c-.93-.39-1.89-.81-2.87-1.26l-.42-.19c-1-.46-2.06-1-3.14-1.48l-.28-.14c-1.13-.56-2.29-1.15-3.49-1.78l3.27-1S24,72.85,17.35,68.14l3.27-1S2.15,60.9,3.18,49.69c0-.45.11-.89.19-1.32,0-.11,0-.23.07-.34.07-.36.16-.71.25-1.06l.06-.2c.12-.4.25-.78.4-1.16l.12-.28c.13-.31.27-.6.42-.89l.12-.25c.19-.35.38-.69.59-1l.14-.2c.18-.27.37-.53.56-.78L6.29,42c.24-.29.49-.58.76-.86L7.14,41c.24-.24.48-.47.74-.7l.23-.2c.26-.22.53-.44.81-.64L9,39.41c.3-.22.61-.42.93-.61l.25-.15c.27-.16.54-.3.81-.44l.19-.09c.33-.16.66-.3,1-.43l.24-.09.83-.28.26-.07c.34-.1.69-.18,1-.25l.18,0c.3,0,.59-.09.89-.12l.29,0c.35,0,.7,0,1.05,0h.11c.25,0,.51,0,.76,0l.29,0,.57.07L19,37l.52.11.34.08.49.14.35.12a4.52,4.52,0,0,1,.47.18l.33.14L22,38l.29.15.51.31.24.15c.24.16.48.34.71.52a33.34,33.34,0,0,1,3.53,3.37,43.21,43.21,0,0,1,7,10.52l2.17-3.31a76.93,76.93,0,0,0,19.5,17.87l-.78-3.1a42.25,42.25,0,0,0,6.17,3.12c1.25.53,2.65,1,4.16,1.52A38.68,38.68,0,0,0,72,70.5c.27-1.47.56-2.79.85-4,.19-.79.39-1.51.58-2.17.29-1,.58-1.85.84-2.57a21.17,21.17,0,0,1,1.2-2.85C79.14,50.25,87.3,41.75,87.3,41.75H84.14A35.36,35.36,0,0,1,87.28,39l4.57,6.44a26.93,26.93,0,0,0,20.05,11.3l8.07.6c.66,0,1.33.07,2,.07a27.15,27.15,0,0,0,19.49-8.31l6.09-6.34a6.34,6.34,0,0,0,.61-.76c1.38,1.34,8.87,8.85,11.62,17a63.45,63.45,0,0,1,2.31,10.16c.09.53.17,1.08.25,1.62a32.05,32.05,0,0,0,3.83-.37c.62-.1,1.24-.22,1.84-.34,1.21-.26,2.37-.57,3.48-.91a46.47,46.47,0,0,0,10.45-4.67l-.78,3.1a76.93,76.93,0,0,0,19.5-17.87L202.82,53a43.21,43.21,0,0,1,7-10.52,33.34,33.34,0,0,1,3.53-3.37c.23-.18.47-.36.71-.52.08-.06.16-.1.24-.15l.51-.31.3-.15.47-.23.33-.14a4.52,4.52,0,0,1,.47-.18l.35-.12.48-.14.35-.08L218,37l.34-.05.57-.07.29,0c.25,0,.51,0,.76,0h.11c.35,0,.7,0,1.05,0l.29,0c.3,0,.59.07.89.12l.18,0c.35.07.7.15,1,.25l.25.07c.28.08.56.18.84.28l.24.09c.34.13.67.27,1,.43l.18.09c.28.14.55.29.82.44l.25.14c.31.2.63.4.93.62l.07.05c.28.2.55.42.82.65l.23.2c.26.23.51.46.75.71a.6.6,0,0,1,.08.08c.27.28.52.57.76.87l.18.23q.3.38.57.78l.13.2a11.2,11.2,0,0,1,.6,1l.12.24q.23.43.42.9l.12.28c.15.38.28.76.4,1.16l.06.2c.09.34.18.7.25,1.06,0,.12,0,.23.07.34.08.43.14.87.19,1.32,1,11.21-17.44,17.46-17.44,17.46l3.27,1c-6.65,4.71-21.1,14.41-21.1,14.41l3.27,1c-1.2.63-2.36,1.22-3.49,1.78l-.28.14c-1.08.52-2.12,1-3.14,1.48l-.42.19c-1,.45-1.94.87-2.87,1.27l-.45.18q-1.36.59-2.67,1.08l-.43.17c-.86.33-1.69.63-2.49.92l-.36.12c-.81.29-1.6.55-2.36.79l-.25.08c-.78.25-1.53.47-2.25.68l-.09,0c-.72.21-1.42.39-2.08.56l-.11,0c-.64.16-1.26.3-1.84.43l-.21,0-.48.1h0a46.55,46.55,0,0,1,5,2,114.53,114.53,0,0,0,22.7-9.31l6.79-3.58-4.27-1.28c4.82-3.26,11.67-7.92,15.67-10.75L226.78,67l-1.56-.47C231,63.15,237.74,57.44,237,49.4a17.29,17.29,0,0,0-16.9-15.77,13.74,13.74,0,0,0-8.77,3,41.78,41.78,0,0,0-8.76,10.21l-1.81-2.76-2.66,3.75a72.63,72.63,0,0,1-11.77,12l.61-2.41-6.71,4.32A42.63,42.63,0,0,1,165,67.35a62.93,62.93,0,0,0-2.24-9.42,44.42,44.42,0,0,0-7.69-13h3.61l-5.37-5.36a36.28,36.28,0,0,0-3.37-3l.06-.77a5.53,5.53,0,0,0-2.84-5.24c-1-7-3.4-12.93-7.23-17.55a28,28,0,0,0-10.27-7.81A6.42,6.42,0,0,0,124,.58L116.29,0l-.47,0h0a6.44,6.44,0,0,0-5.76,3.6A27.49,27.49,0,0,0,98.59,9.77c-4.47,4-7.75,9.56-9.77,16.53A5.51,5.51,0,0,0,85.38,31l-.14,1.79a8.47,8.47,0,0,0,.47,3.43,39,39,0,0,0-3.79,3.31l-5.36,5.36h3.92A60.23,60.23,0,0,0,72.6,57.6a42.07,42.07,0,0,0-3.08,9.29,44,44,0,0,1-12.7-5.1l-6.69-4.28.61,2.38A71.67,71.67,0,0,1,39,47.84L36.3,44.09l-1.81,2.76a41.78,41.78,0,0,0-8.76-10.21,13.74,13.74,0,0,0-8.77-3A17.29,17.29,0,0,0,.06,49.4c-.74,8,6,13.75,11.78,17.11L10.28,67l5.25,3.72c4,2.83,10.85,7.49,15.67,10.75l-4.27,1.28,6.79,3.58C46.88,93.25,56.6,96,62.46,97l-1.67,1.93,5.31,1,.89.17a150.54,150.54,0,0,0-.38,28.39c-.93.17-1.84.38-2.74.63-.58.16-1.15.34-1.72.54a29.86,29.86,0,0,0-9,5l-.39.32A30.4,30.4,0,0,0,48.85,139c-.3.37-.6.75-.89,1.13q-.85,1.16-1.62,2.4a30,30,0,0,0-2,3.87,29.32,29.32,0,0,0-1,2.76A30.28,30.28,0,0,0,42,158c0,16.56,13.68,27.14,30,30l2.17.36.26.05,1.48.22a100.35,100.35,0,0,0,14.39.91c4.72,0,8.37-.14,12.07-.47l1.24-.11,1.88-.2c1.91-.21,3.9-.46,6.12-.76,2.65-.36,5.24-.76,7.76-1.28,5.54-1.14,10.7-2.87,15.14-6a49.63,49.63,0,0,0,5.81,3.09A48.45,48.45,0,0,0,160.09,188a48.34,48.34,0,0,0,27.52-8.56A30.33,30.33,0,0,0,192,183a30,30,0,0,0,45.87-18.62c0-.22.09-.44.13-.66a30.14,30.14,0,0,0-1.8-17.4Zm-87-106.3c.62.54,1.23,1.1,1.82,1.69h-2.73A8.35,8.35,0,0,0,149.25,40.06ZM112.56,6.17h0a2.77,2.77,0,0,1,.11-.64c0-.06,0-.12.07-.19A2.66,2.66,0,0,1,112.9,5a1.43,1.43,0,0,1,.12-.21,3.53,3.53,0,0,1,.21-.32l.17-.19a2.89,2.89,0,0,1,.24-.25l.21-.17.29-.2.24-.12.31-.14.27-.08.34-.08.29,0,.23,0h.24l7.66.57a3.23,3.23,0,0,1,2.6,1.64,3.32,3.32,0,0,1,.43,1.85h0l-1.32,17.85a13.59,13.59,0,0,0-14.2-.87ZM109.62,29.4a10.57,10.57,0,0,1,8-3.66l.79,0a10.52,10.52,0,0,1,7.22,3.63h0a10.57,10.57,0,1,1-16,0ZM88.51,31.24v0a2.36,2.36,0,0,1,.08-.45.94.94,0,0,1,.06-.15,2.15,2.15,0,0,1,.1-.27c0-.06.07-.11.1-.16L89,30l.13-.14a1.62,1.62,0,0,1,.18-.19l.15-.12.2-.14.18-.09.23-.1a1.39,1.39,0,0,1,.19-.06l.25-.06.21,0h.34l.23.23a43.1,43.1,0,0,1,2-6.32c.26-.63.52-1.24.8-1.82a34.29,34.29,0,0,1,1.78-3.26,27.64,27.64,0,0,1,4.08-5.1c.48-.47,1-.9,1.47-1.31s1-.8,1.49-1.15a24,24,0,0,1,4.75-2.6c.52-.22,1-.41,1.55-.58l-1.43,19.43,0,.2A13.7,13.7,0,0,0,116.6,50c.34,0,.69,0,1,0A13.67,13.67,0,0,0,128.47,28l.09-1.16,1.33-18c6.12,3.26,12.94,10,14.34,23.93,0,.18.05.35.06.54h0l.37-.27h0a2.35,2.35,0,0,1,1.78,1.09,2.44,2.44,0,0,1,.38,1.45l-.14,1.78a4.63,4.63,0,0,1-.1.65c0,.08,0,.17,0,.25a5.2,5.2,0,0,1-.73,1.63,5.54,5.54,0,0,1-.57.71l-6.08,6.34h0a22.06,22.06,0,0,1-1.65,1.56l-.18.15c-.54.46-1.11.89-1.7,1.3l-.27.19a20.1,20.1,0,0,1-1.77,1.1l-.32.17c-.6.33-1.23.63-1.86.91l-.31.12a20.46,20.46,0,0,1-2,.73l-.23.07c-.71.22-1.43.41-2.16.56h0c-.73.15-1.47.26-2.21.34l-.23,0c-.71.07-1.43.11-2.14.11h-.37c-.53,0-1.06,0-1.59-.06l-8.07-.6a23.87,23.87,0,0,1-17.71-10l-4.6-6.47-.49-.7a5.12,5.12,0,0,1-.87-2.15A4.41,4.41,0,0,1,88.38,33ZM208.58,184.67a26.48,26.48,0,0,1-18.62-7.6l-2-1.94-2.28,1.57a45.14,45.14,0,0,1-49.42,1.18l-1.9-1.18-1.52,1.08-.3.21c-.33.23-.67.46-1,.67s-.59.37-.9.55a27.46,27.46,0,0,1-2.86,1.46c-5.14,2.29-11,3.26-16.64,4a133,133,0,0,1-20.86,1.51,91.89,91.89,0,0,1-17.72-1.49c-7.71-1.35-14.6-4.54-19.4-9A23.63,23.63,0,0,1,45.36,158,26.66,26.66,0,0,1,66.92,131.9a24.33,24.33,0,0,1,3.1-.41c.66-.05,1.31-.08,2-.08a26.58,26.58,0,0,1,4.76.43l2.32.42,1.18-2a36.41,36.41,0,0,1,31.35-18.06,36,36,0,0,1,9.14,1.17l2.15.56,1.36-1.77a44.82,44.82,0,0,1,35.84-17.71,45.71,45.71,0,0,1,8.88.88A44,44,0,0,1,175,96.93,44.94,44.94,0,0,1,204,128.87l.65,2.69,2.77-.12c.4,0,.8,0,1.21,0a26.63,26.63,0,0,1,0,53.26Z"/></g></g></svg>