<svg xmlns="http://www.w3.org/2000/svg" xmlns:xlink="http://www.w3.org/1999/xlink" viewBox="0 0 237.95 186.94"><defs><style>.cls-1{fill:#fff;}.cls-2{fill:#242e3b;}.cls-3{fill:url(#linear-gradient);}.cls-4{fill:url(#linear-gradient-2);}.cls-5{fill:#17a9f9;}.cls-6{fill:#171d26;opacity:0.15;isolation:isolate;}.cls-7{fill:url(#linear-gradient-3);}.cls-8{fill:#c6c6c6;}</style><linearGradient id="linear-gradient" x1="45.97" y1="-3349.11" x2="237.95" y2="-3349.11" gradientTransform="matrix(1, 0, 0, -1, 0, -3208.58)" gradientUnits="userSpaceOnUse"><stop offset="0" stop-color="#17a9f9"/><stop offset="1" stop-color="#26d8e2"/></linearGradient><linearGradient id="linear-gradient-2" x1="113.37" y1="51.7" x2="115.71" y2="27.17" gradientTransform="matrix(1, 0, 0, 1, 0, 0)" xlink:href="#linear-gradient"/><linearGradient id="linear-gradient-3" x1="115.64" y1="29.58" x2="117.51" y2="-0.74" gradientTransform="matrix(1, 0, 0, 1, 0, 0)" xlink:href="#linear-gradient"/></defs><title>grunty-cloud-fullColor-light</title><g id="Layer_2" data-name="Layer 2"><g id="Annotations"><path class="cls-1" d="M76.85,128.42c.48.07,1,.13,1.42.22A40.06,40.06,0,0,1,120.9,109.5c.7.15,1.41.29,2.1.48a49.38,49.38,0,0,1,8.85-8.9,48.82,48.82,0,0,1,30.09-10.34c1.37,0,2.73.06,4.08.17l-.47-.54s12,.42,33.64-11l-3.29-1s14.48-9.73,21.15-14.45l-3.26-1s18.5-6.26,17.47-17.51-13.69-16.24-20.64-10.6a41.32,41.32,0,0,0-10.5,13.91l-2.18-3.32a77,77,0,0,1-19.54,17.9l.78-3.1a44.72,44.72,0,0,1-18,6.2,53.72,53.72,0,0,0-3.27-11.32c-3.66-8.71-11.8-17.17-11.8-17.17h3.15a35.48,35.48,0,0,0-5.05-4.18,5.14,5.14,0,0,1-1.4,3l-6.06,6.31a23.77,23.77,0,0,1-18.91,7.25l-8-.6a23.77,23.77,0,0,1-17.62-9.94l-4.37-6.16a36,36,0,0,0-5.18,4.27h3.15S77.63,46.39,74,55A48,48,0,0,0,70.5,66.42a44.66,44.66,0,0,1-18.37-6.2l.79,3.1a77,77,0,0,1-19.54-17.9l-2.17,3.32A41.38,41.38,0,0,0,20.7,34.83C13.77,29.19,1.18,34.22.05,45.45S17.56,62.94,17.56,62.94l-3.28,1C21,68.64,35.43,78.37,35.43,78.37l-3.27,1c21.66,11.44,33.63,11,33.63,11l-2.05,2.39a44.78,44.78,0,0,0,5.29.7c-1.52,6.23-2.46,22.22-2.08,35.26a30.19,30.19,0,0,1,9.9-.3Zm60.07-70.19a3.71,3.71,0,1,1-3.71,3.71h0a3.71,3.71,0,0,1,3.71-3.69Zm-42,0a3.71,3.71,0,1,1-3.71,3.71h0A3.71,3.71,0,0,1,95,58.25Zm-4.63,20a2.14,2.14,0,0,1,3-.51,40.46,40.46,0,0,0,45.9.79l1.26-.84a2.14,2.14,0,1,1,2.36,3.58h0l-1.26.89a44.71,44.71,0,0,1-50.73-.88,2.13,2.13,0,0,1-.56-3Z"/><path class="cls-2" d="M95,58.25A3.72,3.72,0,1,0,98.67,62h0A3.72,3.72,0,0,0,95,58.25Z"/><circle class="cls-2" cx="136.92" cy="61.96" r="3.71"/><path class="cls-2" d="M143.43,78.32a2.16,2.16,0,0,0-3-.61l-1.26.84a40.46,40.46,0,0,1-45.9-.79,2.14,2.14,0,0,0-2.49,3.48h0a44.69,44.69,0,0,0,50.74.94l1.27-.84a2.14,2.14,0,0,0,.63-3Z"/><path class="cls-3" d="M211,131.54h-1.23l-2.8.13-.65-2.72A45.47,45.47,0,0,0,162.9,94.13h-1A45.28,45.28,0,0,0,125.71,112l-1.39,1.84-2.17-.55A36.68,36.68,0,0,0,81.2,130.41L80,132.46,77.67,132A26.91,26.91,0,0,0,46,158.49a23.88,23.88,0,0,0,7.92,17.87c4.86,4.53,11.82,7.75,19.62,9.06a92,92,0,0,0,17.92,1.52,135.34,135.34,0,0,0,21.09-1.53c7.58-1,15.49-2.41,21.65-6.79l1.85-1.31,1.91,1.19a45.63,45.63,0,0,0,50-1.19l2.27-1.58,2,2A26.93,26.93,0,1,0,211,131.51Z"/><path class="cls-2" d="M189.76,180.14c.31.32.64.62,1,.92C190.4,180.76,190.07,180.46,189.76,180.14Z"/><path class="cls-4" d="M141.67,29.67l0,0c0,.35,0,.71,0,1.06-5.55,7.68-14.51,9-27.19,9-11,0-23.11-7.72-25.59-12.8.1-.41.2-.82.31-1.23h0c-1-.05-2.66.27-2.66,2.09S86,31.71,87.29,33c1,1,4.58,6.72,6.61,9a25.28,25.28,0,0,0,16,8.1c4,.43,7.79.64,10.34.64a23.7,23.7,0,0,0,16.64-7.36s4.7-5.1,6.18-6.4c.85-.74,1.17-3.09,1.17-3.51V32.14A2.22,2.22,0,0,0,141.67,29.67Z"/><path class="cls-5" d="M141.64,29.69c-.47-11.77-8.77-26.16-24.44-27.25-15.79-.57-24.34,9.62-28,23.24-.11.41-.21.82-.31,1.23,2.48,5.08,14.6,12.8,25.59,12.8,12.68,0,21.64-1.28,27.19-9C141.67,30.4,141.66,30,141.64,29.69Z"/><path class="cls-6" d="M115.12,44a12,12,0,0,1-11.88-10.66c0,.42-.06.85-.06,1.28a11.94,11.94,0,0,0,23.88,0,10.86,10.86,0,0,0-.07-1.28A11.94,11.94,0,0,1,115.12,44Z"/><path class="cls-7" d="M123.07,23.13l1.27-19.06A3.37,3.37,0,0,0,121.21.5L113.81,0a3.36,3.36,0,0,0-3.57,3.12L109,21.77a11.95,11.95,0,0,1,14.07,1.36Z"/><circle class="cls-1" cx="115.12" cy="32.03" r="11.94"/><path class="cls-8" d="M110.2,37a6.88,6.88,0,1,1,9.73-9.73Z"/></g></g></svg>