<svg xmlns="http://www.w3.org/2000/svg" viewBox="0 0 241.84 189.51"><defs><style>.cls-1{fill:#fff;}</style></defs><title>grunty-cloud-white</title><g id="Layer_2" data-name="Layer 2"><g id="Annotations"><path class="cls-1" d="M67.07,93.34,65,95.77c1.31.26,2.61.45,3.88.58a148.05,148.05,0,0,0-.46,35,30.07,30.07,0,0,1,7.38-.91,28,28,0,0,1,3,.16c.81.08,1.62.19,2.42.34a40.39,40.39,0,0,1,45-18.79c.36-.49.75-1,1.14-1.44A49.5,49.5,0,0,1,150,95.24a49,49,0,0,1,14.65-2.48h.83a52,52,0,0,1,6.36.4h0c4.89-.57,15.58-2.76,31.26-11l-3.34-1s14.81-9.91,21.57-14.72l-3.35-1s18.87-6.4,17.81-17.85-14-16.57-21-10.83A42.25,42.25,0,0,0,204,50.91l-2.21-3.42a78.5,78.5,0,0,1-19.93,18.23l.81-3.15s-9.41,6.05-20,6.41a71.41,71.41,0,0,0-2.6-12c-2.8-8.26-10.4-15.95-11.86-17.32a5.23,5.23,0,0,1-.64.77l-6.21,6.51a27.77,27.77,0,0,1-19.92,8.49,17.48,17.48,0,0,1-2-.08l-8.23-.65A27.48,27.48,0,0,1,90.64,43.14L86,36.57a37.29,37.29,0,0,0-3.2,2.82H86S77.68,48.12,73.91,57c0,0-2.09,3.82-3.53,11.8a46.66,46.66,0,0,1-17.23-6.1L54,65.83A78.68,78.68,0,0,1,34,47.6L31.82,51A42.21,42.21,0,0,0,21.1,36.82C14,31,1.19,36.1.05,47.55S17.9,65.39,17.9,65.39l-3.33,1c6.83,4.8,21.55,14.72,21.55,14.72l-3.33,1C54.87,93.77,67.07,93.34,67.07,93.34Zm71.45-33.85a4,4,0,1,1-4,4.06v0A4,4,0,0,1,138.52,59.49Zm-43.08,0a4,4,0,1,1-4,4,4,4,0,0,1,4-4ZM90.52,76.72a2.4,2.4,0,0,1,3.35-.58,41.3,41.3,0,0,0,46.87.81l1.3-.86a2.41,2.41,0,0,1,2.64,4h0l-1.3.85a46.09,46.09,0,0,1-52.29-.9,2.39,2.39,0,0,1-.58-3.33Z"/><path class="cls-1" d="M149.32,37.73a8.1,8.1,0,0,1-.93,1.71h2.79Q150.25,38.54,149.32,37.73Z"/><path class="cls-1" d="M118,19.92a13.87,13.87,0,0,1,7,2.47l1.34-18.23h0a3.2,3.2,0,0,0-.17-1.3A3.33,3.33,0,0,0,123.22.58L117.41.16l-2-.16h-.79l-.34.08L114,.22l-.31.13-.25.13-.28.2-.23.17-.24.29-.18.19c-.07.11-.14.21-.2.32l-.14.22a2.74,2.74,0,0,0-.15.4c0,.07-.05.12-.08.2a4.23,4.23,0,0,0-.11.62h0L110.46,21.5A13.85,13.85,0,0,1,118,19.92Z"/><path class="cls-1" d="M88.6,34.72l4.69,6.61a24.37,24.37,0,0,0,18.1,10.25l8.23.61c.55,0,1.14.05,1.62.07h.39a20.09,20.09,0,0,0,2.19-.12H124c.76-.08,1.52-.2,2.28-.34h0c.74-.16,1.47-.35,2.2-.57l.23-.07a18.29,18.29,0,0,0,2-.75l.32-.13c.65-.28,1.29-.59,1.9-.92l.33-.18a17,17,0,0,0,1.8-1.14,2.9,2.9,0,0,0,.29-.19c.59-.43,1.14-.86,1.73-1.34l.18-.15c.58-.51,1.14-1,1.69-1.59h0l6.22-6.48a5.37,5.37,0,0,0,1.37-2.65,5,5,0,0,0,.1-.66l.14-1.82a2.4,2.4,0,0,0-2.22-2.58h-.06l-.38.28c-.76-8.57-3.52-14.54-6.94-18.69a26,26,0,0,0-6.9-5.84c-.29-.17-.59-.32-.87-.47L128,25.42a13.72,13.72,0,0,1,1.53,2.47,14,14,0,0,1-12.56,20h-1.06a14,14,0,0,1-11.58-20,13.77,13.77,0,0,1,2.57-3.71l1.48-20c-6.84,2.28-14.81,8.2-18.32,22.62h0l-.24-.24h-.57l-.24.06-.2.05-.23.1-.18.1-.21.14-.16.13-.18.18-.13.15a1.76,1.76,0,0,0-.14.23l-.11.16a2.33,2.33,0,0,0-.11.28.94.94,0,0,1-.06.15,4,4,0,0,0-.08.48l-.13,1.82a5.32,5.32,0,0,0,1,3.48Z"/><path class="cls-1" d="M116.18,44.64a10.79,10.79,0,0,0,9-17.81h0a10.75,10.75,0,0,0-7.37-3.71H117a10.79,10.79,0,0,0-.79,21.56Zm-4.77-6a7.44,7.44,0,1,1,10.93-10.09l.33.38Z"/><path class="cls-1" d="M214.79,133.81h-1.23l-2.81.12-.66-2.73a45.78,45.78,0,0,0-42.1-35c-.84,0-1.69-.08-2.55-.08h-.36a45.9,45.9,0,0,0-36.11,18l-1.38,1.8-2.2-.57a37,37,0,0,0-41.2,17.2L83,134.63l-2.36-.42a26.26,26.26,0,0,0-4.84-.45,27.13,27.13,0,0,0-27.11,27.11,24,24,0,0,0,8,18c4.88,4.56,11.9,7.79,19.75,9.12a93.22,93.22,0,0,0,18,1.52A135.62,135.62,0,0,0,115.64,188c7.62-1,15.58-2.42,21.78-6.84l1.86-1.31,1.93,1.2a45.92,45.92,0,0,0,50.27-1.15l2.28-1.6,2,2a27.11,27.11,0,1,0,18.95-46.47Z"/></g></g></svg>