<svg xmlns="http://www.w3.org/2000/svg" xmlns:xlink="http://www.w3.org/1999/xlink" viewBox="0 0 237.54 182.52"><defs><style>.cls-1{fill:#242e3b;}.cls-2,.cls-9{fill:#171d26;}.cls-3{fill:#17a9f9;}.cls-4{fill:url(#New_Gradient_Swatch_1);}.cls-5{fill:url(#New_Gradient_Swatch_1-2);}.cls-6{fill:url(#New_Gradient_Swatch_1-3);}.cls-7{fill:url(#New_Gradient_Swatch_1-4);}.cls-8{fill:url(#New_Gradient_Swatch_1-5);}.cls-9{opacity:0.15;}.cls-10{fill:#fff;}.cls-11{fill:#c6c6c6;}.cls-12{fill:url(#New_Gradient_Swatch_1-6);}</style><linearGradient id="New_Gradient_Swatch_1" x1="115.73" y1="24.83" x2="115.73" y2="-2.66" gradientUnits="userSpaceOnUse"><stop offset="0" stop-color="#17a9f9"/><stop offset="1" stop-color="#26d8e2"/></linearGradient><linearGradient id="New_Gradient_Swatch_1-2" x1="111.78" y1="58.54" x2="114.52" y2="29.21" xlink:href="#New_Gradient_Swatch_1"/><linearGradient id="New_Gradient_Swatch_1-3" x1="238.41" y1="-157.93" x2="238.41" y2="-180.16" gradientTransform="translate(-136.43 189.13) rotate(4.23)" xlink:href="#New_Gradient_Swatch_1"/><linearGradient id="New_Gradient_Swatch_1-4" x1="249.07" y1="-157.93" x2="249.07" y2="-180.16" gradientTransform="translate(-136.43 189.13) rotate(4.23)" xlink:href="#New_Gradient_Swatch_1"/><linearGradient id="New_Gradient_Swatch_1-5" x1="227.77" y1="-157.93" x2="227.77" y2="-180.16" gradientTransform="translate(-136.43 189.13) rotate(4.23)" xlink:href="#New_Gradient_Swatch_1"/><linearGradient id="New_Gradient_Swatch_1-6" x1="17.61" y1="137.31" x2="368.58" y2="137.31" xlink:href="#New_Gradient_Swatch_1"/></defs><title>grunty-cloud-fullColor-dk</title><g id="Layer_2" data-name="Layer 2"><g id="Artwork"><path class="cls-1" d="M67.37,125.94c0-1.59-.07-3.23-.08-4.89,0-1.1,0-2.22,0-3.34,0-.56,0-1.12,0-1.68.17-10.07,1-20,2.08-24.59a45.45,45.45,0,0,1-5.16-.69h0l2-2.32h-.57l-.56,0h-.06l-.76,0h-.12c-.28,0-.6-.06-.94-.11l-.17,0L62,88.05l-.22,0c-.41-.06-.85-.13-1.31-.22l-.24,0-1.53-.32-.22,0L56.65,87l-.13,0-2-.53-.1,0c-.7-.2-1.43-.42-2.18-.66L52,85.63c-.73-.24-1.5-.49-2.28-.77l-.37-.12c-.78-.28-1.59-.58-2.42-.9l-.43-.16c-.84-.33-1.71-.68-2.6-1.05l-.43-.19c-.92-.38-1.85-.79-2.82-1.23L40.23,81c-1-.46-2-.94-3.07-1.46l-.27-.13c-1.11-.54-2.24-1.12-3.41-1.74h0l2-.6,1.19-.35L29.61,72c-2.11-1.43-4.47-3-6.73-4.59l-3.29-2.25-.77-.54-1-.71-1.72-1.21,3.19-1s-8.5-2.88-13.5-8.23l-.09-.1a16,16,0,0,1-1.74-2.24c-.17-.28-.34-.55-.49-.84a11.35,11.35,0,0,1-.75-1.76,9.43,9.43,0,0,1-.44-3.88h0c0-.44.1-.86.18-1.28l.06-.34c.08-.35.16-.69.26-1a1.33,1.33,0,0,1,0-.19c.11-.39.25-.77.39-1.14l.12-.28c.13-.29.26-.58.4-.86l.12-.24c.19-.34.38-.67.58-1a2.43,2.43,0,0,0,.14-.2c.18-.26.36-.51.55-.75l.18-.24c.24-.29.48-.57.74-.84l.09-.09c.23-.23.47-.46.72-.68l.23-.2c.25-.22.51-.42.78-.62l.08-.06c.3-.21.6-.41.91-.6l.25-.14.78-.42.2-.1c.31-.16.64-.29,1-.42l.25-.09c.26-.1.53-.19.8-.27l.26-.07c.33-.09.67-.17,1-.24l.19,0c.28,0,.57-.09.85-.12l.29,0c.34,0,.68,0,1,0h.13l.72,0,.29,0,.55.07.32.05.51.1.33.09.49.14.32.1.48.19.31.13.47.23.29.14.5.31.23.14q.35.24.69.51c.84.69,1.63,1.41,2.38,2.16l.05.06a41.9,41.9,0,0,1,7.15,10c.44.85.66,1.35.66,1.35l2.11-3.23s1,1.35,2.82,3.46l1,1.11c.53.58,1.13,1.22,1.77,1.87,1.08,1.1,2.28,2.27,3.64,3.49a76.49,76.49,0,0,0,9.81,7.51l-.77-3h0a45.07,45.07,0,0,0,14.36,5.6,33.34,33.34,0,0,0,3.53.47c.09-.45.18-.89.27-1.31.46-2.13,1-3.92,1.41-5.38A32.57,32.57,0,0,1,74.2,54a43,43,0,0,1,3.31-6.16c.53-.83,1.07-1.63,1.61-2.4.15-.21.29-.42.44-.62a75.68,75.68,0,0,1,6.14-7.49H82.64a34.69,34.69,0,0,1,5-4.16L87,32.24a5.79,5.79,0,0,1-.5-.91,37.21,37.21,0,0,0-5.42,4.46l-3.77,3.76h3.53A59.94,59.94,0,0,0,72.2,53.1a46.43,46.43,0,0,0-3.12,9.62,42.68,42.68,0,0,1-14.94-5.51l-4.71-3,.68,2.69A72.45,72.45,0,0,1,36.47,43.36l-1.88-2.62-1.76,2.7-.06.08a40.26,40.26,0,0,0-9.06-10.91,12.55,12.55,0,0,0-8-2.75A16,16,0,0,0,.05,44.47C-.71,52.71,7.17,58.35,12.9,61.33l-1.79.54,3.69,2.61C19.13,67.54,26.91,72.82,31.58,76l-3.89,1.17,4.76,2.51c14,7.38,23.92,9.81,29.3,10.61l-1.66,1.93,3.73.73c1,.18,1.95.34,2.94.47-1.29,7.68-2,22.43-1.53,34.18.71-.3,1.44-.57,2.17-.81Z"/><path class="cls-1" d="M142.65,33.11l0,.17a35.55,35.55,0,0,1,4.92,4.07h-3.07a74.82,74.82,0,0,1,8.19,10.51A43,43,0,0,1,156,54a51.29,51.29,0,0,1,3.19,11.08c.52,0,1-.11,1.55-.18a44.6,44.6,0,0,0,16-5.86h0v0l-.76,3c1.19-.76,2.3-1.54,3.39-2.33a79.14,79.14,0,0,0,12.83-11.65C194,46,195,44.65,195,44.65h0l2.11,3.23a41.84,41.84,0,0,1,6.53-10,31.64,31.64,0,0,1,3.71-3.59h0q.34-.27.69-.51l.24-.15c.16-.1.32-.2.49-.29l.3-.16.45-.22.33-.14.46-.17.34-.12.47-.13.34-.09.49-.09.34-.06.54-.07.3,0,.71,0H214c.34,0,.68,0,1,0l.29,0c.28,0,.57.07.85.12l.19,0c.34.07.68.15,1,.24l.25.07c.28.08.55.17.82.27l.23.09c.33.13.66.27,1,.42l.18.09.79.43.25.14c.31.19.61.39.91.6a.18.18,0,0,0,.07,0c.27.2.54.41.8.63l.22.2c.25.22.49.45.73.69l.08.08c.26.27.5.55.74.84l.18.23c.19.25.38.5.55.76l.13.2c.21.32.4.65.59,1,0,.08.07.16.12.24.14.28.27.57.4.87l.12.27c.14.37.28.75.39,1.14a1.33,1.33,0,0,1,0,.19c.1.34.18.68.26,1l.06.33c.08.42.14.85.18,1.28a8.78,8.78,0,0,1,0,1,10.45,10.45,0,0,1-1.72,5.46,16.82,16.82,0,0,1-2.52,3c-5.05,4.9-12.81,7.53-12.81,7.53l3.19,1c-1.16.82-2.56,1.79-4.07,2.83L207.36,67l-1.16.79c-1.32.91-2.66,1.82-4,2.7l-3,2-1.48,1L193,76.75l.72.21,2.47.74h0c-1.17.62-2.31,1.2-3.42,1.75l-.25.12c-1.06.52-2.08,1-3.08,1.46l-.39.18c-1,.44-1.91.85-2.82,1.24l-.43.18q-1.33.56-2.61,1.05l-.41.16c-.84.32-1.65.62-2.44.9l-.36.12c-.79.28-1.55.54-2.29.77l-.25.08q-1.14.36-2.19.66l-.1,0-2,.53L173,87l-1.79.42-.21,0c-.54.12-1,.23-1.54.32l-.23,0c-.46.09-.9.16-1.31.22l-.22,0-1.12.15-.17,0c-.34,0-.66.08-.94.11h-.12l-.76,0h-.06l-.56,0h-.57l.32.36a48.5,48.5,0,0,1,8.14.72c5.75-1.28,14.27-4,25.34-9.86L202,77.14,198.08,76c4.67-3.15,12.45-8.43,16.78-11.49l3.69-2.61-1.79-.54c5.73-3,13.61-8.62,12.85-16.86A16,16,0,0,0,214,29.86a12.55,12.55,0,0,0-8,2.75,40.26,40.26,0,0,0-9.06,10.91l-.06-.08-1.77-2.7-1.87,2.63a72.93,72.93,0,0,1-13.64,13.5l.68-2.69-4.71,3a42.93,42.93,0,0,1-14.61,5.46A51.05,51.05,0,0,0,158,53.13a60.32,60.32,0,0,0-8.66-13.58h3.53l-3.76-3.76a38.17,38.17,0,0,0-6.39-5.09,2.49,2.49,0,0,1,.07.68Z"/><path class="cls-1" d="M79.12,45.46c.15-.21.29-.42.44-.62C79.41,45,79.27,45.25,79.12,45.46Z"/><path class="cls-1" d="M177.43,85.71q-1.14.36-2.19.66Q176.29,86.07,177.43,85.71Z"/><path class="cls-1" d="M67.3,117.71c0,1.12,0,2.24,0,3.34C67.28,120,67.29,118.83,67.3,117.71Z"/><path class="cls-1" d="M175.14,86.4l-2,.53Z"/><circle class="cls-2" cx="94.64" cy="60.76" r="3.62"/><circle class="cls-2" cx="135.53" cy="60.76" r="3.62"/><path class="cls-2" d="M90.63,79.54a43.54,43.54,0,0,0,49.41.85l1.23-.81A2.08,2.08,0,1,0,139,76.1l-1.23.81A39.39,39.39,0,0,1,93,76.14a2.05,2.05,0,0,0-1.56-.35,2,2,0,0,0-1.35.85A2.08,2.08,0,0,0,90.63,79.54Z"/><polygon class="cls-1" points="82.64 37.35 82.64 37.35 85.7 37.35 85.7 37.35 82.64 37.35"/><path class="cls-3" d="M140.3,29.22l0,0,0,0c-1.45-16.27-10.46-22.65-17-25.11a25,25,0,0,0-5.21-1.37l0,0s-.74-.09-1.54-.14S115,2.5,115,2.5h0a28.13,28.13,0,0,0-5,.43v0c-7,1.38-17.19,6.4-21.07,22.42h0c-.08.36-.17.71-.26,1.08A14,14,0,0,0,90.49,29h0a22.11,22.11,0,0,0,1.61,1.62,29.84,29.84,0,0,0,10.69,6.12h0l1.26.4a11.85,11.85,0,0,1-.74-1.62,11.67,11.67,0,0,1-.76-3.78c-.06.36-.11.71-.14,1.08,0-.37.08-.72.14-1.08s0-.81,0-1.22a11.71,11.71,0,0,1,1.16-4.27,11.55,11.55,0,0,1,1.79-2.67,15,15,0,0,1,3.12-2.21l0-.26a11.61,11.61,0,0,1,13.25,1.31h0a10.85,10.85,0,0,1,.86.8,12.07,12.07,0,0,1,1.92,2.63h0a11.69,11.69,0,0,1,1.36,6.41,12.12,12.12,0,0,1-.15,1.21h0a12.23,12.23,0,0,1-2.38,5.26c.45-.06.9-.11,1.33-.18,9.07-1.34,13.19-5.15,14.74-7.09a7.68,7.68,0,0,0,.79-1.17c0-.33-.06-.64-.09-1Z"/><path class="cls-4" d="M120.35.56,112.92,0a3.17,3.17,0,0,0-3.4,2.93V3l-1.36,18.31a11.71,11.71,0,0,1,13.76,1.05l1.35-18.27V4A3.17,3.17,0,0,0,120.35.56Z"/><path class="cls-5" d="M142.71,30.74h0A2.29,2.29,0,0,0,140.65,29L137.87,31a34.64,34.64,0,0,1-12.39,5.83,11.79,11.79,0,0,1-23-1.72,34.62,34.62,0,0,1-6.78-3.71c-.72-.5-1.41-1-2.09-1.6s-1.2-1-1.77-1.57l-.72-.68-2.22-2.23-.22-.23a2.31,2.31,0,0,0-2.47,2.12L86.07,29a5,5,0,0,0,.43,2.39,4,4,0,0,0,.5.91l.67.95,4.26,6a23.16,23.16,0,0,0,17.18,9.69l7.82.58a23.15,23.15,0,0,0,18.41-7.06l5.91-6.15a5.09,5.09,0,0,0,1.37-3h0l0-.17.13-1.73A2.58,2.58,0,0,0,142.71,30.74Z"/><path class="cls-6" d="M113.45,43.09a11.75,11.75,0,0,1-9.4-6l-1.26-.4a11.76,11.76,0,0,0,22.07,1.81c-.43.07-.88.12-1.33.18A11.77,11.77,0,0,1,113.45,43.09Z"/><path class="cls-7" d="M124.6,37.07a11.64,11.64,0,0,1-1.07,1.62c.45-.06.9-.11,1.33-.18a11.66,11.66,0,0,0,.62-1.65Z"/><path class="cls-8" d="M103.31,35.48l-.84-.34a13.47,13.47,0,0,0,.32,1.56l1.26.4A11.85,11.85,0,0,1,103.31,35.48Z"/><path class="cls-9" d="M125.89,34.46a9.73,9.73,0,0,0,0-1.08A11.56,11.56,0,0,1,124.6,37h0a11.64,11.64,0,0,1-1.07,1.62,11.73,11.73,0,0,1-20.22-3.21,11.61,11.61,0,0,1-.76-3.77c-.06.35-.11.7-.14,1.07a12.35,12.35,0,0,0,.06,2.36,13.47,13.47,0,0,0,.32,1.56,11.76,11.76,0,0,0,22.07,1.81,11.66,11.66,0,0,0,.62-1.65l-.44.1.44-.1A12,12,0,0,0,125.89,34.46Z"/><path class="cls-10" d="M124.7,25.81h0a12.07,12.07,0,0,0-1.92-2.63,10.85,10.85,0,0,0-.86-.8,11.71,11.71,0,0,0-13.76-1.05,12.11,12.11,0,0,0-2.63,2.21,11.55,11.55,0,0,0-1.79,2.67,11.71,11.71,0,0,0-1.16,4.27c0,.41,0,.82,0,1.22a11.67,11.67,0,0,0,.76,3.78,11.76,11.76,0,0,0,20.22,3.21,12.23,12.23,0,0,0,2.38-5.26,12.12,12.12,0,0,0,.15-1.21A11.69,11.69,0,0,0,124.7,25.81Z"/><path class="cls-11" d="M116.76,25h0a6.3,6.3,0,0,0-5.92.17h0a6.08,6.08,0,0,0-1.35,1,6.32,6.32,0,0,0,0,8.94l8.94-8.94A6.15,6.15,0,0,0,116.76,25Z"/><path class="cls-12" d="M67.56,130.21c-.73.28-1.45.58-2.15.92a26.25,26.25,0,0,0-14.86,23.64,23.25,23.25,0,0,0,7.68,17.41c4.73,4.4,11.52,7.54,19.12,8.87a90.51,90.51,0,0,0,17.45,1.47A131.68,131.68,0,0,0,115.35,181c7.37-1,15.08-2.35,21.08-6.61l1.8-1.27,1.87,1.16a44.44,44.44,0,0,0,48.67-1.16L191,171.6l1.95,1.91a26.23,26.23,0,1,0,18.34-45l-1.2,0-2.72.12-.64-2.65a44.28,44.28,0,0,0-38.18-33.66,46.34,46.34,0,0,0-5-.28c-.91,0-1.81,0-2.71.08a44.14,44.14,0,0,0-32.59,17.36l-1.34,1.74-2.12-.55a35.71,35.71,0,0,0-39.88,16.64l-1.16,2L81.47,129a26.81,26.81,0,0,0-4.69-.42,26.1,26.1,0,0,0-9.22,1.67"/><path class="cls-10" d="M67.4,126.76h0c-.73.24-1.46.51-2.17.81h0C65.94,127.27,66.67,127,67.4,126.76Z"/><path class="cls-10" d="M67.4,126.76h0l0,.83Z"/></g></g></svg>