<?xml version="1.0" encoding="utf-8"?>
<svg width="549px" height="359px" viewBox="476 304 549 359" xmlns="http://www.w3.org/2000/svg">
  <desc>Created with Sketch.</desc>
  <defs>
    <linearGradient x1="64.54" y1="-39.06" x2="64.54" y2="-70.06" id="linearGradient-13">
      <stop stop-color="#17A9F9" offset="0"/>
      <stop stop-color="#26D8E2" offset="1"/>
    </linearGradient>
    <linearGradient x1="64.54" y1="-6.06" x2="64.54" y2="-35.06" id="linearGradient-14">
      <stop stop-color="#17A9F9" offset="0"/>
      <stop stop-color="#26D8E2" offset="1"/>
    </linearGradient>
    <pattern id="pattern-0" x="0" y="0" width="20" height="20" patternUnits="userSpaceOnUse" viewBox="0 0 100 100">
      <path d="M 0 0 L 50 0 L 50 100 L 0 100 Z" style="fill: black;"/>
    </pattern>
    <radialGradient id="gradient-0" gradientUnits="userSpaceOnUse" cx="777.302" cy="529.965" r="111.254" gradientTransform="matrix(0.679876, -0.712998, 0.785251, 0.748771, -167.322185, 687.357973)">
      <stop offset="0" style="stop-color: rgb(0, 71, 139);"/>
      <stop offset="1" style="stop-color: rgb(3, 4, 56);"/>
    </radialGradient>
  </defs>
  <g transform="matrix(1, 0, 0, 1, 13.492616, 22.833658)">
    <path d="M 727.465 601.523 C 692.508 574.538 639.1 420.004 652.555 420.004 L 754.528 418.215 C 806.358 484.76 823.557 478.244 874.026 504.43 C 818.04 506.222 848.215 545.548 806.86 571.259 C 779.594 588.211 751.244 546.176 727.465 601.523 Z" style="stroke: rgb(0, 0, 0); fill: url(#gradient-0);"/>
    <path d="M 762.056 473.487 C 774.441 494.6 816.412 513.413 812.1 510.459 C 757.188 461.562 747.545 444.056 715.11 425.698 L 762.056 473.487 Z" style="fill: rgb(255, 255, 255);"/>
    <path d="M 790.098 534.503 L 804.301 549.019 C 764.382 490.648 739.946 483.784 708.621 464.317 L 790.098 534.503 Z" style="fill: rgb(255, 255, 255);"/>
    <path d="M 686.014 498.27 C 711.095 527.608 735.452 563.254 735.379 563.116 C 714.027 522.191 700.992 491.526 679.341 468.072 C 678.867 468.04 664.893 468.869 686.014 498.27 Z" style="fill: rgb(255, 255, 255);"/>
  </g>
  <g transform="matrix(1, 0, 0, 1, -16.446651, -24.200693)">
    <g id="Gruntwork_Illustrations-04" stroke="none" stroke-width="1" fill="none" fill-rule="evenodd" transform="matrix(1, 0, 0, 1, 664.419617, 356.880219)">
      <path d="M17.8,115.62 C17.8,115.62 11.8,145.62 19.8,182.62 L23.47,177.62 C23.3305517,187.375178 24.364641,197.111733 26.55,206.62 L30.13,204 L32.96,222 C34.0192757,228.755955 39.8415079,233.733709 46.68,233.73 L46.68,233.73 C53.0277111,233.729056 58.5659387,229.422004 60.13,223.27 L64.47,206.27 C72.4767014,208.93941 81.1332986,208.93941 89.14,206.27 L93.48,223.27 C95.0440613,229.422004 100.582289,233.729056 106.93,233.73 L106.93,233.73 C113.768492,233.733709 119.590724,228.755955 120.65,222 L123.48,204 L127.06,206.58 C129.245359,197.071733 130.279448,187.335178 130.14,177.58 L133.81,182.58 C141.81,145.58 135.81,115.58 135.81,115.58 C135.81,115.58 135.14,85.25 130.14,70.5 C126.3,59.18 115.14,48.75 115.14,48.75 L119.14,48.75 C110.65,40.3 99.26,36 90.43,33.9 C81.469186,31.7326965 72.120814,31.7326965 63.16,33.9 C54.33,36 42.95,40.3 34.46,48.78 L38.46,48.78 C38.46,48.78 28.13,59.53 23.46,70.53 C23.46,70.53 15.64,84.78 17.8,115.62 Z" id="Shape" fill="#FFFFFF" fill-rule="nonzero" style="stroke: rgb(0, 0, 0);"/>
      <circle id="Oval" fill="#171D26" fill-rule="nonzero" cx="50.13" cy="76.62" r="4" style="stroke-width: 2;"/>
      <circle id="Oval" fill="#171D26" fill-rule="nonzero" cx="103.46" cy="76.62" r="4" style="stroke-width: 2;"/>
      <path d="M46.46,90.78 L46.46,90.78 C64.7512265,103.745593 89.1220654,104.166396 107.85,91.84 L109.46,90.78" id="Shape" stroke="#171D26" stroke-linecap="round" style="stroke-width: 2;"/>
      <path d="M113.41,161.18 C122.3,158.93 126.33,156.52 126.33,156.52 C156.66,144.46 147.33,120.72 147.33,120.72 C147.18,120.02 146.98,119.29 146.75,118.53 C144.92,112.65 139.28,101.14 133.75,91.67 C132.093261,102.417803 129.068724,112.909585 124.75,122.89 C122.049327,125.841625 118.632419,128.046082 114.83,129.29 C105.05,133.71 92.59,131.43 92.59,131.43 L95.38,134.43 C84.0907429,133.710632 73.0108727,131.044697 62.63,126.55 L62.26,131.55 C62.26,131.55 53.17,124.55 42.01,122.55 C30.85,120.55 19.88,133.89 25.64,147 C31.4,160.11 55.83,155.71 55.83,155.71 L52.83,158.82 C63.15,159.96 85.23,161.82 85.23,161.82 L82.23,164.93 C92.7568558,164.849239 103.240565,163.574419 113.48,161.13" id="Shape" fill="#FFFFFF" fill-rule="nonzero" style="stroke-width: 2;"/>
      <path d="M94.4,137.22 C83.3894504,136.488664 72.5762533,133.937426 62.4,129.67 L62.63,126.5 C73.0108727,130.994697 84.0907429,133.660632 95.38,134.38 L92.59,131.38 C92.59,131.38 105.05,133.66 114.83,129.24 C125.66,125.57 128.18,117.24 128.06,114.37 L128.06,114.49 C128.361866,121.946497 124.170838,128.859331 117.42,132.04 C110.185406,135.333934 102.348229,137.097469 94.4,137.22 Z" id="Shape" fill-rule="nonzero" style="fill: rgb(0, 0, 0); stroke-width: 2;"/>
      <path d="M61.28,134.36 C61.28,134.36 52.19,127.36 41.03,125.36 C34.23,124.14 27.51,128.63 24.59,135.28 C26.65,127.12 34.28,121.14 42,122.52 C51.3,124.18 59.16,129.33 61.52,131 L61.28,134.36 Z" id="Shape" fill-rule="nonzero" style="fill: rgb(0, 0, 0); stroke-width: 2;"/>
      <path d="M 31.79 161.45 C 23.19 158.26 19.45 155.45 19.45 155.45 C 4.612 147.623 0.536 137.843 0.078 130.186 C -0.354 122.944 2.45 117.6 2.45 117.6 C 2.67 116.92 2.95 116.21 3.26 115.48 C 5.66 109.81 12.5 99 19 90.15 C 19.495 101.012 21.377 111.766 24.6 122.15 C 26.969 125.376 30.131 127.935 33.78 129.58 C 43.03 135.02 55.67 134.09 55.67 134.09 L 52.58 136.73 C 63.886 137.225 75.193 135.76 86 132.4 L 85.83 137.4 C 85.83 137.4 95.62 131.4 106.93 130.61 C 118.24 129.82 127.72 144.28 120.58 156.72 C 113.44 169.16 89.63 162.15 89.63 162.15 L 92.32 165.57 C 81.94 165.57 59.78 165.12 59.78 165.12 L 62.47 168.54 C 52.01 167.334 41.721 164.946 31.8 161.42" id="Shape" fill="#FFFFFF" fill-rule="nonzero" style="stroke-width: 2;"/>
      <path d="M53.25,139.65 C64.2773976,140.102503 75.3035301,138.723814 85.88,135.57 L86,132.4 C75.1993984,135.757378 63.8996742,137.222282 52.6,136.73 L55.69,134.09 C55.69,134.09 43,135 33.79,129.58 C23.41,124.78 21.79,116.2 22.23,113.38 L22.23,113.5 C21.130841,120.881923 24.557815,128.204618 30.93,132.09 C37.7706928,136.118649 45.369141,138.692317 53.25,139.65 Z" id="Shape" fill-rule="nonzero" style="fill: rgb(0, 0, 0); stroke-width: 2;"/>
      <path d="M86.49,140.36 C86.49,140.36 96.28,134.36 107.59,133.57 C114.48,133.09 120.68,138.27 122.87,145.2 C121.7,136.86 114.75,130.1 106.92,130.65 C97.49,131.31 89.13,135.59 86.6,136.99 L86.49,140.36 Z" id="Shape" fill-rule="nonzero" style="fill: rgb(0, 0, 0); stroke-width: 2;"/>
      <path d="M15.79,153.45 C15.79,153.45 27.01,159.74 45.88,159.14 C45.88,159.14 27.77,162.2 16.35,158.47 L15.79,153.45 Z" id="Shape" fill-rule="nonzero" style="fill: rgb(0, 0, 0); stroke-width: 2;"/>
      <path d="M138,149.92 C138,149.92 128.68,158.79 110.26,162.92 C110.26,162.92 127.33,161.92 137.47,155.46 L138,149.92 Z" id="Shape" fill-rule="nonzero" style="fill: rgb(0, 0, 0); stroke-width: 2;"/>
      <path d="M110.81,40.46 C108.81,11.28 88.63,5.59 81.68,4.57 L81.68,4.57 C81.68,4.57 80.68,4.45 79.68,4.38 C78.68,4.31 77.68,4.28 77.68,4.28 L77.68,4.28 C69.68,4.19 49.6,6.9 43.36,35.47 C43.36,35.47 50.53,49.47 75.53,51.65 L75.53,51.65 C76.53,51.72 75.86,51.65 76.03,51.65 L76.53,51.65 L76.53,51.65 C104.46,53.45 110.81,40.46 110.81,40.46 Z" id="Shape" fill="#17A9F9" fill-rule="nonzero" style="stroke-width: 2;"/>
      <path d="M53.91,21.85 C53.91,21.85 58.83,29 52.4,42.22" id="Shape" style="stroke-width: 2;"/>
      <path d="M73.8180483,1.33034565 L83.5380483,1.33034565 C85.8245072,1.33034565 87.6780483,3.18388678 87.6780483,5.47034565 L87.6780483,32.3303456 L69.6780483,32.3303456 L69.6780483,5.47034565 C69.6780483,4.37234938 70.1142256,3.31932418 70.8906263,2.54292357 C71.6670269,1.76652296 72.7200521,1.33034565 73.8180483,1.33034565 L73.8180483,1.33034565 Z" id="Shape" fill="url(#linearGradient-13)" fill-rule="nonzero" transform="translate(78.678048, 16.830346) rotate(4.230000) translate(-78.678048, -16.830346) " style="stroke-width: 2;"/>
      <path d="M41.16,43.11 L47.6,52.18 C52.8106246,59.5201409 61.0230776,64.1543108 70,64.82 L80.21,65.57 C89.1822698,66.22663 97.980385,62.8503533 104.21,56.36 L111.91,48.36 C112.973916,47.2498527 113.617515,45.8035224 113.73,44.27 L113.9,42.01 C114.020416,40.3590281 112.780817,38.9225252 111.13,38.8 L107.5,41.5 C99.2087994,47.6707582 89.0461429,50.7993591 78.72,50.36 L76.19,50.25 L73.69,50 C63.4124698,48.9140271 53.821937,44.3235659 46.53,37 L43.34,33.8 C41.6890281,33.6795843 40.2525252,34.9191833 40.13,36.57 L40,38.8 C39.8752482,40.3277076 40.2853061,41.8512848 41.16,43.11 L41.16,43.11 Z" id="Shape" fill="url(#linearGradient-14)" fill-rule="nonzero" style="stroke-width: 2;"/>
      <path d="M75.74,56.22 C68.0566498,55.6447465 61.9902459,49.4628327 61.56,41.77 C60.2925682,47.6356368 62.5571828,53.7022455 67.3581854,57.3025863 C72.1591879,60.902927 78.6172764,61.3775986 83.8930934,58.5179075 C89.1689104,55.6582163 92.2961919,49.9879137 91.9,44 C90.3480883,51.5545909 83.4316422,56.7847253 75.74,56.22 L75.74,56.22 Z" id="Shape" fill="#171D26" fill-rule="nonzero" opacity="0.15" style="stroke-width: 2;"/>
      <circle id="Oval" fill="#FFFFFF" fill-rule="nonzero" transform="translate(76.803385, 41.906003) rotate(-85.770000) translate(-76.803385, -41.906003) " cx="76.8033853" cy="41.9060033" r="15.36" style="stroke-width: 2;"/>
      <path d="M69,48.61 C66.2516338,45.467641 65.6789056,40.9742968 67.5511443,37.2429889 C69.4233829,33.5116809 73.3679936,31.2849779 77.53,31.61" id="Shape" fill="#F2F2F2" fill-rule="nonzero" style="stroke-width: 2;"/>
      <path d="M 15.788 153.572 C 0.95 145.745 0.243 137.837 -0.215 130.18 C -0.647 122.937 2.157 117.593 2.157 117.593 C 2.377 116.913 2.657 116.203 2.967 115.474 C 5.367 109.804 12.207 98.993 18.707 90.143" id="path-1" fill-rule="nonzero" style="stroke: rgb(0, 0, 0);"/>
      <path d="M 126.8 156.943 C 157.13 144.883 147.8 121.143 147.8 121.143 C 147.65 120.443 147.45 119.713 147.22 118.953 C 145.39 113.073 139.75 101.563 134.22 92.093" id="path-2" fill="#FFFFFF" fill-rule="nonzero" style="stroke: rgb(0, 0, 0);"/>
    </g>
  </g>
  <path d="M 665.937 423.114 C 660.462 421.629 650.365 441.073 654.494 442.359 L 661.256 447.56 C 662.03 446.094 669.817 431.963 675.707 427.253 L 665.937 423.114 Z" style="stroke: rgb(0, 0, 0); fill: rgb(0, 71, 139);"/>
  <path d="M 788.834 451.264 C 783.358 452.749 773.261 433.305 777.39 432.019 L 784.152 426.818 C 784.925 428.284 792.713 442.415 798.603 447.125 L 788.834 451.264 Z" transform="matrix(-1, 0, 0, -1, 1571.864018, 879.567016)" style="stroke: rgb(0, 0, 0); fill: rgb(0, 71, 139);"/>
</svg>