
<svg width="126px" height="150px" viewBox="567 0 126 150" version="1.1" xmlns="http://www.w3.org/2000/svg" xmlns:xlink="http://www.w3.org/1999/xlink">
    <!-- Generator: Sketch 42 (36781) - http://www.bohemiancoding.com/sketch -->
    <desc>Created with Sketch.</desc>
    <defs>
        <linearGradient x1="50%" y1="0%" x2="50%" y2="100%" id="linearGradient-1">
            <stop stop-color="#FFFFFF" offset="0%"></stop>
            <stop stop-color="#FEFEFE" offset="100%"></stop>
        </linearGradient>
    </defs>
    <g id="Page-1" stroke="none" stroke-width="1" fill="none" fill-rule="evenodd" transform="translate(567.000000, 0.000000)">
        <path d="M125.804465,109.984308 C124.760857,107.070528 124.081943,89.9928295 124.081943,89.9928295 L125.349378,90.3823383 C125.349378,90.3823383 120.183378,69.2933336 116.180726,64.7374295 L117.327639,63.7335123 C117.327639,63.7335123 107.395161,48.7231451 96.2860304,46.3043829 C94.9023783,43.8201736 93.1375957,41.2137967 93.1375957,41.2137967 L95.0405087,41.3153387 C92.0896826,37.5797036 84.6685957,31.8532899 84.6685957,31.8532899 L88.5139435,31.9770443 C83.3804217,28.1081353 77.1414652,26.9074804 77.1414652,26.9074804 C75.9049435,24.1658464 72.4567696,22.505476 72.4567696,22.505476 C72.5882478,24.9067857 70.4830304,25.1741267 70.4830304,25.1741267 C66.2878565,24.536316 69.5622913,20.6384517 69.5622913,20.6384517 C64.9558565,20.3715073 60.9144652,24.3740868 60.9144652,24.3740868 C58.7165087,23.3071025 60.9144652,20.6384517 60.9144652,20.6384517 C56.7412043,20.9057928 53.7684652,25.7084122 53.7684652,25.7084122 C51.3995087,25.7084122 50.0831609,21.9727771 50.0831609,21.9727771 C48.1094217,24.1071424 48.9816391,26.6401394 48.9816391,26.6401394 C42.0395087,29.0128904 36.7901609,32.7786708 36.7901609,32.7786708 L39.1591174,32.7786708 C36.0482478,34.8733712 31.7650304,42.4065186 29.6926826,46.2932767 C18.5679,48.6818937 8.60881304,63.7335123 8.60881304,63.7335123 L9.75533478,64.7374295 C5.7515087,69.2933336 0.585508696,90.3823383 0.585508696,90.3823383 L1.85294348,89.9928295 C1.85294348,89.9928295 1.17363913,107.068942 0.130421739,109.984308 C0.130421739,109.984308 0.855508696,109.748699 1.64907391,108.717016 C1.64907391,108.717016 0.18716087,117.506349 0.663769565,120.154374 C1.13920435,122.803589 1.71481304,126.361129 4.08259565,126.470604 C4.08259565,126.470604 4.68011739,128.72912 8.29655217,127.645873 C8.29655217,127.645873 9.42585652,129.850049 12.2060739,129.293551 C14.0240739,128.931014 16.3006826,127.060817 17.3595522,124.778898 C20.2090304,126.660202 22.1385522,121.356616 22.1385522,121.356616 C22.8835957,116.811421 22.3690304,113.5593 21.7402043,112.702143 C21.1094217,111.843399 18.4422913,106.194332 18.4422913,106.194332 L20.8159435,107.10583 C17.6264217,101.210841 20.5682478,85.4365288 20.5682478,85.4365288 L21.7006826,87.6391176 C21.8215957,82.1348271 25.8238565,74.5699479 25.8238565,74.5699479 C25.1649,78.8398685 24.7207696,83.5219067 24.8322913,88.0984365 C25.1836826,102.684787 28.1501609,113.535502 27.2810739,118.338121 L29.7443348,114.422407 C29.7443348,114.422407 30.0941609,124.38463 31.5001174,127.407488 C32.9041174,130.430742 32.4646826,135.945742 32.1132913,137.368917 L34.4822478,133.455583 C34.4822478,133.455583 35.3591609,143.149671 35.9742913,145.907171 C36.5874652,148.665068 40.1851174,149.375862 44.7473348,149.021258 C49.3111174,148.665068 51.8542043,149.999393 52.9072043,145.996417 C53.959813,141.993441 50.9772913,140.748758 55.4514652,131.143123 C55.4514652,131.143123 57.7327696,131.529458 60.9852913,131.753961 L60.9160304,131.907861 C61.6203783,131.903498 62.3063348,131.887235 62.9680304,131.860263 C63.6301174,131.885649 64.3156826,131.903498 65.0204217,131.907861 L64.9527261,131.753961 C68.2048565,131.529458 70.4845957,131.143123 70.4845957,131.143123 C74.9591609,140.748758 71.9766391,141.993441 73.0292478,145.996417 C74.0818565,149.999393 76.6269,148.665068 81.1887261,149.021258 C85.7513348,149.377052 89.3485957,148.665068 89.9633348,145.907171 C90.5788565,143.149671 91.4557696,133.455583 91.4557696,133.455583 L93.8243348,137.368917 C93.4733348,135.945742 93.0354652,130.432329 94.4398565,127.407488 C95.8438565,124.38463 96.1936826,114.422407 96.1936826,114.422407 L98.6581174,118.336534 C97.7890304,113.533518 100.7559,102.6832 101.107291,88.0968499 C101.217248,83.5199235 100.774683,78.8398685 100.115726,74.5683613 C100.115726,74.5683613 104.117987,82.1332405 104.2389,87.637531 L105.36977,85.4349422 C105.36977,85.4349422 108.311596,101.208858 105.122074,107.104244 L107.494161,106.192745 C107.494161,106.192745 104.82703,111.841813 104.196248,112.700557 C103.565857,113.557714 103.052465,116.809834 103.7979,121.354632 C103.7979,121.354632 105.727422,126.658219 108.5769,124.777312 C109.63577,127.060817 111.913552,128.929428 113.730378,129.291964 C116.510204,129.846876 117.6399,127.644287 117.6399,127.644287 C121.256335,128.727534 121.853857,126.469414 121.853857,126.469414 C124.221248,126.359543 124.795683,122.802003 125.272683,120.152788 C125.747726,117.504763 124.287378,108.71543 124.287378,108.71543 C125.079378,109.747112 125.804465,109.984308 125.804465,109.984308 M17.3376391,120.004838 C16.0576826,118.171132 13.7591609,121.513688 13.7591609,121.513688 C13.7591609,121.513688 13.5412043,116.883214 15.7329,115.974889 C15.7329,115.974889 17.6201609,115.540956 17.9214652,118.173908 C18.0044217,118.902552 17.7222913,119.484435 17.3376391,120.004838 M40.5286826,49.5866488 C40.5286826,48.3383961 41.5265087,47.3269426 42.7583348,47.3269426 C43.9893783,47.3269426 44.9891609,48.3383961 44.9891609,49.5866488 C44.9891609,50.8349014 43.9909435,51.846355 42.7583348,51.846355 C41.5280739,51.8479416 40.5286826,50.8349014 40.5286826,49.5866488 M84.2859,60.3052798 C84.0190304,60.4833749 77.6024217,64.662463 62.9695957,64.662463 C48.3367696,64.662463 41.9185957,60.4833749 41.6536826,60.3052798 C41.2897696,60.0621343 41.1892043,59.5659271 41.4294652,59.1966474 C41.6693348,58.8277643 42.1588565,58.7258257 42.5227696,58.9693678 C42.5822478,59.0090327 48.8705087,63.0611932 62.9695957,63.0611932 C77.0675087,63.0611932 83.3569435,59.0090327 83.4183783,58.9677812 C83.7838565,58.7274123 84.271813,58.8293509 84.5116826,59.198234 C84.748813,59.5675137 84.6482478,60.0621343 84.2859,60.3052798 M83.1765522,51.8479416 C81.9451174,51.8479416 80.9472913,50.836488 80.9472913,49.5882354 C80.9472913,48.339586 81.9451174,47.3285291 83.1765522,47.3285291 C84.407987,47.3285291 85.4077696,48.339586 85.4077696,49.5882354 C85.4077696,50.8349014 84.407987,51.8479416 83.1765522,51.8479416 M112.178857,121.513688 C112.178857,121.513688 109.880335,118.171132 108.599987,120.004838 C108.214161,119.484435 107.931639,118.902552 108.014987,118.173908 C108.316291,115.540956 110.203552,115.974889 110.203552,115.974889 C112.396813,116.884404 112.178857,121.513688 112.178857,121.513688" id="Fill-1" fill="#FEFEFE"></path>
        <g id="Group-13" transform="translate(37.173913, 0.000000)">
            <path d="M50.0989304,29.834389 C50.0973652,28.0038564 49.3781478,26.1741171 47.976887,24.3967354 C47.9808,14.093792 42.6410609,6.7034381 33.4207565,3.95347441 C32.6221043,2.50055115 31.1504087,1.46053892 29.3961913,1.30663932 L26.5087565,1.05357761 C24.7553217,0.89967801 23.127887,1.6683827 22.0948435,2.96066335 C12.5462348,4.0581896 6.03453913,10.4172575 4.29323478,20.5674913 C2.60397391,22.0739621 1.58501739,23.7513884 1.28097391,25.5549489 C0.900626087,27.8071188 1.65153913,30.0878474 3.51062609,32.3372407 C4.11910435,33.0619174 4.62506087,33.7774712 5.11810435,34.4763658 C7.86271304,38.354001 10.0297565,41.4212835 24.4090174,42.6818322 C38.7882783,43.942381 41.4495391,41.2971325 44.8092783,37.955766 C45.4126696,37.353257 46.0332783,36.736072 46.7481913,36.1272166 C48.9661043,34.2356002 50.0930609,32.1190841 50.0989304,29.834389 M10.8119739,20.0439154 L10.3228435,25.7790553 C10.2731478,26.3577654 10.6405826,26.8702352 11.1625826,27.0277046 C11.2392783,27.0507102 11.3167565,27.0653862 11.3950174,27.0725259 C12.0445826,27.1292466 12.614713,26.6437489 12.6706696,25.9849158 L13.1601913,20.2493793 C13.3695391,17.8857512 13.5284087,16.0215034 11.6982783,13.8137582 C11.2834957,13.3139811 10.5400174,13.2489308 10.0391478,13.6685849 C9.91901739,13.7780598 9.81375652,13.9045907 9.74684348,14.0426243 C9.54571304,14.4563287 9.58014783,14.978318 9.89475652,15.3583072 C11.0960609,16.7985378 11.0029304,17.8853545 10.8119739,20.0439154 M22.2028435,25.9103459 C22.8528,25.9670666 23.4225391,25.4815689 23.4784957,24.8231325 C23.5943217,23.4654049 24.7850609,22.4515714 26.1233217,22.5689794 C26.772887,22.6260968 27.3426261,22.1405991 27.3989739,21.481766 C27.4549304,20.8233296 26.9759739,20.2458094 26.3264087,20.188692 C23.6886261,19.957446 21.3588,21.9426715 21.1302783,24.617272 C21.0743217,25.2757084 21.5532783,25.8532285 22.2028435,25.9103459 M39.8702348,29.5694278 C39.9492783,29.5761709 40.0353652,29.5749809 40.1069739,29.565858 C40.6563652,29.5023943 41.0961913,29.0613212 41.145887,28.4822144 L41.6350174,22.7466779 C41.8193217,20.5877204 41.9120609,19.5009036 43.332887,18.2823996 C43.646713,18.0221982 43.7914957,17.6271364 43.7445391,17.2475438 C43.7241913,17.0218508 43.6341913,16.7902081 43.4764957,16.6006102 C43.061713,16.1004365 42.3190174,16.0353861 41.8169739,16.4550402 C39.6479739,18.3117516 39.488713,20.1756026 39.2868,22.5408173 L38.7976696,28.2763539 C38.7413217,28.9347903 39.2194957,29.5123105 39.8702348,29.5694278" id="Fill-9" fill="url(#linearGradient-1)"></path>
            <path d="M45.8710043,34.7152275 C45.0535696,35.4038092 44.3844391,36.0800948 43.7270478,36.7242519 C40.5821348,39.8613445 38.3020043,42.1238272 24.5578304,40.9188092 C10.8124826,39.7137912 8.9580913,37.0891685 6.3833087,33.4507122 C5.85191739,32.70184 5.29939565,31.9188559 4.61148261,31.0981903 C3.1703087,29.3608701 2.57983043,27.6727343 2.84591739,26.0940735 C2.9277,25.6137322 3.08813478,25.1651228 3.30374348,24.7387257 C4.4940913,30.096653 14.7529174,33.3670194 25.1252217,34.2765343 C30.3190043,34.7318867 35.5785261,34.5978196 39.7940478,33.7208298 C44.017787,32.8426502 47.2049609,31.2144083 48.2442652,28.6782381 C48.3765261,29.1351771 48.4669174,29.6063955 48.4661348,30.0930831 C48.4590913,31.6943529 47.5841348,33.2543713 45.8710043,34.7152275 L45.8710043,34.7152275 Z M8.51161304,13.47034 C11.1290478,8.87437439 15.3559174,5.94909209 20.8431783,4.9749235 C20.8275261,5.05742637 20.8126565,5.13873931 20.805613,5.22044889 L19.6700478,18.5299876 C18.1333957,20.0138494 17.0960478,22.0462761 16.899613,24.3515968 C16.6887,26.8199401 17.4689609,29.1347805 18.8983957,30.9216817 C15.4349609,30.2449995 12.4336565,29.3128756 10.177787,28.2403382 L10.1785696,28.2320086 C7.1933087,26.8211301 5.47743913,25.1512401 5.62026522,23.4773837 C5.95248261,19.5830892 6.94013478,16.2242701 8.51161304,13.47034 L8.51161304,13.47034 Z M26.4724826,18.4728702 C30.1045696,18.7913789 32.802613,22.0434995 32.4891783,25.7180507 C32.1749609,29.4001383 28.9666565,32.1346327 25.3341783,31.816124 C21.7099174,31.4984086 19.0122652,28.2470812 19.3264826,24.5642004 C19.6399174,20.8904425 22.8482217,18.1551548 26.4724826,18.4728702 L26.4724826,18.4728702 Z M23.2324826,5.4334491 C23.3678739,3.85082179 24.7468304,2.6743625 26.3089174,2.81120621 L29.2933957,3.07299419 C30.8547,3.2098379 32.0153087,4.60881698 31.8803087,6.19144429 L30.913787,17.5173441 C29.688613,16.6903321 28.2513522,16.1508902 26.6814391,16.0136498 C25.1193522,15.8764094 23.6128304,16.1576332 22.2655696,16.7589522 L23.2320913,5.43305245 L23.2324826,5.4334491 Z M45.0657,16.8319356 C46.1100913,19.7814134 46.4943522,23.2032996 46.1680043,27.0321471 C46.0251783,28.7052102 44.0518304,30.0522283 40.8724826,30.922475 L40.8717,30.9308046 C38.4675261,31.5959841 35.3609609,31.9918392 31.8341348,32.055303 C33.5437435,30.5436758 34.7055261,28.3993943 34.9160478,25.931051 C35.1128739,23.6257302 34.4351348,21.4429738 33.1731783,19.7048603 L34.3079609,6.40365121 C34.3150043,6.32154498 34.3130478,6.24776837 34.3122652,6.16407554 C39.5991783,8.10725629 43.2880043,11.7766511 45.0657,16.8319356 L45.0657,16.8319356 Z M50.9023957,30.0998261 C50.9008304,28.2078131 50.1573522,26.3169899 48.7095261,24.4797143 C48.7134391,13.8304968 43.1940913,6.19184094 33.6638739,3.34945816 C32.838613,1.84774713 31.3172217,0.772433188 29.5043087,0.613773809 L26.5198304,0.351985833 C24.7077,0.193326454 23.0250913,0.987416647 21.957613,2.32332862 C12.0881348,3.45734653 5.3573087,10.0306046 3.5577,20.5215594 C1.8117,22.0788012 0.758308696,23.8121549 0.444482609,25.6767993 C0.0512217391,28.0043324 0.827178261,30.3616141 2.74887391,32.6867673 C3.3777,33.4356396 3.90048261,34.1757856 4.41035217,34.8976858 C7.2473087,38.9054217 9.48713478,42.0762294 24.3492652,43.3792195 C39.211787,44.681813 41.9626565,41.9481119 45.4354826,38.4940973 C46.0588304,37.8713592 46.7001783,37.2335485 47.4393522,36.6044641 C49.7320043,34.6489872 50.8965261,32.461471 50.9023957,30.0998261 L50.9023957,30.0998261 Z M10.2955696,19.9805309 L9.78961304,25.908442 C9.73874348,26.5065879 10.1183087,27.0361135 10.6575261,27.199136 C10.7369609,27.2225383 10.8171783,27.2380076 10.8981783,27.2451473 C11.5696565,27.3038512 12.1585696,26.802091 12.2168739,26.1214422 L12.7224391,20.1931345 C12.9392217,17.7501767 13.1035696,15.8228619 11.211613,13.54134 C10.7831348,13.0245071 10.014613,12.9570769 9.49652609,13.3910103 C9.37287391,13.5040551 9.2637,13.6349491 9.19443913,13.7773459 C8.98704783,14.2053295 9.02265652,14.7447714 9.34743913,15.1374534 C10.5890478,16.626075 10.4931783,17.7497801 10.2955696,19.9805309 L10.2955696,19.9805309 Z M22.0691348,26.0440958 C22.7410043,26.1027997 23.3299174,25.6010394 23.3878304,24.9203907 C23.5075696,23.5170485 24.7378304,22.4691033 26.1214826,22.5904777 C26.7929609,22.6495783 27.3818739,22.1474214 27.439787,21.4667727 C27.4977,20.7861239 27.0027,20.189168 26.3312217,20.1300674 C23.6050043,19.891285 21.1965261,21.9431475 20.9605696,24.7077871 C20.9026565,25.3880392 21.3980478,25.9849951 22.0691348,26.0440958 L22.0691348,26.0440958 Z M40.3301348,29.8257421 C40.4119174,29.8328817 40.5007435,29.8316918 40.5747,29.8225689 C41.1428739,29.7567252 41.5975696,29.3009762 41.6484391,28.702037 L42.1540043,22.774126 C42.3445696,20.5425818 42.4404391,19.4192734 43.9090043,18.1599146 C44.2333957,17.8905903 44.3832652,17.4828357 44.3343522,17.0901537 C44.313613,16.8569244 44.2208739,16.6173487 44.0573087,16.4214044 C43.6288304,15.9045715 42.8610913,15.8371412 42.3422217,16.2710747 C40.1000478,18.1900598 39.9357,20.1165814 39.7271348,22.5611257 L39.2215696,28.4894334 C39.1632652,29.1700822 39.6578739,29.7670381 40.3301348,29.8257421 L40.3301348,29.8257421 Z" id="Fill-11" fill="#1B222B"></path>
        </g>
    </g>
</svg>
