<svg xmlns="http://www.w3.org/2000/svg" viewBox="0 0 631.72 307.4"><defs><style>.cls-1{fill:#fff;}</style></defs><title>gruntwork-logo-stacked-white</title><g id="Layer_2" data-name="Layer 2"><g id="Artwork"><path class="cls-1" d="M41.94,256.87H86.17a.67.67,0,0,1,.66.59,60.24,60.24,0,0,1,.42,6.93q0,18.74-12.08,30.87T44.49,307.4q-18.74,0-31.61-12.45a43.07,43.07,0,0,1-.13-61.31q12.77-12.49,31.37-12.5a48.47,48.47,0,0,1,25.14,6.47,33.75,33.75,0,0,1,14.91,17.63.65.65,0,0,1-.43.86l-18.41,5.33a.65.65,0,0,1-.75-.33q-6.09-11.35-20.46-11.36a22.46,22.46,0,0,0-16.88,7,25.8,25.8,0,0,0,.18,35.06,23.29,23.29,0,0,0,17.31,7.08A23.68,23.68,0,0,0,58.48,285a21,21,0,0,0,8.07-10.84H41.94a.67.67,0,0,1-.66-.66V257.53A.66.66,0,0,1,41.94,256.87Z"/><path class="cls-1" d="M135.8,242.82a18.86,18.86,0,0,1,3.91.38.65.65,0,0,1,.51.66l-.82,18.55a.64.64,0,0,1-.65.62H135.8q-21.32,0-21.32,23.17v18.7a.65.65,0,0,1-.65.65H95.42a.65.65,0,0,1-.65-.65V244.34a.65.65,0,0,1,.65-.65h18.41a.65.65,0,0,1,.65.65v11.18Q122.13,242.83,135.8,242.82Z"/><path class="cls-1" d="M210.48,244.34V304.9a.65.65,0,0,1-.65.65H191.41a.65.65,0,0,1-.65-.65v-5.26q-7.39,7.75-19,7.76-10.86,0-17.44-7.09t-6.6-18.67v-37.3a.66.66,0,0,1,.65-.65h18.3a.65.65,0,0,1,.65.65v33.11a12.9,12.9,0,0,0,3,8.81,9.62,9.62,0,0,0,7.64,3.39,11.36,11.36,0,0,0,9.42-4.25q3.39-4.25,3.39-13V244.34a.65.65,0,0,1,.65-.65h18.42A.65.65,0,0,1,210.48,244.34Z"/><path class="cls-1" d="M259.28,241.84q10.85,0,17.44,7.08t6.59,18.67V304.9a.65.65,0,0,1-.65.65H264.37a.65.65,0,0,1-.65-.65V271.78a12.93,12.93,0,0,0-3-8.81,9.67,9.67,0,0,0-7.64-3.39,11.37,11.37,0,0,0-9.43,4.26q-3.39,4.25-3.39,13V304.9a.65.65,0,0,1-.65.65H221.24a.65.65,0,0,1-.65-.65V244.34a.65.65,0,0,1,.65-.65h18.41a.65.65,0,0,1,.65.65v5.26Q247.7,241.85,259.28,241.84Z"/><path class="cls-1" d="M335.91,288.08l4.19,14.25a.66.66,0,0,1-.33.76,35.3,35.3,0,0,1-16.41,4.31q-11.7,0-18.17-6.29t-6.47-18.36V259.34H288.15a.65.65,0,0,1-.65-.65V244.33a.65.65,0,0,1,.65-.64h10.57v-17.6a.64.64,0,0,1,.64-.64h18.43a.64.64,0,0,1,.64.64v17.6H336a.64.64,0,0,1,.64.64v14.36a.65.65,0,0,1-.64.65h-17.6v21.44q0,9,8.26,9a17.74,17.74,0,0,0,8.3-2.09A.64.64,0,0,1,335.91,288.08Z"/><path class="cls-1" d="M437.45,244.53,418,305.22a.63.63,0,0,1-.61.45H401.22a.64.64,0,0,1-.61-.44l-10.95-33.08-11.07,33.08a.64.64,0,0,1-.61.44H361.79a.65.65,0,0,1-.62-.45l-19.42-60.69a.64.64,0,0,1,.61-.84h18a.63.63,0,0,1,.61.45l10,32.82,11.55-32.84a.66.66,0,0,1,.61-.43h13a.64.64,0,0,1,.61.43l11.56,33,10-32.93a.63.63,0,0,1,.61-.46h18A.64.64,0,0,1,437.45,244.53Z"/><path class="cls-1" d="M471,242.08a34.13,34.13,0,0,1,24,9.12q9.87,9.14,9.86,23.42T495,298.16q-9.86,9.12-24,9.11-14.42,0-24.33-9.11t-9.92-23.54q0-14.3,9.92-23.42T471,242.08Zm0,48.56a14.23,14.23,0,0,0,10.48-4.5,17.08,17.08,0,0,0-.06-23A14.3,14.3,0,0,0,471,258.6a14.78,14.78,0,0,0-10.72,4.5,16.91,16.91,0,0,0-.06,23A14.7,14.7,0,0,0,471,290.64Z"/><path class="cls-1" d="M552.82,242.82a18.93,18.93,0,0,1,3.91.38.64.64,0,0,1,.5.66l-.81,18.55a.64.64,0,0,1-.65.62h-2.95q-21.33,0-21.32,23.17v18.7a.65.65,0,0,1-.65.65H512.44a.66.66,0,0,1-.66-.65V244.34a.66.66,0,0,1,.66-.65h18.41a.65.65,0,0,1,.65.65v11.18Q539.14,242.83,552.82,242.82Z"/><path class="cls-1" d="M631.07,305.55H607.58a.69.69,0,0,1-.49-.21l-19.89-22.1h-3.57V304.9a.65.65,0,0,1-.65.65H564.56a.65.65,0,0,1-.65-.65V217.47a.65.65,0,0,1,.65-.65H583a.65.65,0,0,1,.65.65v47.29h2.71l19.4-20.87a.66.66,0,0,1,.48-.2h22a.65.65,0,0,1,.47,1.09l-26.1,28.36,28.93,31.32A.65.65,0,0,1,631.07,305.55Z"/><path class="cls-1" d="M264,87.66h.12l2.16-.07-2.33,2.7c.66.11,1.33.19,2,.27l1,.1-.14,1a140.08,140.08,0,0,0-.54,32.23,29.82,29.82,0,0,1,6.25-.66c1,0,2,.06,3,.16.59.06,1.18.14,1.74.22a39.71,39.71,0,0,1,43.3-18l.74-.91A48.3,48.3,0,0,1,357.7,87.1h.82a50,50,0,0,1,6.11.38c4.52-.54,13.87-2.49,27.47-9.39l-2.88-.86,1.66-1.12c.13-.09,12.17-8.17,19.08-13l-4.18-1.26,2.8-.94c.18-.06,17.38-6,16.45-16.14A12.9,12.9,0,0,0,412.47,33,9.51,9.51,0,0,0,406.41,35a39.82,39.82,0,0,0-10,13.26l-.7,1.61-2.35-3.6A78,78,0,0,1,374.81,63l-2,1.29.8-3.18c-3.25,1.75-10.12,4.9-17.71,5.17l-.85,0-.12-.84a66.94,66.94,0,0,0-2.47-11.37c-1.67-4.92-5.17-9.62-7.85-12.73l2.3-.78-4.87-2-5.95,6.2a27.58,27.58,0,0,1-19.79,8.44c-.67,0-1.36,0-2-.08l-7.91-.58A27.33,27.33,0,0,1,286,41l-2.7-3.8L278,38.67,281,39.76c-2.58,3-7,8.67-9.45,14.35l0,0,0,0s-2,3.65-3.29,11l-.16.88L267.2,66a44.62,44.62,0,0,1-14.94-5l.8,3.19-2-1.29A77.74,77.74,0,0,1,232.5,46.28l-2.35,3.6-.7-1.61a39.82,39.82,0,0,0-10-13.26A9.51,9.51,0,0,0,213.39,33a12.9,12.9,0,0,0-12.56,11.81c-.93,10.12,16.27,16.08,16.45,16.14l2.79.94L215.9,63.1c6.91,4.82,18.95,12.9,19.08,13l1.66,1.12-2.88.86C252.14,87.39,262.79,87.66,264,87.66Zm68.69-32.48A4.82,4.82,0,1,1,327.87,60,4.82,4.82,0,0,1,332.68,55.18Zm-41.31,0A4.82,4.82,0,1,1,286.55,60,4.82,4.82,0,0,1,291.37,55.18Zm-5.5,16.93a3.28,3.28,0,0,1,4.54-.78,38.66,38.66,0,0,0,43.89.76l1.25-.82a3.25,3.25,0,0,1,3.57,5.44l-1.25.82a45.16,45.16,0,0,1-51.23-.89A3.25,3.25,0,0,1,285.87,72.11Z"/><path class="cls-1" d="M313.38,14.08a14.42,14.42,0,0,1,5.77,1.69L320,2.88a2.11,2.11,0,0,0-.12-.79,2.13,2.13,0,0,0-.42-.75A2.29,2.29,0,0,0,318,.56L310.44,0h-.18l-.14,0h-.05l-.16,0-.23,0-.05,0-.14,0-.21.09-.07,0-.1,0L309,.44l-.11.08-.07.06a.86.86,0,0,0-.13.14l-.11.12s0,0,0,.05-.07.11-.11.17l0,.05-.09.14a1.85,1.85,0,0,0-.09.23v0a1.12,1.12,0,0,1,0,.13h0a2.63,2.63,0,0,0-.07.42v.07L307.12,15a14.29,14.29,0,0,1,5.2-1C312.67,14,313,14.05,313.38,14.08Z"/><path class="cls-1" d="M290.07,38.16a22.4,22.4,0,0,0,16.66,9.4l7.9.58c.45,0,.94,0,1.5.06h.35c.72,0,1.38,0,2-.1l.22,0c.74-.08,1.41-.18,2.05-.31h0c.64-.13,1.3-.3,2-.52l.21-.06c.6-.19,1.21-.41,1.87-.69l.29-.12c.58-.25,1.17-.54,1.75-.85l.3-.16c.58-.33,1.14-.67,1.66-1l.26-.18c.59-.41,1.11-.81,1.6-1.22l.16-.15c.59-.5,1.09-1,1.56-1.46l6-6.22A4.19,4.19,0,0,0,339.52,33v0a2.89,2.89,0,0,0,.08-.47l.13-1.74v-.12h0a.34.34,0,0,0,0-.1.49.49,0,0,0,0-.12,2.32,2.32,0,0,0-2.47-1.92h0c-.66-7.06-2.82-12.85-6.43-17.22a23.48,23.48,0,0,0-5.9-5.11l-1,13.8a14.33,14.33,0,0,1,2.73,9.52A14.38,14.38,0,0,1,312.34,42.8c-.36,0-.73,0-1.08,0a14.34,14.34,0,0,1-11.9-20.55,14.44,14.44,0,0,1,2.4-3.54l1-14.3c-9.56,3.88-13.71,12.93-15.52,20.14h-.3a2.31,2.31,0,0,0-2.48,2.09s0,0,0,.06l-.13,1.75a4.18,4.18,0,0,0,.76,2.72Z"/><path class="cls-1" d="M405.87,128.37l-1.15,0-3.47.16-.82-3.38a43,43,0,0,0-39.52-32.86c-.91,0-1.67-.07-2.39-.07h-.35a44.27,44.27,0,0,0-5.35.37,42.77,42.77,0,0,0-28.55,16.54l-1.7,2.22-2.71-.7a34.45,34.45,0,0,0-38.48,16.06l-1.49,2.56-2.91-.53a24.9,24.9,0,0,0-11,.44,25.11,25.11,0,0,0-18.59,24.21A22.14,22.14,0,0,0,254.76,170c4.55,4.24,11.11,7.27,18.47,8.55A88.48,88.48,0,0,0,290.36,180a129.15,129.15,0,0,0,20.25-1.47c7.19-1,14.71-2.29,20.48-6.39l2.29-1.62,2.39,1.48A43.13,43.13,0,0,0,383,170.88l2.86-2,2.49,2.44a25.06,25.06,0,1,0,17.53-43Z"/><path class="cls-1" d="M311.55,38.91a10.36,10.36,0,0,0,8.61-17.1h0a10.29,10.29,0,0,0-7.08-3.56c-.26,0-.51,0-.77,0a10.36,10.36,0,0,0-.76,20.69Zm-3.83-15.86a7.14,7.14,0,0,1,10.06.74L307,33.11A7.13,7.13,0,0,1,307.72,23.05Z"/></g></g></svg>